<svg width="1368" height="523" viewBox="0 0 1368 523" fill="none" xmlns="http://www.w3.org/2000/svg">
<rect width="1368" height="523" fill="#0A53B5"/>
<rect width="39.062" height="36.9291" rx="5" transform="matrix(0.900169 0.435541 -0.8465 0.532389 158.462 0)" fill="#99D9F4"/>
<path d="M248.061 68.1038C249.979 66.3274 252.94 66.3274 254.858 68.1038L270.866 82.9359C274.202 86.0262 272.015 91.6036 267.468 91.6036H235.451C230.904 91.6036 228.717 86.0262 232.053 82.9359L248.061 68.1038Z" fill="#C0D474"/>
<ellipse cx="67.6432" cy="78.8346" rx="26.1666" ry="13.8793" fill="#FBA18B"/>
<path d="M174.894 379.61C173.89 376.902 178.063 374.696 182.493 375.592L232.825 385.774C237.354 386.69 238.749 390.147 235.321 391.959L196.393 412.544C192.965 414.356 187.323 413.145 186.297 410.377L174.894 379.61Z" fill="#99D9F4"/>
<rect width="52.1838" height="52.1457" rx="5" transform="matrix(0.909389 -0.415947 0.793558 0.608494 0 405.885)" fill="#A1B6ED"/>
<rect width="52.1838" height="52.1457" rx="5" transform="matrix(0.909389 -0.415947 0.793558 0.608494 231.083 467.51)" fill="#C0D474"/>
<ellipse cx="115.542" cy="492.07" rx="25.676" ry="14.621" fill="#FBA18B"/>
<path d="M1111.17 118.625C1113.09 116.848 1116.05 116.848 1117.96 118.625L1133.97 133.457C1137.31 136.547 1135.12 142.124 1130.57 142.124H1098.56C1094.01 142.124 1091.82 136.547 1095.16 133.457L1111.17 118.625Z" fill="#A1B6ED"/>
<path d="M1331.39 10.3658C1333.31 8.5894 1336.27 8.58939 1338.19 10.3657L1354.19 25.1979C1357.53 28.2882 1355.34 33.8656 1350.8 33.8656H1318.78C1314.23 33.8656 1312.05 28.2882 1315.38 25.1979L1331.39 10.3658Z" fill="#99D9F4"/>
<rect width="61.0585" height="38.1574" rx="5" transform="matrix(0.999653 -0.0263515 0.0863028 0.996269 1053.7 24.9264)" fill="#A1B6ED"/>
<ellipse cx="1291.2" cy="133.242" rx="26.1666" ry="13.8793" fill="#FBA18B"/>
<rect width="41.3531" height="32.4695" rx="5" transform="matrix(0.973803 0.227394 -0.554199 0.832384 1313.65 411.938)" fill="#C0D474"/>
<path d="M1047.11 480.384C1046.06 477.655 1050.29 475.422 1054.75 476.347L1097.11 485.13C1101.61 486.063 1102.97 489.501 1099.56 491.306L1067.15 508.442C1063.74 510.246 1058.13 509.055 1057.07 506.303L1047.11 480.384Z" fill="#99D9F4"/>
<path d="M1142.58 371.597C1142.58 379.672 1131.09 386.218 1116.91 386.218C1102.73 386.218 1091.23 379.672 1091.23 371.597C1091.23 363.522 1102.73 356.976 1116.91 356.976C1131.09 356.976 1142.58 363.522 1142.58 371.597Z" fill="#FBA18B"/>
</svg>
