<svg width="1368" height="475" viewBox="0 0 1368 475" fill="none" xmlns="http://www.w3.org/2000/svg">
<rect width="1368" height="475" fill="#0A53B5"/>
<rect width="38.4077" height="36.0008" rx="5" transform="matrix(0.915505 0.402307 -0.868326 0.495995 158.462 0)" fill="#99D9F4"/>
<path d="M248.24 61.7027C250.101 60.137 252.818 60.137 254.679 61.7027L269.733 74.3706C273.302 77.3739 271.178 83.1964 266.514 83.1964H236.405C231.741 83.1964 229.617 77.3739 233.186 74.3706L248.24 61.7027Z" fill="#C0D474"/>
<ellipse cx="67.6432" cy="71.5993" rx="26.1666" ry="12.6055" fill="#FBA18B"/>
<path d="M174.933 344.866C173.908 342.354 178.14 340.321 182.665 341.153L232.518 350.312C237.173 351.167 238.638 354.393 235.136 356.075L196.578 374.592C193.076 376.274 187.282 375.127 186.228 372.543L174.933 344.866Z" fill="#99D9F4"/>
<rect width="51.3872" height="50.4267" rx="5" transform="matrix(0.923487 -0.383629 0.82061 0.571488 0 368.634)" fill="#A1B6ED"/>
<rect width="51.3872" height="50.4267" rx="5" transform="matrix(0.923487 -0.383629 0.82061 0.571488 231.083 424.603)" fill="#C0D474"/>
<ellipse cx="115.542" cy="446.909" rx="25.676" ry="13.2791" fill="#FBA18B"/>
<path d="M1111.35 107.587C1113.21 106.021 1115.92 106.021 1117.79 107.587L1132.84 120.255C1136.41 123.258 1134.28 129.08 1129.62 129.08H1099.51C1094.85 129.08 1092.72 123.258 1096.29 120.255L1111.35 107.587Z" fill="#A1B6ED"/>
<path d="M1331.57 9.26388C1333.43 7.6982 1336.15 7.6982 1338.01 9.26388L1353.06 21.9318C1356.63 24.9351 1354.51 30.7575 1349.84 30.7575H1319.73C1315.07 30.7575 1312.95 24.9351 1316.51 21.9318L1331.57 9.26388Z" fill="#99D9F4"/>
<rect width="61.0548" height="34.6828" rx="5" transform="matrix(0.999714 -0.0239344 0.0949488 0.995482 1053.7 22.6387)" fill="#A1B6ED"/>
<ellipse cx="1291.2" cy="121.013" rx="26.1666" ry="12.6055" fill="#FBA18B"/>
<rect width="41.1654" height="30.4358" rx="5" transform="matrix(0.978242 0.207466 -0.591229 0.806504 1313.65 374.132)" fill="#C0D474"/>
<path d="M1047.15 436.393C1046.08 433.86 1050.37 431.804 1054.92 432.662L1096.81 440.548C1101.43 441.419 1102.86 444.628 1099.38 446.303L1067.34 461.69C1063.85 463.364 1058.08 462.236 1057 459.666L1047.15 436.393Z" fill="#99D9F4"/>
<path d="M1142.58 337.493C1142.58 344.827 1131.09 350.772 1116.91 350.772C1102.73 350.772 1091.23 344.827 1091.23 337.493C1091.23 330.159 1102.73 324.214 1116.91 324.214C1131.09 324.214 1142.58 330.159 1142.58 337.493Z" fill="#FBA18B"/>
</svg>
