<svg width="1368" height="467" viewBox="0 0 1368 467" fill="none" xmlns="http://www.w3.org/2000/svg">
<rect width="1368" height="467" fill="#0A53B5"/>
<rect width="38.3037" height="35.8526" rx="5" transform="matrix(0.917989 0.396605 -0.871915 0.489657 158.462 0)" fill="#99D9F4"/>
<path d="M248.272 60.6368C250.122 59.1068 252.797 59.1068 254.647 60.6368L269.521 72.9424C273.131 75.9291 271.019 81.795 266.334 81.795H236.585C231.9 81.795 229.788 75.9291 233.398 72.9424L248.272 60.6368Z" fill="#C0D474"/>
<ellipse cx="67.6432" cy="70.3932" rx="26.1666" ry="12.3932" fill="#FBA18B"/>
<path d="M174.939 339.073C173.91 336.595 178.152 334.592 182.693 335.412L232.467 344.403C237.143 345.248 238.62 348.433 235.105 350.092L196.609 368.269C193.094 369.928 187.275 368.793 186.216 366.241L174.939 339.073Z" fill="#99D9F4"/>
<rect width="51.2607" height="50.1509" rx="5" transform="matrix(0.925766 -0.378098 0.825123 0.564952 0 362.426)" fill="#A1B6ED"/>
<rect width="51.2607" height="50.1509" rx="5" transform="matrix(0.925766 -0.378098 0.825123 0.564952 231.083 417.451)" fill="#C0D474"/>
<ellipse cx="115.542" cy="439.382" rx="25.676" ry="13.0555" fill="#FBA18B"/>
<path d="M1111.38 105.749C1113.23 104.219 1115.9 104.219 1117.75 105.749L1132.63 118.054C1136.24 121.041 1134.13 126.907 1129.44 126.907H1099.69C1095.01 126.907 1092.89 121.041 1096.5 118.054L1111.38 105.749Z" fill="#A1B6ED"/>
<path d="M1331.6 9.08112C1333.45 7.55112 1336.13 7.55112 1337.98 9.08112L1352.85 21.3868C1356.46 24.3734 1354.35 30.2393 1349.66 30.2393H1319.91C1315.23 30.2393 1313.12 24.3734 1316.73 21.3868L1331.6 9.08112Z" fill="#99D9F4"/>
<rect width="61.0542" height="34.104" rx="5" transform="matrix(0.999723 -0.0235316 0.0965603 0.995327 1053.7 22.2573)" fill="#A1B6ED"/>
<ellipse cx="1291.2" cy="118.975" rx="26.1666" ry="12.3932" fill="#FBA18B"/>
<rect width="41.1358" height="30.1034" rx="5" transform="matrix(0.978946 0.204118 -0.597758 0.801676 1313.65 367.831)" fill="#C0D474"/>
<path d="M1047.16 429.058C1046.09 426.56 1050.38 424.533 1054.95 425.38L1096.75 433.119C1101.4 433.979 1102.84 437.148 1099.35 438.8L1067.37 453.899C1063.87 455.551 1058.08 454.434 1056.98 451.897L1047.16 429.058Z" fill="#99D9F4"/>
<path d="M1142.58 331.809C1142.58 339.019 1131.09 344.864 1116.91 344.864C1102.73 344.864 1091.23 339.019 1091.23 331.809C1091.23 324.599 1102.73 318.753 1116.91 318.753C1131.09 318.753 1142.58 324.599 1142.58 331.809Z" fill="#FBA18B"/>
</svg>
