<svg width="1374" height="1167" viewBox="0 0 1374 1167" fill="none" xmlns="http://www.w3.org/2000/svg">
<rect width="1374" height="1167" fill="#0A53B5"/>
<rect width="49.5536" height="51.9798" rx="5" transform="matrix(0.656788 0.754076 -0.556649 0.830748 142.282 0)" fill="#99D9F4"/>
<path d="M223.596 153.201C225.382 149.325 230.892 149.325 232.678 153.201L251.679 194.435C253.206 197.748 250.786 201.528 247.138 201.528H209.136C205.488 201.528 203.068 197.748 204.595 194.435L223.596 153.201Z" fill="#C0D474"/>
<ellipse cx="58.5823" cy="173.702" rx="24.2903" ry="30.3555" fill="#FBA18B"/>
<path d="M141.469 914.636C140.764 910.265 143.938 906.409 147.051 907.855L190.256 927.932C193.237 929.317 193.931 934.572 191.52 937.501L158.104 978.089C155.693 981.018 151.933 979.486 151.257 975.301L141.469 914.636Z" fill="#99D9F4"/>
<rect width="55.7471" height="67.8806" rx="5" transform="matrix(0.689421 -0.724361 0.493711 0.869626 0 964.555)" fill="#A1B6ED"/>
<rect width="55.7471" height="67.8806" rx="5" transform="matrix(0.689421 -0.724361 0.493711 0.869626 187.147 1079.2)" fill="#C0D474"/>
<ellipse cx="93.5767" cy="1124.89" rx="20.7945" ry="27.2007" fill="#FBA18B"/>
<path d="M1163.22 239.206C1165.02 235.386 1170.46 235.386 1172.26 239.206L1187.73 271.965C1189.3 275.282 1186.88 279.1 1183.21 279.1H1152.27C1148.6 279.1 1146.18 275.282 1147.75 271.965L1163.22 239.206Z" fill="#A1B6ED"/>
<path d="M1342.1 38.2429C1343.9 34.4232 1349.33 34.4232 1351.14 38.2429L1366.61 71.0024C1368.18 74.3192 1365.76 78.1376 1362.09 78.1376H1331.15C1327.48 78.1376 1325.06 74.3192 1326.63 71.0024L1342.1 38.2429Z" fill="#99D9F4"/>
<rect width="49.6673" height="70.6192" rx="5" transform="matrix(0.998194 -0.0600725 0.0379167 0.999281 1118.31 61.5415)" fill="#A1B6ED"/>
<ellipse cx="1311.22" cy="262.61" rx="21.2538" ry="25.7646" fill="#FBA18B"/>
<rect width="34.8015" height="49.6843" rx="5" transform="matrix(0.878596 0.477565 -0.274998 0.961445 1343.42 970.704)" fill="#C0D474"/>
<path d="M1140.97 1091.24C1140.24 1086.82 1143.43 1082.9 1146.53 1084.39L1180.24 1100.66C1183.17 1102.08 1183.84 1107.33 1181.45 1110.26L1155.67 1141.99C1153.29 1144.92 1149.58 1143.42 1148.89 1139.24L1140.97 1091.24Z" fill="#99D9F4"/>
<path d="M1213.53 899.405C1213.53 913.677 1204.81 925.247 1194.04 925.247C1183.27 925.247 1174.54 913.677 1174.54 899.405C1174.54 885.133 1183.27 873.564 1194.04 873.564C1204.81 873.564 1213.53 885.133 1213.53 899.405Z" fill="#FBA18B"/>
</svg>
