<svg width="1368" height="427" viewBox="0 0 1368 427" fill="none" xmlns="http://www.w3.org/2000/svg">
<rect width="1368" height="427" fill="#0A53B5"/>
<rect width="37.8066" height="35.1408" rx="5" transform="matrix(0.930062 0.367403 -0.889577 0.456785 158.462 0)" fill="#99D9F4"/>
<path d="M248.443 55.3141C250.228 53.9643 252.692 53.9643 254.476 55.3141L268.34 65.8016C272.164 68.6941 270.118 74.7892 265.324 74.7892H237.595C232.801 74.7892 230.755 68.6941 234.579 65.8016L248.443 55.3141Z" fill="#C0D474"/>
<ellipse cx="67.6432" cy="64.364" rx="26.1666" ry="11.3317" fill="#FBA18B"/>
<path d="M174.97 310.098C173.924 307.794 178.212 305.943 182.829 306.705L232.215 314.862C236.993 315.651 238.53 318.627 234.956 320.17L196.758 336.661C193.184 338.204 187.242 337.13 186.159 334.745L174.97 310.098Z" fill="#99D9F4"/>
<rect width="50.6564" height="48.8209" rx="5" transform="matrix(0.936811 -0.349837 0.847601 0.530634 0 331.383)" fill="#A1B6ED"/>
<rect width="50.6564" height="48.8209" rx="5" transform="matrix(0.936811 -0.349837 0.847601 0.530634 231.083 381.695)" fill="#C0D474"/>
<ellipse cx="115.542" cy="401.747" rx="25.676" ry="11.9372" fill="#FBA18B"/>
<path d="M1111.55 96.5614C1113.33 95.2116 1115.8 95.2116 1117.58 96.5614L1131.45 107.049C1135.27 109.941 1133.22 116.037 1128.43 116.037H1100.7C1095.91 116.037 1093.86 109.941 1097.69 107.049L1111.55 96.5614Z" fill="#A1B6ED"/>
<path d="M1331.77 8.17433C1333.56 6.82451 1336.02 6.82451 1337.8 8.17433L1351.67 18.6618C1355.49 21.5543 1353.45 27.6494 1348.65 27.6494H1320.92C1316.13 27.6494 1314.08 21.5543 1317.91 18.6618L1331.77 8.17433Z" fill="#99D9F4"/>
<rect width="61.0514" height="31.2114" rx="5" transform="matrix(0.999769 -0.021517 0.105509 0.994418 1053.7 20.351)" fill="#A1B6ED"/>
<ellipse cx="1291.2" cy="108.784" rx="26.1666" ry="11.3317" fill="#FBA18B"/>
<rect width="40.9951" height="28.4731" rx="5" transform="matrix(0.982307 0.187276 -0.631985 0.774981 1313.65 336.325)" fill="#C0D474"/>
<path d="M1047.19 392.377C1046.1 390.055 1050.44 388.181 1055.09 388.968L1096.51 395.979C1101.25 396.783 1102.76 399.743 1099.2 401.279L1067.51 414.958C1063.96 416.494 1058.04 415.437 1056.93 413.066L1047.19 392.377Z" fill="#99D9F4"/>
<path d="M1142.58 303.388C1142.58 309.981 1131.09 315.326 1116.91 315.326C1102.73 315.326 1091.23 309.981 1091.23 303.388C1091.23 296.796 1102.73 291.451 1116.91 291.451C1131.09 291.451 1142.58 296.796 1142.58 303.388Z" fill="#FBA18B"/>
</svg>
