<svg width="1365" height="1167" viewBox="0 0 1365 1167" fill="none" xmlns="http://www.w3.org/2000/svg">
<rect width="1365" height="1167" fill="#0A53B5"/>
<rect width="49.4138" height="51.8745" rx="5" transform="matrix(0.654331 0.756209 -0.554125 0.832433 141.351 0)" fill="#99D9F4"/>
<path d="M222.096 153.277C223.878 149.386 229.407 149.386 231.188 153.277L250.036 194.447C251.552 197.759 249.132 201.528 245.489 201.528H207.795C204.153 201.528 201.733 197.759 203.249 194.447L222.096 153.277Z" fill="#C0D474"/>
<ellipse cx="58.1986" cy="173.702" rx="24.1312" ry="30.3555" fill="#FBA18B"/>
<path d="M140.547 914.664C139.844 910.283 143.008 906.415 146.108 907.865L188.998 927.926C191.965 929.314 192.654 934.58 190.253 937.516L157.081 978.074C154.679 981.01 150.936 979.478 150.264 975.284L140.547 914.664Z" fill="#99D9F4"/>
<rect width="55.5738" height="67.7725" rx="5" transform="matrix(0.687041 -0.726619 0.491259 0.871013 0 964.555)" fill="#A1B6ED"/>
<rect width="55.5738" height="67.7725" rx="5" transform="matrix(0.687041 -0.726619 0.491259 0.871013 185.922 1079.2)" fill="#C0D474"/>
<ellipse cx="92.964" cy="1124.89" rx="20.6583" ry="27.2007" fill="#FBA18B"/>
<path d="M1155.56 239.28C1157.36 235.445 1162.82 235.445 1164.62 239.28L1179.96 271.976C1181.51 275.292 1179.09 279.1 1175.43 279.1H1144.75C1141.09 279.1 1138.67 275.292 1140.22 271.976L1155.56 239.28Z" fill="#A1B6ED"/>
<path d="M1333.27 38.3176C1335.07 34.4825 1340.52 34.4825 1342.32 38.3176L1357.66 71.0139C1359.22 74.3297 1356.8 78.1376 1353.14 78.1376H1322.46C1318.79 78.1376 1316.37 74.3297 1317.93 71.0139L1333.27 38.3176Z" fill="#99D9F4"/>
<rect width="49.3432" height="70.6186" rx="5" transform="matrix(0.998175 -0.0603795 0.0377235 0.999288 1110.98 61.5415)" fill="#A1B6ED"/>
<ellipse cx="1302.63" cy="262.61" rx="21.1146" ry="25.7646" fill="#FBA18B"/>
<rect width="34.6257" height="49.6598" rx="5" transform="matrix(0.877274 0.47999 -0.273332 0.96192 1334.62 970.704)" fill="#C0D474"/>
<path d="M1133.5 1091.27C1132.78 1086.84 1135.95 1082.9 1139.04 1084.4L1172.5 1100.65C1175.41 1102.07 1176.08 1107.33 1173.7 1110.27L1148.11 1141.98C1145.74 1144.91 1142.05 1143.41 1141.36 1139.23L1133.5 1091.27Z" fill="#99D9F4"/>
<path d="M1205.59 899.405C1205.59 913.677 1196.91 925.247 1186.22 925.247C1175.52 925.247 1166.85 913.677 1166.85 899.405C1166.85 885.133 1175.52 873.564 1186.22 873.564C1196.91 873.564 1205.59 885.133 1205.59 899.405Z" fill="#FBA18B"/>
</svg>
