<svg width="1368" height="568" viewBox="0 0 1368 568" fill="none" xmlns="http://www.w3.org/2000/svg">
<rect width="1368" height="568" fill="#0A53B5"/>
<rect width="37.1591" height="35.6601" rx="5" transform="matrix(0.872036 0.489443 -0.807853 0.589383 141.662 0)" fill="#99D9F4"/>
<path d="M223.501 73.6298C225.475 71.5359 228.804 71.536 230.778 73.6298L245.887 89.6583C248.894 92.8482 246.632 98.0879 242.249 98.0879H212.03C207.647 98.0879 205.385 92.8482 208.392 89.6583L223.501 73.6298Z" fill="#C0D474"/>
<ellipse cx="58.3269" cy="84.5446" rx="24.1843" ry="14.7746" fill="#FBA18B"/>
<path d="M141.393 446.815C140.42 443.865 144.507 441.438 148.805 442.414L186.154 450.898C190.513 451.889 191.816 455.625 188.491 457.6L159.604 474.753C156.279 476.727 150.843 475.444 149.855 472.452L141.393 446.815Z" fill="#99D9F4"/>
<rect width="43.0177" height="44.0324" rx="5" transform="matrix(0.889526 -0.456885 0.757785 0.652505 0 469.466)" fill="#A1B6ED"/>
<rect width="43.0177" height="44.0324" rx="5" transform="matrix(0.889526 -0.456885 0.757785 0.652505 186.33 525.266)" fill="#C0D474"/>
<ellipse cx="93.1685" cy="547.505" rx="20.7037" ry="13.2391" fill="#FBA18B"/>
<path d="M1159.04 115.489C1161.01 113.454 1164.27 113.454 1166.24 115.489L1177.71 127.37C1180.78 130.544 1178.53 135.844 1174.12 135.844H1151.16C1146.75 135.844 1144.5 130.544 1147.57 127.37L1159.04 115.489Z" fill="#A1B6ED"/>
<path d="M1337.14 17.6755C1339.11 15.6408 1342.37 15.6408 1344.33 17.6755L1355.81 29.5562C1358.88 32.73 1356.63 38.0302 1352.21 38.0302H1329.26C1324.85 38.0302 1322.6 32.73 1325.66 29.5562L1337.14 17.6755Z" fill="#99D9F4"/>
<rect width="49.3825" height="34.4502" rx="5" transform="matrix(0.999568 -0.029407 0.0773857 0.997001 1113.42 29.9536)" fill="#A1B6ED"/>
<ellipse cx="1305.49" cy="127.817" rx="21.161" ry="12.5401" fill="#FBA18B"/>
<rect width="31.4994" height="26.9372" rx="5" transform="matrix(0.966463 0.256807 -0.505006 0.863116 1337.55 472.459)" fill="#C0D474"/>
<path d="M1136.57 532.841C1135.55 529.84 1139.68 527.358 1143.99 528.375L1171.84 534.945C1176.15 535.962 1177.41 539.712 1174.11 541.696L1152.81 554.514C1149.51 556.498 1144.12 555.229 1143.11 552.229L1136.57 532.841Z" fill="#99D9F4"/>
<path d="M1208.23 437.757C1208.23 444.703 1199.54 450.334 1188.82 450.334C1178.1 450.334 1169.41 444.703 1169.41 437.757C1169.41 430.81 1178.1 425.179 1188.82 425.179C1199.54 425.179 1208.23 430.81 1208.23 437.757Z" fill="#FBA18B"/>
</svg>
