<svg width="1374" height="1088" viewBox="0 0 1374 1088" fill="none" xmlns="http://www.w3.org/2000/svg">
<rect width="1374" height="1088" fill="#0A53B5"/>
<rect width="47.675" height="49.578" rx="5" transform="matrix(0.682667 0.73073 -0.583615 0.81203 142.282 0)" fill="#99D9F4"/>
<path d="M223.655 142.711C225.49 138.999 230.784 138.999 232.619 142.711L251.381 180.67C253.024 183.993 250.606 187.886 246.899 187.886H209.375C205.668 187.886 203.25 183.993 204.893 180.67L223.655 142.711Z" fill="#C0D474"/>
<ellipse cx="58.5823" cy="161.943" rx="24.2903" ry="28.3006" fill="#FBA18B"/>
<path d="M141.534 853.095C140.798 848.842 144.089 845.115 147.337 846.522L189.918 864.969C193.046 866.324 193.794 871.461 191.278 874.31L158.345 911.605C155.829 914.453 151.89 912.931 151.181 908.836L141.534 853.095Z" fill="#99D9F4"/>
<rect width="53.8" height="64.4357" rx="5" transform="matrix(0.714372 -0.699766 0.520106 0.854102 0 899.26)" fill="#A1B6ED"/>
<rect width="53.8" height="64.4357" rx="5" transform="matrix(0.714372 -0.699766 0.520106 0.854102 187.147 1006.14)" fill="#C0D474"/>
<ellipse cx="93.5767" cy="1048.74" rx="20.7945" ry="25.3594" fill="#FBA18B"/>
<path d="M1163.28 222.893C1165.13 219.238 1170.35 219.238 1172.2 222.893L1187.42 252.947C1189.11 256.273 1186.69 260.207 1182.96 260.207H1152.51C1148.79 260.207 1146.37 256.273 1148.05 252.947L1163.28 222.893Z" fill="#A1B6ED"/>
<path d="M1342.16 35.5341C1344.01 31.88 1349.23 31.88 1351.08 35.5341L1366.3 65.5887C1367.99 68.9147 1365.57 72.8481 1361.84 72.8481H1331.39C1327.67 72.8481 1325.25 68.9147 1326.93 65.5887L1342.16 35.5341Z" fill="#99D9F4"/>
<rect width="49.6556" height="65.8458" rx="5" transform="matrix(0.99843 -0.0560192 0.0406654 0.999173 1118.31 57.3755)" fill="#A1B6ED"/>
<ellipse cx="1311.22" cy="244.833" rx="21.2538" ry="24.0205" fill="#FBA18B"/>
<rect width="34.2785" height="46.5838" rx="5" transform="matrix(0.892003 0.45203 -0.293302 0.95602 1343.42 904.992)" fill="#C0D474"/>
<path d="M1141.04 1017.76C1140.28 1013.45 1143.58 1009.66 1146.83 1011.12L1179.9 1026C1182.98 1027.39 1183.7 1032.52 1181.22 1035.37L1155.91 1064.41C1153.43 1067.26 1149.54 1065.76 1148.81 1061.68L1141.04 1017.76Z" fill="#99D9F4"/>
<path d="M1213.53 838.52C1213.53 851.826 1204.81 862.612 1194.04 862.612C1183.27 862.612 1174.54 851.826 1174.54 838.52C1174.54 825.214 1183.27 814.428 1194.04 814.428C1204.81 814.428 1213.53 825.214 1213.53 838.52Z" fill="#FBA18B"/>
</svg>
