<svg width="1368" height="933" viewBox="0 0 1368 933" fill="none" xmlns="http://www.w3.org/2000/svg">
<rect width="1368" height="933" fill="#0A53B5"/>
<rect width="44.0739" height="44.9642" rx="5" transform="matrix(0.735221 0.677828 -0.640691 0.767799 141.662 0)" fill="#99D9F4"/>
<path d="M222.803 122.16C224.724 118.812 229.555 118.812 231.476 122.16L249.536 153.63C251.448 156.963 249.042 161.119 245.199 161.119H209.08C205.237 161.119 202.831 156.963 204.743 153.63L222.803 122.16Z" fill="#C0D474"/>
<ellipse cx="58.3269" cy="138.872" rx="24.1843" ry="24.2688" fill="#FBA18B"/>
<path d="M141.054 732.251C140.254 728.271 143.777 724.835 147.307 726.152L188.336 741.462C191.775 742.745 192.646 747.603 189.914 750.267L158.181 781.219C155.45 783.883 151.129 782.389 150.35 778.512L141.054 732.251Z" fill="#99D9F4"/>
<rect width="50.0649" height="57.7984" rx="5" transform="matrix(0.764315 -0.644843 0.5773 0.816532 0 771.147)" fill="#A1B6ED"/>
<rect width="50.0649" height="57.7984" rx="5" transform="matrix(0.764315 -0.644843 0.5773 0.816532 186.33 862.805)" fill="#C0D474"/>
<ellipse cx="93.1685" cy="899.334" rx="20.7037" ry="21.7466" fill="#FBA18B"/>
<path d="M1158.33 190.916C1160.26 187.629 1165.02 187.629 1166.95 190.916L1181.47 215.602C1183.43 218.935 1181.02 223.137 1177.16 223.137H1148.12C1144.25 223.137 1141.85 218.935 1143.81 215.602L1158.33 190.916Z" fill="#A1B6ED"/>
<path d="M1336.43 30.2485C1338.36 26.9615 1343.11 26.9615 1345.05 30.2485L1359.57 54.9347C1361.53 58.2679 1359.12 62.4695 1355.26 62.4695H1326.22C1322.35 62.4695 1319.95 58.2679 1321.91 54.9347L1336.43 30.2485Z" fill="#99D9F4"/>
<rect width="49.4187" height="56.4814" rx="5" transform="matrix(0.998834 -0.0482687 0.0472006 0.998885 1113.42 49.2017)" fill="#A1B6ED"/>
<ellipse cx="1305.49" cy="209.953" rx="21.161" ry="20.5985" fill="#FBA18B"/>
<rect width="33.2164" height="40.5409" rx="5" transform="matrix(0.916503 0.400027 -0.335549 0.942023 1337.55 776.064)" fill="#C0D474"/>
<path d="M1136.2 873.482C1135.38 869.449 1138.92 865.948 1142.44 867.314L1174.01 879.546C1177.4 880.859 1178.23 885.719 1175.53 888.389L1151.39 912.253C1148.69 914.922 1144.42 913.452 1143.62 909.578L1136.2 873.482Z" fill="#99D9F4"/>
<path d="M1208.23 719.062C1208.23 730.472 1199.54 739.722 1188.82 739.722C1178.1 739.722 1169.41 730.472 1169.41 719.062C1169.41 707.652 1178.1 698.402 1188.82 698.402C1199.54 698.402 1208.23 707.652 1208.23 719.062Z" fill="#FBA18B"/>
</svg>
