<svg width="1368" height="1033" viewBox="0 0 1368 1033" fill="none" xmlns="http://www.w3.org/2000/svg">
<rect width="1368" height="1033" fill="#0A53B5"/>
<rect width="46.3042" height="47.864" rx="5" transform="matrix(0.699809 0.714331 -0.601875 0.79859 141.662 0)" fill="#99D9F4"/>
<path d="M222.701 135.452C224.566 131.853 229.714 131.853 231.579 135.452L250.049 171.087C251.775 174.415 249.359 178.388 245.61 178.388H208.67C204.921 178.388 202.505 174.415 204.231 171.087L222.701 135.452Z" fill="#C0D474"/>
<ellipse cx="58.3264" cy="153.757" rx="24.1843" ry="26.87" fill="#FBA18B"/>
<path d="M140.966 810.247C140.209 806.078 143.577 802.441 146.916 803.821L188.829 821.136C192.056 822.469 192.842 827.522 190.256 830.314L157.84 865.32C155.255 868.112 151.193 866.597 150.462 862.568L140.966 810.247Z" fill="#99D9F4"/>
<rect width="52.3631" height="61.9975" rx="5" transform="matrix(0.73077 -0.682624 0.5382 0.842817 0 853.801)" fill="#A1B6ED"/>
<rect width="52.3631" height="61.9975" rx="5" transform="matrix(0.73077 -0.682624 0.5382 0.842817 186.331 955.282)" fill="#C0D474"/>
<ellipse cx="93.1681" cy="995.726" rx="20.7037" ry="24.0774" fill="#FBA18B"/>
<path d="M1158.22 211.577C1160.1 208.038 1165.18 208.038 1167.06 211.577L1182 239.707C1183.77 243.037 1181.35 247.053 1177.58 247.053H1147.7C1143.93 247.053 1141.51 243.037 1143.28 239.707L1158.22 211.577Z" fill="#A1B6ED"/>
<path d="M1336.32 33.6903C1338.2 30.1511 1343.27 30.1511 1345.15 33.6903L1360.1 61.82C1361.86 65.1502 1359.45 69.1655 1355.68 69.1655H1325.79C1322.02 69.1655 1319.61 65.1502 1321.38 61.82L1336.32 33.6903Z" fill="#99D9F4"/>
<rect width="49.4317" height="62.5223" rx="5" transform="matrix(0.998572 -0.0534282 0.04264 0.99909 1113.42 54.475)" fill="#A1B6ED"/>
<ellipse cx="1305.49" cy="232.456" rx="21.161" ry="22.8062" fill="#FBA18B"/>
<rect width="33.8113" height="44.4181" rx="5" transform="matrix(0.900378 0.435109 -0.306259 0.951948 1337.55 859.244)" fill="#C0D474"/>
<path d="M1136.11 966.596C1135.33 962.375 1138.71 958.672 1142.04 960.102L1174.49 974.025C1177.67 975.388 1178.43 980.44 1175.87 983.236L1151.05 1010.4C1148.49 1013.2 1144.48 1011.71 1143.74 1007.68L1136.11 966.596Z" fill="#99D9F4"/>
<path d="M1208.23 796.132C1208.23 808.765 1199.54 819.006 1188.82 819.006C1178.1 819.006 1169.41 808.765 1169.41 796.132C1169.41 783.499 1178.1 773.257 1188.82 773.257C1199.54 773.257 1208.23 783.499 1208.23 796.132Z" fill="#FBA18B"/>
</svg>
