<svg width="1482" height="960" viewBox="0 0 1482 960" fill="none" xmlns="http://www.w3.org/2000/svg">
<rect width="1482" height="960" fill="#0A53B5"/>
<rect width="46.6605" height="47.2847" rx="5" transform="matrix(0.752336 0.65878 -0.66002 0.751248 153.467 0)" fill="#99D9F4"/>
<path d="M241.788 125.003C243.733 121.784 248.402 121.784 250.347 125.003L270.403 158.196C272.416 161.528 270.017 165.781 266.123 165.781H226.013C222.119 165.781 219.72 161.528 221.733 158.196L241.788 125.003Z" fill="#C0D474"/>
<ellipse cx="63.1874" cy="142.891" rx="26.1996" ry="24.9711" fill="#FBA18B"/>
<path d="M152.699 752.922C151.878 749.042 155.474 745.71 159.097 746.994L204.423 763.058C207.968 764.314 208.883 769.068 206.08 771.665L171.024 804.141C168.22 806.737 163.771 805.257 162.968 801.461L152.699 752.922Z" fill="#99D9F4"/>
<rect width="53.1216" height="60.537" rx="5" transform="matrix(0.780364 -0.625326 0.597117 0.802154 0 793.463)" fill="#A1B6ED"/>
<rect width="53.1216" height="60.537" rx="5" transform="matrix(0.780364 -0.625326 0.597117 0.802154 201.857 887.773)" fill="#C0D474"/>
<ellipse cx="100.932" cy="925.36" rx="22.429" ry="22.3759" fill="#FBA18B"/>
<path d="M1255.28 195.766C1257.23 192.609 1261.82 192.609 1263.78 195.766L1280 221.962C1282.06 225.293 1279.67 229.594 1275.75 229.594H1243.3C1239.39 229.594 1236.99 225.293 1239.05 221.962L1255.28 195.766Z" fill="#A1B6ED"/>
<path d="M1448.21 30.4491C1450.17 27.2922 1454.76 27.2922 1456.72 30.4491L1472.94 56.6453C1475 59.9762 1472.6 64.2776 1468.69 64.2776H1436.24C1432.33 64.2776 1429.93 59.9762 1431.99 56.6453L1448.21 30.4491Z" fill="#99D9F4"/>
<rect width="53.5309" height="58.123" rx="5" transform="matrix(0.998938 -0.0460675 0.0494557 0.998776 1206.21 50.6255)" fill="#A1B6ED"/>
<ellipse cx="1414.28" cy="216.029" rx="22.9244" ry="21.1946" fill="#FBA18B"/>
<rect width="35.7015" height="41.9682" rx="5" transform="matrix(0.923768 0.382953 -0.351149 0.93632 1449.02 798.523)" fill="#C0D474"/>
<path d="M1230.77 898.232C1229.92 894.299 1233.54 890.902 1237.16 892.234L1272.22 905.14C1275.72 906.425 1276.6 911.183 1273.83 913.786L1247 938.964C1244.23 941.567 1239.83 940.109 1239.01 936.315L1230.77 898.232Z" fill="#99D9F4"/>
<path d="M1308.92 739.87C1308.92 751.611 1299.51 761.128 1287.89 761.128C1276.28 761.128 1266.87 751.611 1266.87 739.87C1266.87 728.13 1276.28 718.612 1287.89 718.612C1299.51 718.612 1308.92 728.13 1308.92 739.87Z" fill="#FBA18B"/>
</svg>
