<svg width="1481" height="515" viewBox="0 0 1481 515" fill="none" xmlns="http://www.w3.org/2000/svg">
<rect width="1481" height="515" fill="#0A53B5"/>
<rect width="41.5903" height="38.9888" rx="5" transform="matrix(0.915284 0.402808 -0.868008 0.49655 171.551 0)" fill="#99D9F4"/>
<path d="M269.009 66.6771C270.871 65.1083 273.592 65.1083 275.453 66.6771L292.899 81.3791C296.465 84.3839 294.34 90.2025 289.677 90.2025H254.786C250.123 90.2025 247.998 84.3839 251.563 81.3791L269.009 66.6771Z" fill="#C0D474"/>
<ellipse cx="73.2309" cy="77.6288" rx="28.3281" ry="13.667" fill="#FBA18B"/>
<path d="M189.195 373.447C188.17 370.932 192.402 368.897 196.926 369.729L252.603 379.973C257.256 380.83 258.72 384.059 255.219 385.743L212.157 406.454C208.655 408.138 202.864 406.99 201.81 404.403L189.195 373.447Z" fill="#99D9F4"/>
<rect width="55.6441" height="54.6185" rx="5" transform="matrix(0.923285 -0.384115 0.820212 0.572059 0 399.677)" fill="#A1B6ED"/>
<rect width="55.6441" height="54.6185" rx="5" transform="matrix(0.923285 -0.384115 0.820212 0.572059 250.171 460.358)" fill="#C0D474"/>
<ellipse cx="125.086" cy="484.543" rx="27.7969" ry="14.3974" fill="#FBA18B"/>
<path d="M1203.41 116.425C1205.27 114.856 1207.99 114.856 1209.85 116.425L1227.3 131.127C1230.87 134.132 1228.74 139.95 1224.08 139.95H1189.19C1184.52 139.95 1182.4 134.132 1185.96 131.127L1203.41 116.425Z" fill="#A1B6ED"/>
<path d="M1441.82 9.82214C1443.68 8.25332 1446.41 8.25332 1448.27 9.82214L1465.71 24.5241C1469.28 27.5289 1467.15 33.3475 1462.49 33.3475H1427.6C1422.94 33.3475 1420.81 27.5289 1424.38 24.5241L1441.82 9.82214Z" fill="#99D9F4"/>
<rect width="66.0981" height="37.6029" rx="5" transform="matrix(0.999713 -0.02397 0.0948093 0.995496 1140.74 24.545)" fill="#A1B6ED"/>
<ellipse cx="1397.86" cy="131.203" rx="28.3281" ry="13.667" fill="#FBA18B"/>
<rect width="44.5687" height="32.9817" rx="5" transform="matrix(0.97818 0.20776 -0.590659 0.806922 1422.16 405.637)" fill="#C0D474"/>
<path d="M1133.45 472.673C1132.38 470.138 1136.66 468.079 1141.22 468.938L1188.27 477.811C1192.89 478.682 1194.33 481.895 1190.84 483.571L1154.85 500.883C1151.36 502.559 1145.6 501.43 1144.51 498.858L1133.45 472.673Z" fill="#99D9F4"/>
<path d="M1236.96 365.913C1236.96 373.865 1224.52 380.311 1209.17 380.311C1193.81 380.311 1181.37 373.865 1181.37 365.913C1181.37 357.962 1193.81 351.516 1209.17 351.516C1224.52 351.516 1236.96 357.962 1236.96 365.913Z" fill="#FBA18B"/>
</svg>
