<svg width="1482" height="1167" viewBox="0 0 1482 1167" fill="none" xmlns="http://www.w3.org/2000/svg">
<rect width="1482" height="1167" fill="#0A53B5"/>
<rect width="51.2701" height="53.2793" rx="5" transform="matrix(0.684696 0.72883 -0.585759 0.810485 153.466 0)" fill="#99D9F4"/>
<path d="M241.592 152.355C243.431 148.656 248.708 148.656 250.547 152.355L271.396 194.303C273.048 197.626 270.63 201.528 266.919 201.528H225.22C221.508 201.528 219.091 197.626 220.743 194.303L241.592 152.355Z" fill="#C0D474"/>
<ellipse cx="63.1879" cy="173.702" rx="26.1996" ry="30.3555" fill="#FBA18B"/>
<path d="M152.53 914.3C151.791 910.056 155.092 906.34 158.351 907.744L205.365 927.999C208.505 929.351 209.257 934.479 206.734 937.321L170.371 978.27C167.847 981.112 163.893 979.59 163.182 975.503L152.53 914.3Z" fill="#99D9F4"/>
<rect width="57.8712" height="69.2191" rx="5" transform="matrix(0.716318 -0.697774 0.52222 0.852811 0 964.555)" fill="#A1B6ED"/>
<rect width="57.8712" height="69.2191" rx="5" transform="matrix(0.716318 -0.697774 0.52222 0.852811 201.858 1079.2)" fill="#C0D474"/>
<ellipse cx="100.933" cy="1124.89" rx="22.429" ry="27.2007" fill="#FBA18B"/>
<path d="M1255.07 238.379C1256.93 234.738 1262.13 234.738 1263.98 238.379L1281.02 271.831C1282.72 275.157 1280.3 279.1 1276.57 279.1H1242.49C1238.75 279.1 1236.34 275.157 1238.03 271.831L1255.07 238.379Z" fill="#A1B6ED"/>
<path d="M1448.01 37.4159C1449.87 33.7752 1455.07 33.7751 1456.92 37.4159L1473.96 70.8681C1475.66 74.1947 1473.24 78.1376 1469.51 78.1376H1435.43C1431.69 78.1376 1429.28 74.1947 1430.97 70.8681L1448.01 37.4159Z" fill="#99D9F4"/>
<rect width="53.5579" height="70.6276" rx="5" transform="matrix(0.998434 -0.0559475 0.0407176 0.999171 1206.21 61.5415)" fill="#A1B6ED"/>
<ellipse cx="1414.28" cy="262.61" rx="22.9244" ry="25.7646" fill="#FBA18B"/>
<rect width="36.931" height="49.9903" rx="5" transform="matrix(0.893014 0.450029 -0.294798 0.95556 1449.02 970.704)" fill="#C0D474"/>
<path d="M1230.6 1090.9C1229.83 1086.61 1233.15 1082.82 1236.4 1084.28L1273.16 1100.73C1276.25 1102.11 1276.97 1107.23 1274.48 1110.08L1246.36 1142.17C1243.86 1145.01 1239.96 1143.52 1239.23 1139.44L1230.6 1090.9Z" fill="#99D9F4"/>
<path d="M1308.92 899.405C1308.92 913.677 1299.51 925.247 1287.89 925.247C1276.28 925.247 1266.87 913.677 1266.87 899.405C1266.87 885.133 1276.28 873.563 1287.89 873.563C1299.51 873.563 1308.92 885.133 1308.92 899.405Z" fill="#FBA18B"/>
</svg>
