<svg width="1487" height="503" viewBox="0 0 1487 503" fill="none" xmlns="http://www.w3.org/2000/svg">
<rect width="1487" height="503" fill="#0A53B5"/>
<rect width="41.5763" height="38.8866" rx="5" transform="matrix(0.919301 0.393554 -0.873817 0.486255 172.246 0)" fill="#99D9F4"/>
<path d="M270.164 65.0698C272.007 63.5588 274.661 63.5588 276.504 65.0698L293.782 79.2337C297.414 82.2112 295.308 88.1004 290.612 88.1004H256.056C251.359 88.1004 249.254 82.2112 252.886 79.2337L270.164 65.0698Z" fill="#C0D474"/>
<ellipse cx="73.5273" cy="75.8198" rx="28.4428" ry="13.3486" fill="#FBA18B"/>
<path d="M189.963 364.748C188.932 362.287 193.179 360.3 197.728 361.115L253.586 371.112C258.273 371.951 259.756 375.115 256.235 376.762L213.033 396.975C209.512 398.622 203.68 397.493 202.618 394.958L189.963 364.748Z" fill="#99D9F4"/>
<rect width="55.6475" height="54.3554" rx="5" transform="matrix(0.926968 -0.375141 0.827522 0.561434 0 390.364)" fill="#A1B6ED"/>
<rect width="55.6475" height="54.3554" rx="5" transform="matrix(0.926968 -0.375141 0.827522 0.561434 251.185 449.632)" fill="#C0D474"/>
<ellipse cx="125.593" cy="473.252" rx="27.9095" ry="14.0619" fill="#FBA18B"/>
<path d="M1208.35 113.659C1210.19 112.148 1212.85 112.148 1214.69 113.659L1231.97 127.823C1235.6 130.801 1233.49 136.69 1228.8 136.69H1194.24C1189.55 136.69 1187.44 130.801 1191.07 127.823L1208.35 113.659Z" fill="#A1B6ED"/>
<path d="M1447.73 9.53997C1449.57 8.029 1452.23 8.029 1454.07 9.53997L1471.35 23.7039C1474.98 26.6814 1472.87 32.5707 1468.18 32.5707H1433.62C1428.92 32.5707 1426.82 26.6814 1430.45 23.7039L1447.73 9.53997Z" fill="#99D9F4"/>
<rect width="66.3649" height="36.7361" rx="5" transform="matrix(0.999728 -0.0233173 0.0974396 0.995242 1145.36 23.9731)" fill="#A1B6ED"/>
<ellipse cx="1403.52" cy="128.146" rx="28.4428" ry="13.3486" fill="#FBA18B"/>
<rect width="44.6973" height="32.5308" rx="5" transform="matrix(0.979316 0.202335 -0.601272 0.799044 1427.92 396.186)" fill="#C0D474"/>
<path d="M1138.05 461.662C1136.97 459.182 1141.27 457.171 1145.85 458.012L1193.05 466.67C1197.7 467.524 1199.15 470.672 1195.65 472.312L1159.54 489.204C1156.04 490.844 1150.23 489.733 1149.14 487.213L1138.05 461.662Z" fill="#99D9F4"/>
<path d="M1241.97 357.387C1241.97 365.153 1229.48 371.448 1214.06 371.448C1198.65 371.448 1186.16 365.153 1186.16 357.387C1186.16 349.62 1198.65 343.325 1214.06 343.325C1229.48 343.325 1241.97 349.62 1241.97 357.387Z" fill="#FBA18B"/>
</svg>
