<svg width="1487" height="523" viewBox="0 0 1487 523" fill="none" xmlns="http://www.w3.org/2000/svg">
<rect width="1487" height="523" fill="#0A53B5"/>
<rect width="41.8366" height="39.2577" rx="5" transform="matrix(0.913581 0.406656 -0.865557 0.50081 172.246 0)" fill="#99D9F4"/>
<path d="M270.09 67.7199C271.959 66.1269 274.708 66.1269 276.577 67.7199L294.268 82.7984C297.806 85.8141 295.673 91.6036 291.024 91.6036H255.644C250.995 91.6036 248.862 85.8141 252.4 82.7984L270.09 67.7199Z" fill="#C0D474"/>
<ellipse cx="73.5273" cy="78.8346" rx="28.4428" ry="13.8793" fill="#FBA18B"/>
<path d="M189.948 379.215C188.926 376.677 193.15 374.621 197.664 375.461L253.703 385.89C258.342 386.754 259.798 390.01 256.306 391.709L212.963 412.793C209.47 414.493 203.696 413.337 202.645 410.728L189.948 379.215Z" fill="#99D9F4"/>
<rect width="55.9642" height="55.0458" rx="5" transform="matrix(0.921723 -0.38785 0.817143 0.576435 0 405.885)" fill="#A1B6ED"/>
<rect width="55.9642" height="55.0458" rx="5" transform="matrix(0.921723 -0.38785 0.817143 0.576435 251.185 467.51)" fill="#C0D474"/>
<ellipse cx="125.593" cy="492.07" rx="27.9095" ry="14.621" fill="#FBA18B"/>
<path d="M1208.28 118.241C1210.15 116.648 1212.89 116.648 1214.76 118.241L1232.45 133.319C1235.99 136.335 1233.86 142.124 1229.21 142.124H1193.83C1189.18 142.124 1187.05 136.335 1190.59 133.319L1208.28 118.241Z" fill="#A1B6ED"/>
<path d="M1447.66 9.9819C1449.52 8.3889 1452.27 8.3889 1454.14 9.9819L1471.83 25.0603C1475.37 28.076 1473.24 33.8656 1468.59 33.8656H1433.21C1428.56 33.8656 1426.43 28.076 1429.97 25.0603L1447.66 9.9819Z" fill="#99D9F4"/>
<rect width="66.3663" height="38.1832" rx="5" transform="matrix(0.999706 -0.0242439 0.0937468 0.995596 1145.36 24.9264)" fill="#A1B6ED"/>
<ellipse cx="1403.52" cy="133.242" rx="28.4428" ry="13.8793" fill="#FBA18B"/>
<rect width="44.7714" height="33.3624" rx="5" transform="matrix(0.977694 0.210032 -0.586284 0.810106 1427.92 411.938)" fill="#C0D474"/>
<path d="M1138.03 479.982C1136.96 477.423 1141.24 475.344 1145.78 476.211L1193.16 485.248C1197.77 486.127 1199.2 489.366 1195.72 491.058L1159.47 508.689C1156 510.381 1150.25 509.244 1149.17 506.65L1138.03 479.982Z" fill="#99D9F4"/>
<path d="M1241.97 371.597C1241.97 379.672 1229.48 386.218 1214.06 386.218C1198.65 386.218 1186.16 379.672 1186.16 371.597C1186.16 363.522 1198.65 356.976 1214.06 356.976C1229.48 356.976 1241.97 363.522 1241.97 371.597Z" fill="#FBA18B"/>
</svg>
