<svg width="1480" height="632" viewBox="0 0 1480 632" fill="none" xmlns="http://www.w3.org/2000/svg">
<rect width="1480" height="632" fill="#0A53B5"/>
<rect width="40.4785" height="38.9648" rx="5" transform="matrix(0.866064 0.499933 -0.799869 0.600174 153.258 0)" fill="#99D9F4"/>
<path d="M242.051 81.6525C244.032 79.4903 247.441 79.4903 249.423 81.6525L266.937 100.761C269.876 103.968 267.601 109.14 263.251 109.14H228.223C223.873 109.14 221.597 103.968 224.537 100.761L242.051 81.6525Z" fill="#C0D474"/>
<ellipse cx="63.1023" cy="94.0702" rx="26.1643" ry="16.4393" fill="#FBA18B"/>
<path d="M152.779 496.563C151.813 493.553 155.877 491.071 160.141 492.067L202.31 501.919C206.625 502.927 207.905 506.732 204.607 508.746L171.991 528.664C168.693 530.678 163.311 529.379 162.333 526.333L152.779 496.563Z" fill="#99D9F4"/>
<rect width="46.8194" height="48.2195" rx="5" transform="matrix(0.884212 -0.467087 0.748635 0.662982 0 522.366)" fill="#A1B6ED"/>
<rect width="46.8194" height="48.2195" rx="5" transform="matrix(0.884212 -0.467087 0.748635 0.662982 201.584 584.452)" fill="#C0D474"/>
<ellipse cx="100.796" cy="609.196" rx="22.3987" ry="14.7308" fill="#FBA18B"/>
<path d="M1254.18 128.239C1256.16 126.137 1259.5 126.137 1261.47 128.239L1275.08 142.726C1278.08 145.918 1275.81 151.149 1271.44 151.149H1244.22C1239.84 151.149 1237.58 145.918 1240.58 142.726L1254.18 128.239Z" fill="#A1B6ED"/>
<path d="M1446.86 19.4052C1448.84 17.3029 1452.17 17.3029 1454.15 19.4052L1467.76 33.8921C1470.76 37.0842 1468.49 42.3153 1464.11 42.3153H1436.9C1432.52 42.3153 1430.25 37.0842 1433.25 33.8921L1446.86 19.4052Z" fill="#99D9F4"/>
<rect width="53.4257" height="38.3244" rx="5" transform="matrix(0.999532 -0.030575 0.0744436 0.997225 1204.58 33.3286)" fill="#A1B6ED"/>
<ellipse cx="1412.37" cy="142.219" rx="22.8935" ry="13.9531" fill="#FBA18B"/>
<rect width="34.1431" height="29.7629" rx="5" transform="matrix(0.964627 0.263618 -0.49448 0.869189 1447.06 525.694)" fill="#C0D474"/>
<path d="M1229.42 592.263C1228.41 589.202 1232.51 586.665 1236.79 587.702L1268.68 595.44C1272.94 596.474 1274.18 600.292 1270.91 602.315L1246.52 617.412C1243.25 619.436 1237.91 618.151 1236.91 615.097L1229.42 592.263Z" fill="#99D9F4"/>
<path d="M1307.15 487.082C1307.15 494.811 1297.75 501.077 1286.15 501.077C1274.56 501.077 1265.15 494.811 1265.15 487.082C1265.15 479.353 1274.56 473.087 1286.15 473.087C1297.75 473.087 1307.15 479.353 1307.15 487.082Z" fill="#FBA18B"/>
</svg>
