<svg width="1583" height="676" viewBox="0 0 1583 676" fill="none" xmlns="http://www.w3.org/2000/svg">
<rect width="1583" height="676" fill="#0A53B5"/>
<rect width="43.2959" height="41.6769" rx="5" transform="matrix(0.866059 0.499942 -0.799862 0.600184 163.925 0)" fill="#99D9F4"/>
<path d="M259.152 87.0574C261.134 84.8952 264.543 84.8952 266.524 87.0574L286.048 108.36C288.988 111.567 286.713 116.738 282.362 116.738H243.314C238.964 116.738 236.689 111.567 239.628 108.36L259.152 87.0574Z" fill="#C0D474"/>
<ellipse cx="67.4935" cy="100.619" rx="27.9852" ry="17.5838" fill="#FBA18B"/>
<path d="M163.261 530.665C162.295 527.655 166.359 525.173 170.622 526.169L217.068 537.021C221.382 538.029 222.662 541.834 219.365 543.848L183.442 565.786C180.144 567.8 174.761 566.501 173.784 563.455L163.261 530.665Z" fill="#99D9F4"/>
<rect width="50.078" height="51.5759" rx="5" transform="matrix(0.884207 -0.467096 0.748628 0.662991 0 558.732)" fill="#A1B6ED"/>
<rect width="50.078" height="51.5759" rx="5" transform="matrix(0.884207 -0.467096 0.748628 0.662991 215.615 625.142)" fill="#C0D474"/>
<ellipse cx="107.811" cy="651.608" rx="23.9576" ry="15.7564" fill="#FBA18B"/>
<path d="M1341.72 136.897C1343.7 134.795 1347.03 134.795 1349.01 136.897L1364.37 153.249C1367.37 156.441 1365.1 161.672 1360.72 161.672H1330.01C1325.63 161.672 1323.36 156.441 1326.36 153.249L1341.72 136.897Z" fill="#A1B6ED"/>
<path d="M1547.81 20.4869C1549.78 18.3845 1553.12 18.3845 1555.1 20.4869L1570.46 36.8388C1573.45 40.0309 1571.19 45.262 1566.81 45.262H1536.09C1531.71 45.262 1529.45 40.0309 1532.45 36.8388L1547.81 20.4869Z" fill="#99D9F4"/>
<rect width="57.1438" height="40.9927" rx="5" transform="matrix(0.999536 -0.0304518 0.0747434 0.997203 1288.41 35.6489)" fill="#A1B6ED"/>
<ellipse cx="1510.67" cy="152.12" rx="24.4867" ry="14.9245" fill="#FBA18B"/>
<rect width="36.5194" height="31.8348" rx="5" transform="matrix(0.964626 0.263623 -0.494471 0.869194 1547.77 562.293)" fill="#C0D474"/>
<path d="M1314.82 633.016C1313.82 629.955 1317.92 627.418 1322.19 628.455L1357.64 637.056C1361.9 638.091 1363.14 641.908 1359.87 643.932L1332.76 660.713C1329.49 662.737 1324.15 661.452 1323.15 658.398L1314.82 633.016Z" fill="#99D9F4"/>
<path d="M1398.13 520.993C1398.13 529.26 1388.07 535.962 1375.66 535.962C1363.26 535.962 1353.2 529.26 1353.2 520.993C1353.2 512.725 1363.26 506.023 1375.66 506.023C1388.07 506.023 1398.13 512.725 1398.13 520.993Z" fill="#FBA18B"/>
</svg>
