<svg width="1514" height="1167" viewBox="0 0 1514 1167" fill="none" xmlns="http://www.w3.org/2000/svg">
<rect width="1514" height="1167" fill="#0A53B5"/>
<rect width="51.792" height="53.6768" rx="5" transform="matrix(0.692431 0.721485 -0.593976 0.804483 156.78 0)" fill="#99D9F4"/>
<path d="M246.925 152.127C248.777 148.478 253.988 148.478 255.841 152.127L277.237 194.264C278.926 197.591 276.509 201.528 272.779 201.528H229.987C226.256 201.528 223.84 197.591 225.529 194.264L246.925 152.127Z" fill="#C0D474"/>
<ellipse cx="64.5515" cy="173.702" rx="26.7653" ry="30.3555" fill="#FBA18B"/>
<path d="M155.806 914.201C155.058 909.996 158.393 906.32 161.693 907.712L209.847 928.019C213.031 929.362 213.801 934.451 211.246 937.268L174.002 978.323C171.446 981.14 167.437 979.621 166.716 975.564L155.806 914.201Z" fill="#99D9F4"/>
<rect width="58.5157" height="69.6299" rx="5" transform="matrix(0.723725 -0.690089 0.530349 0.847779 0 964.555)" fill="#A1B6ED"/>
<rect width="58.5157" height="69.6299" rx="5" transform="matrix(0.723725 -0.690089 0.530349 0.847779 206.216 1079.2)" fill="#C0D474"/>
<ellipse cx="103.112" cy="1124.89" rx="22.9133" ry="27.2007" fill="#FBA18B"/>
<path d="M1282.29 238.155C1284.16 234.566 1289.29 234.566 1291.16 238.155L1308.66 271.792C1310.39 275.121 1307.98 279.1 1304.23 279.1H1269.22C1265.47 279.1 1263.05 275.121 1264.78 271.792L1282.29 238.155Z" fill="#A1B6ED"/>
<path d="M1479.39 37.1928C1481.26 33.6036 1486.4 33.6036 1488.26 37.1928L1505.77 70.8295C1507.5 74.1581 1505.08 78.1376 1501.33 78.1376H1466.32C1462.57 78.1376 1460.16 74.1581 1461.89 70.8295L1479.39 37.1928Z" fill="#99D9F4"/>
<rect width="54.7107" height="70.6302" rx="5" transform="matrix(0.998499 -0.0547686 0.0415953 0.999135 1232.25 61.5415)" fill="#A1B6ED"/>
<ellipse cx="1444.82" cy="262.61" rx="23.4194" ry="25.7646" fill="#FBA18B"/>
<rect width="37.5683" height="50.0851" rx="5" transform="matrix(0.89682 0.442395 -0.300594 0.953752 1480.3 970.704)" fill="#C0D474"/>
<path d="M1257.15 1090.8C1256.37 1086.55 1259.72 1082.8 1263.02 1084.25L1300.69 1100.75C1303.83 1102.12 1304.57 1107.21 1302.04 1110.03L1273.22 1142.22C1270.7 1145.04 1266.74 1143.55 1266 1139.5L1257.15 1090.8Z" fill="#99D9F4"/>
<path d="M1337.18 899.405C1337.18 913.677 1327.57 925.247 1315.7 925.247C1303.84 925.247 1294.22 913.677 1294.22 899.405C1294.22 885.133 1303.84 873.563 1315.7 873.563C1327.57 873.563 1337.18 885.133 1337.18 899.405Z" fill="#FBA18B"/>
</svg>
