<svg width="1583" height="1325" viewBox="0 0 1583 1325" fill="none" xmlns="http://www.w3.org/2000/svg">
<rect width="1583" height="1325" fill="#0A53B5"/>
<rect width="56.6215" height="59.288" rx="5" transform="matrix(0.662236 0.749296 -0.562268 0.826955 163.925 0)" fill="#99D9F4"/>
<path d="M258.309 172.441C260.106 168.598 265.571 168.598 267.368 172.441L290.399 221.695C291.949 225.01 289.529 228.813 285.87 228.813H239.807C236.147 228.813 233.728 225.01 235.278 221.695L258.309 172.441Z" fill="#C0D474"/>
<ellipse cx="67.4935" cy="197.22" rx="27.9852" ry="34.4653" fill="#FBA18B"/>
<path d="M162.753 1037.03C162.042 1032.69 165.241 1028.86 168.382 1030.29L220.132 1053.99C223.143 1055.37 223.849 1060.6 221.416 1063.52L181.391 1111.43C178.958 1114.34 175.16 1112.81 174.478 1108.64L162.753 1037.03Z" fill="#99D9F4"/>
<rect width="63.7394" height="77.3491" rx="5" transform="matrix(0.694693 -0.719307 0.49918 0.866498 0 1095.15)" fill="#A1B6ED"/>
<rect width="63.7394" height="77.3491" rx="5" transform="matrix(0.694693 -0.719307 0.49918 0.866498 215.615 1225.31)" fill="#C0D474"/>
<ellipse cx="107.811" cy="1277.19" rx="23.9576" ry="30.8834" fill="#FBA18B"/>
<path d="M1340.86 270.131C1342.67 266.345 1348.06 266.345 1349.87 270.131L1368.85 309.727C1370.44 313.046 1368.02 316.888 1364.34 316.888H1326.39C1322.71 316.888 1320.29 313.046 1321.88 309.727L1340.86 270.131Z" fill="#A1B6ED"/>
<path d="M1546.94 41.9601C1548.76 38.1745 1554.15 38.1745 1555.96 41.9601L1574.94 81.5558C1576.53 84.8748 1574.11 88.7166 1570.43 88.7166H1532.48C1528.8 88.7166 1526.38 84.8748 1527.97 81.5558L1546.94 41.9601Z" fill="#99D9F4"/>
<rect width="57.2191" height="80.182" rx="5" transform="matrix(0.998222 -0.0596089 0.0382123 0.99927 1288.41 69.8736)" fill="#A1B6ED"/>
<ellipse cx="1510.67" cy="298.165" rx="24.4867" ry="29.2529" fill="#FBA18B"/>
<rect width="39.9632" height="56.4743" rx="5" transform="matrix(0.881497 0.472189 -0.278736 0.960368 1547.77 1102.13)" fill="#C0D474"/>
<path d="M1314.28 1237.52C1313.54 1233.12 1316.76 1229.22 1319.89 1230.71L1360.68 1250.11C1363.64 1251.52 1364.32 1256.75 1361.92 1259.67L1330.71 1297.52C1328.31 1300.43 1324.56 1298.93 1323.87 1294.77L1314.28 1237.52Z" fill="#99D9F4"/>
<path d="M1398.13 1021.18C1398.13 1037.38 1388.07 1050.52 1375.66 1050.52C1363.26 1050.52 1353.2 1037.38 1353.2 1021.18C1353.2 1004.97 1363.26 991.835 1375.66 991.835C1388.07 991.835 1398.13 1004.97 1398.13 1021.18Z" fill="#FBA18B"/>
</svg>
