<svg width="1583" height="541" viewBox="0 0 1583 541" fill="none" xmlns="http://www.w3.org/2000/svg">
<rect width="1583" height="541" fill="#0A53B5"/>
<rect width="44.3315" height="41.4985" rx="5" transform="matrix(0.917828 0.396979 -0.871682 0.490073 183.366 0)" fill="#99D9F4"/>
<path d="M287.791 69.8324C289.641 68.3001 292.319 68.3001 294.169 69.8324L313.576 85.9056C317.183 88.8934 315.071 94.7564 310.387 94.7564H271.573C266.889 94.7564 264.777 88.8934 268.384 85.9056L287.791 69.8324Z" fill="#C0D474"/>
<ellipse cx="78.2742" cy="81.5479" rx="30.2791" ry="14.357" fill="#FBA18B"/>
<path d="M202.076 391.94C201.048 389.459 205.289 387.455 209.829 388.276L270.676 399.279C275.35 400.124 276.827 403.312 273.313 404.973L226.252 427.218C222.738 428.879 216.921 427.742 215.862 425.188L202.076 391.94Z" fill="#99D9F4"/>
<rect width="59.3234" height="58.0474" rx="5" transform="matrix(0.925701 -0.378256 0.824995 0.565139 0 419.855)" fill="#A1B6ED"/>
<rect width="59.3266" height="58.0535" rx="5" transform="matrix(0.925617 -0.37846 0.824829 0.565382 267.401 483.6)" fill="#C0D474"/>
<ellipse cx="133.702" cy="509.005" rx="29.7114" ry="15.1242" fill="#FBA18B"/>
<path d="M1286.55 122.092C1288.4 120.56 1291.08 120.56 1292.93 122.092L1312.33 138.165C1315.94 141.153 1313.83 147.016 1309.14 147.016H1270.33C1265.65 147.016 1263.53 141.153 1267.14 138.165L1286.55 122.092Z" fill="#A1B6ED"/>
<path d="M1541.38 10.1071C1543.23 8.57473 1545.91 8.57473 1547.76 10.1071L1567.16 26.1803C1570.77 29.168 1568.66 35.031 1563.98 35.031H1525.16C1520.48 35.031 1518.37 29.168 1521.97 26.1803L1541.38 10.1071Z" fill="#99D9F4"/>
<rect width="70.6498" height="39.5076" rx="5" transform="matrix(0.999722 -0.0235579 0.0964535 0.995338 1219.31 25.7842)" fill="#A1B6ED"/>
<ellipse cx="1494.14" cy="137.827" rx="30.2791" ry="14.357" fill="#FBA18B"/>
<rect width="47.6031" height="34.8596" rx="5" transform="matrix(0.978901 0.204337 -0.597329 0.801996 1520.1 426.116)" fill="#C0D474"/>
<path d="M1211.36 496.17C1210.29 493.669 1214.58 491.641 1219.15 492.488L1270.78 502.057C1275.42 502.918 1276.87 506.09 1273.37 507.743L1233.87 526.412C1230.38 528.066 1224.59 526.948 1223.49 524.409L1211.36 496.17Z" fill="#99D9F4"/>
<path d="M1322.16 384.386C1322.16 392.739 1308.85 399.511 1292.44 399.511C1276.03 399.511 1262.73 392.739 1262.73 384.386C1262.73 376.034 1276.03 369.262 1292.44 369.262C1308.85 369.262 1322.16 376.034 1322.16 384.386Z" fill="#FBA18B"/>
</svg>
