<svg width="1583" height="1183" viewBox="0 0 1583 1183" fill="none" xmlns="http://www.w3.org/2000/svg">
<rect width="1583" height="1183" fill="#0A53B5"/>
<rect width="53.2997" height="55.0222" rx="5" transform="matrix(0.703508 0.710688 -0.60586 0.795571 163.925 0)" fill="#99D9F4"/>
<path d="M258.409 153.77C260.281 150.196 265.396 150.196 267.268 153.77L289.894 196.972C291.637 200.301 289.222 204.291 285.464 204.291H240.212C236.454 204.291 234.039 200.301 235.783 196.972L258.409 153.77Z" fill="#C0D474"/>
<ellipse cx="67.4935" cy="176.084" rx="27.9852" ry="30.7717" fill="#FBA18B"/>
<path d="M162.857 926.458C162.096 922.308 165.48 918.691 168.839 920.065L219.585 940.813C222.833 942.141 223.628 947.175 221.028 949.954L181.779 991.9C179.178 994.679 175.09 993.167 174.354 989.153L162.857 926.458Z" fill="#99D9F4"/>
<rect width="60.3017" height="71.2156" rx="5" transform="matrix(0.734296 -0.67883 0.542173 0.840267 0 977.78)" fill="#A1B6ED"/>
<rect width="60.3017" height="71.2156" rx="5" transform="matrix(0.734296 -0.67883 0.542173 0.840267 215.615 1094)" fill="#C0D474"/>
<ellipse cx="107.811" cy="1140.31" rx="23.9576" ry="27.5736" fill="#FBA18B"/>
<path d="M1340.96 240.988C1342.85 237.475 1347.88 237.475 1349.77 240.988L1368.33 275.562C1370.12 278.893 1367.7 282.927 1363.92 282.927H1326.81C1323.03 282.927 1320.61 278.893 1322.4 275.562L1340.96 240.988Z" fill="#A1B6ED"/>
<path d="M1547.05 37.2704C1548.93 33.7566 1553.97 33.7566 1555.86 37.2704L1574.41 71.8442C1576.2 75.1752 1573.79 79.2088 1570.01 79.2088H1532.9C1529.11 79.2088 1526.7 75.1752 1528.49 71.8442L1547.05 37.2704Z" fill="#99D9F4"/>
<rect width="57.1985" height="71.6022" rx="5" transform="matrix(0.998582 -0.0532398 0.0427911 0.999084 1288.41 62.3853)" fill="#A1B6ED"/>
<ellipse cx="1510.67" cy="266.21" rx="24.4867" ry="26.1179" fill="#FBA18B"/>
<rect width="39.049" height="50.918" rx="5" transform="matrix(0.902135 0.431454 -0.309152 0.951013 1547.77 984.013)" fill="#C0D474"/>
<path d="M1314.39 1105.48C1313.6 1101.28 1317 1097.59 1320.36 1099.02L1360.14 1115.91C1363.34 1117.27 1364.1 1122.3 1361.53 1125.08L1331.1 1158.04C1328.53 1160.83 1324.49 1159.34 1323.74 1155.33L1314.39 1105.48Z" fill="#99D9F4"/>
<path d="M1398.13 911.737C1398.13 926.204 1388.07 937.933 1375.66 937.933C1363.26 937.933 1353.2 926.204 1353.2 911.737C1353.2 897.269 1363.26 885.541 1375.66 885.541C1388.07 885.541 1398.13 897.269 1398.13 911.737Z" fill="#FBA18B"/>
</svg>
