<svg width="1583" height="961" viewBox="0 0 1583 961" fill="none" xmlns="http://www.w3.org/2000/svg">
<rect width="1583" height="961" fill="#0A53B5"/>
<rect width="48.5064" height="48.7417" rx="5" transform="matrix(0.773028 0.634372 -0.683927 0.72955 163.925 0)" fill="#99D9F4"/>
<path d="M258.636 124.561C260.605 121.507 265.071 121.507 267.041 124.561L288.757 158.245C290.902 161.572 288.513 165.954 284.555 165.954H241.122C237.163 165.954 234.775 161.572 236.92 158.245L258.636 124.561Z" fill="#C0D474"/>
<ellipse cx="67.4935" cy="143.04" rx="27.9852" ry="24.9971" fill="#FBA18B"/>
<path d="M163.031 753.371C162.184 749.621 165.869 746.421 169.606 747.663L218.588 763.932C222.264 765.152 223.236 769.77 220.346 772.28L182.461 805.171C179.57 807.68 174.961 806.22 174.128 802.531L163.031 753.371Z" fill="#99D9F4"/>
<rect width="55.3752" height="62.079" rx="5" transform="matrix(0.799624 -0.600502 0.621967 0.783043 0 794.292)" fill="#A1B6ED"/>
<rect width="55.3752" height="62.079" rx="5" transform="matrix(0.799624 -0.600502 0.621967 0.783043 215.615 888.699)" fill="#C0D474"/>
<ellipse cx="107.811" cy="926.324" rx="23.9576" ry="22.3992" fill="#FBA18B"/>
<path d="M1341.19 195.411C1343.17 192.419 1347.56 192.419 1349.54 195.411L1367.16 222.077C1369.35 225.401 1366.97 229.833 1362.98 229.833H1327.75C1323.76 229.833 1321.38 225.401 1323.57 222.077L1341.19 195.411Z" fill="#A1B6ED"/>
<path d="M1547.28 29.9221C1549.26 26.9305 1553.65 26.9305 1555.62 29.9221L1573.24 56.588C1575.44 59.9121 1573.06 64.3444 1569.07 64.3444H1533.83C1529.85 64.3444 1527.47 59.9121 1529.66 56.588L1547.28 29.9221Z" fill="#99D9F4"/>
<rect width="57.1709" height="58.1929" rx="5" transform="matrix(0.999063 -0.0432698 0.0526514 0.998613 1288.41 50.6782)" fill="#A1B6ED"/>
<ellipse cx="1510.67" cy="216.254" rx="24.4867" ry="21.2166" fill="#FBA18B"/>
<rect width="37.7927" height="42.3693" rx="5" transform="matrix(0.932124 0.362139 -0.371529 0.928422 1547.77 799.354)" fill="#C0D474"/>
<path d="M1314.57 898.826C1313.7 895.023 1317.41 891.759 1321.14 893.048L1359.15 906.16C1362.78 907.41 1363.71 912.033 1360.85 914.549L1331.78 940.131C1328.91 942.647 1324.36 941.208 1323.51 937.519L1314.57 898.826Z" fill="#99D9F4"/>
<path d="M1398.13 740.641C1398.13 752.394 1388.07 761.922 1375.66 761.922C1363.26 761.922 1353.2 752.394 1353.2 740.641C1353.2 728.889 1363.26 719.361 1375.66 719.361C1388.07 719.361 1398.13 728.889 1398.13 740.641Z" fill="#FBA18B"/>
</svg>
