<svg width="1583" height="629" viewBox="0 0 1583 629" fill="none" xmlns="http://www.w3.org/2000/svg">
<rect width="1583" height="629" fill="#0A53B5"/>
<rect width="45.5438" height="43.216" rx="5" transform="matrix(0.893398 0.449267 -0.837039 0.547144 183.366 0)" fill="#99D9F4"/>
<path d="M287.512 81.4601C289.448 79.5956 292.512 79.5956 294.448 81.4601L315.33 101.568C318.571 104.69 316.362 110.17 311.862 110.17H270.098C265.598 110.17 263.389 104.69 266.63 101.568L287.512 81.4601Z" fill="#C0D474"/>
<ellipse cx="78.2742" cy="94.8127" rx="30.2791" ry="16.6923" fill="#FBA18B"/>
<path d="M202.014 455.519C201.02 452.731 205.166 450.453 209.554 451.375L271.163 464.328C275.637 465.269 277.003 468.819 273.608 470.685L225.957 496.872C222.562 498.738 216.986 497.502 215.972 494.66L202.014 455.519Z" fill="#99D9F4"/>
<rect width="60.7981" height="61.2215" rx="5" transform="matrix(0.903249 -0.429117 0.782222 0.623 0 488.149)" fill="#A1B6ED"/>
<rect width="60.8028" height="61.2306" rx="5" transform="matrix(0.903144 -0.429338 0.78203 0.62324 267.401 562.263)" fill="#C0D474"/>
<ellipse cx="133.702" cy="591.801" rx="29.7114" ry="17.5843" fill="#FBA18B"/>
<path d="M1286.27 142.22C1288.2 140.356 1291.27 140.356 1293.2 142.22L1314.09 162.328C1317.33 165.45 1315.12 170.93 1310.62 170.93H1268.85C1264.35 170.93 1262.14 165.45 1265.39 162.328L1286.27 142.22Z" fill="#A1B6ED"/>
<path d="M1541.1 12.0197C1543.04 10.1552 1546.1 10.1552 1548.04 12.0198L1568.92 32.1277C1572.16 35.2492 1569.95 40.7294 1565.45 40.7294H1523.69C1519.19 40.7294 1516.98 35.2492 1520.22 32.1277L1541.1 12.0197Z" fill="#99D9F4"/>
<rect width="70.6567" height="45.8783" rx="5" transform="matrix(0.999625 -0.0273872 0.0830598 0.996545 1219.31 29.9784)" fill="#A1B6ED"/>
<ellipse cx="1494.14" cy="160.246" rx="30.2791" ry="16.6923" fill="#FBA18B"/>
<rect width="47.9515" height="38.6025" rx="5" transform="matrix(0.97179 0.235849 -0.539413 0.842042 1520.1 495.429)" fill="#C0D474"/>
<path d="M1211.29 576.699C1210.26 573.89 1214.45 571.585 1218.87 572.537L1271.26 583.826C1275.71 584.784 1277.04 588.316 1273.66 590.173L1233.58 612.2C1230.2 614.057 1224.65 612.842 1223.61 610.016L1211.29 576.699Z" fill="#99D9F4"/>
<path d="M1322.16 446.911C1322.16 456.623 1308.85 464.496 1292.44 464.496C1276.03 464.496 1262.73 456.623 1262.73 446.911C1262.73 437.2 1276.03 429.327 1292.44 429.327C1308.85 429.327 1322.16 437.2 1322.16 446.911Z" fill="#FBA18B"/>
</svg>
