<svg width="1583" height="475" viewBox="0 0 1583 475" fill="none" xmlns="http://www.w3.org/2000/svg">
<rect width="1583" height="475" fill="#0A53B5"/>
<rect width="43.5238" height="40.3406" rx="5" transform="matrix(0.93486 0.355017 -0.896701 0.442637 183.366 0)" fill="#99D9F4"/>
<path d="M288.039 61.1322C289.793 59.8573 292.167 59.8573 293.921 61.1322L311.826 74.1525C315.742 77.0005 313.728 83.1964 308.885 83.1964H273.075C268.232 83.1964 266.218 77.0005 270.134 74.1525L288.039 61.1322Z" fill="#C0D474"/>
<ellipse cx="78.2742" cy="71.5993" rx="30.2791" ry="12.6055" fill="#FBA18B"/>
<path d="M202.12 344.217C201.067 341.987 205.373 340.2 210.02 340.938L270.319 350.512C275.138 351.277 276.699 354.163 273.101 355.656L226.464 375.011C222.866 376.504 216.873 375.458 215.781 373.146L202.12 344.217Z" fill="#99D9F4"/>
<rect width="58.343" height="55.8833" rx="5" transform="matrix(0.941257 -0.337691 0.856944 0.51541 0 368.634)" fill="#A1B6ED"/>
<rect width="58.345" height="55.8873" rx="5" transform="matrix(0.941189 -0.33788 0.8568 0.515649 267.401 424.602)" fill="#C0D474"/>
<ellipse cx="133.702" cy="446.909" rx="29.7114" ry="13.2791" fill="#FBA18B"/>
<path d="M1286.8 107.016C1288.55 105.741 1290.92 105.741 1292.68 107.016L1310.58 120.037C1314.5 122.885 1312.48 129.08 1307.64 129.08H1271.83C1266.99 129.08 1264.97 122.885 1268.89 120.037L1286.8 107.016Z" fill="#A1B6ED"/>
<path d="M1541.63 8.69321C1543.38 7.41833 1545.76 7.41833 1547.51 8.69321L1565.41 21.7135C1569.33 24.5616 1567.32 30.7574 1562.47 30.7574H1526.66C1521.82 30.7574 1519.81 24.5616 1523.72 21.7135L1541.63 8.69321Z" fill="#99D9F4"/>
<rect width="70.6453" height="34.7357" rx="5" transform="matrix(0.999786 -0.0206852 0.109704 0.993964 1219.31 22.6385)" fill="#A1B6ED"/>
<ellipse cx="1494.14" cy="121.013" rx="30.2791" ry="12.6055" fill="#FBA18B"/>
<rect width="47.3749" height="32.1888" rx="5" transform="matrix(0.983617 0.180273 -0.646891 0.762582 1520.1 374.132)" fill="#C0D474"/>
<path d="M1211.41 435.732C1210.31 433.485 1214.66 431.676 1219.34 432.438L1270.43 440.751C1275.21 441.53 1276.74 444.401 1273.16 445.887L1234.08 462.105C1230.5 463.592 1224.54 462.562 1223.41 460.263L1211.41 435.732Z" fill="#99D9F4"/>
<path d="M1322.16 337.493C1322.16 344.826 1308.85 350.772 1292.44 350.772C1276.03 350.772 1262.73 344.826 1262.73 337.493C1262.73 330.159 1276.03 324.214 1292.44 324.214C1308.85 324.214 1322.16 330.159 1322.16 337.493Z" fill="#FBA18B"/>
</svg>
