<svg width="1583" height="551" viewBox="0 0 1583 551" fill="none" xmlns="http://www.w3.org/2000/svg">
<rect width="1583" height="551" fill="#0A53B5"/>
<rect width="44.4616" height="41.684" rx="5" transform="matrix(0.915141 0.403133 -0.867802 0.49691 183.366 0)" fill="#99D9F4"/>
<path d="M287.756 71.1521C289.618 69.5812 292.342 69.5812 294.204 71.1521L313.804 87.6857C317.367 90.6914 315.242 96.5076 310.58 96.5076H271.38C266.718 96.5076 264.593 90.6914 268.156 87.6857L287.756 71.1521Z" fill="#C0D474"/>
<ellipse cx="78.2742" cy="83.055" rx="30.2791" ry="14.6224" fill="#FBA18B"/>
<path d="M202.07 399.168C201.045 396.65 205.276 394.613 209.799 395.446L270.731 406.669C275.383 407.525 276.846 410.757 273.346 412.442L226.219 435.13C222.719 436.815 216.928 435.666 215.875 433.078L202.07 399.168Z" fill="#99D9F4"/>
<rect width="59.4816" height="58.3922" rx="5" transform="matrix(0.92324 -0.384223 0.820123 0.572187 0 427.615)" fill="#A1B6ED"/>
<rect width="59.4849" height="58.3987" rx="5" transform="matrix(0.923154 -0.38443 0.819954 0.57243 267.401 492.539)" fill="#C0D474"/>
<ellipse cx="133.702" cy="518.414" rx="29.7114" ry="15.4038" fill="#FBA18B"/>
<path d="M1286.51 124.378C1288.37 122.807 1291.1 122.807 1292.96 124.378L1312.56 140.911C1316.12 143.917 1314 149.733 1309.34 149.733H1270.14C1265.47 149.733 1263.35 143.917 1266.91 140.911L1286.51 124.378Z" fill="#A1B6ED"/>
<path d="M1541.34 10.323C1543.21 8.75213 1545.93 8.75213 1547.79 10.323L1567.39 26.8566C1570.96 29.8623 1568.83 35.6785 1564.17 35.6785H1524.97C1520.31 35.6785 1518.18 29.8623 1521.74 26.8566L1541.34 10.323Z" fill="#99D9F4"/>
<rect width="70.6505" height="40.2311" rx="5" transform="matrix(0.999712 -0.0239931 0.0947188 0.995504 1219.31 26.2607)" fill="#A1B6ED"/>
<ellipse cx="1494.14" cy="140.374" rx="30.2791" ry="14.6224" fill="#FBA18B"/>
<rect width="47.6402" height="35.2754" rx="5" transform="matrix(0.978139 0.207952 -0.590288 0.807193 1520.1 433.992)" fill="#C0D474"/>
<path d="M1211.35 505.324C1210.28 502.787 1214.56 500.726 1219.12 501.586L1270.83 511.348C1275.45 512.22 1276.89 515.435 1273.4 517.113L1233.84 536.159C1230.36 537.836 1224.59 536.706 1223.51 534.132L1211.35 505.324Z" fill="#99D9F4"/>
<path d="M1322.16 391.491C1322.16 399.998 1308.85 406.895 1292.44 406.895C1276.03 406.895 1262.73 399.998 1262.73 391.491C1262.73 382.984 1276.03 376.087 1292.44 376.087C1308.85 376.087 1322.16 382.984 1322.16 391.491Z" fill="#FBA18B"/>
</svg>
