<svg width="1583" height="1133" viewBox="0 0 1583 1133" fill="none" xmlns="http://www.w3.org/2000/svg">
<rect width="1583" height="1133" fill="#0A53B5"/>
<rect width="52.1741" height="53.562" rx="5" transform="matrix(0.718686 0.695335 -0.622376 0.782718 163.925 0)" fill="#99D9F4"/>
<path d="M258.451 147.193C260.348 143.725 265.329 143.725 267.225 147.193L289.681 188.258C291.503 191.59 289.092 195.657 285.294 195.657H240.382C236.585 195.657 234.173 191.59 235.995 188.258L258.451 147.193Z" fill="#C0D474"/>
<ellipse cx="67.4935" cy="168.642" rx="27.9852" ry="29.4711" fill="#FBA18B"/>
<path d="M162.895 887.499C162.115 883.428 165.566 879.896 169.007 881.244L219.376 900.967C222.715 902.275 223.545 907.227 220.882 909.953L181.925 949.828C179.262 952.554 175.063 951.049 174.307 947.098L162.895 887.499Z" fill="#99D9F4"/>
<rect width="59.1409" height="69.104" rx="5" transform="matrix(0.748709 -0.6629 0.55874 0.829343 0 936.453)" fill="#A1B6ED"/>
<rect width="59.1409" height="69.104" rx="5" transform="matrix(0.748709 -0.6629 0.55874 0.829343 215.615 1047.76)" fill="#C0D474"/>
<ellipse cx="107.811" cy="1092.12" rx="23.9576" ry="26.4082" fill="#FBA18B"/>
<path d="M1341 230.725C1342.91 227.317 1347.82 227.317 1349.73 230.725L1368.11 263.524C1369.98 266.857 1367.57 270.969 1363.75 270.969H1326.98C1323.16 270.969 1320.75 266.857 1322.62 263.524L1341 230.725Z" fill="#A1B6ED"/>
<path d="M1547.09 35.6169C1549 32.2095 1553.9 32.2095 1555.81 35.6169L1574.2 68.4164C1576.06 71.7494 1573.65 75.8609 1569.83 75.8609H1533.07C1529.25 75.8609 1526.84 71.7494 1528.71 68.4164L1547.09 35.6169Z" fill="#99D9F4"/>
<rect width="57.1918" height="68.5816" rx="5" transform="matrix(0.998699 -0.0509956 0.0446758 0.999001 1288.41 59.7485)" fill="#A1B6ED"/>
<ellipse cx="1510.67" cy="254.959" rx="24.4867" ry="25.014" fill="#FBA18B"/>
<rect width="38.7471" height="48.9757" rx="5" transform="matrix(0.909164 0.416438 -0.321413 0.946939 1547.77 942.423)" fill="#C0D474"/>
<path d="M1314.43 1058.96C1313.62 1054.84 1317.09 1051.24 1320.53 1052.64L1359.93 1068.66C1363.22 1070 1364.02 1074.95 1361.39 1077.68L1331.24 1108.95C1328.61 1111.68 1324.46 1110.2 1323.69 1106.25L1314.43 1058.96Z" fill="#99D9F4"/>
<path d="M1398.13 873.202C1398.13 887.058 1388.07 898.29 1375.66 898.29C1363.26 898.29 1353.2 887.058 1353.2 873.202C1353.2 859.345 1363.26 848.113 1375.66 848.113C1388.07 848.113 1398.13 859.345 1398.13 873.202Z" fill="#FBA18B"/>
</svg>
