<svg width="1024" height="835" viewBox="0 0 1024 835" fill="none" xmlns="http://www.w3.org/2000/svg">
<rect width="1024" height="835" fill="#0A53B5"/>
<rect width="36.0996" height="37.6781" rx="5" transform="matrix(0.67191 0.740633 -0.572321 0.82003 106.038 0)" fill="#99D9F4"/>
<path d="M165.516 111.957C167.331 108.175 172.716 108.175 174.531 111.957L186.566 137.032C188.159 140.351 185.74 144.195 182.059 144.195H157.988C154.307 144.195 151.887 140.351 153.481 137.032L165.516 111.957Z" fill="#C0D474"/>
<ellipse cx="43.6595" cy="124.286" rx="18.1028" ry="21.7197" fill="#FBA18B"/>
<path d="M105.887 657.135C105.164 652.832 108.407 649.05 111.599 650.474L139.912 663.105C142.978 664.473 143.703 669.661 141.231 672.543L119.333 698.08C116.861 700.962 112.997 699.436 112.302 695.302L105.887 657.135Z" fill="#99D9F4"/>
<rect width="40.6845" height="49.0693" rx="5" transform="matrix(0.704029 -0.710172 0.509005 0.860764 0 690.149)" fill="#A1B6ED"/>
<rect width="40.6845" height="49.0693" rx="5" transform="matrix(0.704029 -0.710172 0.509005 0.860764 139.476 772.178)" fill="#C0D474"/>
<ellipse cx="69.7397" cy="804.87" rx="15.4975" ry="19.4624" fill="#FBA18B"/>
<path d="M865.794 173.425C867.625 169.701 872.935 169.701 874.767 173.425L884.146 192.492C885.78 195.815 883.362 199.699 879.659 199.699H860.901C857.198 199.699 854.78 195.815 856.414 192.492L865.794 173.425Z" fill="#A1B6ED"/>
<path d="M999.106 29.634C1000.94 25.91 1006.25 25.91 1008.08 29.634L1017.46 48.7012C1019.09 52.0237 1016.67 55.9081 1012.97 55.9081H994.213C990.511 55.9081 988.093 52.0237 989.727 48.7011L999.106 29.634Z" fill="#99D9F4"/>
<rect width="37.0103" height="50.5318" rx="5" transform="matrix(0.998349 -0.0574443 0.0396549 0.999213 833.439 44.0337)" fill="#A1B6ED"/>
<ellipse cx="977.209" cy="187.9" rx="15.8398" ry="18.4349" fill="#FBA18B"/>
<rect width="25.704" height="35.6636" rx="5" transform="matrix(0.886544 0.462643 -0.285521 0.958373 1001.21 694.549)" fill="#C0D474"/>
<path d="M850.807 783.56C850.059 779.206 853.315 775.357 856.5 776.832L877.753 786.68C880.769 788.077 881.466 793.262 879.024 796.147L862.766 815.359C860.324 818.244 856.511 816.744 855.802 812.619L850.807 783.56Z" fill="#99D9F4"/>
<path d="M904.41 643.533C904.41 653.745 897.905 662.023 889.881 662.023C881.857 662.023 875.352 653.745 875.352 643.533C875.352 633.322 881.857 625.043 889.881 625.043C897.905 625.043 904.41 633.322 904.41 643.533Z" fill="#FBA18B"/>
</svg>
