<svg width="1024" height="903" viewBox="0 0 1024 903" fill="none" xmlns="http://www.w3.org/2000/svg">
<rect width="1024" height="903" fill="#0A53B5"/>
<rect width="37.7406" height="39.7676" rx="5" transform="matrix(0.642695 0.766123 -0.542251 0.840217 106.038 0)" fill="#99D9F4"/>
<path d="M165.453 121.215C167.212 117.253 172.835 117.253 174.594 121.215L186.885 148.91C188.353 152.216 185.932 155.938 182.315 155.938H157.732C154.115 155.938 151.694 152.216 153.162 148.91L165.453 121.215Z" fill="#C0D474"/>
<ellipse cx="43.6595" cy="134.407" rx="18.1028" ry="23.4884" fill="#FBA18B"/>
<path d="M105.814 710.179C105.125 705.748 108.236 701.825 111.276 703.291L140.287 717.288C143.19 718.688 143.856 724.003 141.501 726.973L119.063 755.27C116.708 758.24 113.045 756.705 112.387 752.473L105.814 710.179Z" fill="#99D9F4"/>
<rect width="42.3879" height="52.0595" rx="5" transform="matrix(0.675737 -0.737143 0.479768 0.877395 0 746.352)" fill="#A1B6ED"/>
<rect width="42.3879" height="52.0595" rx="5" transform="matrix(0.675737 -0.737143 0.479768 0.877395 139.476 835.062)" fill="#C0D474"/>
<ellipse cx="69.7397" cy="870.417" rx="15.4975" ry="21.0473" fill="#FBA18B"/>
<path d="M865.729 187.69C867.506 183.784 873.055 183.784 874.831 187.69L884.475 208.892C885.981 212.202 883.561 215.962 879.924 215.962H860.637C857 215.962 854.579 212.202 856.085 208.892L865.729 187.69Z" fill="#A1B6ED"/>
<path d="M999.041 32.1897C1000.82 28.2833 1006.37 28.2833 1008.14 32.1897L1017.79 53.391C1019.29 56.7016 1016.87 60.4612 1013.24 60.4612H993.949C990.312 60.4612 987.892 56.7016 989.398 53.391L999.041 32.1897Z" fill="#99D9F4"/>
<rect width="37.0207" height="54.6408" rx="5" transform="matrix(0.99807 -0.0621051 0.0366729 0.999327 833.439 47.6195)" fill="#A1B6ED"/>
<ellipse cx="977.209" cy="203.202" rx="15.8398" ry="19.9361" fill="#FBA18B"/>
<rect width="26.1661" height="38.3394" rx="5" transform="matrix(0.870887 0.491483 -0.265593 0.964085 1001.21 751.11)" fill="#C0D474"/>
<path d="M850.729 846.883C850.017 842.402 853.14 838.412 856.17 839.93L878.123 850.93C880.977 852.36 881.616 857.67 879.292 860.641L862.498 882.102C860.174 885.073 856.56 883.564 855.889 879.343L850.729 846.883Z" fill="#99D9F4"/>
<path d="M904.41 695.941C904.41 706.984 897.905 715.937 889.881 715.937C881.857 715.937 875.352 706.984 875.352 695.941C875.352 684.897 881.857 675.945 889.881 675.945C897.905 675.945 904.41 684.897 904.41 695.941Z" fill="#FBA18B"/>
</svg>
