<svg width="1025" height="523" viewBox="0 0 1025 523" fill="none" xmlns="http://www.w3.org/2000/svg">
<rect width="1025" height="523" fill="#0A53B5"/>
<rect width="31.3618" height="30.5803" rx="5" transform="matrix(0.840069 0.542479 -0.765934 0.642919 118.73 0)" fill="#99D9F4"/>
<path d="M184.523 69.7628C186.524 67.2882 190.297 67.2882 192.299 69.7628L203.375 83.4596C206.019 86.7291 203.692 91.6036 199.487 91.6036H177.334C173.129 91.6036 170.802 86.7291 173.446 83.4596L184.523 69.7628Z" fill="#C0D474"/>
<ellipse cx="50.683" cy="78.8346" rx="19.6058" ry="13.8793" fill="#FBA18B"/>
<path d="M131.447 381.066C130.526 377.749 134.454 374.976 138.521 376.074L172.982 385.378C177.051 386.477 178.207 390.627 175.062 392.846L148.409 411.656C145.263 413.876 140.177 412.5 139.255 409.18L131.447 381.066Z" fill="#99D9F4"/>
<rect width="41.6585" height="44.3638" rx="5" transform="matrix(0.853533 -0.521039 0.698887 0.715232 0 405.885)" fill="#A1B6ED"/>
<rect width="41.6585" height="44.3638" rx="5" transform="matrix(0.853533 -0.521039 0.698887 0.715232 173.144 467.51)" fill="#C0D474"/>
<ellipse cx="86.5722" cy="492.07" rx="19.2382" ry="14.621" fill="#FBA18B"/>
<path d="M831.222 120.283C833.223 117.809 836.997 117.809 838.998 120.283L850.074 133.98C852.718 137.25 850.391 142.124 846.187 142.124H824.033C819.829 142.124 817.502 137.25 820.146 133.98L831.222 120.283Z" fill="#A1B6ED"/>
<path d="M996.227 12.0247C998.228 9.55016 1002 9.55015 1004 12.0247L1015.08 25.7215C1017.72 28.991 1015.4 33.8656 1011.19 33.8656H989.038C984.833 33.8656 982.506 28.991 985.15 25.7215L996.227 12.0247Z" fill="#99D9F4"/>
<rect width="45.7616" height="38.095" rx="5" transform="matrix(0.999382 -0.0351601 0.0647699 0.9979 789.506 24.9264)" fill="#A1B6ED"/>
<ellipse cx="967.459" cy="133.242" rx="19.6058" ry="13.8793" fill="#FBA18B"/>
<rect width="31.6042" height="30.2035" rx="5" transform="matrix(0.95471 0.297537 -0.446398 0.894835 984.274 411.938)" fill="#C0D474"/>
<path d="M784.994 481.862C784.032 478.52 788.006 475.715 792.099 476.848L820.579 484.729C824.621 485.847 825.75 489.976 822.618 492.186L800.832 507.561C797.7 509.771 792.637 508.418 791.687 505.118L784.994 481.862Z" fill="#99D9F4"/>
<path d="M856.101 371.597C856.101 379.672 847.488 386.218 836.863 386.218C826.238 386.218 817.625 379.672 817.625 371.597C817.625 363.522 826.238 356.976 836.863 356.976C847.488 356.976 856.101 363.522 856.101 371.597Z" fill="#FBA18B"/>
</svg>
