<svg width="1025" height="493" viewBox="0 0 1025 493" fill="none" xmlns="http://www.w3.org/2000/svg">
<rect width="1025" height="493" fill="#0A53B5"/>
<rect width="30.8433" height="29.8677" rx="5" transform="matrix(0.854192 0.519958 -0.784208 0.620499 118.73 0)" fill="#99D9F4"/>
<path d="M184.616 65.6528C186.611 63.327 190.21 63.327 192.206 65.6528L202.879 78.0936C205.661 81.3365 203.357 86.3492 199.084 86.3492H177.738C173.465 86.3492 171.161 81.3365 173.943 78.0936L184.616 65.6528Z" fill="#C0D474"/>
<ellipse cx="50.683" cy="74.3127" rx="19.6058" ry="13.0832" fill="#FBA18B"/>
<path d="M131.483 359.331C130.543 356.139 134.53 353.486 138.681 354.542L172.734 363.209C176.907 364.271 178.115 368.281 174.904 370.417L148.566 387.938C145.356 390.074 140.144 388.728 139.198 385.518L131.483 359.331Z" fill="#99D9F4"/>
<rect width="41.0235" height="43.0807" rx="5" transform="matrix(0.866744 -0.498754 0.719701 0.694284 0 382.604)" fill="#A1B6ED"/>
<rect width="41.0235" height="43.0807" rx="5" transform="matrix(0.866744 -0.498754 0.719701 0.694284 173.144 440.692)" fill="#C0D474"/>
<ellipse cx="86.5722" cy="463.844" rx="19.2382" ry="13.7823" fill="#FBA18B"/>
<path d="M831.315 113.276C833.31 110.95 836.909 110.95 838.905 113.276L849.578 125.717C852.36 128.96 850.056 133.972 845.783 133.972H824.437C820.164 133.972 817.86 128.96 820.642 125.717L831.315 113.276Z" fill="#A1B6ED"/>
<path d="M996.32 11.2271C998.315 8.90125 1001.91 8.90125 1003.91 11.2271L1014.58 23.6678C1017.36 26.9107 1015.06 31.9234 1010.79 31.9234H989.442C985.169 31.9234 982.865 26.9107 985.647 23.6678L996.32 11.2271Z" fill="#99D9F4"/>
<rect width="45.7585" height="35.9193" rx="5" transform="matrix(0.999451 -0.0331455 0.0686932 0.997638 789.506 23.4966)" fill="#A1B6ED"/>
<ellipse cx="967.459" cy="125.598" rx="19.6058" ry="13.0832" fill="#FBA18B"/>
<rect width="31.448" height="28.8245" rx="5" transform="matrix(0.959454 0.281864 -0.467754 0.883859 984.274 388.309)" fill="#C0D474"/>
<path d="M785.032 454.347C784.05 451.132 788.084 448.448 792.262 449.538L820.334 456.86C824.479 457.941 825.659 461.931 822.463 464.057L800.988 478.343C797.792 480.469 792.604 479.146 791.63 475.956L785.032 454.347Z" fill="#99D9F4"/>
<path d="M856.101 350.282C856.101 357.894 847.488 364.065 836.863 364.065C826.238 364.065 817.625 357.894 817.625 350.282C817.625 342.671 826.238 336.5 836.863 336.5C847.488 336.5 856.101 342.671 856.101 350.282Z" fill="#FBA18B"/>
</svg>
