<svg width="1025" height="426" viewBox="0 0 1025 426" fill="none" xmlns="http://www.w3.org/2000/svg">
<rect width="1025" height="426" fill="#0A53B5"/>
<rect width="29.7683" height="28.3737" rx="5" transform="matrix(0.885038 0.465519 -0.825499 0.564403 118.73 0)" fill="#99D9F4"/>
<path d="M184.862 56.482C186.818 54.5124 190.003 54.5124 191.959 56.482L201.499 66.0913C204.632 69.2463 202.397 74.6141 197.951 74.6141H178.87C174.424 74.6141 172.19 69.2463 175.322 66.0913L184.862 56.482Z" fill="#C0D474"/>
<ellipse cx="50.683" cy="64.2133" rx="19.6058" ry="11.3051" fill="#FBA18B"/>
<path d="M131.562 310.728C130.58 307.846 134.692 305.482 139.029 306.436L172.167 313.723C176.576 314.693 177.905 318.351 174.55 320.28L148.92 335.013C145.565 336.941 140.069 335.678 139.07 332.749L131.562 310.728Z" fill="#99D9F4"/>
<rect width="39.7099" height="40.3647" rx="5" transform="matrix(0.895417 -0.445229 0.768128 0.640297 0 330.607)" fill="#A1B6ED"/>
<rect width="39.7099" height="40.3647" rx="5" transform="matrix(0.895417 -0.445229 0.768128 0.640297 173.144 380.801)" fill="#C0D474"/>
<ellipse cx="86.5722" cy="400.806" rx="19.2382" ry="11.9093" fill="#FBA18B"/>
<path d="M831.562 97.6326C833.517 95.6631 836.703 95.6631 838.658 97.6326L848.199 107.242C851.331 110.397 849.096 115.765 844.65 115.765H825.569C821.124 115.765 818.889 110.397 822.021 107.242L831.562 97.6326Z" fill="#A1B6ED"/>
<path d="M996.567 9.45271C998.522 7.48312 1001.71 7.48312 1003.66 9.45271L1013.2 19.062C1016.34 22.217 1014.1 27.5848 1009.66 27.5848H990.574C986.128 27.5848 983.894 22.217 987.026 19.062L996.567 9.45271Z" fill="#99D9F4"/>
<rect width="45.7521" height="31.0626" rx="5" transform="matrix(0.99959 -0.0286449 0.0794335 0.99684 789.506 20.3033)" fill="#A1B6ED"/>
<ellipse cx="967.459" cy="108.529" rx="19.6058" ry="11.3051" fill="#FBA18B"/>
<rect width="31.1299" height="25.8151" rx="5" transform="matrix(0.969258 0.246047 -0.522282 0.852773 984.274 335.537)" fill="#C0D474"/>
<path d="M785.116 392.836C784.09 389.932 788.251 387.54 792.617 388.524L819.774 394.645C824.153 395.632 825.453 399.272 822.113 401.192L801.338 413.134C797.998 415.054 792.527 413.811 791.498 410.899L785.116 392.836Z" fill="#99D9F4"/>
<path d="M856.101 302.678C856.101 309.255 847.488 314.587 836.863 314.587C826.238 314.587 817.625 309.255 817.625 302.678C817.625 296.1 826.238 290.768 836.863 290.768C847.488 290.768 856.101 296.1 856.101 302.678Z" fill="#FBA18B"/>
</svg>
