<svg width="1025" height="786" viewBox="0 0 1025 786" fill="none" xmlns="http://www.w3.org/2000/svg">
<rect width="1025" height="786" fill="#0A53B5"/>
<rect width="34.9699" height="36.2187" rx="5" transform="matrix(0.694293 0.719693 -0.595964 0.803011 106.143 0)" fill="#99D9F4"/>
<path d="M165.737 105.273C167.593 101.637 172.788 101.637 174.644 105.273L186.479 128.461C188.177 131.787 185.761 135.734 182.026 135.734H158.355C154.62 135.734 152.204 131.787 153.902 128.461L165.737 105.273Z" fill="#C0D474"/>
<ellipse cx="43.7026" cy="116.992" rx="18.1205" ry="20.4451" fill="#FBA18B"/>
<path d="M106.045 618.877C105.295 614.681 108.638 611.015 111.948 612.403L139.758 624.071C142.953 625.411 143.727 630.491 141.164 633.302L119.655 656.89C117.092 659.7 113.07 658.183 112.346 654.133L106.045 618.877Z" fill="#99D9F4"/>
<rect width="39.5188" height="46.9658" rx="5" transform="matrix(0.725505 -0.688217 0.532322 0.846542 0 649.649)" fill="#A1B6ED"/>
<rect width="39.5188" height="46.9658" rx="5" transform="matrix(0.725505 -0.688217 0.532322 0.846542 139.611 726.865)" fill="#C0D474"/>
<ellipse cx="69.8076" cy="757.638" rx="15.5126" ry="18.3203" fill="#FBA18B"/>
<path d="M866.698 163.132C868.569 159.556 873.688 159.556 875.559 163.132L884.729 180.663C886.47 183.992 884.055 187.98 880.298 187.98H861.959C858.202 187.98 855.787 183.992 857.528 180.663L866.698 163.132Z" fill="#A1B6ED"/>
<path d="M1000.14 27.7795C1002.01 24.2029 1007.13 24.2029 1009 27.7795L1018.17 45.3099C1019.91 48.639 1017.5 52.6274 1013.74 52.6274H995.402C991.645 52.6274 989.231 48.6389 990.972 45.3099L1000.14 27.7795Z" fill="#99D9F4"/>
<rect width="37.0393" height="47.5713" rx="5" transform="matrix(0.998524 -0.0543067 0.0419495 0.99912 834.252 41.4495)" fill="#A1B6ED"/>
<ellipse cx="978.162" cy="176.874" rx="15.8553" ry="17.3531" fill="#FBA18B"/>
<rect width="25.4086" height="33.7492" rx="5" transform="matrix(0.897725 0.440556 -0.302011 0.953305 1002.19 653.79)" fill="#C0D474"/>
<path d="M851.695 737.894C850.918 733.646 854.277 729.913 857.581 731.353L878.322 740.39C881.467 741.76 882.21 746.839 879.678 749.653L863.811 767.285C861.279 770.099 857.308 768.607 856.569 764.564L851.695 737.894Z" fill="#99D9F4"/>
<path d="M905.292 605.769C905.292 615.382 898.781 623.174 890.749 623.174C882.716 623.174 876.205 615.382 876.205 605.769C876.205 596.157 882.716 588.364 890.749 588.364C898.781 588.364 905.292 596.157 905.292 605.769Z" fill="#FBA18B"/>
</svg>
