<svg width="1025" height="427" viewBox="0 0 1025 427" fill="none" xmlns="http://www.w3.org/2000/svg">
<rect width="1025" height="427" fill="#0A53B5"/>
<rect width="29.7835" height="28.3949" rx="5" transform="matrix(0.884588 0.466374 -0.824882 0.565305 118.73 0)" fill="#99D9F4"/>
<path d="M184.858 56.6187C186.815 54.6436 190.007 54.6436 191.963 56.6187L201.523 66.2705C204.65 69.4272 202.414 74.7892 197.971 74.7892H178.85C174.407 74.7892 172.171 69.4272 175.298 66.2705L184.858 56.6187Z" fill="#C0D474"/>
<ellipse cx="50.683" cy="64.364" rx="19.6058" ry="11.3317" fill="#FBA18B"/>
<path d="M131.561 311.454C130.579 308.567 134.69 306.199 139.024 307.154L172.176 314.462C176.581 315.433 177.909 319.097 174.556 321.029L148.915 335.802C145.562 337.734 140.07 336.47 139.072 333.536L131.561 311.454Z" fill="#99D9F4"/>
<rect width="39.7283" height="40.4036" rx="5" transform="matrix(0.895 -0.446067 0.767388 0.641182 0 331.383)" fill="#A1B6ED"/>
<rect width="39.7283" height="40.4036" rx="5" transform="matrix(0.895 -0.446067 0.767388 0.641182 173.144 381.695)" fill="#C0D474"/>
<ellipse cx="86.5722" cy="401.747" rx="19.2382" ry="11.9372" fill="#FBA18B"/>
<path d="M831.558 97.866C833.514 95.8909 836.706 95.8909 838.662 97.866L848.223 107.518C851.349 110.674 849.113 116.037 844.67 116.037H825.55C821.107 116.037 818.871 110.674 821.997 107.518L831.558 97.866Z" fill="#A1B6ED"/>
<path d="M996.562 9.47906C998.519 7.50392 1001.71 7.50392 1003.67 9.47906L1013.23 19.1309C1016.35 22.2875 1014.12 27.6495 1009.68 27.6495H990.555C986.111 27.6495 983.875 22.2875 987.002 19.1309L996.562 9.47906Z" fill="#99D9F4"/>
<rect width="45.7522" height="31.1351" rx="5" transform="matrix(0.999588 -0.0287121 0.0792486 0.996855 789.506 20.351)" fill="#A1B6ED"/>
<ellipse cx="967.459" cy="108.784" rx="19.6058" ry="11.3317" fill="#FBA18B"/>
<rect width="31.1343" height="25.8592" rx="5" transform="matrix(0.96912 0.246589 -0.521391 0.853318 984.274 336.324)" fill="#C0D474"/>
<path d="M785.114 393.755C784.089 390.846 788.248 388.449 792.612 389.435L819.783 395.574C824.157 396.562 825.456 400.207 822.118 402.131L801.333 414.107C797.995 416.03 792.528 414.786 791.5 411.869L785.114 393.755Z" fill="#99D9F4"/>
<path d="M856.101 303.388C856.101 309.981 847.488 315.326 836.863 315.326C826.238 315.326 817.625 309.981 817.625 303.388C817.625 296.796 826.238 291.451 836.863 291.451C847.488 291.451 856.101 296.796 856.101 303.388Z" fill="#FBA18B"/>
</svg>
