<svg width="1025" height="513" viewBox="0 0 1025 513" fill="none" xmlns="http://www.w3.org/2000/svg">
<rect width="1025" height="513" fill="#0A53B5"/>
<rect width="29.3139" height="28.7445" rx="5" transform="matrix(0.828254 0.560354 -0.750929 0.660383 106.143 0)" fill="#99D9F4"/>
<path d="M166.252 68.0498C168.254 65.4899 172.127 65.4899 174.129 68.0498L183.872 80.509C186.439 83.7913 184.101 88.5891 179.934 88.5891H160.447C156.28 88.5891 153.942 83.7913 156.509 80.509L166.252 68.0498Z" fill="#C0D474"/>
<ellipse cx="43.7026" cy="76.3571" rx="18.1205" ry="13.3439" fill="#FBA18B"/>
<path d="M106.379 405.144C105.462 401.796 109.376 398.994 113.422 400.102L137.765 406.768C141.809 407.875 142.952 412.058 139.823 414.298L120.996 427.774C117.866 430.014 112.81 428.631 111.894 425.285L106.379 405.144Z" fill="#99D9F4"/>
<rect width="33.7213" height="36.0334" rx="5" transform="matrix(0.850235 -0.526404 0.693825 0.720144 0 424.008)" fill="#A1B6ED"/>
<rect width="33.7213" height="36.0334" rx="5" transform="matrix(0.850235 -0.526404 0.693825 0.720144 139.611 474.404)" fill="#C0D474"/>
<ellipse cx="69.8076" cy="494.489" rx="15.5126" ry="11.9571" fill="#FBA18B"/>
<path d="M867.226 105.812C869.228 103.315 873.028 103.315 875.03 105.812L882.043 114.563C884.666 117.836 882.336 122.689 878.141 122.689H864.115C859.92 122.689 857.59 117.836 860.213 114.563L867.226 105.812Z" fill="#A1B6ED"/>
<path d="M1000.67 17.4712C1002.67 14.9738 1006.47 14.9738 1008.47 17.4712L1015.49 26.2217C1018.11 29.4948 1015.78 34.3487 1011.58 34.3487H997.558C993.364 34.3487 991.033 29.4948 993.657 26.2217L1000.67 17.4712Z" fill="#99D9F4"/>
<rect width="37.008" height="31.0853" rx="5" transform="matrix(0.999371 -0.0354745 0.0641975 0.997937 834.252 27.0532)" fill="#A1B6ED"/>
<ellipse cx="978.162" cy="115.441" rx="15.8553" ry="11.3258" fill="#FBA18B"/>
<rect width="23.9515" height="23.3416" rx="5" transform="matrix(0.952342 0.305032 -0.436672 0.899621 1002.19 426.71)" fill="#C0D474"/>
<path d="M852.05 482.873C851.098 479.473 855.043 476.611 859.095 477.764L876.344 482.669C880.337 483.805 881.442 487.997 878.342 490.246L865.146 499.817C862.046 502.065 857.042 500.7 856.104 497.349L852.05 482.873Z" fill="#99D9F4"/>
<path d="M905.292 395.369C905.292 401.643 898.781 406.729 890.749 406.729C882.716 406.729 876.205 401.643 876.205 395.369C876.205 389.095 882.716 384.009 890.749 384.009C898.781 384.009 905.292 389.095 905.292 395.369Z" fill="#FBA18B"/>
</svg>
