<svg width="1025" height="730" viewBox="0 0 1025 730" fill="none" xmlns="http://www.w3.org/2000/svg">
<rect width="1025" height="730" fill="#0A53B5"/>
<rect width="33.7024" height="34.5768" rx="5" transform="matrix(0.720404 0.693555 -0.624263 0.781214 106.143 0)" fill="#99D9F4"/>
<path d="M165.809 97.6421C167.708 94.1862 172.673 94.1862 174.572 97.6421L186.12 118.655C187.951 121.987 185.54 126.063 181.738 126.063H158.643C154.841 126.063 152.43 121.987 154.261 118.655L165.809 97.6421Z" fill="#C0D474"/>
<ellipse cx="43.7026" cy="108.657" rx="18.1205" ry="18.9884" fill="#FBA18B"/>
<path d="M106.11 575.124C105.329 571.062 108.787 567.54 112.237 568.884L139.4 579.468C142.75 580.773 143.584 585.716 140.914 588.435L119.905 609.834C117.235 612.553 113.023 611.05 112.265 607.106L106.11 575.124Z" fill="#99D9F4"/>
<rect width="38.211" height="44.5933" rx="5" transform="matrix(0.750334 -0.661059 0.560642 0.828058 0 603.363)" fill="#A1B6ED"/>
<rect width="38.211" height="44.5933" rx="5" transform="matrix(0.750334 -0.661059 0.560642 0.828058 139.611 675.078)" fill="#C0D474"/>
<ellipse cx="69.8076" cy="703.659" rx="15.5126" ry="17.015" fill="#FBA18B"/>
<path d="M866.771 151.378C868.684 147.983 873.572 147.983 875.484 151.378L884.358 167.133C886.235 170.467 883.827 174.587 880.001 174.587H862.255C858.429 174.587 856.021 170.467 857.898 167.133L866.771 151.378Z" fill="#A1B6ED"/>
<path d="M1000.21 25.6689C1002.13 22.2737 1007.02 22.2737 1008.93 25.6689L1017.8 41.424C1019.68 44.7571 1017.27 48.8777 1013.44 48.8777H995.698C991.873 48.8777 989.464 44.7571 991.341 41.424L1000.21 25.6689Z" fill="#99D9F4"/>
<rect width="37.0318" height="44.1882" rx="5" transform="matrix(0.998727 -0.0504477 0.0451612 0.99898 834.252 38.4966)" fill="#A1B6ED"/>
<ellipse cx="978.162" cy="164.272" rx="15.8553" ry="16.1167" fill="#FBA18B"/>
<rect width="25.0675" height="31.5716" rx="5" transform="matrix(0.909942 0.414736 -0.322842 0.946453 1002.19 607.21)" fill="#C0D474"/>
<path d="M851.764 685.674C850.954 681.56 854.431 677.972 857.876 679.366L877.968 687.497C881.266 688.832 882.069 693.775 879.429 696.499L864.059 712.363C861.42 715.087 857.261 713.607 856.486 709.669L851.764 685.674Z" fill="#99D9F4"/>
<path d="M905.292 562.61C905.292 571.538 898.781 578.775 890.749 578.775C882.716 578.775 876.205 571.538 876.205 562.61C876.205 553.683 882.716 546.445 890.749 546.445C898.781 546.445 905.292 553.683 905.292 562.61Z" fill="#FBA18B"/>
</svg>
