<svg width="1025" height="459" viewBox="0 0 1025 459" fill="none" xmlns="http://www.w3.org/2000/svg">
<rect width="1025" height="459" fill="#0A53B5"/>
<rect width="30.283" height="29.0919" rx="5" transform="matrix(0.869997 0.493056 -0.80512 0.593112 118.73 0)" fill="#99D9F4"/>
<path d="M184.734 60.9971C186.714 58.848 190.107 58.848 192.088 60.9971L202.232 72.0059C205.184 75.2098 202.912 80.394 198.555 80.394H178.267C173.91 80.394 171.637 75.2098 174.59 72.0059L184.734 60.9971Z" fill="#C0D474"/>
<ellipse cx="50.683" cy="69.1876" rx="19.6058" ry="12.1809" fill="#FBA18B"/>
<path d="M131.524 334.677C130.562 331.637 134.614 329.128 138.859 330.134L172.449 338.093C176.741 339.11 178.009 342.948 174.725 344.982L148.746 361.073C145.462 363.107 140.106 361.799 139.134 358.726L131.524 334.677Z" fill="#99D9F4"/>
<rect width="40.3383" height="41.675" rx="5" transform="matrix(0.881467 -0.472245 0.743976 0.668206 0 356.217)" fill="#A1B6ED"/>
<rect width="40.3383" height="41.675" rx="5" transform="matrix(0.881467 -0.472245 0.743976 0.668206 173.144 410.3)" fill="#C0D474"/>
<ellipse cx="86.5722" cy="431.855" rx="19.2382" ry="12.8318" fill="#FBA18B"/>
<path d="M831.433 105.336C833.413 103.187 836.807 103.187 838.787 105.336L848.931 116.344C851.883 119.548 849.611 124.733 845.254 124.733H824.966C820.609 124.733 818.337 119.548 821.289 116.344L831.433 105.336Z" fill="#A1B6ED"/>
<path d="M996.438 10.3245C998.418 8.17541 1001.81 8.17541 1003.79 10.3245L1013.94 21.3333C1016.89 24.5372 1014.62 29.7214 1010.26 29.7214H989.971C985.614 29.7214 983.341 24.5372 986.294 21.3332L996.438 10.3245Z" fill="#99D9F4"/>
<rect width="45.7551" height="33.4542" rx="5" transform="matrix(0.999524 -0.0308619 0.0737548 0.997276 789.506 21.8761)" fill="#A1B6ED"/>
<ellipse cx="967.459" cy="116.937" rx="19.6058" ry="12.1809" fill="#FBA18B"/>
<rect width="31.2812" height="27.2839" rx="5" transform="matrix(0.964571 0.263824 -0.494165 0.869368 984.274 361.529)" fill="#C0D474"/>
<path d="M785.075 423.143C784.071 420.08 788.17 417.541 792.444 418.579L820.052 425.284C824.315 426.319 825.554 430.138 822.285 432.163L801.165 445.244C797.896 447.269 792.565 445.983 791.563 442.929L785.075 423.143Z" fill="#99D9F4"/>
<path d="M856.101 326.125C856.101 333.211 847.488 338.956 836.863 338.956C826.238 338.956 817.625 333.211 817.625 326.125C817.625 319.038 826.238 313.293 836.863 313.293C847.488 313.293 856.101 319.038 856.101 326.125Z" fill="#FBA18B"/>
</svg>
