<svg width="524" height="393" viewBox="0 0 524 393" fill="none" xmlns="http://www.w3.org/2000/svg">
<rect width="524" height="393" fill="#0A53B5"/>
<path d="M12.2377 359.627C11.9905 358.063 13.2991 356.736 14.6395 357.191L33.3622 363.554C34.7531 364.027 35.1322 366.049 34.0379 367.159L18.7684 382.645C17.6741 383.755 15.9474 383.099 15.6909 381.476L12.2377 359.627Z" fill="#99D9F4"/>
<path d="M33.516 312.959C33.2026 311.338 34.5885 309.932 35.9716 310.469L52.1861 316.76C53.5294 317.281 53.8646 319.255 52.7941 320.341L40.2532 333.06C39.1828 334.145 37.494 333.544 37.1896 331.969L33.516 312.959Z" fill="#99D9F4"/>
<path d="M96.1567 358.405C96.9056 356.977 98.9507 356.977 99.6995 358.405L105.363 369.21C106.061 370.542 105.095 372.139 103.592 372.139H92.2644C90.7609 372.139 89.795 370.542 90.493 369.21L96.1567 358.405Z" fill="#C0D474"/>
<rect width="20.0643" height="23.3907" rx="2" transform="matrix(0.751729 -0.659472 0.562281 0.826947 0 317.591)" fill="#A1B6ED"/>
<rect width="20.0643" height="23.3907" rx="2" transform="matrix(0.751729 -0.659472 0.562281 0.826947 52.417 301.232)" fill="#C0D474"/>
<ellipse cx="63.4019" cy="366.434" rx="8.1607" ry="8.91299" fill="#FBA18B"/>
<rect width="15.0182" height="17.6047" rx="2" transform="matrix(0.924289 0.381694 -0.352338 0.935873 435.608 343.261)" fill="#C0D474"/>
<path d="M458.091 307.291C457.749 305.721 459.199 304.366 460.65 304.898L475.731 310.427C477.132 310.941 477.486 312.841 476.375 313.88L464.838 324.668C463.727 325.707 461.964 325.125 461.635 323.609L458.091 307.291Z" fill="#99D9F4"/>
<path d="M464.773 361.293C465.54 359.944 467.484 359.944 468.25 361.293L474.541 372.359C475.299 373.692 474.336 375.347 472.803 375.347H460.221C458.687 375.347 457.724 373.692 458.482 372.359L464.773 361.293Z" fill="#A1B6ED"/>
<rect width="16.1022" height="16.2064" rx="2" transform="matrix(0.777487 -0.628899 0.593507 0.804829 500.893 367.292)" fill="#99D9F4"/>
<rect width="20.6712" height="24.4378" rx="2" transform="matrix(0.99875 -0.0499852 0.0455793 0.998961 493.404 297.946)" fill="#A1B6ED"/>
<ellipse cx="492.042" cy="343.261" rx="8.85063" ry="8.91299" fill="#FBA18B"/>
<path d="M13.4699 83.9873C13.2572 82.5479 14.5672 81.3572 15.948 81.7347L32.997 86.3965C34.5171 86.8121 34.9736 88.7799 33.7979 89.8487L19.3749 102.959C18.1991 104.028 16.3301 103.344 16.0959 101.759L13.4699 83.9873Z" fill="#99D9F4"/>
<rect width="15.0253" height="15.2652" rx="2" transform="matrix(0.745904 0.666054 -0.65271 0.757608 58.6514 25.1012)" fill="#99D9F4"/>
<path d="M55.1849 79.729C54.8634 78.1996 56.3013 76.8925 57.7578 77.3903L73.3159 82.7083C74.7562 83.2006 75.1352 85.093 74.0002 86.1247L61.8768 97.1449C60.7417 98.1766 58.9376 97.5796 58.6196 96.0672L55.1849 79.729Z" fill="#C0D474"/>
<path d="M13.9217 17.2764C14.6939 15.9559 16.6023 15.9559 17.3745 17.2764L23.0554 26.99C23.8351 28.3233 22.8735 29.9997 21.3289 29.9997H9.96727C8.4227 29.9997 7.46109 28.3233 8.24084 26.99L13.9217 17.2764Z" fill="#C0D474"/>
<rect width="19.4776" height="22.3863" rx="2" transform="matrix(0.998819 -0.0485919 0.0468866 0.9989 86.5391 15.2708)" fill="#A1B6ED"/>
<ellipse cx="27.1947" cy="51.88" rx="8.34017" ry="8.16426" fill="#FBA18B"/>
<path d="M467.121 13.4325C466.796 11.8575 468.22 10.5003 469.65 11.0228L486.389 17.1404C487.783 17.6498 488.138 19.5734 487.033 20.6264L474.102 32.9474C472.996 34.0005 471.246 33.4065 470.928 31.8711L467.121 13.4325Z" fill="#C0D474"/>
<path d="M512.156 68.4444C512.919 67.077 514.886 67.077 515.649 68.4444L520.989 78.0149C521.733 79.3481 520.769 80.9894 519.242 80.9894H508.563C507.036 80.9894 506.072 79.3481 506.816 78.0149L512.156 68.4444Z" fill="#A1B6ED"/>
<path d="M450.951 44.9314C451.714 43.564 453.681 43.564 454.444 44.9314L459.784 54.5019C460.527 55.8351 459.564 57.4764 458.037 57.4764H447.358C445.831 57.4764 444.867 55.8351 445.611 54.5019L450.951 44.9314Z" fill="#99D9F4"/>
<path d="M506.647 11.9478C507.41 10.5804 509.377 10.5804 510.14 11.9478L515.48 21.5183C516.224 22.8514 515.26 24.4928 513.733 24.4928H503.054C501.527 24.4928 500.564 22.8514 501.307 21.5183L506.647 11.9478Z" fill="#99D9F4"/>
<rect width="14.5846" height="14.7485" rx="2" transform="matrix(0.77168 -0.636011 0.586299 0.810095 425.155 21.3591)" fill="#99D9F4"/>
<rect width="18.584" height="22.3841" rx="2" transform="matrix(0.998702 -0.0509284 0.0447348 0.998999 481.157 34.2566)" fill="#A1B6ED"/>
<ellipse cx="482.993" cy="83.9285" rx="7.95661" ry="8.16426" fill="#FBA18B"/>
</svg>
