<svg width="1449" height="1208" viewBox="0 0 1449 1208" fill="none" xmlns="http://www.w3.org/2000/svg">
<g clip-path="url(#clip0_499_13)">
<mask id="mask0_499_13" style="mask-type:luminance" maskUnits="userSpaceOnUse" x="0" y="0" width="1449" height="1208">
<path d="M1449 0H0V1208H1449V0Z" fill="white"/>
</mask>
<g mask="url(#mask0_499_13)">
<path d="M1449 0H0V1208H1449V0Z" fill="#0A53B5"/>
<path d="M498 728.858C498 791.435 359.879 842.163 189.5 842.163C19.1201 842.163 -119 791.435 -119 728.858C-119 666.28 201.507 453.024 189.5 615.552C177.492 778.08 498 666.28 498 728.858Z" fill="#93B413"/>
<path d="M146.693 296.305C-86.1206 359.728 -18.2168 341.229 -18.2168 341.229L-4.25018 112.662L64.2539 221.201L-198 110.488C-198 110.488 379.506 232.88 146.693 296.305Z" fill="#93B413"/>
<path d="M1569 322.373C1470.5 394.278 1485.28 467.381 1382 467.381C1278.72 467.381 1250.5 406.861 1187 343.345C1187 263.26 1278.72 177.365 1382 177.365C1485.28 177.365 1569 242.288 1569 322.373Z" fill="#93B413"/>
<path d="M894 128.902C851.332 128.902 834.725 188.238 761.605 188.238C688.485 188.238 556.424 188.238 629.21 128.902C701.996 69.5664 688.485 69.5664 761.605 69.5664C834.725 69.5664 894 96.1318 894 128.902Z" fill="#3A9EB6"/>
<path d="M1230 556.969C1230 643.254 1021.81 612.639 888.554 612.639C755.293 612.639 747.423 643.254 747.423 556.969C747.423 470.684 595.479 455.806 949.445 354.045C1303.41 252.283 1090.58 432.461 1230 556.969Z" fill="#3A9EB6"/>
<path d="M668 440.95C668 506.24 642.682 613.775 516.223 613.775C389.765 613.775 235.568 679.786 287.25 495.558C338.933 311.331 389.765 377.341 516.223 377.341C642.682 377.341 668 375.661 668 440.95Z" fill="#3A9EB6"/>
<path d="M1449 958.06C1449 1040.89 1312.21 1009.09 1286.6 1170.51C1260.99 1331.93 1074.13 1103.36 1074.13 1020.55C1074.13 937.722 1055.16 860.168 1172.5 860.168C1289.85 860.168 1449 875.235 1449 958.06Z" fill="#3A9EB6"/>
<path d="M517.55 1167.74C517.55 1308.4 401.245 1422.43 257.775 1422.43C114.305 1422.43 -2 1308.4 -2 1167.74C-2 1027.09 259.842 925.642 403.311 925.642C546.781 925.642 517.55 1027.09 517.55 1167.74Z" fill="#3A9EB6"/>
<path d="M1060 1109.33C1060 1280.9 947.293 1419.97 808.263 1419.97C669.232 1419.97 556.526 1280.9 556.526 1109.33C480.144 792.474 655.784 841.647 794.815 841.647C1002.44 1073.12 1060 937.771 1060 1109.33Z" fill="#93B413"/>
<path d="M1241 764.004C1241 794.965 1181.67 820.065 1108.5 820.065C1035.33 820.065 976 794.965 976 764.004C976 733.042 1011.91 751.115 1108.5 707.94C1205.09 664.767 1241 733.042 1241 764.004Z" fill="#93B413"/>
</g>
</g>
<defs>
<clipPath id="clip0_499_13">
<rect width="1449" height="1208" fill="white"/>
</clipPath>
</defs>
</svg>
