<svg width="1449" height="1105" viewBox="0 0 1449 1105" fill="none" xmlns="http://www.w3.org/2000/svg">
<g clip-path="url(#clip0_467_13)">
<mask id="mask0_467_13" style="mask-type:luminance" maskUnits="userSpaceOnUse" x="0" y="0" width="1449" height="1105">
<path d="M1449 0H0V1105H1449V0Z" fill="white"/>
</mask>
<g mask="url(#mask0_467_13)">
<path d="M1449 0H0V1105H1449V0Z" fill="#0A53B5"/>
<path d="M319 623.167C319 680.403 219.383 726.801 96.5 726.801C-26.3834 726.801 -126 680.403 -126 623.167C-126 565.931 105.16 370.878 96.5 519.533C87.8398 668.188 319 565.931 319 623.167Z" fill="#93B413"/>
<path d="M112.033 271.116C-97.3704 329.188 -36.2945 312.25 -36.2945 312.25L-23.7323 102.968L37.8835 202.349L-198 100.977C-198 100.977 321.436 213.044 112.033 271.116Z" fill="#93B413"/>
<path d="M1569 294.886C1470.5 360.66 1485.28 427.53 1382 427.53C1278.72 427.53 1250.5 372.17 1187 314.07C1187 240.813 1278.72 162.242 1382 162.242C1485.28 162.242 1569 221.629 1569 294.886Z" fill="#93B413"/>
<path d="M837.901 162.79C803.901 162.79 790.667 217.054 732.401 217.054C674.135 217.054 568.901 217.054 626.901 162.79C684.901 108.527 674.135 108.527 732.401 108.527C790.667 108.527 837.901 132.821 837.901 162.79Z" fill="#3A9EB6"/>
<path d="M1230.5 509.747C1230.5 588.756 1047.58 560.722 930.5 560.722C813.415 560.722 806.5 588.756 806.5 509.747C806.5 430.738 673 417.116 984 323.936C1295 230.756 1108 395.739 1230.5 509.747Z" fill="#3A9EB6"/>
<path d="M576 403.413C576 463.048 556.65 561.27 460 561.27C363.35 561.27 245.5 621.563 285 453.291C324.5 285.02 363.35 345.313 460 345.313C556.65 345.313 576 343.778 576 403.413Z" fill="#3A9EB6"/>
<path d="M1449 876.654C1449 952.427 1328.22 923.339 1305.6 1071.02C1282.99 1218.7 1118 1009.59 1118 933.82C1118 858.047 1101.25 787.093 1204.86 787.093C1308.47 787.093 1449 800.881 1449 876.654Z" fill="#3A9EB6"/>
<path d="M496 1068.28C496 1196.93 384.519 1301.23 247 1301.23C109.481 1301.23 -2 1196.93 -2 1068.28C-2 939.623 248.981 846.838 386.5 846.838C524.019 846.838 496 939.623 496 1068.28Z" fill="#3A9EB6"/>
<path d="M1023 1014.87C1023 1171.68 918.234 1298.8 789 1298.8C659.765 1298.8 555 1171.68 555 1014.87C484 725.264 647.265 770.209 776.5 770.209C969.5 981.782 1023 858.069 1023 1014.87Z" fill="#93B413"/>
<path d="M1175 698.623C1175 726.899 1130.45 749.821 1075.5 749.821C1020.55 749.821 976 726.899 976 698.623C976 670.347 1002.97 686.853 1075.5 647.424C1148.03 607.996 1175 670.347 1175 698.623Z" fill="#93B413"/>
</g>
</g>
<defs>
<clipPath id="clip0_467_13">
<rect width="1449" height="1105" fill="white"/>
</clipPath>
</defs>
</svg>
