<svg width="546" height="393" viewBox="0 0 546 393" fill="none" xmlns="http://www.w3.org/2000/svg">
<rect width="546" height="393" fill="#0A53B5"/>
<rect width="18.0449" height="18.5385" rx="5" transform="matrix(0.716722 0.697359 -0.620224 0.784425 56.54 0)" fill="#99D9F4"/>
<path d="M86.2646 56.3516C88.1579 52.8697 93.1564 52.8697 95.0498 56.3516L97.2936 60.4781C99.1053 63.8098 96.6934 67.8667 92.901 67.8667H88.4134C84.6209 67.8667 82.2091 63.8098 84.0208 60.4781L86.2646 56.3516Z" fill="#C0D474"/>
<ellipse cx="23.279" cy="58.496" rx="9.6525" ry="10.2225" fill="#FBA18B"/>
<path d="M57.3537 313.977C56.5766 309.896 60.0186 306.353 63.4486 307.704L70.821 310.607C74.1483 311.917 74.9738 316.88 72.319 319.613L66.6169 325.482C63.9621 328.215 59.7779 326.709 59.0241 322.75L57.3537 313.977Z" fill="#99D9F4"/>
<rect width="20.4494" height="23.9278" rx="5" transform="matrix(0.746848 -0.664995 0.556571 0.8308 0 324.824)" fill="#A1B6ED"/>
<rect width="20.4494" height="23.9278" rx="5" transform="matrix(0.746848 -0.664995 0.556571 0.8308 74.3691 363.432)" fill="#C0D474"/>
<ellipse cx="37.1852" cy="378.819" rx="8.26332" ry="9.16013" fill="#FBA18B"/>
<path d="M459.67 85.169C461.576 81.7476 466.498 81.7476 468.405 85.169L469.178 86.5565C471.035 89.8893 468.626 93.9905 464.81 93.9905H463.264C459.449 93.9905 457.039 89.8893 458.896 86.5565L459.67 85.169Z" fill="#A1B6ED"/>
<path d="M530.751 17.4923C532.658 14.0708 537.58 14.0708 539.486 17.4923L540.259 18.8798C542.117 22.2125 539.707 26.3137 535.892 26.3137H534.345C530.53 26.3137 528.121 22.2125 529.978 18.8798L530.751 17.4923Z" fill="#99D9F4"/>
<rect width="19.7268" height="23.7885" rx="5" transform="matrix(0.998699 -0.0509886 0.0446819 0.999001 444.393 20.7251)" fill="#A1B6ED"/>
<ellipse cx="521.051" cy="88.4373" rx="8.44584" ry="8.67653" fill="#FBA18B"/>
<rect width="13.3776" height="16.9782" rx="5" transform="matrix(0.90827 0.418383 -0.319789 0.947489 533.849 326.896)" fill="#C0D474"/>
<path d="M454.589 373.593C453.784 369.46 457.244 365.85 460.669 367.251L464.312 368.741C467.588 370.081 468.382 375.044 465.758 377.782L462.971 380.688C460.347 383.426 456.215 381.944 455.445 377.99L454.589 373.593Z" fill="#99D9F4"/>
<path d="M482.235 302.885C482.235 307.691 478.767 311.587 474.488 311.587C470.209 311.587 466.741 307.691 466.741 302.885C466.741 298.078 470.209 294.182 474.488 294.182C478.767 294.182 482.235 298.078 482.235 302.885Z" fill="#FBA18B"/>
</svg>
