<svg width="1024" height="1032" viewBox="0 0 1024 1032" fill="none" xmlns="http://www.w3.org/2000/svg">
<g clip-path="url(#clip0_45_42)">
<rect width="1024" height="1032" fill="#0A53B5"/>
<path d="M335 615.299C335 669.258 244.562 713 133 713C21.4385 713 -69 669.258 -69 615.299C-69 561.34 140.862 377.453 133 517.598C125.138 657.743 335 561.34 335 615.299Z" fill="#93B413"/>
<path d="M103.205 254.411C-50.0251 301.017 -5.33287 287.424 -5.33287 287.424L-4.44852 79.9754L45.3406 182.081L-134 68.7234C-134 68.7234 256.436 207.804 103.205 254.411Z" fill="#93B413"/>
<path d="M1159 224.5C1080.87 277.31 1092.59 331 1010.67 331C928.754 331 906.368 286.552 856 239.903C856 181.085 928.754 118 1010.67 118C1092.59 118 1159 165.682 1159 224.5Z" fill="#93B413"/>
<path d="M624 122C591.328 122 578.611 169 522.621 169C466.63 169 365.506 169 421.241 122C476.976 75 466.63 75 522.621 75C578.611 75 624 96.0426 624 122Z" fill="#3A9EB6"/>
<path d="M979 502.196C979 565.63 826.6 543.122 729.048 543.122C631.497 543.122 625.735 565.63 625.735 502.196C625.735 438.763 514.506 427.826 773.623 353.016C1032.74 278.205 876.936 410.664 979 502.196Z" fill="#3A9EB6"/>
<path d="M544 366.326C544 425.716 526.064 523.536 436.475 523.536C346.887 523.536 237.648 583.581 274.262 416C310.876 248.419 346.887 308.464 436.475 308.464C526.064 308.464 544 306.936 544 366.326Z" fill="#3A9EB6"/>
<path d="M1032.94 890.878C1032.94 951.691 944.557 928.346 928.008 1046.87C911.46 1165.39 790.731 997.57 790.731 936.758C790.731 875.945 778.477 819 854.293 819C930.109 819 1032.94 830.065 1032.94 890.878Z" fill="#3A9EB6"/>
<path d="M363.411 1027.72C363.411 1130.97 281.835 1214.68 181.206 1214.68C80.5762 1214.68 -1 1130.97 -1 1027.72C-1 924.465 182.655 850 283.284 850C383.914 850 363.411 924.465 363.411 1027.72Z" fill="#3A9EB6"/>
<path d="M760.06 960.384C760.06 1086.23 683.398 1188.25 588.83 1188.25C494.263 1188.25 417.601 1086.23 417.601 960.384C365.647 727.952 485.116 764.024 579.684 764.024C720.911 933.824 760.06 834.536 760.06 960.384Z" fill="#93B413"/>
<path d="M891.618 635.288C891.618 657.982 859.02 676.379 818.809 676.379C778.598 676.379 746 657.982 746 635.288C746 612.595 765.737 625.842 818.809 594.198C871.881 562.554 891.618 612.595 891.618 635.288Z" fill="#93B413"/>
</g>
<defs>
<clipPath id="clip0_45_42">
<rect width="1024" height="1032" fill="white"/>
</clipPath>
</defs>
</svg>
