<svg width="524" height="341" viewBox="0 0 524 341" fill="none" xmlns="http://www.w3.org/2000/svg">
<rect width="524" height="341" fill="#0A53B5"/>
<path d="M12.2728 312.236C12.0076 310.78 13.3918 309.561 14.8298 309.985L33.0747 315.365C34.5853 315.811 35.0179 317.716 33.8431 318.75L18.9632 331.844C17.7884 332.878 15.9165 332.239 15.6379 330.71L12.2728 312.236Z" fill="#99D9F4"/>
<path d="M33.5629 271.76C33.2264 270.249 34.6932 268.959 36.1785 269.459L51.9145 274.756C53.3741 275.248 53.7581 277.106 52.6091 278.118L40.4383 288.828C39.2892 289.839 37.4588 289.253 37.1281 287.768L33.5629 271.76Z" fill="#99D9F4"/>
<path d="M96.2162 310.884C96.9942 309.596 98.862 309.596 99.64 310.884L105.065 319.865C105.871 321.198 104.911 322.899 103.353 322.899H92.5028C90.9455 322.899 89.9857 321.198 90.7909 319.865L96.2162 310.884Z" fill="#C0D474"/>
<rect width="18.9555" height="21.3229" rx="2" transform="matrix(0.795703 -0.605686 0.616809 0.787113 0 275.569)" fill="#A1B6ED"/>
<rect width="18.9555" height="21.3229" rx="2" transform="matrix(0.795703 -0.605686 0.616809 0.787113 52.417 261.374)" fill="#C0D474"/>
<ellipse cx="63.4019" cy="317.949" rx="8.1607" ry="7.73366" fill="#FBA18B"/>
<rect width="14.7454" height="15.5834" rx="2" transform="matrix(0.941391 0.337318 -0.398038 0.917369 435.608 297.842)" fill="#C0D474"/>
<path d="M458.137 266.818C457.773 265.363 459.299 264.125 460.848 264.618L475.468 269.269C476.981 269.75 477.384 271.53 476.198 272.492L465.014 281.566C463.828 282.529 461.929 281.964 461.573 280.543L458.137 266.818Z" fill="#99D9F4"/>
<path d="M464.839 313.388C465.629 312.183 467.395 312.183 468.185 313.388L474.212 322.587C475.083 323.917 474.129 325.683 472.539 325.683H460.485C458.895 325.683 457.94 323.917 458.812 322.587L464.839 313.388Z" fill="#A1B6ED"/>
<rect width="15.2951" height="14.8527" rx="2" transform="matrix(0.818517 -0.574483 0.647598 0.761982 500.893 318.693)" fill="#99D9F4"/>
<rect width="20.6648" height="21.2115" rx="2" transform="matrix(0.999058 -0.0433848 0.0525119 0.99862 493.404 258.523)" fill="#A1B6ED"/>
<ellipse cx="492.042" cy="297.842" rx="8.85063" ry="7.73366" fill="#FBA18B"/>
<path d="M13.4952 73.0228C13.269 71.6944 14.6434 70.6104 16.1119 70.9588L32.7057 74.8958C34.3435 75.2843 34.8581 77.1241 33.6053 78.1122L19.5675 89.1841C18.3147 90.1722 16.3033 89.513 16.0511 88.0316L13.4952 73.0228Z" fill="#99D9F4"/>
<rect width="14.1778" height="14.1412" rx="2" transform="matrix(0.790492 0.612472 -0.70459 0.709614 58.6514 21.7799)" fill="#99D9F4"/>
<path d="M55.2264 69.3508C54.8838 67.9369 56.3939 66.7459 57.9456 67.2061L73.0498 71.6858C74.6026 72.1463 75.0324 73.9149 73.8233 74.8686L62.0537 84.1515C60.8445 85.1052 58.9037 84.5284 58.5609 83.1134L55.2264 69.3508Z" fill="#C0D474"/>
<path d="M13.9896 14.8896C14.7824 13.7134 16.5138 13.7134 17.3066 14.8896L22.7141 22.9125C23.6094 24.2409 22.6576 26.0303 21.0556 26.0303H10.2406C8.63862 26.0303 7.68678 24.2409 8.58214 22.9125L13.9896 14.8896Z" fill="#C0D474"/>
<rect width="19.4719" height="19.4312" rx="2" transform="matrix(0.99911 -0.0421747 0.054017 0.99854 86.5391 13.2502)" fill="#A1B6ED"/>
<ellipse cx="27.1947" cy="45.0154" rx="8.34017" ry="7.084" fill="#FBA18B"/>
<path d="M467.166 11.8444C466.818 10.3832 468.319 9.14234 469.848 9.62713L486.121 14.7876C487.629 15.2658 488.034 17.0694 486.853 18.0459L474.281 28.4393C473.1 29.4159 471.211 28.8396 470.868 27.3983L467.166 11.8444Z" fill="#C0D474"/>
<path d="M512.22 59.2881C513.008 58.0637 514.797 58.0637 515.585 59.2881L520.667 67.1915C521.523 68.5225 520.567 70.2732 518.984 70.2732H508.821C507.238 70.2732 506.282 68.5225 507.138 67.1915L512.22 59.2881Z" fill="#A1B6ED"/>
<path d="M451.015 38.8863C451.802 37.6619 453.592 37.6619 454.38 38.8863L459.462 46.7897C460.317 48.1207 459.362 49.8714 457.779 49.8714H447.615C446.033 49.8714 445.077 48.1207 445.933 46.7897L451.015 38.8863Z" fill="#99D9F4"/>
<path d="M506.711 10.2669C507.499 9.04248 509.289 9.04248 510.076 10.2669L515.158 18.1703C516.014 19.5013 515.058 21.252 513.476 21.252H503.312C501.729 21.252 500.774 19.5013 501.629 18.1703L506.711 10.2669Z" fill="#99D9F4"/>
<rect width="13.8365" height="13.4997" rx="2" transform="matrix(0.813406 -0.581696 0.640535 0.767929 425.155 18.533)" fill="#99D9F4"/>
<rect width="18.578" height="19.4287" rx="2" transform="matrix(0.999022 -0.044204 0.0515396 0.998671 481.157 29.7238)" fill="#A1B6ED"/>
<ellipse cx="482.993" cy="72.8234" rx="7.95661" ry="7.084" fill="#FBA18B"/>
</svg>
