<svg width="1449" height="810" viewBox="0 0 1449 810" fill="none" xmlns="http://www.w3.org/2000/svg">
<g clip-path="url(#clip0_524_122)">
<mask id="mask0_524_122" style="mask-type:luminance" maskUnits="userSpaceOnUse" x="0" y="0" width="1449" height="810">
<path d="M1449 0H0V810H1449V0Z" fill="white"/>
</mask>
<g mask="url(#mask0_524_122)">
<path d="M1449 0H0V810H1449V0Z" fill="#0A53B5"/>
<path d="M319 456.802C319 498.757 219.383 532.768 96.5 532.768C-26.3834 532.768 -126 498.757 -126 456.802C-126 414.846 105.16 271.866 96.5 380.835C87.8398 489.804 319 414.846 319 456.802Z" fill="#93B413"/>
<path d="M112.033 198.737C-97.3704 241.305 -36.2945 228.89 -36.2945 228.89L-23.7323 75.4787L37.8835 148.328L-198 74.0195C-198 74.0195 321.436 156.168 112.033 198.737Z" fill="#93B413"/>
<path d="M1569 216.16C1470.5 264.374 1485.28 313.392 1382 313.392C1278.72 313.392 1250.5 272.812 1187 230.222C1187 176.523 1278.72 118.928 1382 118.928C1485.28 118.928 1569 162.46 1569 216.16Z" fill="#93B413"/>
<path d="M837.901 119.33C803.901 119.33 790.667 159.106 732.401 159.106C674.135 159.106 568.901 159.106 626.901 119.33C684.901 79.5527 674.135 79.5527 732.401 79.5527C790.667 79.5527 837.901 97.3615 837.901 119.33Z" fill="#3A9EB6"/>
<path d="M1230.5 373.661C1230.5 431.577 1047.58 411.028 930.501 411.028C813.416 411.028 806.501 431.577 806.501 373.661C806.501 315.746 673.001 305.76 984.001 237.456C1295 169.153 1108 290.09 1230.5 373.661Z" fill="#3A9EB6"/>
<path d="M576 295.715C576 339.43 556.65 411.43 460 411.43C363.35 411.43 245.5 455.626 285 332.278C324.5 208.93 363.35 253.126 460 253.126C556.65 253.126 576 252.001 576 295.715Z" fill="#3A9EB6"/>
<path d="M1449 642.616C1449 698.159 1328.22 676.838 1305.6 785.091C1282.99 893.347 1118 740.064 1118 684.52C1118 628.976 1101.25 576.965 1204.86 576.965C1308.47 576.965 1449 587.071 1449 642.616Z" fill="#3A9EB6"/>
<path d="M496 783.081C496 877.388 384.519 953.84 247 953.84C109.481 953.84 -2 877.388 -2 783.081C-2 688.774 248.981 620.76 386.5 620.76C524.019 620.76 496 688.774 496 783.081Z" fill="#3A9EB6"/>
<path d="M1023 743.934C1023 858.88 918.234 952.062 789 952.062C659.765 952.062 555 858.88 555 743.934C484 531.64 647.265 564.587 776.5 564.587C969.5 719.676 1023 628.991 1023 743.934Z" fill="#93B413"/>
<path d="M1175 512.113C1175 532.84 1130.45 549.643 1075.5 549.643C1020.55 549.643 976 532.84 976 512.113C976 491.385 1002.97 503.485 1075.5 474.582C1148.03 445.68 1175 491.385 1175 512.113Z" fill="#93B413"/>
</g>
</g>
<defs>
<clipPath id="clip0_524_122">
<rect width="1449" height="810" fill="white"/>
</clipPath>
</defs>
</svg>
