<svg width="1449" height="829" viewBox="0 0 1449 829" fill="none" xmlns="http://www.w3.org/2000/svg">
<g clip-path="url(#clip0_1175_344)">
<mask id="mask0_1175_344" style="mask-type:luminance" maskUnits="userSpaceOnUse" x="0" y="0" width="1449" height="829">
<path d="M1449 0H0V829H1449V0Z" fill="white"/>
</mask>
<g mask="url(#mask0_1175_344)">
<mask id="mask1_1175_344" style="mask-type:luminance" maskUnits="userSpaceOnUse" x="0" y="0" width="1449" height="829">
<path d="M1449 0H0V829H1449V0Z" fill="white"/>
</mask>
<g mask="url(#mask1_1175_344)">
<path d="M1449 0H0V829H1449V0Z" fill="#0A53B5"/>
</g>
<path d="M1227.41 717.414L1189.84 704.317C1188.81 703.959 1187.65 704.408 1187.24 705.32L1170.27 743.388C1169.86 744.301 1170.36 745.331 1171.39 745.689L1208.96 758.786C1209.99 759.144 1211.15 758.695 1211.56 757.783L1228.53 719.715C1228.94 718.802 1228.44 717.772 1227.41 717.414Z" fill="#C0D474"/>
<path d="M38.3032 738.973C38.0391 737.672 39.4185 736.584 40.8501 736.962L114.415 756.421C115.917 756.819 116.346 758.519 115.177 759.442L55.1801 806.804C54.0106 807.727 52.1482 807.158 51.8711 805.793L38.3032 738.973Z" fill="#99D9F4"/>
<path d="M106.566 621.306C106.231 619.957 107.693 618.803 109.172 619.25L174.765 639.059C176.217 639.498 176.597 641.156 175.453 642.059L124.721 682.107C123.577 683.011 121.756 682.489 121.427 681.164L106.566 621.306Z" fill="#99D9F4"/>
<path d="M1253.31 607.379C1252.96 606.019 1254.44 604.853 1255.93 605.313L1313.37 623.094C1314.82 623.54 1315.19 625.191 1314.05 626.09L1270.1 660.781C1268.96 661.68 1267.15 661.168 1266.81 659.851L1253.31 607.379Z" fill="#99D9F4"/>
<path d="M314.209 735.76C314.985 734.607 316.865 734.607 317.641 735.76L343.052 773.493C343.85 774.679 342.889 776.183 341.336 776.183H290.514C288.96 776.183 288 774.679 288.798 773.493L314.209 735.76Z" fill="#C0D474"/>
<path d="M1278.18 743.817C1278.96 742.664 1280.84 742.664 1281.62 743.817L1307.03 781.551C1307.82 782.736 1306.86 784.24 1305.31 784.24H1254.49C1252.94 784.24 1251.97 782.736 1252.77 781.551L1278.18 743.817Z" fill="#A1B6ED"/>
<path d="M47.0729 607.066L1.5858 638.127C0.709988 638.725 0.549036 639.838 1.22631 640.613L41.2036 686.378C41.8808 687.153 43.1399 687.297 44.0157 686.698L89.5027 655.638C90.3786 655.04 90.5395 653.927 89.8622 653.151L49.885 607.387C49.2077 606.612 47.9487 606.468 47.0729 607.066Z" fill="#A1B6ED"/>
<path d="M1417.82 739.666L1383.76 762.929C1382.88 763.527 1382.72 764.64 1383.4 765.416L1409.56 795.361C1410.23 796.136 1411.49 796.28 1412.37 795.682L1446.44 772.419C1447.31 771.821 1447.47 770.707 1446.79 769.932L1420.64 739.987C1419.96 739.211 1418.7 739.068 1417.82 739.666Z" fill="#99D9F4"/>
<path d="M216.174 565.987L170.687 597.047C169.812 597.645 169.651 598.759 170.328 599.534L210.305 645.298C210.982 646.073 212.241 646.217 213.117 645.619L258.604 614.558C259.48 613.96 259.641 612.847 258.964 612.072L218.987 566.308C218.309 565.532 217.05 565.389 216.174 565.987Z" fill="#C0D474"/>
<path d="M1419.3 587.37L1361.89 589.796C1360.78 589.842 1359.93 590.675 1359.99 591.655L1363.11 649.407C1363.16 650.387 1364.1 651.144 1365.2 651.097L1422.62 648.672C1423.72 648.625 1424.57 647.793 1424.52 646.812L1421.4 589.061C1421.34 588.08 1420.41 587.323 1419.3 587.37Z" fill="#A1B6ED"/>
<path d="M204.541 784.24C219.081 784.24 230.868 774.22 230.868 761.859C230.868 749.498 219.081 739.478 204.541 739.478C190.001 739.478 178.214 749.498 178.214 761.859C178.214 774.22 190.001 784.24 204.541 784.24Z" fill="#FBA18B"/>
<path d="M1355.84 726.049C1370.38 726.049 1382.17 716.029 1382.17 703.668C1382.17 691.307 1370.38 681.287 1355.84 681.287C1341.3 681.287 1329.51 691.307 1329.51 703.668C1329.51 716.029 1341.3 726.049 1355.84 726.049Z" fill="#FBA18B"/>
<path d="M54.9342 203.183C54.7192 201.921 56.0402 200.877 57.4358 201.209L125.119 217.281C126.659 217.647 127.125 219.378 125.936 220.316L68.6778 265.516C67.4892 266.455 65.5966 265.85 65.3595 264.456L54.9342 203.183Z" fill="#99D9F4"/>
<path d="M1259.1 30.0174C1258.76 28.667 1260.23 27.5118 1261.71 27.9598L1331.6 49.1225C1333.05 49.5617 1333.43 51.2195 1332.28 52.1221L1278.29 94.745C1277.15 95.6469 1275.33 95.1262 1275 93.8023L1259.1 30.0174Z" fill="#C0D474"/>
<path d="M232.398 73.7145L200.033 48.6168C199.201 47.9715 197.934 48.0451 197.204 48.7814L168.397 77.8192C167.666 78.5555 167.749 79.6755 168.581 80.3208L200.945 105.419C201.778 106.064 203.044 105.99 203.775 105.254L232.582 76.2161C233.312 75.4799 233.23 74.3599 232.398 73.7145Z" fill="#99D9F4"/>
<path d="M186.016 190.739C185.691 189.396 187.141 188.251 188.614 188.689L251.734 207.425C253.193 207.859 253.58 209.523 252.432 210.428L203.247 249.255C202.1 250.162 200.273 249.634 199.951 248.303L186.016 190.739Z" fill="#C0D474"/>
<path d="M1413.87 181.599C1414.64 180.446 1416.52 180.446 1417.3 181.599L1442.71 219.333C1443.51 220.518 1442.55 222.023 1440.99 222.023H1390.17C1388.62 222.023 1387.66 220.518 1388.46 219.333L1413.87 181.599Z" fill="#A1B6ED"/>
<path d="M61.063 20.4535C61.8394 19.3008 63.7191 19.3008 64.4955 20.4535L89.9064 58.1876C90.7041 59.3721 89.7437 60.8771 88.1902 60.8771H37.3683C35.8148 60.8771 34.8544 59.3721 35.6521 58.1876L61.063 20.4535Z" fill="#C0D474"/>
<path d="M1211.35 117.14C1212.13 115.988 1214.01 115.988 1214.78 117.14L1240.19 154.875C1240.99 156.059 1240.03 157.564 1238.48 157.564H1187.66C1186.1 157.564 1185.14 156.059 1185.94 154.875L1211.35 117.14Z" fill="#99D9F4"/>
<path d="M1395.64 26.7205C1396.42 25.5676 1398.3 25.5676 1399.07 26.7205L1424.48 64.4545C1425.28 65.639 1424.32 67.144 1422.77 67.144H1371.95C1370.39 67.144 1369.43 65.639 1370.23 64.4545L1395.64 26.7205Z" fill="#99D9F4"/>
<path d="M1157.59 34.2073L1123.53 57.4706C1122.65 58.0686 1122.49 59.1819 1123.17 59.9573L1149.32 89.9026C1150 90.6779 1151.26 90.8216 1152.14 90.2236L1186.2 66.9603C1187.08 66.3623 1187.24 65.249 1186.56 64.4737L1160.41 34.5283C1159.73 33.753 1158.47 33.6093 1157.59 34.2073Z" fill="#99D9F4"/>
<path d="M1366.65 91.4005L1309.24 93.8263C1308.13 93.8729 1307.28 94.7054 1307.34 95.6857L1310.46 153.437C1310.51 154.418 1311.45 155.175 1312.55 155.128L1369.97 152.702C1371.07 152.656 1371.92 151.823 1371.87 150.843L1368.75 93.0911C1368.69 92.1108 1367.76 91.3539 1366.65 91.4005Z" fill="#A1B6ED"/>
<path d="M345.972 17.9895L288.556 20.4153C287.453 20.4619 286.602 21.2944 286.655 22.2747L289.776 80.0263C289.829 81.0066 290.766 81.7635 291.87 81.7169L349.286 79.2911C350.389 79.2445 351.24 78.412 351.187 77.4317L348.066 19.6801C348.013 18.6998 347.076 17.9429 345.972 17.9895Z" fill="#A1B6ED"/>
<path d="M99.2313 143.24C113.771 143.24 125.558 133.22 125.558 120.859C125.558 108.498 113.771 98.4776 99.2313 98.4776C84.6913 98.4776 72.9043 108.498 72.9043 120.859C72.9043 133.22 84.6913 143.24 99.2313 143.24Z" fill="#FBA18B"/>
<path d="M1313.31 252.461C1327.85 252.461 1339.64 242.441 1339.64 230.08C1339.64 217.719 1327.85 207.699 1313.31 207.699C1298.77 207.699 1286.98 217.719 1286.98 230.08C1286.98 242.441 1298.77 252.461 1313.31 252.461Z" fill="#FBA18B"/>
</g>
</g>
<defs>
<clipPath id="clip0_1175_344">
<rect width="1449" height="829" fill="white"/>
</clipPath>
</defs>
</svg>
