<svg width="546" height="283" viewBox="0 0 546 283" fill="none" xmlns="http://www.w3.org/2000/svg">
<rect width="546" height="283" fill="#0A53B5"/>
<rect width="15.7918" height="15.5519" rx="5" transform="matrix(0.818983 0.573818 -0.739331 0.673342 56.54 0)" fill="#99D9F4"/>
<path d="M86.667 40.0459C88.6675 37.3966 92.6469 37.3966 94.6474 40.0459L95.2604 40.8578C97.7478 44.1519 95.398 48.8708 91.2702 48.8708H90.0441C85.9164 48.8708 83.5665 44.1519 86.0539 40.8578L86.667 40.0459Z" fill="#C0D474"/>
<ellipse cx="23.279" cy="42.123" rx="9.6525" ry="7.36128" fill="#FBA18B"/>
<path d="M57.6086 227.06C56.7038 223.638 60.58 220.765 64.5735 221.897L69.2864 223.233C73.2669 224.362 74.3793 228.627 71.2905 230.916L67.6454 233.618C64.5566 235.908 59.5782 234.509 58.6764 231.098L57.6086 227.06Z" fill="#99D9F4"/>
<rect width="18.1423" height="19.5519" rx="5" transform="matrix(0.84182 -0.539758 0.681137 0.732156 0 233.907)" fill="#A1B6ED"/>
<rect width="18.1423" height="19.5519" rx="5" transform="matrix(0.84182 -0.539758 0.681137 0.732156 74.3691 261.708)" fill="#C0D474"/>
<ellipse cx="37.1852" cy="272.788" rx="8.26332" ry="6.59623" fill="#FBA18B"/>
<path d="M460.435 60.3408C462.259 57.9848 465.816 57.9848 467.639 60.3408V60.3408C469.955 63.334 467.822 67.6826 464.037 67.6826V67.6826C460.252 67.6826 458.119 63.334 460.435 60.3408V60.3408Z" fill="#A1B6ED"/>
<path d="M531.517 11.6069C533.34 9.25086 536.897 9.25086 538.72 11.6069V11.6069C541.037 14.6001 538.903 18.9488 535.119 18.9488V18.9488C531.334 18.9488 529.2 14.6001 531.517 11.6069V11.6069Z" fill="#99D9F4"/>
<rect width="19.7144" height="17.146" rx="5" transform="matrix(0.999325 -0.03674 0.061992 0.998077 444.393 14.9243)" fill="#A1B6ED"/>
<ellipse cx="521.051" cy="63.684" rx="8.44584" ry="6.24798" fill="#FBA18B"/>
<rect width="12.8015" height="12.7933" rx="5" transform="matrix(0.949146 0.314837 -0.424398 0.905476 533.849 235.398)" fill="#C0D474"/>
<path d="M454.861 270.03C453.921 266.555 457.827 263.621 461.826 264.799L462.789 265.082C466.717 266.239 467.792 270.513 464.733 272.811L463.996 273.365C460.937 275.663 456.01 274.282 455.087 270.867L454.861 270.03Z" fill="#99D9F4"/>
<path d="M482.235 218.108C482.235 221.569 478.767 224.375 474.488 224.375C470.209 224.375 466.741 221.569 466.741 218.108C466.741 214.647 470.209 211.841 474.488 211.841C478.767 211.841 482.235 214.647 482.235 218.108Z" fill="#FBA18B"/>
</svg>
