<svg width="1449" height="1008" viewBox="0 0 1449 1008" fill="none" xmlns="http://www.w3.org/2000/svg">
<g clip-path="url(#clip0_45_42)">
<rect width="1449" height="1008" fill="#0A53B5"/>
<path d="M319 568.464C319 620.675 219.383 663 96.5 663C-26.3834 663 -126 620.675 -126 568.464C-126 516.252 105.16 338.321 96.5 473.927C87.8398 609.533 319 516.252 319 568.464Z" fill="#93B413"/>
<path d="M112.033 247.317C-97.3704 300.291 -36.2945 284.84 -36.2945 284.84L-23.7323 93.9288L37.8835 184.586L-198 92.1129C-198 92.1129 321.436 194.342 112.033 247.317Z" fill="#93B413"/>
<path d="M1569 269C1470.5 329 1485.28 390 1382 390C1278.72 390 1250.5 339.5 1187 286.5C1187 219.674 1278.72 148 1382 148C1485.28 148 1569 202.174 1569 269Z" fill="#93B413"/>
<path d="M837.901 148.5C803.901 148.5 790.667 198 732.401 198C674.135 198 568.901 198 626.901 148.5C684.901 99 674.135 99 732.401 99C790.667 99 837.901 121.162 837.901 148.5Z" fill="#3A9EB6"/>
<path d="M1230.5 465C1230.5 537.073 1047.58 511.5 930.5 511.5C813.415 511.5 806.5 537.073 806.5 465C806.5 392.927 673 380.5 984 295.5C1295 210.5 1108 361 1230.5 465Z" fill="#3A9EB6"/>
<path d="M576 368C576 422.4 556.65 512 460 512C363.35 512 245.5 567 285 413.5C324.5 260 363.35 315 460 315C556.65 315 576 313.6 576 368Z" fill="#3A9EB6"/>
<path d="M1449 799.699C1449 868.82 1328.22 842.286 1305.6 977.002C1282.99 1111.72 1118 920.968 1118 851.847C1118 782.725 1101.25 718 1204.86 718C1308.47 718 1449 730.577 1449 799.699Z" fill="#3A9EB6"/>
<path d="M496 974.5C496 1091.86 384.519 1187 247 1187C109.481 1187 -2 1091.86 -2 974.5C-2 857.14 248.981 772.5 386.5 772.5C524.019 772.5 496 857.14 496 974.5Z" fill="#3A9EB6"/>
<path d="M1023 925.786C1023 1068.83 918.234 1184.79 789 1184.79C659.765 1184.79 555 1068.83 555 925.786C484 661.598 647.265 702.598 776.5 702.598C969.5 895.598 1023 782.745 1023 925.786Z" fill="#93B413"/>
<path d="M1175 637.296C1175 663.09 1130.45 684 1075.5 684C1020.55 684 976 663.09 976 637.296C976 611.502 1002.97 626.559 1075.5 590.591C1148.03 554.624 1175 611.502 1175 637.296Z" fill="#93B413"/>
</g>
<defs>
<clipPath id="clip0_45_42">
<rect width="1449" height="1008" fill="white"/>
</clipPath>
</defs>
</svg>
