<svg width="565" height="434" viewBox="0 0 565 434" fill="none" xmlns="http://www.w3.org/2000/svg">
<rect width="565" height="433.97" fill="#0A53B5"/>
<rect width="17.1052" height="18.666" rx="2" transform="matrix(0.936508 0.350648 -0.383485 0.923547 460.885 381.957)" fill="#C0D474"/>
<path d="M486.74 343.952C486.383 342.461 487.886 341.186 489.406 341.692L507.483 347.701C508.962 348.193 509.349 350.01 508.186 350.997L494.357 362.721C493.194 363.708 491.336 363.137 490.988 361.686L486.74 343.952Z" fill="#99D9F4"/>
<path d="M494.853 400.327C495.636 399.077 497.458 399.077 498.242 400.327L505.854 412.467C506.689 413.799 505.732 415.53 504.159 415.53H488.935C487.363 415.53 486.405 413.799 487.24 412.467L494.853 400.327Z" fill="#A1B6ED"/>
<rect width="17.9164" height="17.5916" rx="2" transform="matrix(0.80638 -0.591398 0.630983 0.775796 536.224 407.101)" fill="#99D9F4"/>
<rect width="23.8496" height="25.5755" rx="2" transform="matrix(0.998972 -0.0453305 0.0502595 0.998736 527.581 334.543)" fill="#A1B6ED"/>
<path d="M14.0212 398.748C13.7618 397.256 15.122 396.001 16.5284 396.436L38.6656 403.278C40.1371 403.733 40.5517 405.678 39.4029 406.738L21.3486 423.39C20.1999 424.45 18.3755 423.805 18.1041 422.243L14.0212 398.748Z" fill="#99D9F4"/>
<path d="M38.4814 349.893C38.1523 348.344 39.5934 347.015 41.0457 347.527L60.305 354.323C61.7265 354.825 62.0941 356.723 60.9705 357.759L46.0746 371.499C44.951 372.535 43.1669 371.944 42.8448 370.428L38.4814 349.893Z" fill="#99D9F4"/>
<path d="M110.931 397.273C111.7 395.938 113.627 395.938 114.396 397.273L121.255 409.174C122.023 410.507 121.061 412.172 119.522 412.172H105.805C104.266 412.172 103.303 410.507 104.072 409.174L110.931 397.273Z" fill="#C0D474"/>
<rect width="22.1986" height="25.2697" rx="2" transform="matrix(0.781683 -0.623676 0.598781 0.800913 0 355.098)" fill="#A1B6ED"/>
<rect width="22.1986" height="25.2697" rx="2" transform="matrix(0.781683 -0.623676 0.598781 0.800913 60.3037 337.981)" fill="#C0D474"/>
<ellipse cx="72.9423" cy="406.204" rx="9.38856" ry="9.32584" fill="#FBA18B"/>
<ellipse cx="526.01" cy="381.957" rx="10.2138" ry="9.32584" fill="#FBA18B"/>
<path d="M490.517 13.7035C490.16 12.291 491.69 11.0986 493.257 11.5672L516.438 18.5001C517.991 18.9646 518.417 20.7158 517.206 21.6597L499.298 35.6229C498.087 36.5668 496.143 35.9997 495.79 34.5996L490.517 13.7035Z" fill="#C0D474"/>
<path d="M550.152 72.2597C550.946 71.0952 552.663 71.0952 553.457 72.2597L561.1 83.47C562.006 84.7976 561.055 86.5967 559.448 86.5967H544.161C542.555 86.5967 541.604 84.7976 542.509 83.47L550.152 72.2597Z" fill="#A1B6ED"/>
<path d="M470.18 47.1185C470.974 45.9541 472.691 45.9541 473.485 47.1185L481.128 58.3289C482.033 59.6565 481.083 61.4556 479.476 61.4556H464.189C462.582 61.4556 461.632 59.6565 462.537 58.3289L470.18 47.1185Z" fill="#99D9F4"/>
<path d="M542.955 11.8515C543.749 10.6871 545.466 10.6871 546.26 11.8515L553.903 23.0619C554.808 24.3895 553.858 26.1885 552.251 26.1885H536.964C535.357 26.1885 534.407 24.3895 535.312 23.0619L542.955 11.8515Z" fill="#99D9F4"/>
<rect width="17.7378" height="17.0544" rx="2" transform="matrix(0.829061 -0.559158 0.662495 0.749067 435.847 22.838)" fill="#99D9F4"/>
<rect width="24.272" height="23.9456" rx="2" transform="matrix(0.99913 -0.0416934 0.0546398 0.998506 509.02 36.6283)" fill="#A1B6ED"/>
<path d="M13.4812 81.1535C13.2628 79.7593 14.6005 78.6124 16.0185 78.9781L36.0179 84.1359C37.5873 84.5407 38.0677 86.457 36.8593 87.493L19.9405 101.999C18.7321 103.035 16.8034 102.36 16.5617 100.817L13.4812 81.1535Z" fill="#99D9F4"/>
<rect width="16.6108" height="16.7479" rx="2" transform="matrix(0.764865 0.64419 -0.674424 0.738345 64.751 18.5063)" fill="#99D9F4"/>
<path d="M60.7405 76.559C60.4101 75.0764 61.879 73.817 63.3758 74.2996L81.6943 80.2054C83.1818 80.6849 83.5816 82.5275 82.4152 83.5275L68.1409 95.7658C66.9745 96.7658 65.113 96.1764 64.7846 94.7031L60.7405 76.559Z" fill="#C0D474"/>
<path d="M14.3014 9.72487C15.0835 8.46345 16.9188 8.46345 17.7009 9.72487L24.5 20.6902C25.3261 22.0226 24.3679 23.7442 22.8002 23.7442H9.20205C7.63438 23.7442 6.67617 22.0226 7.50228 20.6902L14.3014 9.72487Z" fill="#C0D474"/>
<rect width="22.0775" height="23.9395" rx="2" transform="matrix(0.998949 -0.0458377 0.0497035 0.998764 96.3652 7.99548)" fill="#A1B6ED"/>
<ellipse cx="29.0924" cy="47.1391" rx="9.45466" ry="8.72952" fill="#FBA18B"/>
<ellipse cx="511.42" cy="89.7393" rx="10.3963" ry="8.72952" fill="#FBA18B"/>
</svg>
