<svg width="1024" height="1032" viewBox="0 0 1024 1032" fill="none" xmlns="http://www.w3.org/2000/svg">
<g clip-path="url(#clip0_45_42)">
<rect width="1024" height="1032" fill="#0A53B5"/>
<path d="M244.314 487.815C244.314 533.75 171.42 570.987 81.5002 570.987C-8.41958 570.987 -81.314 533.75 -81.314 487.815C-81.314 441.879 87.8373 285.336 81.5002 404.642C75.1631 523.947 244.314 441.879 244.314 487.815Z" fill="#93B413"/>
<path d="M92.8661 205.271C-60.3645 251.878 -15.6722 238.284 -15.6722 238.284L-6.47981 70.321L38.6074 150.081L-134 68.7234C-134 68.7234 246.097 158.664 92.8661 205.271Z" fill="#93B413"/>
<path d="M1159 224.348C1086.92 277.136 1097.74 330.803 1022.16 330.803C946.59 330.803 925.938 286.373 879.472 239.744C879.472 180.951 946.59 117.893 1022.16 117.893C1097.74 117.893 1159 165.554 1159 224.348Z" fill="#93B413"/>
<path d="M624.019 118.333C599.14 118.333 589.456 161.882 546.82 161.882C504.184 161.882 427.179 161.882 469.62 118.333C512.062 74.7827 504.184 74.7827 546.82 74.7827C589.456 74.7827 624.019 94.2806 624.019 118.333Z" fill="#3A9EB6"/>
<path d="M911.303 396.788C911.303 460.197 777.455 437.698 691.779 437.698C606.102 437.698 601.042 460.197 601.042 396.788C601.042 333.378 503.353 322.445 730.927 247.662C958.501 172.88 821.664 305.289 911.303 396.788Z" fill="#3A9EB6"/>
<path d="M432.374 311.448C432.374 359.309 418.214 438.138 347.491 438.138C276.767 438.138 190.531 486.527 219.435 351.478C248.339 216.43 276.767 264.818 347.491 264.818C418.214 264.818 432.374 263.587 432.374 311.448Z" fill="#3A9EB6"/>
<path d="M1032.94 675.878C1032.94 736.691 944.557 713.346 928.008 831.869C911.46 950.391 790.731 782.57 790.731 721.758C790.731 660.945 778.477 604 854.293 604C930.109 604 1032.94 615.065 1032.94 675.878Z" fill="#3A9EB6"/>
<path d="M373.834 845.044C373.834 948.297 292.258 1032 191.628 1032C90.999 1032 9.42285 948.297 9.42285 845.044C9.42285 741.79 193.078 667.325 293.707 667.325C394.337 667.325 373.834 741.79 373.834 845.044Z" fill="#3A9EB6"/>
<path d="M759.465 802.186C759.465 928.033 682.803 1030.05 588.236 1030.05C493.669 1030.05 417.007 928.033 417.007 802.186C365.053 569.754 484.522 605.826 579.089 605.826C720.317 775.626 759.465 676.338 759.465 802.186Z" fill="#93B413"/>
<path d="M870.691 548.373C870.691 571.066 838.093 589.463 797.882 589.463C757.67 589.463 725.073 571.066 725.073 548.373C725.073 525.679 744.81 538.927 797.882 507.283C850.953 475.638 870.691 525.679 870.691 548.373Z" fill="#93B413"/>
</g>
<defs>
<clipPath id="clip0_45_42">
<rect width="1024" height="1032" fill="white"/>
</clipPath>
</defs>
</svg>
