<svg width="341" height="197" viewBox="0 0 341 197" fill="none" xmlns="http://www.w3.org/2000/svg">
<g clip-path="url(#clip0_764_91)">
<mask id="mask0_764_91" style="mask-type:luminance" maskUnits="userSpaceOnUse" x="0" y="0" width="341" height="197">
<path d="M341 0H0V197H341V0Z" fill="white"/>
</mask>
<g mask="url(#mask0_764_91)">
<path d="M341 0H0V197H341V0Z" fill="#0A53B5"/>
</g>
<path d="M8.24444 182.965C7.95443 181.688 9.43606 180.643 11.0085 181.014L19.9224 183.122C21.6064 183.52 22.1241 185.222 20.8373 186.13L13.5675 191.259C12.2807 192.167 10.1991 191.568 9.88849 190.201L8.24444 182.965Z" fill="#99D9F4"/>
<path d="M22.1969 161.915C21.8283 160.588 23.3998 159.48 25.0267 159.919L32.287 161.878C33.915 162.318 34.3774 163.978 33.1191 164.865L27.5038 168.827C26.2455 169.715 24.2107 169.165 23.8418 167.837L22.1969 161.915Z" fill="#99D9F4"/>
<path d="M62.2058 181.805C63.0059 180.743 64.6003 180.743 65.4004 181.805L67.2336 184.238C68.2266 185.556 67.2864 187.442 65.6363 187.442H61.9699C60.3198 187.442 59.3796 185.556 60.3725 184.238L62.2058 181.805Z" fill="#C0D474"/>
<rect width="11.5125" height="12.2594" rx="2" transform="matrix(0.853588 -0.520949 0.698972 0.715149 0 162.718)" fill="#A1B6ED"/>
<rect width="11.5125" height="12.2594" rx="2" transform="matrix(0.853588 -0.520949 0.698972 0.715149 34.1509 155.303)" fill="#C0D474"/>
<ellipse cx="41.3086" cy="184.856" rx="5.31693" ry="4.03988" fill="#FBA18B"/>
<rect width="9.40979" height="8.49116" rx="2" transform="matrix(0.961123 0.27612 -0.475942 0.879477 283.812 174.353)" fill="#C0D474"/>
<path d="M298.84 159.271C298.445 158.004 300.067 156.949 301.75 157.378L308.225 159.03C309.898 159.457 310.377 161.031 309.09 161.869L304.136 165.092C302.848 165.929 300.755 165.405 300.362 164.145L298.84 159.271Z" fill="#99D9F4"/>
<path d="M302.397 183.035C303.197 182.055 304.694 182.055 305.494 183.035L307.615 185.631C308.683 186.937 307.753 188.896 306.067 188.896H301.824C300.137 188.896 299.208 186.937 300.275 185.631L302.397 183.035Z" fill="#A1B6ED"/>
<rect width="9.35943" height="8.61536" rx="2" transform="matrix(0.87149 -0.490413 0.727397 0.686217 326.347 185.245)" fill="#99D9F4"/>
<rect width="13.4592" height="11.0889" rx="2" transform="matrix(0.999394 -0.0347963 0.0654448 0.997856 321.466 153.813)" fill="#A1B6ED"/>
<ellipse cx="320.58" cy="174.353" rx="5.76644" ry="4.03988" fill="#FBA18B"/>
<path d="M8.97002 45.3792C8.73778 44.1063 10.1398 43.0741 11.6476 43.408L19.8403 45.2223C21.5323 45.597 22.075 47.3713 20.7876 48.3191L13.8568 53.4215C12.5694 54.3693 10.4925 53.7245 10.2319 52.296L8.97002 45.3792Z" fill="#99D9F4"/>
<rect width="9.01142" height="8.90973" rx="2" transform="matrix(0.8103 0.586015 -0.728603 0.684937 38.2139 13.2454)" fill="#99D9F4"/>
<path d="M36.2685 43.2799C35.9165 41.9238 37.4577 40.7892 39.0522 41.2306L46.2527 43.224C47.8575 43.6683 48.3121 45.3736 47.0696 46.2883L41.4587 50.4191C40.2162 51.3338 38.2124 50.7689 37.8582 49.404L36.2685 43.2799Z" fill="#C0D474"/>
<path d="M8.57419 9.80413C9.37249 8.69858 11.0188 8.69858 11.8171 9.80413L13.8788 12.6593C14.8339 13.982 13.8888 15.8302 12.2574 15.8302H8.13392C6.50246 15.8302 5.55737 13.982 6.51246 12.6593L8.57419 9.80413Z" fill="#C0D474"/>
<rect width="12.6851" height="11.8196" rx="2" transform="matrix(0.999225 -0.039371 0.0578579 0.998325 56.3838 8.05807)" fill="#A1B6ED"/>
<ellipse cx="17.7195" cy="27.3759" rx="5.43386" ry="4.3081" fill="#FBA18B"/>
<path d="M304.667 8.3607C304.309 6.9569 305.843 5.77299 307.416 6.23875L315.419 8.60752C316.98 9.06956 317.409 10.8114 316.194 11.7495L310.011 16.5203C308.796 17.4584 306.842 16.8929 306.487 15.5003L304.667 8.3607Z" fill="#C0D474"/>
<path d="M333.174 36.8557C333.969 35.7018 335.673 35.7018 336.468 36.8557L338.36 39.6018C339.274 40.9286 338.324 42.7364 336.713 42.7364H332.929C331.318 42.7364 330.368 40.9286 331.282 39.6018L333.174 36.8557Z" fill="#A1B6ED"/>
<path d="M293.298 24.4483C294.093 23.2945 295.797 23.2945 296.592 24.4484L298.484 27.1944C299.398 28.5213 298.448 30.3291 296.837 30.3291H293.053C291.442 30.3291 290.492 28.5213 291.406 27.1944L293.298 24.4483Z" fill="#99D9F4"/>
<path d="M329.585 7.04363C330.38 5.88976 332.084 5.88976 332.879 7.04363L334.771 9.78972C335.685 11.1166 334.735 12.9243 333.124 12.9243H329.34C327.729 12.9243 326.779 11.1166 327.693 9.78972L329.585 7.04363Z" fill="#99D9F4"/>
<rect width="8.81631" height="8.45496" rx="2" transform="matrix(0.831723 -0.55519 0.666327 0.745659 277 11.2707)" fill="#99D9F4"/>
<rect width="12.1026" height="11.8178" rx="2" transform="matrix(0.999148 -0.0412658 0.0552054 0.998475 313.487 18.0764)" fill="#A1B6ED"/>
<ellipse cx="314.683" cy="44.2873" rx="5.18396" ry="4.3081" fill="#FBA18B"/>
</g>
<defs>
<clipPath id="clip0_764_91">
<rect width="341" height="197" fill="white"/>
</clipPath>
</defs>
</svg>
