<svg width="1024" height="773" viewBox="0 0 1024 773" fill="none" xmlns="http://www.w3.org/2000/svg">
<g clip-path="url(#clip0_45_42)">
<rect width="1024" height="773" fill="#0A53B5"/>
<path d="M244.314 365.861C244.314 400.312 171.42 428.24 81.5002 428.24C-8.41958 428.24 -81.314 400.312 -81.314 365.861C-81.314 331.41 87.8373 214.002 81.5002 303.481C75.1631 392.96 244.314 331.41 244.314 365.861Z" fill="#93B413"/>
<path d="M92.8661 153.953C-60.3644 188.908 -15.6722 178.713 -15.6722 178.713L-6.47981 52.7408L38.6075 112.561L-134 51.5425C-134 51.5425 246.097 118.998 92.8661 153.953Z" fill="#93B413"/>
<path d="M1159 168.261C1086.92 207.852 1097.74 248.102 1022.16 248.102C946.59 248.102 925.938 214.78 879.472 179.808C879.472 135.713 946.59 88.4194 1022.16 88.4194C1097.74 88.4194 1159 124.166 1159 168.261Z" fill="#93B413"/>
<path d="M624.019 88.7494C599.14 88.7494 589.456 121.412 546.82 121.412C504.184 121.412 427.179 121.412 469.62 88.7494C512.062 56.087 504.184 56.087 546.82 56.087C589.456 56.087 624.019 70.7104 624.019 88.7494Z" fill="#3A9EB6"/>
<path d="M911.303 297.591C911.303 345.148 777.455 328.274 691.779 328.274C606.102 328.274 601.042 345.148 601.042 297.591C601.042 250.034 503.353 241.834 730.927 185.747C958.501 129.66 821.664 228.967 911.303 297.591Z" fill="#3A9EB6"/>
<path d="M432.374 233.586C432.374 269.481 418.214 328.604 347.491 328.604C276.767 328.604 190.531 364.895 219.435 263.609C248.339 162.322 276.767 198.614 347.491 198.614C418.214 198.614 432.374 197.69 432.374 233.586Z" fill="#3A9EB6"/>
<path d="M1032.94 506.909C1032.94 552.518 944.557 535.01 928.008 623.902C911.46 712.793 790.731 586.928 790.731 541.318C790.731 495.709 778.477 453 854.293 453C930.109 453 1032.94 461.299 1032.94 506.909Z" fill="#3A9EB6"/>
<path d="M373.834 633.783C373.834 711.223 292.258 774 191.628 774C90.999 774 9.42285 711.223 9.42285 633.783C9.42285 556.343 193.078 500.494 293.707 500.494C394.337 500.494 373.834 556.343 373.834 633.783Z" fill="#3A9EB6"/>
<path d="M759.465 601.639C759.465 696.025 682.803 772.539 588.236 772.539C493.669 772.539 417.007 696.025 417.007 601.639C365.053 427.316 484.522 454.369 579.089 454.369C720.317 581.72 759.465 507.254 759.465 601.639Z" fill="#93B413"/>
<path d="M870.691 411.28C870.691 428.3 838.093 442.097 797.882 442.097C757.67 442.097 725.073 428.3 725.073 411.28C725.073 394.259 744.81 404.195 797.882 380.462C850.953 356.729 870.691 394.259 870.691 411.28Z" fill="#93B413"/>
</g>
<defs>
<clipPath id="clip0_45_42">
<rect width="1024" height="773" fill="white"/>
</clipPath>
</defs>
</svg>
