<svg width="377" height="190" viewBox="0 0 377 190" fill="none" xmlns="http://www.w3.org/2000/svg">
<g clip-path="url(#clip0_764_91)">
<mask id="mask0_764_91" style="mask-type:luminance" maskUnits="userSpaceOnUse" x="0" y="0" width="377" height="190">
<path d="M377 0H0V190H377V0Z" fill="white"/>
</mask>
<g mask="url(#mask0_764_91)">
<path d="M377 0H0V190H377V0Z" fill="#0A53B5"/>
</g>
<path d="M9.02066 171.734C8.74568 170.344 10.1692 169.19 11.6601 169.595L22.695 172.591C24.2727 173.02 24.737 174.851 23.5183 175.839L14.5187 183.132C13.3 184.119 11.3469 183.494 11.0559 182.023L9.02066 171.734Z" fill="#99D9F4"/>
<path d="M24.4149 144.965C24.0658 143.521 25.5749 142.299 27.1158 142.776L36.3279 145.632C37.8526 146.105 38.2659 147.891 37.074 148.857L29.949 154.631C28.7571 155.597 26.8475 155.022 26.5021 153.594L24.4149 144.965Z" fill="#99D9F4"/>
<path d="M68.8667 170.595C69.6565 169.391 71.4214 169.391 72.2112 170.595L74.9684 174.798C75.841 176.128 74.8869 177.895 73.2962 177.895H67.7818C66.1911 177.895 65.2369 176.128 66.1095 174.798L68.8667 170.595Z" fill="#C0D474"/>
<rect width="13.2675" height="14.6177" rx="2" transform="matrix(0.818874 -0.573974 0.648095 0.761559 0 146.502)" fill="#A1B6ED"/>
<rect width="13.2675" height="14.6177" rx="2" transform="matrix(0.818874 -0.573974 0.648095 0.761559 37.7563 137.087)" fill="#C0D474"/>
<ellipse cx="45.6697" cy="174.612" rx="5.87824" ry="5.12961" fill="#FBA18B"/>
<rect width="9.59164" height="10.3009" rx="2" transform="matrix(0.938986 0.343954 -0.390697 0.920519 320.024 161.275)" fill="#C0D474"/>
<path d="M334.926 141.864C334.566 140.39 336.08 139.134 337.615 139.633L344.739 141.95C346.235 142.437 346.631 144.235 345.456 145.21L340.006 149.73C338.831 150.705 336.952 150.137 336.601 148.701L334.926 141.864Z" fill="#99D9F4"/>
<path d="M338.391 172.52C339.178 171.292 340.972 171.292 341.759 172.52L344.413 176.662C345.266 177.993 344.311 179.741 342.729 179.741H337.42C335.839 179.741 334.883 177.993 335.736 176.662L338.391 172.52Z" fill="#A1B6ED"/>
<rect width="9.99733" height="9.76207" rx="2" transform="matrix(0.812496 -0.582966 0.639288 0.768968 362.382 175.105)" fill="#99D9F4"/>
<rect width="13.4084" height="14.0684" rx="2" transform="matrix(0.999016 -0.0443498 0.0513702 0.99868 357.522 135.196)" fill="#A1B6ED"/>
<ellipse cx="356.639" cy="161.275" rx="5.7425" ry="5.12961" fill="#FBA18B"/>
<path d="M10.748 55.7618C10.5223 54.4293 11.8945 53.3413 13.36 53.6908L23.3935 56.0839C25.0271 56.4735 25.5395 58.3182 24.2894 59.3093L15.8013 66.0393C14.5513 67.0305 12.5451 66.3702 12.2935 64.8849L10.748 55.7618Z" fill="#99D9F4"/>
<rect width="10.2327" height="10.2131" rx="2" transform="matrix(0.788928 0.614485 -0.702721 0.711466 43.1426 17.8748)" fill="#99D9F4"/>
<path d="M40.8889 53.2094C40.5471 51.7912 42.0547 50.5958 43.603 51.0575L52.5454 53.7236C54.0942 54.1854 54.5222 55.9587 53.3157 56.9154L46.3475 62.4403C45.1409 63.397 43.205 62.8193 42.8631 61.4006L40.8889 53.2094Z" fill="#C0D474"/>
<path d="M10.5053 13.5813C11.2975 12.3996 13.0354 12.3996 13.8276 13.5813L16.6821 17.8387C17.573 19.1675 16.6207 20.9525 15.0209 20.9525H9.31193C7.71215 20.9525 6.75986 19.1675 7.65075 17.8387L10.5053 13.5813Z" fill="#C0D474"/>
<rect width="14.026" height="14.0702" rx="2" transform="matrix(0.999101 -0.0423969 0.0537343 0.998555 63.2305 11.6983)" fill="#A1B6ED"/>
<ellipse cx="20.4846" cy="34.6999" rx="6.00752" ry="5.12961" fill="#FBA18B"/>
<path d="M336.975 16.6809C336.642 15.1447 338.094 13.8278 339.56 14.3375L348.275 17.3689C349.709 17.8678 350.082 19.7507 348.95 20.7775L342.217 26.883C341.084 27.9098 339.284 27.3214 338.958 25.8178L336.975 16.6809Z" fill="#C0D474"/>
<path d="M365.865 50.9799C366.637 49.6619 368.543 49.6619 369.315 50.9799L371.598 54.8742C372.38 56.2075 371.419 57.8857 369.873 57.8857H365.307C363.761 57.8857 362.8 56.2075 363.582 54.8742L365.865 50.9799Z" fill="#A1B6ED"/>
<path d="M325.458 36.2066C326.231 34.8886 328.136 34.8886 328.909 36.2066L331.192 40.101C331.973 41.4343 331.012 43.1125 329.466 43.1125H324.9C323.355 43.1125 322.393 41.4342 323.175 40.101L325.458 36.2066Z" fill="#99D9F4"/>
<path d="M362.228 15.483C363.001 14.165 364.906 14.165 365.679 15.483L367.962 19.3773C368.744 20.7106 367.782 22.3888 366.237 22.3888H361.671C360.125 22.3888 359.164 20.7106 359.945 19.3773L362.228 15.483Z" fill="#99D9F4"/>
<rect width="9.44331" height="9.43082" rx="2" transform="matrix(0.786832 -0.617167 0.605327 0.795977 309 20.4199)" fill="#99D9F4"/>
<rect width="12.2676" height="14.0654" rx="2" transform="matrix(0.998824 -0.0484738 0.0470009 0.998895 345.973 28.5234)" fill="#A1B6ED"/>
<ellipse cx="347.185" cy="59.7323" rx="5.25293" ry="5.12961" fill="#FBA18B"/>
</g>
<defs>
<clipPath id="clip0_764_91">
<rect width="377" height="190" fill="white"/>
</clipPath>
</defs>
</svg>
