<svg width="341" height="190" viewBox="0 0 341 190" fill="none" xmlns="http://www.w3.org/2000/svg">
<g clip-path="url(#clip0_764_91)">
<mask id="mask0_764_91" style="mask-type:luminance" maskUnits="userSpaceOnUse" x="0" y="0" width="341" height="190">
<path d="M341 0H0V190H341V0Z" fill="white"/>
</mask>
<g mask="url(#mask0_764_91)">
<path d="M341 0H0V190H341V0Z" fill="#0A53B5"/>
</g>
<path d="M8.25112 176.492C7.95749 175.245 9.45265 174.228 11.0447 174.591L19.8578 176.6C21.568 176.99 22.0994 178.657 20.7962 179.544L13.6086 184.435C12.3054 185.322 10.192 184.731 9.87657 183.392L8.25112 176.492Z" fill="#99D9F4"/>
<path d="M22.2059 156.193C21.8326 154.897 23.4187 153.818 25.0663 154.247L32.2259 156.11C33.8795 156.541 34.3546 158.167 33.0802 159.034L27.5427 162.802C26.2683 163.669 24.2026 163.126 23.828 161.825L22.2059 156.193Z" fill="#99D9F4"/>
<path d="M62.227 175.318C63.0278 174.293 64.5784 174.293 65.3792 175.318L67.1231 177.55C68.1489 178.863 67.2133 180.781 65.547 180.781H62.0592C60.3929 180.781 59.4573 178.863 60.4831 177.55L62.227 175.318Z" fill="#C0D474"/>
<rect width="11.403" height="12.0386" rx="2" transform="matrix(0.86179 -0.507266 0.711793 0.702389 0 156.936)" fill="#A1B6ED"/>
<rect width="11.403" height="12.0386" rx="2" transform="matrix(0.86179 -0.507266 0.711793 0.702389 34.1509 149.784)" fill="#C0D474"/>
<ellipse cx="41.3086" cy="178.288" rx="5.31693" ry="3.89633" fill="#FBA18B"/>
<rect width="9.38472" height="8.25875" rx="2" transform="matrix(0.963691 0.26702 -0.489335 0.872096 283.812 168.157)" fill="#C0D474"/>
<path d="M298.849 153.639C298.449 152.402 300.084 151.376 301.787 151.795L308.168 153.365C309.865 153.783 310.356 155.323 309.054 156.14L304.172 159.203C302.869 160.02 300.747 159.503 300.349 158.271L298.849 153.639Z" fill="#99D9F4"/>
<path d="M302.419 176.504C303.218 175.561 304.673 175.561 305.471 176.504L307.494 178.891C308.595 180.191 307.671 182.184 305.968 182.184H301.923C300.22 182.184 299.296 180.191 300.397 178.891L302.419 176.504Z" fill="#A1B6ED"/>
<rect width="9.28054" height="8.47258" rx="2" transform="matrix(0.878899 -0.477008 0.739655 0.672986 326.347 178.662)" fill="#99D9F4"/>
<rect width="13.4586" height="10.6966" rx="2" transform="matrix(0.999437 -0.0335613 0.067845 0.997696 321.466 148.348)" fill="#A1B6ED"/>
<ellipse cx="320.58" cy="168.157" rx="5.76644" ry="3.89633" fill="#FBA18B"/>
<path d="M8.97552 43.7958C8.74025 42.5521 10.1559 41.5469 11.6833 41.8732L19.7712 43.6006C21.4907 43.9679 22.0481 45.7071 20.7433 46.6336L13.9012 51.4918C12.5963 52.4183 10.4861 51.7816 10.2213 50.3815L8.97552 43.7958Z" fill="#99D9F4"/>
<rect width="8.90275" height="8.76263" rx="2" transform="matrix(0.82019 0.57209 -0.740834 0.671689 38.2139 12.7747)" fill="#99D9F4"/>
<path d="M36.2776 41.7758C35.9209 40.4502 37.4773 39.3451 39.0932 39.7765L46.1895 41.6713C47.8207 42.1068 48.2882 43.7783 47.029 44.6724L41.4993 48.5987C40.24 49.4928 38.2043 48.9348 37.8442 47.5968L36.2776 41.7758Z" fill="#C0D474"/>
<path d="M8.59464 9.42843C9.39459 8.35998 10.9967 8.35998 11.7966 9.42843L13.7736 12.069C14.7609 13.3877 13.82 15.2677 12.1726 15.2677H8.21865C6.57133 15.2677 5.63036 13.3877 6.61765 12.069L8.59464 9.42843Z" fill="#C0D474"/>
<rect width="12.6844" height="11.401" rx="2" transform="matrix(0.999279 -0.0379741 0.059982 0.998199 56.3838 7.77176)" fill="#A1B6ED"/>
<ellipse cx="17.7195" cy="26.4032" rx="5.43386" ry="4.15502" fill="#FBA18B"/>
<path d="M304.677 8.1013C304.313 6.72799 305.864 5.57394 307.46 6.02958L315.355 8.28335C316.943 8.73671 317.385 10.4454 316.152 11.363L310.053 15.9022C308.82 16.8199 306.833 16.2607 306.472 14.8943L304.677 8.1013Z" fill="#C0D474"/>
<path d="M333.193 35.5187C333.991 34.402 335.651 34.402 336.448 35.5187L338.26 38.0554C339.206 39.3791 338.259 41.2178 336.633 41.2178H333.009C331.382 41.2178 330.436 39.3791 331.382 38.0554L333.193 35.5187Z" fill="#A1B6ED"/>
<path d="M293.317 23.5523C294.115 22.4356 295.775 22.4356 296.572 23.5523L298.384 26.0889C299.33 27.4127 298.383 29.2514 296.757 29.2514H293.133C291.506 29.2514 290.56 27.4127 291.506 26.0889L293.317 23.5523Z" fill="#99D9F4"/>
<path d="M329.604 6.76598C330.402 5.64925 332.062 5.64925 332.859 6.76598L334.671 9.30262C335.617 10.6264 334.671 12.4651 333.044 12.4651H329.42C327.793 12.4651 326.847 10.6264 327.793 9.30262L329.604 6.76598Z" fill="#99D9F4"/>
<rect width="8.72095" height="8.28926" rx="2" transform="matrix(0.840818 -0.541318 0.679647 0.73354 277 10.8702)" fill="#99D9F4"/>
<rect width="12.1019" height="11.3992" rx="2" transform="matrix(0.999208 -0.0398018 0.0572327 0.998361 313.487 17.4341)" fill="#A1B6ED"/>
<ellipse cx="314.683" cy="42.7136" rx="5.18396" ry="4.15502" fill="#FBA18B"/>
</g>
<defs>
<clipPath id="clip0_764_91">
<rect width="341" height="190" fill="white"/>
</clipPath>
</defs>
</svg>
