<svg width="341" height="118" viewBox="0 0 341 118" fill="none" xmlns="http://www.w3.org/2000/svg">
<g clip-path="url(#clip0_1381_2)">
<mask id="mask0_1381_2" style="mask-type:luminance" maskUnits="userSpaceOnUse" x="0" y="0" width="341" height="118">
<path d="M341 0H0V118H341V0Z" fill="white"/>
</mask>
<g mask="url(#mask0_1381_2)">
<mask id="mask1_1381_2" style="mask-type:luminance" maskUnits="userSpaceOnUse" x="0" y="0" width="341" height="118">
<path d="M341 0H0V118H341V0Z" fill="white"/>
</mask>
<g mask="url(#mask1_1381_2)">
<path d="M341 0H0V118H341V0Z" fill="#0A53B5"/>
</g>
<path d="M8.27021 106.846C7.96625 106.045 9.49892 105.396 11.147 105.63L19.6695 106.837C21.4559 107.09 22.0283 108.171 20.678 108.742L13.7274 111.679C12.3771 112.25 10.1716 111.858 9.84207 110.99L8.27021 106.846Z" fill="#99D9F4"/>
<path d="M22.2314 94.2438C21.8447 93.4102 23.4713 92.723 25.1782 92.9986L32.048 94.1091C33.7758 94.3889 34.2888 95.4433 32.9684 96.0013L27.6551 98.2468C26.3347 98.8049 24.1793 98.4446 23.7879 97.6006L22.2314 94.2438Z" fill="#99D9F4"/>
<path d="M62.2967 106.012C63.0937 105.378 64.5129 105.378 65.3098 106.012L66.7528 107.159C67.8823 108.057 66.9636 109.46 65.2462 109.46H62.3603C60.643 109.46 59.7243 108.057 60.8538 107.159L62.2967 106.012Z" fill="#C0D474"/>
<path d="M8.05737 91.7051L1.76959 94.0037C0.79227 94.3609 0.671241 95.0619 1.49926 95.5694L7.06975 98.9833C7.89777 99.4907 9.36128 99.6124 10.3386 99.2552L16.6264 96.9566C17.6037 96.5993 17.7247 95.8983 16.8967 95.3909L11.3262 91.977C10.4982 91.4696 9.03468 91.3478 8.05737 91.7051Z" fill="#A1B6ED"/>
<path d="M42.2087 87.2641L35.921 89.5627C34.9436 89.92 34.8226 90.621 35.6506 91.1284L41.2211 94.5423C42.0491 95.0497 43.5126 95.1715 44.49 94.8142L50.7777 92.5156C51.7551 92.1583 51.8761 91.4573 51.0481 90.9499L45.4776 87.536C44.6496 87.0286 43.186 86.9068 42.2087 87.2641Z" fill="#C0D474"/>
<path d="M41.3081 110.332C44.2446 110.332 46.6251 109.248 46.6251 107.912C46.6251 106.575 44.2446 105.492 41.3081 105.492C38.3717 105.492 35.9912 106.575 35.9912 107.912C35.9912 109.248 38.3717 110.332 41.3081 110.332Z" fill="#FBA18B"/>
<path d="M290.915 102.842L285.754 101.954C284.682 101.77 283.337 102.147 282.75 102.796L280.834 104.917C280.247 105.567 280.64 106.243 281.712 106.427L286.874 107.316C287.946 107.5 289.291 107.123 289.878 106.474L291.794 104.353C292.381 103.703 291.987 103.027 290.915 102.842Z" fill="#C0D474"/>
<path d="M298.873 92.6494C298.46 91.8568 300.131 91.2057 301.889 91.4736L308.003 92.4079C309.768 92.6779 310.296 93.6726 308.951 94.1966L304.274 96.0187C302.93 96.5427 300.725 96.2019 300.31 95.4058L298.873 92.6494Z" fill="#99D9F4"/>
<path d="M302.493 106.75C303.282 106.172 304.609 106.172 305.398 106.75L307.088 107.989C308.295 108.874 307.391 110.331 305.635 110.331H302.255C300.5 110.331 299.596 108.874 300.803 107.989L302.493 106.75Z" fill="#A1B6ED"/>
<path d="M332.704 106.001L328.146 107.538C327.152 107.873 327.041 108.537 327.898 109.021L331.062 110.809C331.919 111.293 333.419 111.414 334.413 111.079L338.971 109.543C339.965 109.208 340.076 108.544 339.219 108.06L336.054 106.271C335.198 105.787 333.698 105.666 332.704 106.001Z" fill="#99D9F4"/>
<path d="M332.918 89.0789L323.465 89.276C322.361 89.299 321.534 89.9374 321.617 90.7019L322.04 94.5613C322.124 95.3258 323.087 95.9269 324.191 95.9038L333.643 95.7067C334.748 95.6837 335.575 95.0452 335.491 94.2808L335.068 90.4214C334.985 89.6569 334.022 89.0558 332.918 89.0789Z" fill="#A1B6ED"/>
<path d="M320.58 104.04C323.765 104.04 326.346 102.957 326.346 101.62C326.346 100.284 323.765 99.2004 320.58 99.2004C317.395 99.2004 314.813 100.284 314.813 101.62C314.813 102.957 317.395 104.04 320.58 104.04Z" fill="#FBA18B"/>
<path d="M8.99077 27.2504C8.74685 26.4496 10.2001 25.8087 11.7837 26.0188L19.5683 27.0514C21.368 27.2901 21.9696 28.421 20.6147 29.0185L14.0292 31.9225C12.6742 32.52 10.467 32.0972 10.1898 31.1871L8.99077 27.2504Z" fill="#99D9F4"/>
<path d="M43.8191 10.3619L39.9106 8.66877C38.9735 8.26284 37.5185 8.32534 36.6607 8.80836L33.2754 10.7146C32.4176 11.1976 32.4818 11.9182 33.4189 12.3241L37.3275 14.0173C38.2645 14.4232 39.7195 14.3607 40.5774 13.8777L43.9626 11.9715C44.8204 11.4885 44.7562 10.7678 43.8191 10.3619Z" fill="#99D9F4"/>
<path d="M36.3029 26.0041C35.9326 25.1495 37.5316 24.4444 39.209 24.7226L46.004 25.8493C47.7122 26.1325 48.2187 27.2191 46.9113 27.7957L41.6164 30.1306C40.309 30.7071 38.1801 30.336 37.803 29.4658L36.3029 26.0041Z" fill="#C0D474"/>
<path d="M8.66142 5.79983C9.46084 5.13671 10.9297 5.13671 11.7291 5.79983L13.4205 7.20292C14.5099 8.10659 13.5843 9.48205 11.8867 9.48205H8.50383C6.80625 9.48205 5.88058 8.10659 6.96999 7.20292L8.66142 5.79983Z" fill="#C0D474"/>
<path d="M67.0601 4.57469L58.3826 4.77949C57.2787 4.80554 56.4438 5.4468 56.5178 6.21177L56.9336 10.5094C57.0076 11.2744 57.9626 11.8734 59.0665 11.8474L67.744 11.6426C68.8479 11.6165 69.6828 10.9753 69.6088 10.2103L69.193 5.91263C69.119 5.14765 68.1641 4.54864 67.0601 4.57469Z" fill="#A1B6ED"/>
<path d="M17.719 18.9783C20.7201 18.9783 23.1529 17.8229 23.1529 16.3978C23.1529 14.9726 20.7201 13.8173 17.719 13.8173C14.718 13.8173 12.2852 14.9726 12.2852 16.3978C12.2852 17.8229 14.718 18.9783 17.719 18.9783Z" fill="#FBA18B"/>
<path d="M304.705 5.09772C304.327 4.21015 305.923 3.47221 307.584 3.76669L315.165 5.1108C316.833 5.40642 317.314 6.5199 316.031 7.11303L310.174 9.82008C308.891 10.4132 306.808 10.0399 306.429 9.14894L304.705 5.09772Z" fill="#C0D474"/>
<path d="M333.258 22.003C334.058 21.3068 335.583 21.3068 336.384 22.003L337.926 23.3441C338.972 24.2533 338.039 25.5984 336.363 25.5984H333.278C331.602 25.5984 330.67 24.2533 331.715 23.3441L333.258 22.003Z" fill="#A1B6ED"/>
<path d="M293.382 14.5712C294.183 13.875 295.707 13.875 296.508 14.5712L298.05 15.9123C299.096 16.8215 298.163 18.1667 296.487 18.1667H293.402C291.726 18.1667 290.794 16.8215 291.839 15.9123L293.382 14.5712Z" fill="#99D9F4"/>
<path d="M329.669 4.14601C330.47 3.44982 331.994 3.44982 332.795 4.14601L334.337 5.48716C335.383 6.39635 334.45 7.74151 332.774 7.74151H329.69C328.014 7.74151 327.081 6.39635 328.127 5.48715L329.669 4.14601Z" fill="#99D9F4"/>
<path d="M282.6 4.51206L278.733 6.05808C277.776 6.44077 277.644 7.18276 278.439 7.71535L281.195 9.56297C281.99 10.0956 283.41 10.2171 284.367 9.83439L288.233 8.28837C289.191 7.90568 289.322 7.16369 288.528 6.6311L285.771 4.78349C284.977 4.25089 283.557 4.12937 282.6 4.51206Z" fill="#99D9F4"/>
<path d="M323.581 10.5778L315.486 10.7781C314.382 10.8054 313.545 11.4478 313.615 12.2129L314.012 16.51C314.082 17.2752 315.035 17.8733 316.138 17.846L324.233 17.6457C325.337 17.6184 326.175 16.976 326.104 16.2109L325.708 11.9138C325.637 11.1487 324.685 10.5505 323.581 10.5778Z" fill="#A1B6ED"/>
<path d="M314.683 29.1079C317.546 29.1079 319.867 27.9526 319.867 26.5274C319.867 25.1022 317.546 23.9469 314.683 23.9469C311.82 23.9469 309.499 25.1022 309.499 26.5274C309.499 27.9526 311.82 29.1079 314.683 29.1079Z" fill="#FBA18B"/>
</g>
</g>
<defs>
<clipPath id="clip0_1381_2">
<rect width="341" height="118" fill="white"/>
</clipPath>
</defs>
</svg>
