<svg width="362" height="190" viewBox="0 0 362 190" fill="none" xmlns="http://www.w3.org/2000/svg">
<g clip-path="url(#clip0_764_91)">
<mask id="mask0_764_91" style="mask-type:luminance" maskUnits="userSpaceOnUse" x="0" y="0" width="362" height="190">
<path d="M362 0H0V190H362V0Z" fill="white"/>
</mask>
<g mask="url(#mask0_764_91)">
<path d="M362 0H0V190H362V0Z" fill="#0A53B5"/>
</g>
<path d="M8.67647 171.812C8.40624 170.389 9.81086 169.203 11.2761 169.618L21.7274 172.573C23.2724 173.01 23.721 174.878 22.5236 175.889L13.9999 183.082C12.8025 184.092 10.889 183.46 10.6041 181.96L8.67647 171.812Z" fill="#99D9F4"/>
<path d="M23.4626 145.048C23.1196 143.571 24.6083 142.315 26.1223 142.804L34.8212 145.612C36.3141 146.094 36.713 147.917 35.5418 148.905L28.8138 154.583C27.6427 155.571 25.7717 154.991 25.4335 153.535L23.4626 145.048Z" fill="#99D9F4"/>
<path d="M66.0401 170.732C66.8246 169.487 68.6401 169.487 69.4246 170.732L72.0052 174.829C72.8441 176.161 71.887 177.895 70.3129 177.895H65.1518C63.5777 177.895 62.6206 176.161 63.4596 174.829L66.0401 170.732Z" fill="#C0D474"/>
<rect width="12.9159" height="14.3763" rx="2" transform="matrix(0.807696 -0.589598 0.63276 0.774348 0 146.502)" fill="#A1B6ED"/>
<rect width="12.9159" height="14.3763" rx="2" transform="matrix(0.807696 -0.589598 0.63276 0.774348 36.2544 137.087)" fill="#C0D474"/>
<ellipse cx="43.8524" cy="174.612" rx="5.64436" ry="5.12961" fill="#FBA18B"/>
<rect width="10.1519" height="10.4075" rx="2" transform="matrix(0.945724 0.324971 -0.412219 0.911085 301.29 161.275)" fill="#C0D474"/>
<path d="M317.141 141.73C316.77 140.31 318.316 139.107 319.893 139.588L327.742 141.982C329.287 142.454 329.704 144.195 328.498 145.134L322.494 149.806C321.287 150.745 319.348 150.187 318.985 148.796L317.141 141.73Z" fill="#99D9F4"/>
<path d="M321.012 172.31C321.806 171.147 323.521 171.147 324.315 172.31L327.255 176.613C328.162 177.941 327.212 179.741 325.604 179.741H319.724C318.116 179.741 317.165 177.941 318.072 176.613L321.012 172.31Z" fill="#A1B6ED"/>
<rect width="10.4377" height="10.0304" rx="2" transform="matrix(0.82959 -0.558373 0.663254 0.748394 346.444 175.105)" fill="#99D9F4"/>
<rect width="14.2917" height="14.0709" rx="2" transform="matrix(0.999134 -0.0416085 0.0547513 0.9985 341.264 135.196)" fill="#A1B6ED"/>
<ellipse cx="340.323" cy="161.275" rx="6.12155" ry="5.12961" fill="#FBA18B"/>
<path d="M10.3323 55.8355C10.1104 54.4708 11.465 53.3522 12.9062 53.7101L22.3929 56.0665C23.9934 56.4641 24.4892 58.3463 23.2605 59.3609L15.2351 65.9878C14.0064 67.0023 12.0401 66.3344 11.7936 64.8188L10.3323 55.8355Z" fill="#99D9F4"/>
<rect width="9.98121" height="10.0145" rx="2" transform="matrix(0.776623 0.629966 -0.688143 0.725575 41.4258 17.8748)" fill="#99D9F4"/>
<path d="M39.2812 53.2924C38.9452 51.8405 40.4332 50.6119 41.9551 51.0845L50.391 53.7038C51.9082 54.1749 52.3215 55.9846 51.1356 56.9639L44.5621 62.3919C43.3761 63.3711 41.4785 62.7871 41.1436 61.3398L39.2812 53.2924Z" fill="#C0D474"/>
<path d="M10.0008 13.7157C10.7882 12.4925 12.5766 12.4925 13.364 13.7157L16.0385 17.8699C16.8953 19.2008 15.9397 20.9525 14.3568 20.9525H9.00796C7.42503 20.9525 6.46946 19.2008 7.32633 17.8699L10.0008 13.7157Z" fill="#C0D474"/>
<rect width="13.4689" height="14.0686" rx="2" transform="matrix(0.999025 -0.0441503 0.0516021 0.998668 60.7148 11.6983)" fill="#A1B6ED"/>
<ellipse cx="19.6694" cy="34.6999" rx="5.76849" ry="5.12961" fill="#FBA18B"/>
<path d="M320.287 16.5863C319.946 15.0876 321.423 13.8089 322.921 14.3061L332.211 17.3905C333.683 17.8791 334.072 19.7225 332.915 20.7242L325.737 26.9363C324.58 27.938 322.735 27.3554 322.4 25.8827L320.287 16.5863Z" fill="#C0D474"/>
<path d="M350.677 50.8116C351.458 49.5406 353.305 49.5406 354.086 50.8116L356.559 54.839C357.378 56.1716 356.419 57.8857 354.855 57.8857H349.908C348.344 57.8857 347.385 56.1716 348.204 54.839L350.677 50.8116Z" fill="#A1B6ED"/>
<path d="M308.346 36.0384C309.126 34.7673 310.973 34.7673 311.754 36.0384L314.228 40.0657C315.046 41.3983 314.087 43.1125 312.523 43.1125H307.576C306.012 43.1125 305.054 41.3983 305.872 40.0657L308.346 36.0384Z" fill="#99D9F4"/>
<path d="M346.868 15.3147C347.648 14.0437 349.495 14.0437 350.276 15.3147L352.75 19.3421C353.568 20.6747 352.609 22.3888 351.045 22.3888H346.098C344.534 22.3888 343.576 20.6747 344.394 19.3421L346.868 15.3147Z" fill="#99D9F4"/>
<rect width="9.72431" height="9.59791" rx="2" transform="matrix(0.8005 -0.599333 0.623127 0.782121 291 20.4199)" fill="#99D9F4"/>
<rect width="12.8507" height="14.0669" rx="2" transform="matrix(0.998929 -0.0462742 0.0492349 0.998787 329.734 28.5234)" fill="#A1B6ED"/>
<ellipse cx="331.004" cy="59.7323" rx="5.5032" ry="5.12961" fill="#FBA18B"/>
</g>
<defs>
<clipPath id="clip0_764_91">
<rect width="362" height="190" fill="white"/>
</clipPath>
</defs>
</svg>
