<svg width="1241" height="1350" viewBox="0 0 1241 1350" fill="none" xmlns="http://www.w3.org/2000/svg">
<g clip-path="url(#clip0_524_86)">
<mask id="mask0_524_86" style="mask-type:luminance" maskUnits="userSpaceOnUse" x="0" y="0" width="1241" height="1350">
<path d="M1241 0H0V1350H1241V0Z" fill="white"/>
</mask>
<g mask="url(#mask0_524_86)">
<mask id="mask1_524_86" style="mask-type:luminance" maskUnits="userSpaceOnUse" x="0" y="0" width="1241" height="1350">
<path d="M1241 0H0V1350H1241V0Z" fill="white"/>
</mask>
<g mask="url(#mask1_524_86)">
<path d="M1241 0H0V1350H1241V0Z" fill="#0A53B5"/>
<path d="M426.513 814.535C426.513 884.468 308.219 941.159 162.298 941.159C16.3754 941.159 -101.918 884.468 -101.918 814.535C-101.918 744.601 172.581 506.277 162.298 687.91C152.013 869.543 426.513 744.601 426.513 814.535Z" fill="#93B413"/>
<path d="M125.635 331.136C-73.7587 402.015 -15.6023 381.341 -15.6023 381.341L-3.64056 125.906L55.03 247.204L-169.578 123.477C-169.578 123.477 325.028 260.256 125.635 331.136Z" fill="#93B413"/>
<path d="M1343.77 360.268C1259.41 440.626 1272.07 522.322 1183.62 522.322C1095.16 522.322 1070.99 454.688 1016.61 383.706C1016.61 294.207 1095.16 198.215 1183.62 198.215C1272.07 198.215 1343.77 270.769 1343.77 360.268Z" fill="#93B413"/>
<path d="M765.668 144.055C729.125 144.055 714.902 210.366 652.278 210.366C589.654 210.366 476.55 210.366 538.888 144.055C601.226 77.7441 589.654 77.7441 652.278 77.7441C714.902 77.7441 765.668 107.432 765.668 144.055Z" fill="#3A9EB6"/>
<path d="M1053.44 622.44C1053.44 718.868 875.131 684.654 761.004 684.654C646.872 684.654 640.132 718.868 640.132 622.44C640.132 526.012 509.999 509.386 813.154 395.663C1116.31 281.939 934.03 483.296 1053.44 622.44Z" fill="#3A9EB6"/>
<path d="M572.109 492.784C572.109 565.749 550.426 685.924 442.12 685.924C333.814 685.924 201.752 759.695 246.015 553.811C290.279 347.928 333.814 421.698 442.12 421.698C550.426 421.698 572.109 419.82 572.109 492.784Z" fill="#3A9EB6"/>
<path d="M1241 1070.68C1241 1163.25 1123.84 1127.71 1101.91 1308.1C1079.98 1488.5 919.941 1233.06 919.941 1140.52C919.941 1047.95 903.694 961.281 1004.19 961.281C1104.69 961.281 1241 978.119 1241 1070.68Z" fill="#3A9EB6"/>
<path d="M443.257 1305.01C443.257 1462.2 343.647 1589.64 220.772 1589.64C97.8968 1589.64 -1.71289 1462.2 -1.71289 1305.01C-1.71289 1147.82 222.542 1034.45 345.417 1034.45C468.292 1034.45 443.257 1147.82 443.257 1305.01Z" fill="#3A9EB6"/>
<path d="M907.84 1239.73C907.84 1431.47 811.312 1586.89 692.239 1586.89C573.165 1586.89 476.638 1431.47 476.638 1239.73C411.221 885.63 561.648 940.583 680.721 940.583C858.542 1199.27 907.84 1048.01 907.84 1239.73Z" fill="#93B413"/>
<path d="M1062.86 853.812C1062.86 888.413 1012.04 916.463 949.376 916.463C886.71 916.463 835.896 888.413 835.896 853.812C835.896 819.211 866.652 839.408 949.376 791.158C1032.1 742.91 1062.86 819.211 1062.86 853.812Z" fill="#93B413"/>
</g>
</g>
</g>
<defs>
<clipPath id="clip0_524_86">
<rect width="1241" height="1350" fill="white"/>
</clipPath>
</defs>
</svg>
