<svg width="1440" height="1450" viewBox="0 0 1440 1450" fill="none" xmlns="http://www.w3.org/2000/svg">
<g clip-path="url(#clip0_45_42)">
<rect width="1440" height="1450" fill="#0A53B5"/>
<path d="M587 822.962C587 889.809 436.344 944 250.5 944C64.6562 944 -86 889.809 -86 822.962C-86 756.114 263.597 528.302 250.5 701.923C237.403 875.544 587 756.114 587 822.962Z" fill="#93B413"/>
<path d="M130.364 387.894C-79.0394 443.775 -17.9635 427.476 -17.9635 427.476L-21.7378 157.97L49.1234 292.153L-200 139.399C-200 139.399 339.767 332.013 130.364 387.894Z" fill="#93B413"/>
<path d="M1569 319.5C1463.28 394.624 1479.14 471 1368.29 471C1257.45 471 1227.15 407.771 1159 341.411C1159 257.74 1257.45 168 1368.29 168C1479.14 168 1569 235.829 1569 319.5Z" fill="#93B413"/>
<path d="M842.5 191.521C808.5 191.521 795.266 243.737 737 243.737C678.734 243.737 573.5 243.737 631.5 191.521C689.5 139.305 678.734 139.305 737 139.305C795.266 139.305 842.5 162.683 842.5 191.521Z" fill="#3A9EB6"/>
<path d="M1400 717.788C1400 797.373 1175.24 769.135 1031.37 769.135C887.502 769.135 879.004 797.373 879.004 717.788C879.004 638.203 714.964 624.481 1097.11 530.621C1479.26 436.762 1249.48 602.948 1400 717.788Z" fill="#3A9EB6"/>
<path d="M800 521.461C800 599.222 772.48 727.299 635.026 727.299C497.571 727.299 329.965 805.918 386.142 586.5C442.318 367.082 497.571 445.701 635.026 445.701C772.48 445.701 800 443.7 800 521.461Z" fill="#3A9EB6"/>
<path d="M1447 1213.18C1447 1286.1 1326.22 1258.11 1303.6 1400.21C1280.99 1542.32 1116 1341.1 1116 1268.19C1116 1195.28 1099.25 1127 1202.86 1127C1306.47 1127 1447 1140.27 1447 1213.18Z" fill="#3A9EB6"/>
<path d="M498 1340.08C498 1463.88 386.519 1564.24 249 1564.24C111.481 1564.24 0 1463.88 0 1340.08C0 1216.28 250.981 1127 388.5 1127C526.019 1127 498 1216.28 498 1340.08Z" fill="#3A9EB6"/>
<path d="M1050.22 1290.86C1050.22 1441.75 945.455 1564.07 816.221 1564.07C686.986 1564.07 582.221 1441.75 582.221 1290.86C511.22 1012.18 674.486 1055.43 803.721 1055.43C996.721 1259.02 1050.22 1139.97 1050.22 1290.86Z" fill="#93B413"/>
<path d="M1240 910.627C1240 937.895 1187.17 960 1122 960C1056.83 960 1004 937.895 1004 910.627C1004 883.359 1035.99 899.277 1122 861.254C1208.01 823.231 1240 883.359 1240 910.627Z" fill="#93B413"/>
</g>
<defs>
<clipPath id="clip0_45_42">
<rect width="1440" height="1450" fill="white"/>
</clipPath>
</defs>
</svg>
