<svg width="341" height="155" viewBox="0 0 341 155" fill="none" xmlns="http://www.w3.org/2000/svg">
<g clip-path="url(#clip0_1381_2)">
<mask id="mask0_1381_2" style="mask-type:luminance" maskUnits="userSpaceOnUse" x="0" y="0" width="341" height="155">
<path d="M341 0H0V155H341V0Z" fill="white"/>
</mask>
<g mask="url(#mask0_1381_2)">
<mask id="mask1_1381_2" style="mask-type:luminance" maskUnits="userSpaceOnUse" x="0" y="0" width="341" height="155">
<path d="M341 0H0V155H341V0Z" fill="white"/>
</mask>
<g mask="url(#mask1_1381_2)">
<path d="M341 0H0V155H341V0Z" fill="#0A53B5"/>
</g>
<path d="M8.27021 140.348C7.96625 139.296 9.49892 138.444 11.147 138.751L19.6695 140.336C21.4559 140.669 22.0283 142.089 20.678 142.839L13.7274 146.697C12.3771 147.447 10.1716 146.933 9.84207 145.792L8.27021 140.348Z" fill="#99D9F4"/>
<path d="M22.2314 123.795C21.8447 122.7 23.4713 121.797 25.1782 122.159L32.048 123.618C33.7758 123.985 34.2888 125.37 32.9684 126.103L27.6551 129.053C26.3347 129.786 24.1793 129.313 23.7879 128.204L22.2314 123.795Z" fill="#99D9F4"/>
<path d="M62.2967 139.253C63.0937 138.42 64.5129 138.42 65.3098 139.253L66.7528 140.759C67.8823 141.939 66.9636 143.783 65.2462 143.783H62.3603C60.643 143.783 59.7243 141.939 60.8538 140.759L62.2967 139.253Z" fill="#C0D474"/>
<path d="M8.05737 120.46L1.76959 123.479C0.792271 123.949 0.671241 124.87 1.49926 125.536L7.06975 130.02C7.89777 130.687 9.36128 130.847 10.3386 130.378L16.6264 127.358C17.6037 126.889 17.7247 125.968 16.8967 125.302L11.3262 120.817C10.4982 120.151 9.03468 119.991 8.05737 120.46Z" fill="#A1B6ED"/>
<path d="M42.2087 114.627L35.921 117.646C34.9436 118.115 34.8226 119.036 35.6506 119.703L41.2211 124.187C42.0491 124.853 43.5126 125.013 44.49 124.544L50.7777 121.525C51.7551 121.055 51.8761 120.135 51.0481 119.468L45.4776 114.984C44.6496 114.317 43.186 114.157 42.2087 114.627Z" fill="#C0D474"/>
<path d="M41.3081 144.927C44.2446 144.927 46.6251 143.504 46.6251 141.748C46.6251 139.993 44.2446 138.57 41.3081 138.57C38.3717 138.57 35.9912 139.993 35.9912 141.748C35.9912 143.504 38.3717 144.927 41.3081 144.927Z" fill="#FBA18B"/>
<path d="M290.915 135.09L285.754 133.923C284.682 133.681 283.337 134.176 282.75 135.029L280.834 137.815C280.247 138.668 280.64 139.556 281.712 139.799L286.874 140.965C287.946 141.208 289.291 140.712 289.878 139.859L291.794 137.073C292.381 136.22 291.987 135.332 290.915 135.09Z" fill="#C0D474"/>
<path d="M298.873 121.701C298.46 120.659 300.131 119.804 301.889 120.156L308.003 121.383C309.768 121.738 310.296 123.044 308.951 123.733L304.274 126.126C302.93 126.815 300.725 126.367 300.31 125.321L298.873 121.701Z" fill="#99D9F4"/>
<path d="M302.493 140.222C303.282 139.463 304.609 139.463 305.398 140.222L307.088 141.85C308.295 143.012 307.391 144.927 305.635 144.927H302.255C300.5 144.927 299.596 143.012 300.803 141.85L302.493 140.222Z" fill="#A1B6ED"/>
<path d="M332.704 139.239L328.146 141.257C327.152 141.697 327.041 142.569 327.898 143.205L331.062 145.554C331.919 146.19 333.419 146.349 334.413 145.909L338.971 143.891C339.965 143.451 340.076 142.579 339.219 141.943L336.054 139.594C335.198 138.958 333.698 138.799 332.704 139.239Z" fill="#99D9F4"/>
<path d="M332.918 117.01L323.465 117.269C322.361 117.3 321.534 118.138 321.617 119.142L322.04 124.212C322.124 125.216 323.087 126.006 324.191 125.975L333.643 125.716C334.748 125.686 335.575 124.848 335.491 123.843L335.068 118.774C334.985 117.77 334.022 116.98 332.918 117.01Z" fill="#A1B6ED"/>
<path d="M320.58 136.663C323.765 136.663 326.346 135.24 326.346 133.484C326.346 131.729 323.765 130.306 320.58 130.306C317.395 130.306 314.813 131.729 314.813 133.484C314.813 135.24 317.395 136.663 320.58 136.663Z" fill="#FBA18B"/>
<path d="M8.99077 35.7951C8.74685 34.7432 10.2001 33.9013 11.7837 34.1772L19.5683 35.5337C21.368 35.8472 21.9696 37.3327 20.6147 38.1175L14.0292 41.9321C12.6742 42.717 10.467 42.1615 10.1898 40.9661L8.99077 35.7951Z" fill="#99D9F4"/>
<path d="M43.8191 13.611L39.9106 11.3869C38.9735 10.8537 37.5185 10.9358 36.6607 11.5703L33.2754 14.0742C32.4176 14.7087 32.4818 15.6553 33.4189 16.1885L37.3275 18.4125C38.2645 18.9457 39.7195 18.8636 40.5774 18.2292L43.9626 15.7253C44.8204 15.0908 44.7562 14.1442 43.8191 13.611Z" fill="#99D9F4"/>
<path d="M36.3029 34.1579C35.9326 33.0354 37.5316 32.1092 39.209 32.4746L46.004 33.9547C47.7122 34.3267 48.2187 35.754 46.9113 36.5113L41.6164 39.5783C40.309 40.3357 38.1801 39.8481 37.803 38.7051L36.3029 34.1579Z" fill="#C0D474"/>
<path d="M8.66142 7.61844C9.46084 6.74739 10.9297 6.74739 11.7291 7.61844L13.4205 9.46147C14.5099 10.6485 13.5843 12.4553 11.8867 12.4553H8.50383C6.80625 12.4553 5.88058 10.6485 6.96999 9.46147L8.66142 7.61844Z" fill="#C0D474"/>
<path d="M67.0601 6.00914L58.3826 6.27815C57.2787 6.31238 56.4438 7.1547 56.5178 8.15955L56.9336 13.8048C57.0076 14.8096 57.9626 15.5965 59.0665 15.5622L67.744 15.2932C68.8479 15.259 69.6828 14.4167 69.6088 13.4118L69.193 7.7666C69.119 6.76176 68.1641 5.97492 67.0601 6.00914Z" fill="#A1B6ED"/>
<path d="M17.719 24.9291C20.7201 24.9291 23.1529 23.4115 23.1529 21.5394C23.1529 19.6674 20.7201 18.1498 17.719 18.1498C14.718 18.1498 12.2852 19.6674 12.2852 21.5394C12.2852 23.4115 14.718 24.9291 17.719 24.9291Z" fill="#FBA18B"/>
<path d="M304.705 6.69617C304.327 5.5303 305.923 4.56098 307.584 4.94779L315.165 6.71336C316.833 7.10167 317.314 8.5643 316.031 9.3434L310.174 12.8993C308.891 13.6784 306.808 13.188 306.429 12.0177L304.705 6.69617Z" fill="#C0D474"/>
<path d="M333.258 28.9022C334.058 27.9877 335.583 27.9877 336.384 28.9022L337.926 30.6638C338.972 31.8582 338.039 33.6251 336.363 33.6251H333.278C331.602 33.6251 330.67 31.8582 331.715 30.6638L333.258 28.9022Z" fill="#A1B6ED"/>
<path d="M293.382 19.1401C294.183 18.2256 295.707 18.2256 296.508 19.1401L298.05 20.9017C299.096 22.0961 298.163 23.863 296.487 23.863H293.402C291.726 23.863 290.794 22.0961 291.839 20.9017L293.382 19.1401Z" fill="#99D9F4"/>
<path d="M329.669 5.44602C330.47 4.53154 331.994 4.53154 332.795 5.44602L334.337 7.2077C335.383 8.40197 334.45 10.1689 332.774 10.1689H329.69C328.014 10.1689 327.081 8.40197 328.127 7.20769L329.669 5.44602Z" fill="#99D9F4"/>
<path d="M282.6 5.92684L278.733 7.95763C277.776 8.46032 277.644 9.43496 278.439 10.1346L281.195 12.5615C281.99 13.2611 283.41 13.4207 284.367 12.918L288.233 10.8872C289.191 10.3846 289.322 9.40991 288.528 8.71032L285.771 6.28337C284.977 5.58378 283.557 5.42415 282.6 5.92684Z" fill="#99D9F4"/>
<path d="M323.581 13.8946L315.486 14.1577C314.382 14.1935 313.545 15.0374 313.615 16.0424L314.012 21.6869C314.082 22.6919 315.035 23.4776 316.138 23.4417L324.233 23.1787C325.337 23.1428 326.175 22.299 326.104 21.2939L325.708 15.6495C325.637 14.6444 324.685 13.8588 323.581 13.8946Z" fill="#A1B6ED"/>
<path d="M314.683 38.2349C317.546 38.2349 319.867 36.7173 319.867 34.8453C319.867 32.9732 317.546 31.4557 314.683 31.4557C311.82 31.4557 309.499 32.9732 309.499 34.8453C309.499 36.7173 311.82 38.2349 314.683 38.2349Z" fill="#FBA18B"/>
</g>
</g>
<defs>
<clipPath id="clip0_1381_2">
<rect width="341" height="155" fill="white"/>
</clipPath>
</defs>
</svg>
