<svg width="1024" height="910" viewBox="0 0 1024 910" fill="none" xmlns="http://www.w3.org/2000/svg">
<g clip-path="url(#clip0_45_42)">
<rect width="1024" height="910" fill="#0A53B5"/>
<path d="M244.314 413.13C244.314 452.032 171.42 483.569 81.5002 483.569C-8.41958 483.569 -81.314 452.032 -81.314 413.13C-81.314 374.227 87.8373 241.651 81.5002 342.691C75.1631 443.73 244.314 374.227 244.314 413.13Z" fill="#93B413"/>
<path d="M92.8661 173.844C-60.3645 213.315 -15.6722 201.803 -15.6722 201.803L-6.47981 59.5548L38.6074 127.103L-134 58.2017C-134 58.2017 246.097 134.373 92.8661 173.844Z" fill="#93B413"/>
<path d="M1159 190C1086.92 234.706 1097.74 280.157 1022.16 280.157C946.59 280.157 925.938 242.529 879.472 203.039C879.472 153.247 946.59 99.8431 1022.16 99.8431C1097.74 99.8431 1159 140.208 1159 190Z" fill="#93B413"/>
<path d="M624.019 100.216C599.14 100.216 589.456 137.098 546.82 137.098C504.184 137.098 427.179 137.098 469.62 100.216C512.062 63.3334 504.184 63.3334 546.82 63.3334C589.456 63.3334 624.019 79.8462 624.019 100.216Z" fill="#3A9EB6"/>
<path d="M911.303 336.039C911.303 389.741 777.455 370.686 691.779 370.686C606.102 370.686 601.042 389.741 601.042 336.039C601.042 282.338 503.353 273.078 730.927 209.745C958.501 146.412 821.664 258.549 911.303 336.039Z" fill="#3A9EB6"/>
<path d="M432.374 263.765C432.374 304.298 418.214 371.059 347.491 371.059C276.767 371.059 190.531 412.039 219.435 297.667C248.339 183.294 276.767 224.275 347.491 224.275C418.214 224.275 432.374 223.231 432.374 263.765Z" fill="#3A9EB6"/>
<path d="M1032.94 572.401C1032.94 623.903 944.557 604.133 928.008 704.509C911.46 804.886 790.731 662.758 790.731 611.256C790.731 559.754 778.477 511.527 854.293 511.527C930.109 511.527 1032.94 520.898 1032.94 572.401Z" fill="#3A9EB6"/>
<path d="M373.834 715.667C373.834 803.112 292.258 874 191.628 874C90.999 874 9.42285 803.112 9.42285 715.667C9.42285 628.222 193.078 565.157 293.707 565.157C394.337 565.157 373.834 628.222 373.834 715.667Z" fill="#3A9EB6"/>
<path d="M759.465 679.37C759.465 785.95 682.803 872.351 588.236 872.351C493.669 872.351 417.007 785.95 417.007 679.37C365.053 482.524 484.522 513.073 579.089 513.073C720.317 656.877 759.465 572.79 759.465 679.37Z" fill="#93B413"/>
<path d="M870.691 464.416C870.691 483.636 838.093 499.216 797.882 499.216C757.67 499.216 725.073 483.636 725.073 464.416C725.073 445.197 744.81 456.417 797.882 429.617C850.953 402.818 870.691 445.197 870.691 464.416Z" fill="#93B413"/>
</g>
<defs>
<clipPath id="clip0_45_42">
<rect width="1024" height="910" fill="white"/>
</clipPath>
</defs>
</svg>
