<svg width="1449" height="933" viewBox="0 0 1449 933" fill="none" xmlns="http://www.w3.org/2000/svg">
<g clip-path="url(#clip0_525_138)">
<mask id="mask0_525_138" style="mask-type:luminance" maskUnits="userSpaceOnUse" x="0" y="0" width="1449" height="933">
<path d="M1449 0H0V933H1449V0Z" fill="white"/>
</mask>
<g mask="url(#mask0_525_138)">
<mask id="mask1_525_138" style="mask-type:luminance" maskUnits="userSpaceOnUse" x="0" y="0" width="1449" height="933">
<path d="M1449 0H0V933H1449V0Z" fill="white"/>
</mask>
<g mask="url(#mask1_525_138)">
<path d="M1449 0H0V933H1449V0Z" fill="#0A53B5"/>
<path d="M319 526.167C319 574.494 219.383 613.67 96.5 613.67C-26.3834 613.67 -126 574.494 -126 526.167C-126 477.84 105.16 313.148 96.5 438.664C87.8398 564.18 319 477.84 319 526.167Z" fill="#93B413"/>
<path d="M112.033 228.916C-97.3704 277.948 -36.2945 263.647 -36.2945 263.647L-23.7323 86.9409L37.8835 170.853L-198 85.2598C-198 85.2598 321.436 179.883 112.033 228.916Z" fill="#93B413"/>
<path d="M1569 248.985C1470.5 304.521 1485.28 360.983 1382 360.983C1278.72 360.983 1250.5 314.24 1187 265.183C1187 203.329 1278.72 136.988 1382 136.988C1485.28 136.988 1569 187.131 1569 248.985Z" fill="#93B413"/>
<path d="M837.901 137.451C803.901 137.451 790.667 183.269 732.401 183.269C674.135 183.269 568.901 183.269 626.901 137.451C684.901 91.6348 674.135 91.6348 732.401 91.6348C790.667 91.6348 837.901 112.147 837.901 137.451Z" fill="#3A9EB6"/>
<path d="M1230.5 430.401C1230.5 497.112 1047.58 473.441 930.501 473.441C813.416 473.441 806.501 497.112 806.501 430.401C806.501 363.69 673.001 352.188 984.001 273.513C1295 194.837 1108 334.139 1230.5 430.401Z" fill="#3A9EB6"/>
<path d="M576 340.62C576 390.972 556.65 473.905 460 473.905C363.35 473.905 245.5 524.813 285 382.734C324.5 240.655 363.35 291.563 460 291.563C556.65 291.563 576 290.267 576 340.62Z" fill="#3A9EB6"/>
<path d="M1449 740.197C1449 804.176 1328.22 779.616 1305.6 904.309C1282.99 1029 1118 852.441 1118 788.465C1118 724.487 1101.25 664.577 1204.86 664.577C1308.47 664.577 1449 676.219 1449 740.197Z" fill="#3A9EB6"/>
<path d="M496 901.996C496 1010.62 384.519 1098.69 247 1098.69C109.481 1098.69 -2 1010.62 -2 901.996C-2 793.365 248.981 715.022 386.5 715.022C524.019 715.022 496 793.365 496 901.996Z" fill="#3A9EB6"/>
<path d="M1023 856.9C1023 989.301 918.234 1096.63 789 1096.63C659.765 1096.63 555 989.301 555 856.9C484 612.373 647.265 650.322 776.5 650.322C969.5 828.962 1023 724.506 1023 856.9Z" fill="#93B413"/>
<path d="M1175 589.878C1175 613.753 1130.45 633.107 1075.5 633.107C1020.55 633.107 976 613.753 976 589.878C976 566.003 1002.97 579.94 1075.5 546.648C1148.03 513.358 1175 566.003 1175 589.878Z" fill="#93B413"/>
</g>
</g>
</g>
<defs>
<clipPath id="clip0_525_138">
<rect width="1449" height="933" fill="white"/>
</clipPath>
</defs>
</svg>
