<svg width="1449" height="933" viewBox="0 0 1449 933" fill="none" xmlns="http://www.w3.org/2000/svg">
<g clip-path="url(#clip0_525_138)">
<mask id="mask0_525_138" style="mask-type:luminance" maskUnits="userSpaceOnUse" x="0" y="0" width="1449" height="933">
<path d="M1449 0H0V933H1449V0Z" fill="white"/>
</mask>
<g mask="url(#mask0_525_138)">
<path d="M1449 0H0V933H1449V0Z" fill="#0A53B5"/>
</g>
<rect width="44.3552" height="50.0847" rx="2" transform="matrix(0.930914 0.365239 -0.368392 0.929671 1187.98 791.945)" fill="#C0D474"/>
<path d="M38.3037 831.679C38.0396 830.215 39.419 828.99 40.8506 829.416L114.415 851.316C115.917 851.764 116.346 853.677 115.177 854.716L55.1806 908.019C54.0111 909.058 52.1487 908.418 51.8716 906.882L38.3037 831.679Z" fill="#99D9F4"/>
<path d="M106.566 699.25C106.231 697.732 107.693 696.433 109.172 696.936L174.765 719.23C176.217 719.724 176.597 721.59 175.453 722.607L124.721 767.679C123.577 768.696 121.756 768.109 121.427 766.618L106.566 699.25Z" fill="#99D9F4"/>
<path d="M1253.31 683.576C1252.96 682.046 1254.44 680.733 1255.93 681.251L1313.37 701.263C1314.82 701.765 1315.19 703.623 1314.05 704.634L1270.1 743.678C1268.96 744.689 1267.15 744.113 1266.81 742.631L1253.31 683.576Z" fill="#99D9F4"/>
<path d="M314.209 828.063C314.985 826.765 316.865 826.765 317.641 828.063L343.052 870.53C343.85 871.864 342.889 873.557 341.336 873.557H290.514C288.96 873.557 288 871.864 288.798 870.53L314.209 828.063Z" fill="#C0D474"/>
<path d="M1278.18 837.131C1278.96 835.833 1280.84 835.833 1281.62 837.131L1307.03 879.599C1307.82 880.932 1306.86 882.625 1305.31 882.625H1254.49C1252.94 882.625 1251.97 880.932 1252.77 879.599L1278.18 837.131Z" fill="#A1B6ED"/>
<rect width="61.3679" height="69.1995" rx="2" transform="matrix(0.792901 -0.609351 0.613153 0.789964 0 719.4)" fill="#A1B6ED"/>
<rect width="46.9665" height="46.6628" rx="2" transform="matrix(0.792901 -0.609351 0.613153 0.789964 1382.17 859.859)" fill="#99D9F4"/>
<rect width="61.3679" height="69.1995" rx="2" transform="matrix(0.792901 -0.609351 0.613153 0.789964 169.102 673.167)" fill="#C0D474"/>
<rect width="61.4808" height="69.0716" rx="2" transform="matrix(0.998871 -0.0474958 0.0479687 0.998849 1359.89 663.882)" fill="#A1B6ED"/>
<ellipse cx="204.541" cy="857.436" rx="26.327" ry="25.1891" fill="#FBA18B"/>
<ellipse cx="1355.84" cy="791.945" rx="26.327" ry="25.1891" fill="#FBA18B"/>
<path d="M54.9338 228.673C54.7188 227.252 56.0398 226.078 57.4354 226.451L125.119 244.539C126.659 244.951 127.125 246.899 125.936 247.955L68.6774 298.826C67.4888 299.882 65.5962 299.202 65.3591 297.633L54.9338 228.673Z" fill="#99D9F4"/>
<path d="M1259.1 33.7832C1258.76 32.2634 1260.23 30.9632 1261.71 31.4674L1331.6 55.285C1333.05 55.7794 1333.43 57.6451 1332.28 58.661L1278.29 106.631C1277.15 107.646 1275.33 107.06 1275 105.57L1259.1 33.7832Z" fill="#C0D474"/>
<rect width="46.957" height="47.5646" rx="2" transform="matrix(0.753412 0.657548 -0.661249 0.750166 198.526 53.4008)" fill="#99D9F4"/>
<path d="M186.016 214.668C185.691 213.156 187.141 211.868 188.614 212.36L251.734 233.447C253.193 233.935 253.58 235.808 252.432 236.827L203.247 280.525C202.1 281.545 200.273 280.951 199.951 279.453L186.016 214.668Z" fill="#C0D474"/>
<path d="M1413.87 204.381C1414.64 203.083 1416.52 203.083 1417.3 204.381L1442.71 246.849C1443.51 248.182 1442.55 249.876 1440.99 249.876H1390.17C1388.62 249.876 1387.66 248.182 1388.46 246.849L1413.87 204.381Z" fill="#A1B6ED"/>
<path d="M61.0631 23.0195C61.8395 21.7221 63.7192 21.7221 64.4956 23.0195L89.9065 65.4874C90.7042 66.8205 89.7438 68.5143 88.1903 68.5143H37.3684C35.8149 68.5143 34.8545 66.8205 35.6522 65.4874L61.0631 23.0195Z" fill="#C0D474"/>
<path d="M1211.35 131.836C1212.13 130.539 1214.01 130.539 1214.78 131.836L1240.19 174.304C1240.99 175.637 1240.03 177.331 1238.48 177.331H1187.66C1186.1 177.331 1185.14 175.637 1185.94 174.304L1211.35 131.836Z" fill="#99D9F4"/>
<path d="M1395.64 30.0726C1396.42 28.7751 1398.3 28.7751 1399.07 30.0726L1424.48 72.5405C1425.28 73.8736 1424.32 75.5674 1422.77 75.5674H1371.95C1370.39 75.5674 1369.43 73.8736 1370.23 72.5405L1395.64 30.0726Z" fill="#99D9F4"/>
<rect width="46.9665" height="46.6628" rx="2" transform="matrix(0.792901 -0.609351 0.613153 0.789964 1121.94 65.8991)" fill="#99D9F4"/>
<rect width="61.4808" height="69.0716" rx="2" transform="matrix(0.998871 -0.0474958 0.0479687 0.998849 1307.24 105.692)" fill="#A1B6ED"/>
<rect width="61.4808" height="69.0716" rx="2" transform="matrix(0.998871 -0.0474958 0.0479687 0.998849 286.559 23.0714)" fill="#A1B6ED"/>
<ellipse cx="99.2313" cy="136.021" rx="26.327" ry="25.1891" fill="#FBA18B"/>
<ellipse cx="1313.31" cy="258.944" rx="26.327" ry="25.1891" fill="#FBA18B"/>
</g>
<defs>
<clipPath id="clip0_525_138">
<rect width="1449" height="933" fill="white"/>
</clipPath>
</defs>
</svg>
