<svg width="524" height="401" viewBox="0 0 524 401" fill="none" xmlns="http://www.w3.org/2000/svg">
<rect width="524" height="401" fill="#0A53B5"/>
<path d="M12.2325 366.914C11.9879 365.335 13.285 363.993 14.611 364.453L33.4035 370.969C34.777 371.445 35.1488 373.484 34.0664 374.604L18.7399 390.464C17.6575 391.584 15.9518 390.926 15.6985 389.29L12.2325 366.914Z" fill="#99D9F4"/>
<path d="M33.509 319.293C33.199 317.656 34.5726 316.235 35.9406 316.777L52.2251 323.224C53.5516 323.749 53.8801 325.738 52.8212 326.834L40.2262 339.867C39.1673 340.963 37.499 340.36 37.1985 338.774L33.509 319.293Z" fill="#99D9F4"/>
<path d="M96.1491 365.716C96.8931 364.268 98.9632 364.268 99.7071 365.716L105.401 376.8C106.085 378.131 105.119 379.714 103.622 379.714H92.2339C90.7376 379.714 89.7712 378.131 90.4549 376.8L96.1491 365.716Z" fill="#C0D474"/>
<rect width="20.2429" height="23.7174" rx="2" transform="matrix(0.745095 -0.666958 0.554537 0.832159 0 324.056)" fill="#A1B6ED"/>
<rect width="20.2429" height="23.7174" rx="2" transform="matrix(0.745095 -0.666958 0.554537 0.832159 52.417 307.364)" fill="#C0D474"/>
<ellipse cx="63.4019" cy="373.894" rx="8.1607" ry="9.09443" fill="#FBA18B"/>
<rect width="15.0631" height="17.919" rx="2" transform="matrix(0.921532 0.388302 -0.346158 0.938176 435.608 350.248)" fill="#C0D474"/>
<path d="M458.083 313.514C457.746 311.928 459.184 310.556 460.62 311.093L475.77 316.761C477.154 317.278 477.501 319.195 476.401 320.244L464.812 331.302C463.712 332.352 461.969 331.767 461.644 330.239L458.083 313.514Z" fill="#99D9F4"/>
<path d="M464.765 368.663C465.527 367.294 467.496 367.294 468.259 368.663L474.584 380.015C475.326 381.348 474.363 382.988 472.837 382.988H460.187C458.661 382.988 457.697 381.348 458.44 380.015L464.765 368.663Z" fill="#A1B6ED"/>
<rect width="16.2326" height="16.4208" rx="2" transform="matrix(0.77124 -0.636545 0.585756 0.810487 500.893 374.768)" fill="#99D9F4"/>
<rect width="20.6722" height="24.9342" rx="2" transform="matrix(0.998699 -0.0510001 0.0446718 0.999002 493.404 304.011)" fill="#A1B6ED"/>
<ellipse cx="492.042" cy="350.248" rx="8.85063" ry="9.09443" fill="#FBA18B"/>
<path d="M13.4661 85.6705C13.2554 84.2158 14.5554 83.01 15.9231 83.3916L33.0393 88.167C34.5422 88.5863 34.9906 90.5714 33.8263 91.6513L19.3464 105.081C18.1822 106.161 16.334 105.474 16.1025 103.876L13.4661 85.6705Z" fill="#99D9F4"/>
<rect width="15.1617" height="15.4443" rx="2" transform="matrix(0.739191 0.673496 -0.64514 0.764064 58.6514 25.6122)" fill="#99D9F4"/>
<path d="M55.1786 81.3215C54.8602 79.7761 56.287 78.4528 57.7293 78.9558L73.3546 84.4054C74.7784 84.902 75.1504 86.8111 74.0264 87.8536L61.8506 99.1466C60.7266 100.189 58.9425 99.5898 58.6282 98.0642L55.1786 81.3215Z" fill="#C0D474"/>
<path d="M13.9129 17.6433C14.6813 16.3027 16.6149 16.3027 17.3833 17.6433L23.0991 27.6159C23.8633 28.9492 22.9008 30.6104 21.3639 30.6104H9.93225C8.39544 30.6104 7.43285 28.9492 8.19705 27.6159L13.9129 17.6433Z" fill="#C0D474"/>
<rect width="19.4785" height="22.841" rx="2" transform="matrix(0.99877 -0.0495786 0.0459532 0.998944 86.5391 15.5816)" fill="#A1B6ED"/>
<ellipse cx="27.1947" cy="52.936" rx="8.34017" ry="8.33045" fill="#FBA18B"/>
<path d="M467.114 13.6724C466.792 12.0818 468.205 10.7084 469.62 11.2361L486.427 17.5037C487.805 18.0173 488.153 19.9571 487.059 21.0206L474.075 33.6439C472.981 34.7074 471.251 34.1114 470.937 32.5633L467.114 13.6724Z" fill="#C0D474"/>
<path d="M512.148 69.8528C512.906 68.4655 514.899 68.4655 515.657 69.8528L521.03 79.6785C521.759 81.0113 520.794 82.638 519.275 82.638H508.53C507.011 82.638 506.046 81.0113 506.775 79.6785L512.148 69.8528Z" fill="#A1B6ED"/>
<path d="M450.943 45.8611C451.701 44.4738 453.694 44.4738 454.452 45.8611L459.825 55.6869C460.554 57.0197 459.589 58.6464 458.07 58.6464H447.325C445.806 58.6464 444.841 57.0197 445.57 55.6869L450.943 45.8611Z" fill="#99D9F4"/>
<path d="M506.639 12.2061C507.397 10.8188 509.39 10.8188 510.148 12.2061L515.521 22.0318C516.25 23.3646 515.285 24.9913 513.766 24.9913H503.021C501.502 24.9913 500.537 23.3646 501.266 22.0318L506.639 12.2061Z" fill="#99D9F4"/>
<rect width="14.7054" height="14.9462" rx="2" transform="matrix(0.76534 -0.643626 0.578544 0.815652 425.155 21.7939)" fill="#99D9F4"/>
<rect width="18.585" height="22.8388" rx="2" transform="matrix(0.998649 -0.0519623 0.043844 0.999038 481.157 34.9539)" fill="#A1B6ED"/>
<ellipse cx="482.993" cy="85.6369" rx="7.95661" ry="8.33045" fill="#FBA18B"/>
</svg>
