<svg width="341" height="170" viewBox="0 0 341 170" fill="none" xmlns="http://www.w3.org/2000/svg">
<g clip-path="url(#clip0_764_91)">
<mask id="mask0_764_91" style="mask-type:luminance" maskUnits="userSpaceOnUse" x="0" y="0" width="341" height="170">
<path d="M341 0H0V170H341V0Z" fill="white"/>
</mask>
<g mask="url(#mask0_764_91)">
<path d="M341 0H0V170H341V0Z" fill="#0A53B5"/>
</g>
<path d="M8.26993 153.93C7.96597 152.776 9.49864 151.842 11.1467 152.179L19.6692 153.917C21.4556 154.282 22.028 155.84 20.6777 156.662L13.7271 160.894C12.3768 161.716 10.1713 161.152 9.84179 159.901L8.26993 153.93Z" fill="#99D9F4"/>
<path d="M22.2311 135.775C21.8444 134.574 23.471 133.584 25.1779 133.981L32.0477 135.581C33.7755 135.984 34.2885 137.503 32.9681 138.307L27.6548 141.542C26.3344 142.346 24.179 141.827 23.7876 140.611L22.2311 135.775Z" fill="#99D9F4"/>
<path d="M62.2965 152.729C63.0935 151.816 64.5127 151.816 65.3096 152.729L66.7526 154.381C67.8821 155.675 66.9634 157.697 65.246 157.697H62.3601C60.6428 157.697 59.7241 155.675 60.8536 154.381L62.2965 152.729Z" fill="#C0D474"/>
<rect width="11.1065" height="11.431" rx="2" transform="matrix(0.884793 -0.465984 0.749629 0.661859 0 136.361)" fill="#A1B6ED"/>
<rect width="11.1065" height="11.431" rx="2" transform="matrix(0.884793 -0.465984 0.749629 0.661859 34.1509 129.963)" fill="#C0D474"/>
<ellipse cx="41.3086" cy="155.466" rx="5.31693" ry="3.48619" fill="#FBA18B"/>
<rect width="9.31775" height="7.60662" rx="2" transform="matrix(0.970617 0.24063 -0.531287 0.847192 283.812 146.402)" fill="#C0D474"/>
<path d="M298.873 133.478C298.46 132.336 300.131 131.398 301.889 131.784L308.003 133.13C309.768 133.519 310.296 134.952 308.951 135.707L304.274 138.332C302.93 139.087 300.725 138.596 300.31 137.449L298.873 133.478Z" fill="#99D9F4"/>
<path d="M302.493 153.792C303.282 152.959 304.609 152.959 305.398 153.792L307.088 155.577C308.295 156.852 307.391 158.952 305.635 158.952H302.255C300.5 158.952 299.596 156.852 300.803 155.577L302.493 153.792Z" fill="#A1B6ED"/>
<rect width="9.06751" height="8.08086" rx="2" transform="matrix(0.899547 -0.436824 0.77551 0.631335 326.347 155.801)" fill="#99D9F4"/>
<rect width="13.4571" height="9.57611" rx="2" transform="matrix(0.999549 -0.0300319 0.0757834 0.997124 321.466 128.678)" fill="#A1B6ED"/>
<ellipse cx="320.58" cy="146.402" rx="5.76644" ry="3.48619" fill="#FBA18B"/>
<path d="M8.99103 39.2591C8.74711 38.1054 10.2004 37.1821 11.784 37.4847L19.5686 38.9724C21.3683 39.3163 21.9699 40.9455 20.615 41.8063L14.0295 45.9901C12.6745 46.8509 10.4673 46.2417 10.1901 44.9306L8.99103 39.2591Z" fill="#99D9F4"/>
<rect width="8.60728" height="8.3591" rx="2" transform="matrix(0.848346 0.529442 -0.776598 0.629997 38.2139 11.43)" fill="#99D9F4"/>
<path d="M36.3032 37.4635C35.9329 36.2324 37.5319 35.2165 39.2093 35.6173L46.0043 37.2406C47.7125 37.6486 48.219 39.214 46.9116 40.0446L41.6167 43.4085C40.3093 44.2391 38.1804 43.7044 37.8033 42.4507L36.3032 37.4635Z" fill="#C0D474"/>
<path d="M8.6618 8.35571C9.46122 7.40036 10.9301 7.40036 11.7295 8.35571L13.4209 10.3771C14.5103 11.679 13.5847 13.6606 11.8871 13.6606H8.50421C6.80663 13.6606 5.88096 11.679 6.97037 10.3771L8.6618 8.35571Z" fill="#C0D474"/>
<rect width="12.6825" height="10.2055" rx="2" transform="matrix(0.999423 -0.0339817 0.0670087 0.997752 56.3838 6.95367)" fill="#A1B6ED"/>
<ellipse cx="17.7195" cy="23.6239" rx="5.43386" ry="3.71765" fill="#FBA18B"/>
<path d="M304.705 7.34419C304.327 6.06549 305.923 5.00236 307.584 5.42661L315.165 7.36304C316.833 7.78893 317.314 9.3931 316.031 10.2476L310.174 14.1476C308.891 15.0021 306.808 14.4643 306.429 13.1807L304.705 7.34419Z" fill="#C0D474"/>
<path d="M333.258 31.6992C334.058 30.6962 335.583 30.6962 336.384 31.6992L337.926 33.6313C338.972 34.9412 338.039 36.8791 336.363 36.8791H333.278C331.602 36.8791 330.67 34.9412 331.715 33.6313L333.258 31.6992Z" fill="#A1B6ED"/>
<path d="M293.382 20.9924C294.183 19.9894 295.707 19.9894 296.508 20.9924L298.05 22.9245C299.096 24.2344 298.163 26.1723 296.487 26.1723H293.402C291.726 26.1723 290.794 24.2344 291.839 22.9245L293.382 20.9924Z" fill="#99D9F4"/>
<path d="M329.669 5.97305C330.47 4.97007 331.994 4.97007 332.795 5.97305L334.337 7.90521C335.383 9.21506 334.45 11.153 332.774 11.153H329.69C328.014 11.153 327.081 9.21506 328.127 7.9052L329.669 5.97305Z" fill="#99D9F4"/>
<rect width="8.46228" height="7.83184" rx="2" transform="matrix(0.86652 -0.499142 0.719341 0.694657 277 9.72601)" fill="#99D9F4"/>
<rect width="12.1" height="10.2034" rx="2" transform="matrix(0.999365 -0.0356178 0.0639399 0.997954 313.487 15.599)" fill="#A1B6ED"/>
<ellipse cx="314.683" cy="38.2174" rx="5.18396" ry="3.71765" fill="#FBA18B"/>
</g>
<defs>
<clipPath id="clip0_764_91">
<rect width="341" height="170" fill="white"/>
</clipPath>
</defs>
</svg>
