<svg width="341" height="188" viewBox="0 0 341 188" fill="none" xmlns="http://www.w3.org/2000/svg">
<g clip-path="url(#clip0_764_91)">
<mask id="mask0_764_91" style="mask-type:luminance" maskUnits="userSpaceOnUse" x="0" y="0" width="341" height="188">
<path d="M341 0H0V188H341V0Z" fill="white"/>
</mask>
<g mask="url(#mask0_764_91)">
<path d="M341 0H0V188H341V0Z" fill="#0A53B5"/>
</g>
<path d="M8.25303 170.158C7.95835 168.92 9.45736 167.911 11.0551 168.271L19.8392 170.253C21.5569 170.64 22.0923 172.297 20.7844 173.178L13.6204 178.001C12.3125 178.882 10.19 178.294 9.87314 176.963L8.25303 170.158Z" fill="#99D9F4"/>
<path d="M22.2084 150.074C21.8338 148.786 23.424 147.716 25.0776 148.142L32.2083 149.978C33.8693 150.406 34.348 152.022 33.069 152.883L27.5539 156.596C26.2749 157.458 24.2003 156.917 23.824 155.624L22.2084 150.074Z" fill="#99D9F4"/>
<path d="M62.2334 168.98C63.0341 167.966 64.5721 167.966 65.3728 168.98L67.0898 171.155C68.1253 172.466 67.1911 174.394 65.5201 174.394H62.0861C60.415 174.394 59.4809 172.466 60.5164 171.155L62.2334 168.98Z" fill="#C0D474"/>
<rect width="11.3722" height="11.9763" rx="2" transform="matrix(0.864121 -0.503284 0.715499 0.698614 0 150.8)" fill="#A1B6ED"/>
<rect width="11.3722" height="11.9763" rx="2" transform="matrix(0.864121 -0.503284 0.715499 0.698614 34.1509 143.723)" fill="#C0D474"/>
<ellipse cx="41.3086" cy="171.927" rx="5.31693" ry="3.85532" fill="#FBA18B"/>
<rect width="9.37771" height="8.19272" rx="2" transform="matrix(0.964411 0.264407 -0.49328 0.869871 283.812 161.903)" fill="#C0D474"/>
<path d="M298.851 147.545C298.45 146.317 300.089 145.3 301.797 145.716L308.152 147.263C309.855 147.677 310.35 149.207 309.043 150.019L304.182 153.036C302.875 153.848 300.745 153.333 300.345 152.109L298.851 147.545Z" fill="#99D9F4"/>
<path d="M302.426 170.154C303.224 169.222 304.666 169.222 305.465 170.154L307.457 172.481C308.568 173.779 307.646 175.782 305.938 175.782H301.953C300.244 175.782 299.322 173.779 300.433 172.481L302.426 170.154Z" fill="#A1B6ED"/>
<rect width="9.2584" height="8.43231" rx="2" transform="matrix(0.881 -0.473116 0.743188 0.669083 326.347 172.298)" fill="#99D9F4"/>
<rect width="13.4584" height="10.5845" rx="2" transform="matrix(0.999448 -0.0332085 0.0685634 0.997647 321.466 142.302)" fill="#A1B6ED"/>
<ellipse cx="320.58" cy="161.903" rx="5.76644" ry="3.85532" fill="#FBA18B"/>
<path d="M8.97708 43.343C8.74095 42.1079 10.1604 41.1106 11.6935 41.4346L19.7513 43.1375C21.4787 43.5026 22.0404 45.2314 20.7305 46.1517L13.9139 50.9409C12.604 51.8611 10.4843 51.2269 10.2182 49.8351L8.97708 43.343Z" fill="#99D9F4"/>
<rect width="8.87219" height="8.72114" rx="2" transform="matrix(0.823016 0.568018 -0.744358 0.66778 38.2139 12.6403)" fill="#99D9F4"/>
<path d="M36.2802 41.3455C35.9221 40.0289 37.4829 38.9324 39.1049 39.3609L46.1713 41.2278C47.8101 41.6607 48.2814 43.3223 47.0173 44.2104L41.511 48.0789C40.2469 48.967 38.202 48.4111 37.8402 47.081L36.2802 41.3455Z" fill="#C0D474"/>
<path d="M8.60076 9.32112C9.40101 8.2635 10.9903 8.2635 11.7905 9.32112L13.742 11.9002C14.7388 13.2176 13.7991 15.107 12.1471 15.107H8.24416C6.59215 15.107 5.65246 13.2176 6.64927 11.9002L8.60076 9.32112Z" fill="#C0D474"/>
<rect width="12.6842" height="11.2814" rx="2" transform="matrix(0.999294 -0.0375749 0.0606178 0.998161 56.3838 7.68997)" fill="#A1B6ED"/>
<ellipse cx="17.7195" cy="26.1253" rx="5.43386" ry="4.11129" fill="#FBA18B"/>
<path d="M304.679 8.02665C304.315 6.6623 305.87 5.51697 307.473 5.96963L315.336 8.19091C316.932 8.6417 317.378 10.3406 316.14 11.2523L310.065 15.726C308.827 16.6377 306.831 16.0804 306.468 14.7217L304.679 8.02665Z" fill="#C0D474"/>
<path d="M333.199 35.1367C333.997 34.0309 335.644 34.0309 336.442 35.1367L338.23 37.6133C339.185 38.936 338.24 40.7839 336.609 40.7839H333.033C331.402 40.7839 330.457 38.936 331.411 37.6133L333.199 35.1367Z" fill="#A1B6ED"/>
<path d="M293.323 23.2963C294.122 22.1904 295.768 22.1904 296.567 23.2963L298.354 25.7729C299.309 27.0956 298.364 28.9435 296.733 28.9435H293.157C291.526 28.9435 290.581 27.0956 291.535 25.7729L293.323 23.2963Z" fill="#99D9F4"/>
<path d="M329.61 6.68665C330.409 5.58078 332.055 5.58078 332.854 6.68665L334.641 9.16326C335.596 10.486 334.651 12.3339 333.02 12.3339H329.444C327.813 12.3339 326.868 10.486 327.823 9.16326L329.61 6.68665Z" fill="#99D9F4"/>
<rect width="8.69415" height="8.24242" rx="2" transform="matrix(0.84341 -0.537271 0.683509 0.729942 277 10.7558)" fill="#99D9F4"/>
<rect width="12.1017" height="11.2796" rx="2" transform="matrix(0.999224 -0.0393835 0.0578395 0.998326 313.487 17.2506)" fill="#A1B6ED"/>
<ellipse cx="314.683" cy="42.264" rx="5.18396" ry="4.11129" fill="#FBA18B"/>
</g>
<defs>
<clipPath id="clip0_764_91">
<rect width="341" height="188" fill="white"/>
</clipPath>
</defs>
</svg>
