<svg width="1441" height="1008" viewBox="0 0 1441 1008" fill="none" xmlns="http://www.w3.org/2000/svg">
<g clip-path="url(#clip0_45_42)">
<rect width="1440" height="1008" transform="translate(0.00195312)" fill="#0A53B5"/>
<path d="M319.002 568.463C319.002 620.675 219.385 663 96.502 663C-26.3814 663 -125.998 620.675 -125.998 568.463C-125.998 516.252 105.162 338.321 96.502 473.927C87.8418 609.533 319.002 516.252 319.002 568.463Z" fill="#93B413"/>
<path d="M110.035 290.317C-99.3685 343.291 -38.2926 327.84 -38.2926 327.84L-25.7303 136.929L35.8854 227.586L-199.998 135.113C-199.998 135.113 319.438 237.342 110.035 290.317Z" fill="#93B413"/>
<path d="M1569 269C1470.5 329 1485.28 390 1382 390C1278.72 390 1250.5 339.5 1187 286.5C1187 219.674 1278.72 148 1382 148C1485.28 148 1569 202.174 1569 269Z" fill="#93B413"/>
<path d="M842.502 184.524C808.502 184.524 795.268 234.024 737.002 234.024C678.736 234.024 573.502 234.024 631.502 184.524C689.502 135.024 678.736 135.024 737.002 135.024C795.268 135.024 842.502 157.186 842.502 184.524Z" fill="#3A9EB6"/>
<path d="M1230.5 465C1230.5 537.073 1047.59 511.5 930.502 511.5C813.417 511.5 806.502 537.073 806.502 465C806.502 392.927 673.002 380.5 984.002 295.5C1295 210.5 1108 361 1230.5 465Z" fill="#3A9EB6"/>
<path d="M576.002 368C576.002 422.4 556.652 512 460.002 512C363.352 512 245.502 567 285.002 413.5C324.502 260 363.352 315 460.002 315C556.652 315 576.002 313.6 576.002 368Z" fill="#3A9EB6"/>
<path d="M1449 799.699C1449 868.82 1328.22 842.286 1305.6 977.002C1282.99 1111.72 1118 920.968 1118 851.847C1118 782.725 1101.25 718 1204.86 718C1308.47 718 1449 730.577 1449 799.699Z" fill="#3A9EB6"/>
<path d="M496.002 974.5C496.002 1091.86 384.521 1187 247.002 1187C109.483 1187 -1.99805 1091.86 -1.99805 974.5C-1.99805 857.139 248.983 772.5 386.502 772.5C524.021 772.5 496.002 857.139 496.002 974.5Z" fill="#3A9EB6"/>
<path d="M1023 925.786C1023 1068.83 918.236 1184.79 789.002 1184.79C659.767 1184.79 555.002 1068.83 555.002 925.786C484.002 661.598 647.267 702.598 776.502 702.598C969.502 895.598 1023 782.745 1023 925.786Z" fill="#93B413"/>
<path d="M1175 637.296C1175 663.09 1130.45 684 1075.5 684C1020.55 684 976.002 663.09 976.002 637.296C976.002 611.502 1002.97 626.559 1075.5 590.591C1148.03 554.624 1175 611.502 1175 637.296Z" fill="#93B413"/>
</g>
<defs>
<clipPath id="clip0_45_42">
<rect width="1440" height="1008" fill="white" transform="translate(0.00195312)"/>
</clipPath>
</defs>
</svg>
