<svg width="377" height="190" viewBox="0 0 377 190" fill="none" xmlns="http://www.w3.org/2000/svg">
<g clip-path="url(#clip0_764_91)">
<mask id="mask0_764_91" style="mask-type:luminance" maskUnits="userSpaceOnUse" x="0" y="0" width="377" height="190">
<path d="M377 0H0V190H377V0Z" fill="white"/>
</mask>
<g mask="url(#mask0_764_91)">
<path d="M377 0H0V190H377V0Z" fill="#0A53B5"/>
</g>
<rect width="11.2382" height="10.6281" rx="2" transform="matrix(0.95594 0.293561 -0.451683 0.892178 309.087 161.275)" fill="#C0D474"/>
<path d="M10.4438 171.44C10.1523 170.175 11.6394 169.141 13.2198 169.51L26.7579 172.664C28.4525 173.059 28.9757 174.747 27.6823 175.646L16.6411 183.324C15.3477 184.224 13.2532 183.628 12.9407 182.272L10.4438 171.44Z" fill="#99D9F4"/>
<path d="M28.3606 144.648C27.9901 143.333 29.5675 142.236 31.2029 142.671L42.6266 145.71C44.265 146.146 44.7325 147.792 43.4676 148.672L34.6321 154.816C33.3673 155.696 31.32 155.148 30.9488 153.831L28.3606 144.648Z" fill="#99D9F4"/>
<path d="M326.754 141.493C326.367 140.169 327.963 139.059 329.609 139.508L338.901 142.041C340.528 142.485 340.985 144.123 339.726 144.998L332.617 149.942C331.358 150.817 329.32 150.279 328.938 148.97L326.754 141.493Z" fill="#99D9F4"/>
<path d="M80.6084 170.124C81.4089 169.077 82.9857 169.077 83.7862 170.124L87.269 174.68C88.2751 175.996 87.3367 177.895 85.6801 177.895H78.7146C77.058 177.895 76.1196 175.996 77.1257 174.68L80.6084 170.124Z" fill="#C0D474"/>
<path d="M331.415 171.971C332.215 170.924 333.792 170.924 334.592 171.971L338.075 176.527C339.081 177.843 338.143 179.741 336.486 179.741H329.521C327.864 179.741 326.926 177.843 327.932 176.527L331.415 171.971Z" fill="#A1B6ED"/>
<rect width="14.7738" height="15.6778" rx="2" transform="matrix(0.856919 -0.515451 0.704139 0.710062 0 146.502)" fill="#A1B6ED"/>
<rect width="11.3068" height="10.5719" rx="2" transform="matrix(0.856919 -0.515451 0.704139 0.710062 359.612 175.105)" fill="#99D9F4"/>
<rect width="14.7738" height="15.6778" rx="2" transform="matrix(0.856919 -0.515451 0.704139 0.710062 43.9966 137.087)" fill="#C0D474"/>
<rect width="15.9891" height="14.0763" rx="2" transform="matrix(0.999308 -0.0371915 0.0612412 0.998123 353.816 135.196)" fill="#A1B6ED"/>
<ellipse cx="53.2174" cy="174.612" rx="6.84976" ry="5.12961" fill="#FBA18B"/>
<ellipse cx="352.762" cy="161.275" rx="6.84976" ry="5.12961" fill="#FBA18B"/>
<path d="M14.67 48.5229C14.433 47.296 15.8562 46.3064 17.3947 46.6282L29.4153 49.1427C31.1504 49.5056 31.7162 51.2244 30.4016 52.1386L20.2324 59.2101C18.9178 60.1243 16.7888 59.4925 16.5215 58.1089L14.67 48.5229Z" fill="#99D9F4"/>
<path d="M328.229 9.13325C327.857 7.81763 329.436 6.71933 331.072 7.15582L343.613 10.5008C345.25 10.9375 345.716 12.5827 344.452 13.4619L334.764 20.1988C333.5 21.0779 331.454 20.5314 331.081 19.2152L328.229 9.13325Z" fill="#C0D474"/>
<rect width="11.1473" height="10.9437" rx="2" transform="matrix(0.825728 0.564068 -0.747756 0.663974 51.6523 10.8748)" fill="#99D9F4"/>
<path d="M49.0088 45.9403C48.6494 44.6324 50.2143 43.5442 51.8423 43.9699L62.6298 46.7907C64.2759 47.2212 64.7508 48.873 63.4821 49.7552L55.0762 55.6006C53.8075 56.4829 51.7537 55.929 51.3903 54.6065L49.0088 45.9403Z" fill="#C0D474"/>
<path d="M366.716 43.1154C367.517 42.0682 369.094 42.0682 369.894 43.1154L373.377 47.6711C374.383 48.9872 373.445 50.8858 371.788 50.8858H364.823C363.166 50.8858 362.228 48.9872 363.234 47.6711L366.716 43.1154Z" fill="#A1B6ED"/>
<path d="M14.7447 6.18213C15.5452 5.13501 17.122 5.13501 17.9225 6.18213L21.4052 10.7379C22.4113 12.0539 21.4729 13.9525 19.8163 13.9525H12.8508C11.1942 13.9525 10.2558 12.0539 11.2619 10.7379L14.7447 6.18213Z" fill="#C0D474"/>
<path d="M314.026 28.3421C314.826 27.295 316.403 27.295 317.204 28.3421L320.686 32.8979C321.693 34.2139 320.754 36.1125 319.098 36.1125H312.132C310.475 36.1125 309.537 34.2139 310.543 32.8979L314.026 28.3421Z" fill="#99D9F4"/>
<path d="M361.975 7.61847C362.775 6.57135 364.352 6.57135 365.152 7.61847L368.635 12.1742C369.641 13.4903 368.703 15.3889 367.046 15.3889H360.081C358.424 15.3889 357.486 13.4903 358.492 12.1742L361.975 7.61847Z" fill="#99D9F4"/>
<rect width="11.3068" height="10.5719" rx="2" transform="matrix(0.856919 -0.515451 0.704139 0.710062 291.904 13.42)" fill="#99D9F4"/>
<rect width="15.9891" height="14.0763" rx="2" transform="matrix(0.999308 -0.0371915 0.0612412 0.998123 340.116 21.5235)" fill="#A1B6ED"/>
<rect width="15.9891" height="14.0763" rx="2" transform="matrix(0.999308 -0.0371915 0.0612412 0.998123 74.5566 4.69836)" fill="#A1B6ED"/>
<ellipse cx="25.8175" cy="27.6999" rx="6.84976" ry="5.12961" fill="#FBA18B"/>
<ellipse cx="341.697" cy="52.7324" rx="6.84976" ry="5.12961" fill="#FBA18B"/>
</g>
<defs>
<clipPath id="clip0_764_91">
<rect width="377" height="190" fill="white"/>
</clipPath>
</defs>
</svg>
