<svg width="1449" height="695" viewBox="0 0 1449 695" fill="none" xmlns="http://www.w3.org/2000/svg">
<g clip-path="url(#clip0_1175_344)">
<mask id="mask0_1175_344" style="mask-type:luminance" maskUnits="userSpaceOnUse" x="0" y="0" width="1449" height="695">
<path d="M1449 0H0V695H1449V0Z" fill="white"/>
</mask>
<g mask="url(#mask0_1175_344)">
<mask id="mask1_1175_344" style="mask-type:luminance" maskUnits="userSpaceOnUse" x="0" y="0" width="1449" height="695">
<path d="M1449 0H0V695H1449V0Z" fill="white"/>
</mask>
<g mask="url(#mask1_1175_344)">
<path d="M1449 0H0V695H1449V0Z" fill="#0A53B5"/>
</g>
<path d="M1227.41 601.45L1189.84 590.471C1188.81 590.17 1187.65 590.547 1187.24 591.312L1170.27 623.227C1169.86 623.991 1170.36 624.855 1171.39 625.156L1208.96 636.135C1209.99 636.436 1211.15 636.059 1211.56 635.294L1228.53 603.38C1228.94 602.615 1228.44 601.751 1227.41 601.45Z" fill="#C0D474"/>
<path d="M38.3032 619.525C38.0391 618.435 39.4185 617.522 40.8501 617.839L114.415 634.153C115.917 634.487 116.346 635.912 115.177 636.686L55.1801 676.391C54.0106 677.165 52.1482 676.689 51.8711 675.545L38.3032 619.525Z" fill="#99D9F4"/>
<path d="M106.566 520.878C106.231 519.747 107.693 518.779 109.172 519.154L174.765 535.761C176.217 536.129 176.597 537.519 175.453 538.276L124.721 571.851C123.577 572.609 121.756 572.171 121.427 571.061L106.566 520.878Z" fill="#99D9F4"/>
<path d="M1253.31 509.202C1252.96 508.062 1254.44 507.084 1255.93 507.47L1313.37 522.377C1314.82 522.751 1315.19 524.135 1314.05 524.888L1270.1 553.972C1268.96 554.725 1267.15 554.296 1266.81 553.192L1253.31 509.202Z" fill="#99D9F4"/>
<path d="M314.209 616.831C314.985 615.865 316.865 615.865 317.641 616.831L343.052 648.466C343.85 649.459 342.889 650.72 341.336 650.72H290.514C288.96 650.72 288 649.459 288.798 648.466L314.209 616.831Z" fill="#C0D474"/>
<path d="M1278.18 623.586C1278.96 622.619 1280.84 622.619 1281.62 623.586L1307.03 655.221C1307.82 656.214 1306.86 657.475 1305.31 657.475H1254.49C1252.94 657.475 1251.97 656.214 1252.77 655.221L1278.18 623.586Z" fill="#A1B6ED"/>
<path d="M47.0729 508.94L1.5858 534.98C0.709988 535.481 0.549036 536.414 1.22631 537.064L41.2036 575.431C41.8808 576.081 43.1399 576.202 44.0157 575.7L89.5027 549.66C90.3786 549.159 90.5395 548.225 89.8622 547.576L49.885 509.209C49.2077 508.559 47.9487 508.438 47.0729 508.94Z" fill="#A1B6ED"/>
<path d="M1417.82 620.106L1383.76 639.609C1382.88 640.11 1382.72 641.044 1383.4 641.694L1409.56 666.798C1410.23 667.448 1411.49 667.569 1412.37 667.068L1446.44 647.565C1447.31 647.063 1447.47 646.13 1446.79 645.48L1420.64 620.375C1419.96 619.725 1418.7 619.604 1417.82 620.106Z" fill="#99D9F4"/>
<path d="M216.174 474.5L170.687 500.54C169.812 501.042 169.651 501.975 170.328 502.625L210.305 540.992C210.982 541.642 212.241 541.762 213.117 541.261L258.604 515.221C259.48 514.719 259.641 513.786 258.964 513.136L218.987 474.769C218.309 474.119 217.05 473.999 216.174 474.5Z" fill="#C0D474"/>
<path d="M1419.3 492.427L1361.89 494.461C1360.78 494.5 1359.93 495.198 1359.99 496.02L1363.11 544.436C1363.16 545.258 1364.1 545.893 1365.2 545.854L1422.62 543.82C1423.72 543.781 1424.57 543.083 1424.52 542.261L1421.4 493.845C1421.34 493.023 1420.41 492.388 1419.3 492.427Z" fill="#A1B6ED"/>
<path d="M204.541 657.475C219.081 657.475 230.868 649.075 230.868 638.712C230.868 628.349 219.081 619.948 204.541 619.948C190.001 619.948 178.214 628.349 178.214 638.712C178.214 649.075 190.001 657.475 204.541 657.475Z" fill="#FBA18B"/>
<path d="M1355.84 608.69C1370.38 608.69 1382.17 600.29 1382.17 589.927C1382.17 579.564 1370.38 571.163 1355.84 571.163C1341.3 571.163 1329.51 579.564 1329.51 589.927C1329.51 600.29 1341.3 608.69 1355.84 608.69Z" fill="#FBA18B"/>
<path d="M54.9342 170.341C54.7192 169.282 56.0402 168.408 57.4358 168.685L125.119 182.159C126.659 182.466 127.125 183.917 125.936 184.704L68.6778 222.598C67.4892 223.385 65.5966 222.878 65.3595 221.709L54.9342 170.341Z" fill="#99D9F4"/>
<path d="M1259.1 25.1654C1258.76 24.0333 1260.23 23.0648 1261.71 23.4403L1331.6 41.1823C1333.05 41.5506 1333.43 42.9404 1332.28 43.6971L1278.29 79.4304C1277.15 80.1865 1275.33 79.75 1275 78.64L1259.1 25.1654Z" fill="#C0D474"/>
<path d="M232.398 61.7993L200.033 40.7584C199.201 40.2173 197.934 40.2791 197.204 40.8963L168.397 65.2405C167.666 65.8577 167.749 66.7967 168.581 67.3377L200.945 88.3786C201.778 88.9197 203.044 88.8579 203.775 88.2406L232.582 63.8965C233.312 63.2793 233.23 62.3403 232.398 61.7993Z" fill="#99D9F4"/>
<path d="M186.016 159.908C185.691 158.782 187.141 157.822 188.614 158.189L251.734 173.897C253.193 174.26 253.58 175.655 252.432 176.415L203.247 208.966C202.1 209.725 200.273 209.283 199.951 208.167L186.016 159.908Z" fill="#C0D474"/>
<path d="M1413.87 152.245C1414.64 151.278 1416.52 151.278 1417.3 152.245L1442.71 183.88C1443.51 184.873 1442.55 186.135 1440.99 186.135H1390.17C1388.62 186.135 1387.66 184.873 1388.46 183.88L1413.87 152.245Z" fill="#A1B6ED"/>
<path d="M61.063 17.1474C61.8394 16.181 63.7191 16.181 64.4955 17.1474L89.9064 48.7821C90.7041 49.7752 89.7437 51.0369 88.1902 51.0369H37.3683C35.8148 51.0369 34.8544 49.7752 35.6521 48.7821L61.063 17.1474Z" fill="#C0D474"/>
<path d="M1211.35 98.2058C1212.13 97.2397 1214.01 97.2397 1214.78 98.2058L1240.19 129.841C1240.99 130.834 1240.03 132.095 1238.48 132.095H1187.66C1186.1 132.095 1185.14 130.834 1185.94 129.841L1211.35 98.2058Z" fill="#99D9F4"/>
<path d="M1395.64 22.4013C1396.42 21.4348 1398.3 21.4348 1399.07 22.4013L1424.48 54.0361C1425.28 55.0291 1424.32 56.2908 1422.77 56.2908H1371.95C1370.39 56.2908 1369.43 55.0291 1370.23 54.0361L1395.64 22.4013Z" fill="#99D9F4"/>
<path d="M1157.59 28.678L1123.53 48.181C1122.65 48.6824 1122.49 49.6157 1123.17 50.2657L1149.32 75.3707C1150 76.0207 1151.26 76.1412 1152.14 75.6398L1186.2 56.1368C1187.08 55.6354 1187.24 54.7021 1186.56 54.0521L1160.41 28.9471C1159.73 28.2971 1158.47 28.1767 1157.59 28.678Z" fill="#99D9F4"/>
<path d="M1366.65 76.6265L1309.24 78.6602C1308.13 78.6992 1307.28 79.3972 1307.34 80.219L1310.46 128.636C1310.51 129.457 1311.45 130.092 1312.55 130.053L1369.97 128.019C1371.07 127.98 1371.92 127.282 1371.87 126.46L1368.75 78.0438C1368.69 77.222 1367.76 76.5874 1366.65 76.6265Z" fill="#A1B6ED"/>
<path d="M345.972 15.0817L288.556 17.1153C287.453 17.1544 286.602 17.8523 286.655 18.6742L289.776 67.0908C289.829 67.9127 290.766 68.5472 291.87 68.5082L349.286 66.4745C350.389 66.4354 351.24 65.7375 351.187 64.9156L348.066 16.499C348.013 15.6771 347.076 15.0426 345.972 15.0817Z" fill="#A1B6ED"/>
<path d="M99.2313 120.087C113.771 120.087 125.558 111.686 125.558 101.323C125.558 90.9604 113.771 82.5597 99.2313 82.5597C84.6913 82.5597 72.9043 90.9604 72.9043 101.323C72.9043 111.686 84.6913 120.087 99.2313 120.087Z" fill="#FBA18B"/>
<path d="M1313.31 211.653C1327.85 211.653 1339.64 203.253 1339.64 192.89C1339.64 182.527 1327.85 174.126 1313.31 174.126C1298.77 174.126 1286.98 182.527 1286.98 192.89C1286.98 203.253 1298.77 211.653 1313.31 211.653Z" fill="#FBA18B"/>
</g>
</g>
<defs>
<clipPath id="clip0_1175_344">
<rect width="1449" height="695" fill="white"/>
</clipPath>
</defs>
</svg>
