<svg width="1449" height="586" viewBox="0 0 1449 586" fill="none" xmlns="http://www.w3.org/2000/svg">
<g clip-path="url(#clip0_1175_344)">
<mask id="mask0_1175_344" style="mask-type:luminance" maskUnits="userSpaceOnUse" x="0" y="0" width="1449" height="586">
<path d="M1449 0H0V586H1449V0Z" fill="white"/>
</mask>
<g mask="url(#mask0_1175_344)">
<mask id="mask1_1175_344" style="mask-type:luminance" maskUnits="userSpaceOnUse" x="0" y="0" width="1449" height="586">
<path d="M1449 0H0V586H1449V0Z" fill="white"/>
</mask>
<g mask="url(#mask1_1175_344)">
<path d="M1449 0H0V586H1449V0Z" fill="#0A53B5"/>
</g>
<path d="M1227.41 507.122L1189.84 497.865C1188.81 497.611 1187.65 497.929 1187.24 498.574L1170.27 525.483C1169.86 526.128 1170.36 526.856 1171.39 527.11L1208.96 536.367C1209.99 536.621 1211.15 536.303 1211.56 535.658L1228.53 508.749C1228.94 508.104 1228.44 507.376 1227.41 507.122Z" fill="#C0D474"/>
<path d="M38.3032 522.362C38.0391 521.443 39.4185 520.673 40.8501 520.941L114.415 534.696C115.917 534.977 116.346 536.179 115.177 536.831L55.1801 570.31C54.0106 570.962 52.1482 570.561 51.8711 569.596L38.3032 522.362Z" fill="#99D9F4"/>
<path d="M106.566 439.186C106.231 438.233 107.693 437.417 109.172 437.733L174.765 451.735C176.217 452.045 176.597 453.217 175.453 453.856L124.721 482.165C123.577 482.804 121.756 482.435 121.427 481.499L106.566 439.186Z" fill="#99D9F4"/>
<path d="M1253.31 429.341C1252.96 428.38 1254.44 427.556 1255.93 427.881L1313.37 440.45C1314.82 440.766 1315.19 441.933 1314.05 442.568L1270.1 467.09C1268.96 467.725 1267.15 467.364 1266.81 466.433L1253.31 429.341Z" fill="#99D9F4"/>
<path d="M314.209 520.091C314.985 519.276 316.865 519.276 317.641 520.091L343.052 546.764C343.85 547.602 342.889 548.665 341.336 548.665H290.514C288.96 548.665 288 547.602 288.798 546.764L314.209 520.091Z" fill="#C0D474"/>
<path d="M1278.18 525.786C1278.96 524.971 1280.84 524.971 1281.62 525.786L1307.03 552.46C1307.82 553.297 1306.86 554.36 1305.31 554.36H1254.49C1252.94 554.36 1251.97 553.297 1252.77 552.46L1278.18 525.786Z" fill="#A1B6ED"/>
<path d="M47.0729 429.12L1.5858 451.076C0.709988 451.499 0.549036 452.286 1.22631 452.834L41.2036 485.184C41.8808 485.732 43.1399 485.833 44.0157 485.41L89.5027 463.455C90.3786 463.032 90.5395 462.245 89.8622 461.697L49.885 429.347C49.2077 428.799 47.9487 428.698 47.0729 429.12Z" fill="#A1B6ED"/>
<path d="M1417.82 522.852L1383.76 539.296C1382.88 539.719 1382.72 540.506 1383.4 541.054L1409.56 562.221C1410.23 562.769 1411.49 562.871 1412.37 562.448L1446.44 546.004C1447.31 545.581 1447.47 544.794 1446.79 544.246L1420.64 523.079C1419.96 522.531 1418.7 522.429 1417.82 522.852Z" fill="#99D9F4"/>
<path d="M216.174 400.082L170.687 422.038C169.812 422.461 169.651 423.248 170.328 423.796L210.305 456.146C210.982 456.694 212.241 456.795 213.117 456.372L258.604 434.416C259.48 433.994 259.641 433.207 258.964 432.659L218.987 400.309C218.309 399.761 217.05 399.66 216.174 400.082Z" fill="#C0D474"/>
<path d="M1419.3 415.198L1361.89 416.912C1360.78 416.945 1359.93 417.534 1359.99 418.227L1363.11 459.05C1363.16 459.743 1364.1 460.278 1365.2 460.245L1422.62 458.53C1423.72 458.497 1424.57 457.909 1424.52 457.216L1421.4 416.393C1421.34 415.7 1420.41 415.165 1419.3 415.198Z" fill="#A1B6ED"/>
<path d="M204.541 554.36C219.081 554.36 230.868 547.277 230.868 538.54C230.868 529.802 219.081 522.719 204.541 522.719C190.001 522.719 178.214 529.802 178.214 538.54C178.214 547.277 190.001 554.36 204.541 554.36Z" fill="#FBA18B"/>
<path d="M1355.84 513.227C1370.38 513.227 1382.17 506.144 1382.17 497.406C1382.17 488.668 1370.38 481.585 1355.84 481.585C1341.3 481.585 1329.51 488.668 1329.51 497.406C1329.51 506.144 1341.3 513.227 1355.84 513.227Z" fill="#FBA18B"/>
<path d="M54.9342 143.625C54.7192 142.733 56.0402 141.995 57.4358 142.23L125.119 153.59C126.659 153.849 127.125 155.073 125.936 155.736L68.6778 187.687C67.4892 188.35 65.5966 187.923 65.3595 186.938L54.9342 143.625Z" fill="#99D9F4"/>
<path d="M1259.1 21.2186C1258.76 20.264 1260.23 19.4474 1261.71 19.7641L1331.6 34.7235C1333.05 35.034 1333.43 36.2058 1332.28 36.8439L1278.29 66.9729C1277.15 67.6105 1275.33 67.2424 1275 66.3066L1259.1 21.2186Z" fill="#C0D474"/>
<path d="M232.398 52.107L200.033 34.366C199.201 33.9099 197.934 33.962 197.204 34.4824L168.397 55.0085C167.666 55.5289 167.749 56.3207 168.581 56.7768L200.945 74.5178C201.778 74.974 203.044 74.9219 203.775 74.4015L232.582 53.8753C233.312 53.3549 233.23 52.5632 232.398 52.107Z" fill="#99D9F4"/>
<path d="M186.016 134.829C185.691 133.879 187.141 133.07 188.614 133.379L251.734 146.624C253.193 146.93 253.58 148.107 252.432 148.747L203.247 176.193C202.1 176.833 200.273 176.46 199.951 175.519L186.016 134.829Z" fill="#C0D474"/>
<path d="M1413.87 128.368C1414.64 127.553 1416.52 127.553 1417.3 128.368L1442.71 155.041C1443.51 155.879 1442.55 156.942 1440.99 156.942H1390.17C1388.62 156.942 1387.66 155.879 1388.46 155.041L1413.87 128.368Z" fill="#A1B6ED"/>
<path d="M61.063 14.4581C61.8394 13.6433 63.7191 13.6433 64.4955 14.4581L89.9064 41.1314C90.7041 41.9687 89.7437 43.0326 88.1902 43.0326H37.3683C35.8148 43.0326 34.8544 41.9687 35.6521 41.1314L61.063 14.4581Z" fill="#C0D474"/>
<path d="M1211.35 82.8037C1212.13 81.9891 1214.01 81.9891 1214.78 82.8037L1240.19 109.477C1240.99 110.314 1240.03 111.378 1238.48 111.378H1187.66C1186.1 111.378 1185.14 110.314 1185.94 109.477L1211.35 82.8037Z" fill="#99D9F4"/>
<path d="M1395.64 18.888C1396.42 18.0731 1398.3 18.0731 1399.07 18.888L1424.48 45.5613C1425.28 46.3986 1424.32 47.4625 1422.77 47.4625H1371.95C1370.39 47.4625 1369.43 46.3986 1370.23 45.5613L1395.64 18.888Z" fill="#99D9F4"/>
<path d="M1157.59 24.1803L1123.53 40.6246C1122.65 41.0473 1122.49 41.8343 1123.17 42.3823L1149.32 63.55C1150 64.098 1151.26 64.1996 1152.14 63.7769L1186.2 47.3326C1187.08 46.9099 1187.24 46.1229 1186.56 45.5749L1160.41 24.4072C1159.73 23.8592 1158.47 23.7576 1157.59 24.1803Z" fill="#99D9F4"/>
<path d="M1366.65 64.6088L1309.24 66.3235C1308.13 66.3565 1307.28 66.9449 1307.34 67.6379L1310.46 108.461C1310.51 109.154 1311.45 109.689 1312.55 109.656L1369.97 107.941C1371.07 107.908 1371.92 107.32 1371.87 106.627L1368.75 65.8038C1368.69 65.1109 1367.76 64.5758 1366.65 64.6088Z" fill="#A1B6ED"/>
<path d="M345.972 12.7163L288.556 14.4311C287.453 14.464 286.602 15.0525 286.655 15.7454L289.776 56.5687C289.829 57.2616 290.766 57.7967 291.87 57.7637L349.286 56.049C350.389 56.016 351.24 55.4276 351.187 54.7346L348.066 13.9114C348.013 13.2184 347.076 12.6834 345.972 12.7163Z" fill="#A1B6ED"/>
<path d="M99.2313 101.253C113.771 101.253 125.558 94.1698 125.558 85.4323C125.558 76.6947 113.771 69.6115 99.2313 69.6115C84.6913 69.6115 72.9043 76.6947 72.9043 85.4323C72.9043 94.1698 84.6913 101.253 99.2313 101.253Z" fill="#FBA18B"/>
<path d="M1313.31 178.459C1327.85 178.459 1339.64 171.376 1339.64 162.638C1339.64 153.9 1327.85 146.817 1313.31 146.817C1298.77 146.817 1286.98 153.9 1286.98 162.638C1286.98 171.376 1298.77 178.459 1313.31 178.459Z" fill="#FBA18B"/>
</g>
</g>
<defs>
<clipPath id="clip0_1175_344">
<rect width="1449" height="586" fill="white"/>
</clipPath>
</defs>
</svg>
