<svg width="1449" height="1476" viewBox="0 0 1449 1476" fill="none" xmlns="http://www.w3.org/2000/svg">
<mask id="mask0_472_29" style="mask-type:luminance" maskUnits="userSpaceOnUse" x="0" y="0" width="1449" height="1476">
<path d="M1449 0H0V1476H1449V0Z" fill="white"/>
</mask>
<g mask="url(#mask0_472_29)">
<path d="M1449 0H0V1476H1449V0Z" fill="#0A53B5"/>
<path d="M498 890.558C498 967.018 359.879 1029 189.5 1029C19.1201 1029 -119 967.018 -119 890.558C-119 814.097 201.507 553.529 189.5 752.115C177.492 950.701 498 814.097 498 890.558Z" fill="#93B413"/>
<path d="M146.693 362.041C-86.1206 439.535 -18.2168 416.932 -18.2168 416.932L-4.25018 137.656L64.2539 270.275L-198 135C-198 135 379.506 284.546 146.693 362.041Z" fill="#93B413"/>
<path d="M1569 393.893C1470.5 481.75 1485.28 571.071 1382 571.071C1278.72 571.071 1250.5 497.125 1187 419.518C1187 321.665 1278.72 216.714 1382 216.714C1485.28 216.714 1569 296.04 1569 393.893Z" fill="#93B413"/>
<path d="M894 157.5C851.332 157.5 834.725 230 761.605 230C688.485 230 556.424 230 629.21 157.5C701.996 85 688.485 85 761.605 85C834.725 85 894 117.459 894 157.5Z" fill="#3A9EB6"/>
<path d="M1230 680.535C1230 785.963 1021.81 748.555 888.554 748.555C755.293 748.555 747.423 785.963 747.423 680.535C747.423 575.107 595.479 556.928 949.445 432.591C1303.41 308.253 1090.58 528.404 1230 680.535Z" fill="#3A9EB6"/>
<path d="M668 538.777C668 618.551 642.682 749.944 516.223 749.944C389.765 749.944 235.568 830.599 287.25 605.5C338.933 380.401 389.765 461.056 516.223 461.056C642.682 461.056 668 459.003 668 538.777Z" fill="#3A9EB6"/>
<path d="M1449 1170.61C1449 1271.81 1312.21 1232.96 1286.6 1430.19C1260.99 1627.43 1074.13 1348.15 1074.13 1246.96C1074.13 1145.76 1055.16 1051 1172.5 1051C1289.85 1051 1449 1069.41 1449 1170.61Z" fill="#3A9EB6"/>
<path d="M517.55 1426.81C517.55 1598.68 401.245 1738 257.775 1738C114.305 1738 -2 1598.68 -2 1426.81C-2 1254.95 259.842 1131 403.311 1131C546.781 1131 517.55 1254.95 517.55 1426.81Z" fill="#3A9EB6"/>
<path d="M1060 1355.44C1060 1565.07 947.293 1735 808.263 1735C669.232 1735 556.526 1565.07 556.526 1355.44C480.144 968.288 655.784 1028.37 794.815 1028.37C1002.44 1311.2 1060 1145.82 1060 1355.44Z" fill="#93B413"/>
<path d="M1241 933.501C1241 971.332 1181.67 1002 1108.5 1002C1035.33 1002 976 971.332 976 933.501C976 895.67 1011.91 917.753 1108.5 865C1205.09 812.248 1241 895.67 1241 933.501Z" fill="#93B413"/>
</g>
</svg>
