<svg width="454" height="213" viewBox="0 0 454 213" fill="none" xmlns="http://www.w3.org/2000/svg">
<g clip-path="url(#clip0_1381_37)">
<mask id="mask0_1381_37" style="mask-type:luminance" maskUnits="userSpaceOnUse" x="0" y="0" width="454" height="213">
<path d="M454 0H0V213H454V0Z" fill="white"/>
</mask>
<g mask="url(#mask0_1381_37)">
<mask id="mask1_1381_37" style="mask-type:luminance" maskUnits="userSpaceOnUse" x="0" y="0" width="454" height="213">
<path d="M454 0H0V213H454V0Z" fill="white"/>
</mask>
<g mask="url(#mask1_1381_37)">
<path d="M454 0H0V213H454V0Z" fill="#0A53B5"/>
</g>
<path d="M378.394 184.995L369.473 182.675C368.409 182.398 367.108 182.906 366.568 183.81L362.816 190.089C362.275 190.993 362.7 191.95 363.765 192.227L372.685 194.548C373.749 194.825 375.05 194.317 375.591 193.413L379.343 187.134C379.883 186.23 379.458 185.272 378.394 184.995Z" fill="#C0D474"/>
<path d="M388.414 161.836C388.014 160.675 389.649 159.712 391.351 160.106L403.524 162.917C405.221 163.309 405.712 164.755 404.41 165.522L395.098 171.008C393.795 171.776 391.674 171.29 391.275 170.134L388.414 161.836Z" fill="#99D9F4"/>
<path d="M394.459 192.546C395.258 191.662 396.713 191.662 397.512 192.546L402.151 197.687C403.252 198.907 402.328 200.777 400.625 200.777H391.346C389.643 200.777 388.72 198.907 389.82 197.687L394.459 192.546Z" fill="#A1B6ED"/>
<path d="M437.39 191.13L429.383 195.211C428.413 195.705 428.288 196.672 429.105 197.37L434.999 202.406C435.816 203.103 437.265 203.268 438.236 202.773L446.242 198.693C447.213 198.199 447.337 197.232 446.521 196.534L440.626 191.498C439.81 190.801 438.361 190.636 437.39 191.13Z" fill="#99D9F4"/>
<path d="M437.735 155.363L422.733 155.836C421.629 155.871 420.795 156.737 420.869 157.771L421.623 168.181C421.698 169.215 422.654 170.025 423.758 169.991L438.76 169.518C439.864 169.483 440.698 168.616 440.623 167.582L439.869 157.172C439.795 156.138 438.839 155.328 437.735 155.363Z" fill="#A1B6ED"/>
<path d="M11.3603 192.194C11.067 191.021 12.5608 190.064 14.1509 190.405L29.5792 193.718C31.2868 194.085 31.8168 195.652 30.5152 196.486L17.9324 204.551C16.6309 205.386 14.5208 204.831 14.2059 203.572L11.3603 192.194Z" fill="#99D9F4"/>
<path d="M30.9261 165.183C30.5532 163.964 32.1379 162.948 33.7834 163.351L46.9058 166.569C48.5568 166.974 49.0305 168.503 47.7578 169.318L37.6084 175.824C36.3357 176.639 34.2732 176.128 33.8991 174.906L30.9261 165.183Z" fill="#99D9F4"/>
<path d="M88.2684 190.898C89.0691 189.932 90.6243 189.932 91.425 190.898L95.5639 195.888C96.5863 197.12 95.6502 198.917 93.9856 198.917H85.7078C84.0432 198.917 83.1071 197.12 84.1295 195.888L88.2684 190.898Z" fill="#C0D474"/>
<path d="M12.1162 160.572L1.7219 166.335C0.77092 166.862 0.636171 167.881 1.42093 168.61L10.6457 177.184C11.4305 177.913 12.8376 178.077 13.7886 177.55L24.1829 171.787C25.1339 171.26 25.2686 170.241 24.4839 169.512L15.259 160.938C14.4743 160.209 13.0672 160.045 12.1162 160.572Z" fill="#A1B6ED"/>
<path d="M60.207 151.087L49.8127 156.849C48.8617 157.376 48.727 158.395 49.5117 159.125L58.7366 167.698C59.5213 168.428 60.9284 168.592 61.8794 168.064L72.2737 162.302C73.2247 161.775 73.3594 160.756 72.5747 160.026L63.3499 151.453C62.5651 150.723 61.158 150.559 60.207 151.087Z" fill="#C0D474"/>
<path d="M58.1698 200.777C62.3048 200.777 65.657 198.463 65.657 195.609C65.657 192.755 62.3048 190.441 58.1698 190.441C54.0347 190.441 50.6826 192.755 50.6826 195.609C50.6826 198.463 54.0347 200.777 58.1698 200.777Z" fill="#FBA18B"/>
<path d="M419.481 187.341C423.98 187.341 427.626 185.027 427.626 182.173C427.626 179.319 423.98 177.005 419.481 177.005C414.983 177.005 411.336 179.319 411.336 182.173C411.336 185.027 414.983 187.341 419.481 187.341Z" fill="#FBA18B"/>
<path d="M391.37 8.69096C390.982 7.56428 392.611 6.63528 394.32 7.00909L410.877 10.6303C412.605 11.0082 413.117 12.4309 411.796 13.1839L399.006 20.4773C397.685 21.2302 395.529 20.7445 395.136 19.6056L391.37 8.69096Z" fill="#C0D474"/>
<path d="M438.892 42.6522C439.688 41.7975 441.105 41.7975 441.902 42.6522L446.678 47.7744C447.809 48.9878 446.891 50.8867 445.172 50.8867H435.621C433.903 50.8867 432.985 48.9878 434.116 47.7744L438.892 42.6522Z" fill="#A1B6ED"/>
<path d="M374.631 27.8787C375.428 27.024 376.845 27.024 377.641 27.8787L382.417 33.0008C383.548 34.2143 382.63 36.1132 380.912 36.1132H371.361C369.642 36.1132 368.724 34.2143 369.855 33.0008L374.631 27.8787Z" fill="#99D9F4"/>
<path d="M433.108 7.15459C433.905 6.29991 435.322 6.29991 436.119 7.15459L440.895 12.2768C442.026 13.4902 441.107 15.3891 439.389 15.3891H429.838C428.12 15.3891 427.202 13.4902 428.333 12.2768L433.108 7.15459Z" fill="#99D9F4"/>
<path d="M357.266 8.46509L348.991 12.547C348.013 13.0292 347.892 13.9756 348.721 14.6609L354.798 19.6863C355.627 20.3715 357.092 20.5361 358.069 20.0538L366.345 15.9719C367.323 15.4897 367.444 14.5433 366.615 13.858L360.537 8.83265C359.709 8.14742 358.244 7.98285 357.266 8.46509Z" fill="#99D9F4"/>
<path d="M423.506 20.9902L408.017 21.4629C406.913 21.4966 406.081 22.362 406.158 23.3959L406.929 33.702C407.007 34.7359 407.964 35.5467 409.068 35.513L424.557 35.0404C425.661 35.0067 426.493 34.1412 426.416 33.1073L425.645 22.8013C425.567 21.7674 424.61 20.9565 423.506 20.9902Z" fill="#A1B6ED"/>
<path d="M7.9634 48.2975C7.72328 47.1767 9.16024 46.2757 10.7191 46.5697L24.7369 49.2135C26.5011 49.5463 27.0828 51.1222 25.75 51.9578L13.8914 59.393C12.5585 60.2287 10.3943 59.645 10.1225 58.3766L7.9634 48.2975Z" fill="#99D9F4"/>
<path d="M57.5673 16.133L50.7023 11.9047C49.7788 11.336 48.3491 11.4203 47.5088 12.093L41.4756 16.9233C40.6353 17.596 40.7027 18.6024 41.6261 19.1712L48.4912 23.3995C49.4146 23.9682 50.8443 23.8839 51.6846 23.2112L57.7178 18.3809C58.5581 17.7082 58.4907 16.7018 57.5673 16.133Z" fill="#99D9F4"/>
<path d="M46.0187 45.6844C45.6543 44.4889 47.2348 43.498 48.8852 43.8871L61.5428 46.8713C63.2169 47.2661 63.7058 48.7804 62.4196 49.5869L52.5564 55.771C51.2702 56.5774 49.1827 56.0653 48.8131 54.8527L46.0187 45.6844Z" fill="#C0D474"/>
<path d="M8.29238 5.94961C9.09308 5.00524 10.6218 5.00524 11.4226 5.94961L15.6264 10.9078C16.6689 12.1372 15.7358 13.9527 14.0613 13.9527H5.65365C3.97914 13.9527 3.04602 12.1372 4.08854 10.9078L8.29238 5.94961Z" fill="#C0D474"/>
<path d="M90.1563 4.17077L76.4323 4.63129C75.3285 4.66834 74.4907 5.53686 74.561 6.5712L75.2623 16.8757C75.3326 17.91 76.2846 18.7185 77.3884 18.6814L91.1125 18.2209C92.2163 18.1839 93.0541 17.3153 92.9837 16.281L92.2825 5.97653C92.2121 4.94219 91.2602 4.13372 90.1563 4.17077Z" fill="#A1B6ED"/>
<path d="M20.3765 32.8301C24.5723 32.8301 27.9737 30.5334 27.9737 27.7003C27.9737 24.8673 24.5723 22.5706 20.3765 22.5706C16.1807 22.5706 12.7793 24.8673 12.7793 27.7003C12.7793 30.5334 16.1807 32.8301 20.3765 32.8301Z" fill="#FBA18B"/>
<path d="M407.947 57.8632C412.561 57.8632 416.301 55.5665 416.301 52.7334C416.301 49.9004 412.561 47.6037 407.947 47.6037C403.333 47.6037 399.593 49.9004 399.593 52.7334C399.593 55.5665 403.333 57.8632 407.947 57.8632Z" fill="#FBA18B"/>
</g>
</g>
<defs>
<clipPath id="clip0_1381_37">
<rect width="454" height="213" fill="white"/>
</clipPath>
</defs>
</svg>
