<svg width="454" height="227" viewBox="0 0 454 227" fill="none" xmlns="http://www.w3.org/2000/svg">
<g clip-path="url(#clip0_525_138)">
<mask id="mask0_525_138" style="mask-type:luminance" maskUnits="userSpaceOnUse" x="0" y="0" width="454" height="227">
<path d="M454 0H0V227H454V0Z" fill="white"/>
</mask>
<g mask="url(#mask0_525_138)">
<path d="M454 0H0V227H454V0Z" fill="#0A53B5"/>
</g>
<rect width="13.2569" height="11.6719" rx="2" transform="matrix(0.963643 0.267193 -0.489077 0.872241 367.546 194.147)" fill="#C0D474"/>
<path d="M388.414 172.473C388.014 171.236 389.649 170.209 391.351 170.629L403.524 173.625C405.221 174.043 405.712 175.584 404.41 176.401L395.098 182.248C393.795 183.066 391.674 182.549 391.275 181.316L388.414 172.473Z" fill="#99D9F4"/>
<path d="M394.459 205.202C395.258 204.259 396.713 204.259 397.512 205.202L402.151 210.681C403.252 211.981 402.328 213.974 400.625 213.974H391.346C389.643 213.974 388.72 211.981 389.82 210.681L394.459 205.202Z" fill="#A1B6ED"/>
<rect width="13.1111" height="11.9716" rx="2" transform="matrix(0.87876 -0.477265 0.739422 0.673242 427.626 208.996)" fill="#99D9F4"/>
<rect width="19.0107" height="15.1197" rx="2" transform="matrix(0.999436 -0.0335847 0.0677981 0.997699 420.734 166.146)" fill="#A1B6ED"/>
<path d="M11.3605 204.826C11.0672 203.576 12.561 202.556 14.1511 202.92L29.5794 206.451C31.287 206.842 31.817 208.512 30.5154 209.401L17.9326 217.996C16.6311 218.885 14.521 218.294 14.2061 216.952L11.3605 204.826Z" fill="#99D9F4"/>
<path d="M30.926 176.04C30.5531 174.741 32.1378 173.658 33.7833 174.088L46.9057 177.517C48.5567 177.949 49.0304 179.578 47.7577 180.447L37.6083 187.38C36.3356 188.249 34.2731 187.705 33.899 186.402L30.926 176.04Z" fill="#99D9F4"/>
<path d="M88.2684 203.445C89.0691 202.416 90.6243 202.416 91.425 203.445L95.5639 208.763C96.5863 210.076 95.6502 211.991 93.9856 211.991H85.7078C84.0432 211.991 83.1071 210.076 84.1295 208.763L88.2684 203.445Z" fill="#C0D474"/>
<rect width="16.0731" height="16.9842" rx="2" transform="matrix(0.860949 -0.508691 0.710464 0.703734 0 178.285)" fill="#A1B6ED"/>
<rect width="16.0731" height="16.9842" rx="2" transform="matrix(0.860949 -0.508691 0.710464 0.703734 48.0908 168.176)" fill="#C0D474"/>
<ellipse cx="58.1698" cy="208.466" rx="7.48717" ry="5.50752" fill="#FBA18B"/>
<ellipse cx="419.481" cy="194.147" rx="8.14527" ry="5.50752" fill="#FBA18B"/>
<path d="M391.37 9.26221C390.982 8.06148 392.611 7.07142 394.32 7.4698L410.877 11.329C412.605 11.7318 413.117 13.248 411.796 14.0505L399.006 21.8232C397.685 22.6256 395.529 22.108 395.136 20.8942L391.37 9.26221Z" fill="#C0D474"/>
<path d="M438.892 45.4556C439.688 44.5448 441.105 44.5448 441.902 45.4556L446.678 50.9145C447.809 52.2077 446.891 54.2314 445.172 54.2314H435.621C433.903 54.2314 432.985 52.2077 434.116 50.9145L438.892 45.4556Z" fill="#A1B6ED"/>
<path d="M374.631 29.7111C375.428 28.8002 376.845 28.8002 377.641 29.7111L382.417 35.1699C383.548 36.4631 382.63 38.4868 380.912 38.4868H371.361C369.642 38.4868 368.724 36.4631 369.855 35.1699L374.631 29.7111Z" fill="#99D9F4"/>
<path d="M433.108 7.62486C433.905 6.714 435.322 6.714 436.119 7.62486L440.895 13.0837C442.026 14.3769 441.107 16.4006 439.389 16.4006H429.838C428.12 16.4006 427.202 14.3769 428.333 13.0837L433.108 7.62486Z" fill="#99D9F4"/>
<rect width="13.3496" height="12.1007" rx="2" transform="matrix(0.885164 -0.465279 0.750263 0.66114 347.22 14.3022)" fill="#99D9F4"/>
<rect width="19.4969" height="15.0105" rx="2" transform="matrix(0.999472 -0.0325055 0.0700405 0.997544 406.018 22.9386)" fill="#A1B6ED"/>
<path d="M7.9632 51.472C7.72308 50.2775 9.16004 49.3173 10.7189 49.6306L24.7367 52.4482C26.5009 52.8028 27.0826 54.4823 25.7498 55.3729L13.8912 63.2968C12.5583 64.1874 10.3941 63.5653 10.1223 62.2135L7.9632 51.472Z" fill="#99D9F4"/>
<rect width="12.2119" height="11.9309" rx="2" transform="matrix(0.835989 0.548746 -0.760724 0.649075 49.0303 11.5897)" fill="#99D9F4"/>
<path d="M46.0186 48.6871C45.6542 47.4131 47.2347 46.357 48.8851 46.7717L61.5427 49.9521C63.2168 50.3728 63.7057 51.9866 62.4195 52.8461L52.5563 59.4367C51.2701 60.2961 49.1826 59.7504 48.813 58.4581L46.0186 48.6871Z" fill="#C0D474"/>
<path d="M8.29234 6.34066C9.09304 5.33422 10.6218 5.33422 11.4226 6.34066L15.6264 11.6247C16.6689 12.935 15.7358 14.8698 14.0613 14.8698H5.65361C3.9791 14.8698 3.04598 12.935 4.0885 11.6247L8.29234 6.34066Z" fill="#C0D474"/>
<rect width="17.7328" height="15.0041" rx="2" transform="matrix(0.999361 -0.0357391 0.0637234 0.997968 74.4336 5.00717)" fill="#A1B6ED"/>
<ellipse cx="20.3765" cy="29.521" rx="7.5972" ry="5.46688" fill="#FBA18B"/>
<ellipse cx="407.947" cy="56.1995" rx="8.35387" ry="5.46688" fill="#FBA18B"/>
</g>
<defs>
<clipPath id="clip0_525_138">
<rect width="454" height="227" fill="white"/>
</clipPath>
</defs>
</svg>
