<svg width="1449" height="715" viewBox="0 0 1449 715" fill="none" xmlns="http://www.w3.org/2000/svg">
<rect width="1449" height="714.951" fill="#0A53B5"/>
<rect width="40.7228" height="39.7281" rx="5" transform="matrix(0.839013 0.544111 -0.764583 0.644526 149.368 23)" fill="#99D9F4"/>
<path d="M235.626 112.749C237.626 110.297 241.374 110.297 243.374 112.749L260.988 134.339C263.653 137.605 261.329 142.5 257.114 142.5H221.886C217.671 142.5 215.347 137.605 218.012 134.339L235.626 112.749Z" fill="#C0D474"/>
<ellipse cx="61.5" cy="126" rx="25.5" ry="18" fill="#FBA18B"/>
<path d="M148.892 566.659C147.961 563.402 151.918 560.687 156.026 561.765L197.398 572.624C201.518 573.705 202.699 577.789 199.522 579.968L167.523 601.922C164.346 604.102 159.199 602.74 158.265 599.473L148.892 566.659Z" fill="#99D9F4"/>
<rect width="46.9175" height="49.6292" rx="5" transform="matrix(0.85996 -0.510361 0.708905 0.705304 0 594.955)" fill="#A1B6ED"/>
<rect width="46.9175" height="49.6292" rx="5" transform="matrix(0.85996 -0.510361 0.708905 0.705304 196.471 662.936)" fill="#C0D474"/>
<ellipse cx="98.2353" cy="690.03" rx="21.8301" ry="16.1293" fill="#FBA18B"/>
<path d="M1222.06 163.754C1224.06 161.364 1227.73 161.364 1229.73 163.754L1243.56 180.293C1246.28 183.548 1243.97 188.5 1239.72 188.5H1212.07C1207.83 188.5 1205.51 183.548 1208.23 180.293L1222.06 163.754Z" fill="#A1B6ED"/>
<path d="M1409.84 44.5879C1411.84 42.1974 1415.52 42.1974 1417.52 44.5879L1431.34 61.1261C1434.07 64.3812 1431.75 69.3333 1427.51 69.3333H1399.85C1395.61 69.3333 1393.3 64.3812 1396.02 61.1261L1409.84 44.5879Z" fill="#99D9F4"/>
<rect width="52.0765" height="41.9394" rx="5" transform="matrix(0.999421 -0.0340095 0.0669541 0.997756 1174 59.4933)" fill="#A1B6ED"/>
<ellipse cx="1376.52" cy="178.722" rx="22.3123" ry="15.2777" fill="#FBA18B"/>
<rect width="33.578" height="31.7502" rx="5" transform="matrix(0.955958 0.293502 -0.451762 0.892139 1410.33 598.603)" fill="#C0D474"/>
<path d="M1198.19 671.443C1197.23 668.133 1201.22 665.359 1205.33 666.481L1236.7 675.03C1240.76 676.139 1241.91 680.233 1238.76 682.422L1214.76 699.103C1211.62 701.292 1206.52 699.946 1205.56 696.674L1198.19 671.443Z" fill="#99D9F4"/>
<path d="M1273.97 556.323C1273.97 564.786 1264.81 571.647 1253.51 571.647C1242.2 571.647 1233.04 564.786 1233.04 556.323C1233.04 547.861 1242.2 541 1253.51 541C1264.81 541 1273.97 547.861 1273.97 556.323Z" fill="#FBA18B"/>
</svg>
