<svg width="546" height="257" viewBox="0 0 546 257" fill="none" xmlns="http://www.w3.org/2000/svg">
<g clip-path="url(#clip0_525_138)">
<mask id="mask0_525_138" style="mask-type:luminance" maskUnits="userSpaceOnUse" x="0" y="0" width="546" height="257">
<path d="M546 0H0V257H546V0Z" fill="white"/>
</mask>
<g mask="url(#mask0_525_138)">
<path d="M546 0H0V257H546V0Z" fill="#0A53B5"/>
</g>
<rect width="16.1862" height="14.589" rx="2" transform="matrix(0.961245 0.275695 -0.476556 0.879144 447.645 218.146)" fill="#C0D474"/>
<path d="M14.8562 230.804C14.5581 229.596 16.0697 228.614 17.6861 228.966L40.3837 233.906C42.1267 234.285 42.6756 235.907 41.3519 236.766L22.8406 248.789C21.517 249.648 19.3639 249.069 19.0425 247.766L14.8562 230.804Z" fill="#99D9F4"/>
<path d="M40.7168 194.473C40.3377 193.216 41.9415 192.175 43.6149 192.59L63.2753 197.475C64.9609 197.894 65.452 199.475 64.1577 200.316L48.9516 210.192C47.6574 211.032 45.553 210.499 45.1711 209.233L40.7168 194.473Z" fill="#99D9F4"/>
<path d="M472.853 190.186C472.457 188.92 474.08 187.866 475.764 188.295L492.345 192.518C494.019 192.944 494.499 194.517 493.211 195.354L480.527 203.592C479.238 204.429 477.143 203.904 476.75 202.646L472.853 190.186Z" fill="#99D9F4"/>
<path d="M117.497 229.195C118.297 228.217 119.792 228.217 120.592 229.195L127.275 237.359C128.343 238.665 127.414 240.626 125.727 240.626H112.362C110.674 240.626 109.745 238.665 110.814 237.359L117.497 229.195Z" fill="#C0D474"/>
<path d="M480.733 231.693C481.533 230.715 483.028 230.715 483.828 231.693L490.511 239.857C491.58 241.163 490.651 243.124 488.963 243.124H475.598C473.911 243.124 472.981 241.163 474.05 239.857L480.733 231.693Z" fill="#A1B6ED"/>
<rect width="21.0304" height="21.9626" rx="2" transform="matrix(0.871839 -0.489793 0.727968 0.685611 0 198.163)" fill="#A1B6ED"/>
<rect width="16.0951" height="14.8099" rx="2" transform="matrix(0.871839 -0.489793 0.727968 0.685611 520.817 236.853)" fill="#99D9F4"/>
<rect width="21.0304" height="21.9626" rx="2" transform="matrix(0.871839 -0.489793 0.727968 0.685611 63.7197 185.428)" fill="#C0D474"/>
<rect width="23.1545" height="19.0452" rx="2" transform="matrix(0.999396 -0.0347385 0.0655535 0.997849 512.423 182.87)" fill="#A1B6ED"/>
<ellipse cx="77.0737" cy="236.186" rx="9.92033" ry="6.93847" fill="#FBA18B"/>
<ellipse cx="510.897" cy="218.146" rx="9.92033" ry="6.93847" fill="#FBA18B"/>
<path d="M21.0332 64.6043C20.791 63.4328 22.2373 62.4934 23.8102 62.8007L44.3014 66.804C46.0858 67.1526 46.6788 68.8038 45.3334 69.6776L27.9984 80.9361C26.653 81.8099 24.4643 81.195 24.1895 79.866L21.0332 64.6043Z" fill="#99D9F4"/>
<path d="M475.007 11.1693C474.626 9.91193 476.232 8.86897 477.907 9.28613L499.185 14.587C500.869 15.0066 501.359 16.5869 500.066 17.4271L483.627 28.1033C482.333 28.9435 480.23 28.4111 479.847 27.1464L475.007 11.1693Z" fill="#C0D474"/>
<rect width="15.8129" height="15.3968" rx="2" transform="matrix(0.843035 0.537858 -0.76974 0.638357 74.8066 14.7095)" fill="#99D9F4"/>
<path d="M70.6339 60.9707C70.2661 59.7209 71.8572 58.6875 73.523 59.0944L92.2576 63.6698C93.951 64.0833 94.4499 65.6699 93.1516 66.5131L78.553 75.9945C77.2547 76.8376 75.1437 76.2981 74.7699 75.0275L70.6339 60.9707Z" fill="#C0D474"/>
<path d="M531.86 57.3985C532.66 56.4209 534.155 56.4209 534.955 57.3985L541.638 65.5628C542.707 66.8686 541.778 68.8296 540.09 68.8296H526.725C525.037 68.8296 524.108 66.8686 525.177 65.5628L531.86 57.3985Z" fill="#A1B6ED"/>
<path d="M22.108 7.44156C22.9082 6.46395 24.4031 6.46395 25.2033 7.44156L31.886 15.6059C32.9548 16.9116 32.0258 18.8726 30.3383 18.8726H16.973C15.2855 18.8726 14.3565 16.9116 15.4253 15.6059L22.108 7.44156Z" fill="#C0D474"/>
<path d="M455.549 37.4158C456.35 36.4382 457.845 36.4382 458.645 37.4158L465.327 45.5801C466.396 46.8859 465.467 48.8469 463.78 48.8469H450.414C448.727 48.8469 447.798 46.8859 448.867 45.5801L455.549 37.4158Z" fill="#99D9F4"/>
<path d="M524.993 9.38437C525.793 8.40676 527.288 8.40676 528.088 9.38437L534.771 17.5487C535.84 18.8545 534.911 20.8155 533.223 20.8155H519.858C518.17 20.8155 517.241 18.8545 518.31 17.5487L524.993 9.38437Z" fill="#99D9F4"/>
<rect width="16.0951" height="14.8099" rx="2" transform="matrix(0.871839 -0.489793 0.727968 0.685611 422.758 18.1523)" fill="#99D9F4"/>
<rect width="23.1545" height="19.0452" rx="2" transform="matrix(0.999396 -0.0347385 0.0655535 0.997849 492.582 29.1133)" fill="#A1B6ED"/>
<rect width="23.1545" height="19.0452" rx="2" transform="matrix(0.999396 -0.0347385 0.0655535 0.997849 107.979 6.35516)" fill="#A1B6ED"/>
<ellipse cx="37.391" cy="37.4678" rx="9.92033" ry="6.93847" fill="#FBA18B"/>
<ellipse cx="494.872" cy="71.3275" rx="9.92033" ry="6.93847" fill="#FBA18B"/>
</g>
<defs>
<clipPath id="clip0_525_138">
<rect width="546" height="257" fill="white"/>
</clipPath>
</defs>
</svg>
