<svg width="1449" height="702" viewBox="0 0 1449 702" fill="none" xmlns="http://www.w3.org/2000/svg">
<rect width="1449" height="701" fill="#0A53B5"/>
<rect width="44.0733" height="42.8072" rx="5" transform="matrix(0.848118 0.529807 -0.776302 0.630361 160.056 12.9535)" fill="#99D9F4"/>
<path d="M255.077 106.693C257.075 104.302 260.75 104.302 262.749 106.693L282.627 130.471C285.349 133.727 283.034 138.678 278.791 138.678H239.034C234.791 138.678 232.477 133.727 235.198 130.471L255.077 106.693Z" fill="#C0D474"/>
<ellipse cx="63.5078" cy="121.153" rx="27.8164" ry="19.0492" fill="#FBA18B"/>
<path d="M185.644 517.011C184.711 513.763 188.673 511.058 192.788 512.133L249.115 526.844C253.243 527.922 254.428 531.994 251.246 534.167L207.68 563.908C204.498 566.081 199.341 564.721 198.405 561.463L185.644 517.011Z" fill="#99D9F4"/>
<rect width="58.5869" height="61.9004" rx="5" transform="matrix(0.861068 -0.50849 0.710652 0.703544 0 554.026)" fill="#A1B6ED"/>
<rect width="58.5869" height="61.9004" rx="5" transform="matrix(0.861068 -0.50849 0.710652 0.703544 245.653 638.604)" fill="#C0D474"/>
<ellipse cx="122.827" cy="672.313" rx="27.2948" ry="20.0672" fill="#FBA18B"/>
<path d="M1175.75 153.173C1177.75 150.782 1181.43 150.782 1183.42 153.173L1203.3 176.952C1206.02 180.207 1203.71 185.158 1199.47 185.158H1159.71C1155.47 185.158 1153.15 180.207 1155.87 176.952L1175.75 153.173Z" fill="#A1B6ED"/>
<path d="M1409.86 4.58879C1411.86 2.19799 1415.53 2.19799 1417.53 4.5888L1437.41 28.3676C1440.13 31.6228 1437.82 36.5745 1433.57 36.5745H1393.82C1389.57 36.5745 1387.26 31.6228 1389.98 28.3676L1409.86 4.58879Z" fill="#99D9F4"/>
<rect width="64.9231" height="52.2926" rx="5" transform="matrix(0.999421 -0.0340142 0.0669447 0.997757 1114.89 24.3054)" fill="#A1B6ED"/>
<ellipse cx="1367.36" cy="172.967" rx="27.8164" ry="19.0492" fill="#FBA18B"/>
<rect width="44.7119" height="41.7363" rx="5" transform="matrix(0.957434 0.288651 -0.458332 0.888781 1399.62 548.618)" fill="#C0D474"/>
<path d="M1115.99 641.588C1115.02 638.317 1119.02 635.58 1123.17 636.689L1171.02 649.499C1175.12 650.597 1176.28 654.648 1173.11 656.811L1136.5 681.804C1133.33 683.967 1128.2 682.631 1127.24 679.392L1115.99 641.588Z" fill="#99D9F4"/>
<path d="M1217.77 493.25C1217.77 504.333 1205.55 513.317 1190.47 513.317C1175.4 513.317 1163.18 504.333 1163.18 493.25C1163.18 482.167 1175.4 473.183 1190.47 473.183C1205.55 473.183 1217.77 482.167 1217.77 493.25Z" fill="#FBA18B"/>
</svg>
