<svg width="454" height="159" viewBox="0 0 454 159" fill="none" xmlns="http://www.w3.org/2000/svg">
<g clip-path="url(#clip0_1381_37)">
<mask id="mask0_1381_37" style="mask-type:luminance" maskUnits="userSpaceOnUse" x="0" y="0" width="454" height="159">
<path d="M454 0H0V159H454V0Z" fill="white"/>
</mask>
<g mask="url(#mask0_1381_37)">
<mask id="mask1_1381_37" style="mask-type:luminance" maskUnits="userSpaceOnUse" x="0" y="0" width="454" height="159">
<path d="M454 0H0V159H454V0Z" fill="white"/>
</mask>
<g mask="url(#mask1_1381_37)">
<path d="M454 0H0V159H454V0Z" fill="#0A53B5"/>
</g>
<path d="M378.394 138.095L369.473 136.363C368.409 136.156 367.108 136.535 366.568 137.21L362.816 141.897C362.275 142.572 362.7 143.287 363.765 143.494L372.685 145.226C373.749 145.433 375.05 145.053 375.591 144.379L379.343 139.691C379.883 139.017 379.458 138.302 378.394 138.095Z" fill="#C0D474"/>
<path d="M388.414 120.807C388.014 119.941 389.649 119.221 391.351 119.515L403.524 121.614C405.221 121.907 405.712 122.986 404.41 123.558L395.098 127.654C393.795 128.227 391.674 127.865 391.275 127.001L388.414 120.807Z" fill="#99D9F4"/>
<path d="M394.459 143.732C395.258 143.071 396.713 143.071 397.512 143.732L402.151 147.57C403.252 148.48 402.328 149.876 400.625 149.876H391.346C389.643 149.876 388.72 148.48 389.82 147.57L394.459 143.732Z" fill="#A1B6ED"/>
<path d="M437.39 142.675L429.383 145.721C428.413 146.09 428.288 146.812 429.105 147.332L434.999 151.092C435.816 151.612 437.265 151.735 438.236 151.366L446.242 148.32C447.213 147.951 447.337 147.229 446.521 146.709L440.626 142.949C439.81 142.429 438.361 142.306 437.39 142.675Z" fill="#99D9F4"/>
<path d="M437.735 115.975L422.733 116.328C421.629 116.354 420.795 117.001 420.869 117.773L421.623 125.544C421.698 126.316 422.654 126.92 423.758 126.894L438.76 126.541C439.864 126.515 440.698 125.869 440.623 125.097L439.869 117.326C439.795 116.554 438.839 115.949 437.735 115.975Z" fill="#A1B6ED"/>
<path d="M11.3603 143.468C11.067 142.593 12.5608 141.878 14.1509 142.133L29.5792 144.607C31.2868 144.881 31.8168 146.05 30.5152 146.673L17.9324 152.693C16.6309 153.316 14.5208 152.902 14.2059 151.962L11.3603 143.468Z" fill="#99D9F4"/>
<path d="M30.9261 123.306C30.5532 122.396 32.1379 121.637 33.7834 121.938L46.9058 124.34C48.5568 124.643 49.0305 125.784 47.7578 126.392L37.6084 131.249C36.3357 131.857 34.2732 131.476 33.8991 130.564L30.9261 123.306Z" fill="#99D9F4"/>
<path d="M88.2684 142.501C89.0691 141.78 90.6243 141.78 91.425 142.501L95.5639 146.226C96.5863 147.146 95.6502 148.487 93.9856 148.487H85.7078C84.0432 148.487 83.1071 147.146 84.1295 146.226L88.2684 142.501Z" fill="#C0D474"/>
<path d="M12.1162 119.864L1.7219 124.165C0.77092 124.559 0.636171 125.319 1.42093 125.864L10.6457 132.264C11.4305 132.809 12.8376 132.931 13.7886 132.537L24.1829 128.236C25.1339 127.842 25.2686 127.082 24.4839 126.537L15.259 120.137C14.4743 119.592 13.0672 119.47 12.1162 119.864Z" fill="#A1B6ED"/>
<path d="M60.207 112.783L49.8127 117.085C48.8617 117.478 48.727 118.239 49.5117 118.783L58.7366 125.183C59.5213 125.728 60.9284 125.85 61.8794 125.457L72.2737 121.155C73.2247 120.761 73.3594 120.001 72.5747 119.456L63.3499 113.056C62.5651 112.512 61.158 112.389 60.207 112.783Z" fill="#C0D474"/>
<path d="M58.1698 149.876C62.3048 149.876 65.657 148.149 65.657 146.018C65.657 143.887 62.3048 142.16 58.1698 142.16C54.0347 142.16 50.6826 143.887 50.6826 146.018C50.6826 148.149 54.0347 149.876 58.1698 149.876Z" fill="#FBA18B"/>
<path d="M419.481 139.846C423.98 139.846 427.626 138.119 427.626 135.988C427.626 133.858 423.98 132.131 419.481 132.131C414.983 132.131 411.336 133.858 411.336 135.988C411.336 138.119 414.983 139.846 419.481 139.846Z" fill="#FBA18B"/>
<path d="M391.37 6.48762C390.982 5.64658 392.611 4.9531 394.32 5.23214L410.877 7.93528C412.605 8.21742 413.117 9.27943 411.796 9.84153L399.006 15.2858C397.685 15.8479 395.529 15.4853 395.136 14.6351L391.37 6.48762Z" fill="#C0D474"/>
<path d="M438.892 31.8389C439.688 31.201 441.105 31.201 441.902 31.8389L446.678 35.6626C447.809 36.5684 446.891 37.9859 445.172 37.9859H435.621C433.903 37.9859 432.985 36.5684 434.116 35.6626L438.892 31.8389Z" fill="#A1B6ED"/>
<path d="M374.631 20.8109C375.428 20.1728 376.845 20.1728 377.641 20.8109L382.417 24.6344C383.548 25.5402 382.63 26.9577 380.912 26.9577H371.361C369.642 26.9577 368.724 25.5402 369.855 24.6344L374.631 20.8109Z" fill="#99D9F4"/>
<path d="M433.108 5.34075C433.905 4.70274 435.322 4.70274 436.119 5.34075L440.895 9.16434C442.026 10.0701 441.107 11.4876 439.389 11.4876H429.838C428.12 11.4876 427.202 10.0701 428.333 9.16434L433.108 5.34075Z" fill="#99D9F4"/>
<path d="M357.266 6.31901L348.991 9.36605C348.013 9.72603 347.892 10.4325 348.721 10.944L354.798 14.6954C355.627 15.2069 357.092 15.3297 358.069 14.9698L366.345 11.9227C367.323 11.5627 367.444 10.8563 366.615 10.3447L360.537 6.59339C359.709 6.08188 358.244 5.95904 357.266 6.31901Z" fill="#99D9F4"/>
<path d="M423.506 15.6688L408.017 16.0216C406.913 16.0468 406.081 16.6928 406.158 17.4646L406.929 25.1578C407.007 25.9296 407.964 26.5349 409.068 26.5097L424.557 26.1569C425.661 26.1318 426.493 25.4857 426.416 24.7139L425.645 17.0207C425.567 16.2489 424.61 15.6436 423.506 15.6688Z" fill="#A1B6ED"/>
<path d="M7.9634 36.0531C7.72328 35.2164 9.16024 34.5438 10.7191 34.7633L24.7369 36.7368C26.5011 36.9852 27.0828 38.1616 25.75 38.7854L13.8914 44.3356C12.5585 44.9594 10.3943 44.5237 10.1225 43.5768L7.9634 36.0531Z" fill="#99D9F4"/>
<path d="M57.5673 12.043L50.7023 8.88662C49.7788 8.46206 48.3491 8.52499 47.5088 9.02717L41.4756 12.6329C40.6353 13.135 40.7027 13.8863 41.6261 14.3109L48.4912 17.4672C49.4146 17.8918 50.8443 17.8289 51.6846 17.3267L57.7178 13.721C58.5581 13.2188 58.4907 12.4675 57.5673 12.043Z" fill="#99D9F4"/>
<path d="M46.0187 34.1024C45.6543 33.2101 47.2348 32.4703 48.8852 32.7608L61.5428 34.9885C63.2169 35.2831 63.7058 36.4135 62.4196 37.0155L52.5564 41.6319C51.2702 42.2338 49.1827 41.8516 48.8131 40.9464L46.0187 34.1024Z" fill="#C0D474"/>
<path d="M8.29238 4.44125C9.09308 3.7363 10.6218 3.7363 11.4226 4.44125L15.6264 8.14241C16.6689 9.06019 15.7358 10.4154 14.0613 10.4154H5.65365C3.97914 10.4154 3.04602 9.06019 4.08854 8.14241L8.29238 4.44125Z" fill="#C0D474"/>
<path d="M90.1563 3.11339L76.4323 3.45717C75.3285 3.48482 74.4907 4.13315 74.561 4.90527L75.2623 12.5973C75.3326 13.3694 76.2846 13.9729 77.3884 13.9453L91.1125 13.6015C92.2163 13.5739 93.0541 12.9255 92.9837 12.1534L92.2825 4.46136C92.2121 3.68925 91.2602 3.08574 90.1563 3.11339Z" fill="#A1B6ED"/>
<path d="M20.3765 24.5069C24.5723 24.5069 27.9737 22.7925 27.9737 20.6777C27.9737 18.5629 24.5723 16.8485 20.3765 16.8485C16.1807 16.8485 12.7793 18.5629 12.7793 20.6777C12.7793 22.7925 16.1807 24.5069 20.3765 24.5069Z" fill="#FBA18B"/>
<path d="M407.947 43.1936C412.561 43.1936 416.301 41.4792 416.301 39.3644C416.301 37.2496 412.561 35.5352 407.947 35.5352C403.333 35.5352 399.593 37.2496 399.593 39.3644C399.593 41.4792 403.333 43.1936 407.947 43.1936Z" fill="#FBA18B"/>
</g>
</g>
<defs>
<clipPath id="clip0_1381_37">
<rect width="454" height="159" fill="white"/>
</clipPath>
</defs>
</svg>
