<svg width="525" height="257" viewBox="0 0 525 257" fill="none" xmlns="http://www.w3.org/2000/svg">
<g clip-path="url(#clip0_525_138)">
<mask id="mask0_525_138" style="mask-type:luminance" maskUnits="userSpaceOnUse" x="0" y="0" width="525" height="257">
<path d="M525 0H0V257H525V0Z" fill="white"/>
</mask>
<g mask="url(#mask0_525_138)">
<path d="M525 0H0V257H525V0Z" fill="#0A53B5"/>
</g>
<rect width="15.5395" height="14.4479" rx="2" transform="matrix(0.95788 0.287168 -0.460368 0.887728 428.257 218.146)" fill="#C0D474"/>
<path d="M452.403 190.278C452.013 188.975 453.618 187.885 455.278 188.327L470.932 192.493C472.576 192.931 473.041 194.546 471.771 195.408L459.796 203.537C458.526 204.399 456.468 203.866 456.082 202.575L452.403 190.278Z" fill="#99D9F4"/>
<path d="M459.819 231.813C460.62 230.79 462.167 230.79 462.968 231.813L469.294 239.891C470.322 241.204 469.387 243.124 467.719 243.124H455.068C453.401 243.124 452.465 241.204 453.493 239.891L459.819 231.813Z" fill="#A1B6ED"/>
<rect width="15.5681" height="14.4735" rx="2" transform="matrix(0.862315 -0.506373 0.712625 0.701545 498.261 236.853)" fill="#99D9F4"/>
<rect width="22.153" height="19.0418" rx="2" transform="matrix(0.999341 -0.0363091 0.0627258 0.998031 490.23 182.87)" fill="#A1B6ED"/>
<path d="M13.1179 231.05C12.8326 229.736 14.2962 228.655 15.8428 229.038L35.2572 233.842C36.9071 234.251 37.4073 235.996 36.1421 236.931L20.3085 248.624C19.0433 249.559 17.0029 248.951 16.6986 247.549L13.1179 231.05Z" fill="#99D9F4"/>
<path d="M35.8768 194.738C35.5143 193.373 37.0664 192.226 38.6661 192.678L55.4023 197.407C56.9972 197.858 57.4435 199.56 56.2062 200.474L43.2618 210.034C42.0246 210.948 40.0299 210.389 39.6686 209.027L35.8768 194.738Z" fill="#99D9F4"/>
<path d="M103.064 229.559C103.862 228.451 105.512 228.451 106.31 229.559L111.995 237.458C112.948 238.781 112.002 240.626 110.372 240.626H99.0016C97.3715 240.626 96.4261 238.781 97.3783 237.458L103.064 229.559Z" fill="#C0D474"/>
<rect width="19.1332" height="20.6014" rx="2" transform="matrix(0.842715 -0.53836 0.68247 0.730913 0 198.163)" fill="#A1B6ED"/>
<rect width="19.1332" height="20.6014" rx="2" transform="matrix(0.842715 -0.53836 0.68247 0.730913 56.0342 185.428)" fill="#C0D474"/>
<ellipse cx="67.7786" cy="236.186" rx="8.72389" ry="6.93847" fill="#FBA18B"/>
<ellipse cx="488.771" cy="218.146" rx="9.49069" ry="6.93847" fill="#FBA18B"/>
<path d="M455.913 10.089C455.522 8.90623 457.158 7.93276 458.877 8.32518L479.179 12.9582C480.92 13.3555 481.44 14.8513 480.111 15.6418L464.427 24.9728C463.099 25.7633 460.927 25.2506 460.531 24.0531L455.913 10.089Z" fill="#C0D474"/>
<path d="M511.248 51.1839C512.043 50.2941 513.436 50.2941 514.231 51.1839L520.38 58.0659C521.532 59.3545 520.617 61.3985 518.889 61.3985H506.59C504.862 61.3985 503.948 59.3545 505.099 58.0659L511.248 51.1839Z" fill="#A1B6ED"/>
<path d="M436.938 33.3586C437.733 32.4687 439.125 32.4687 439.921 33.3586L446.07 40.2405C447.221 41.5292 446.307 43.5731 444.578 43.5731H432.28C430.552 43.5731 429.637 41.5292 430.788 40.2405L436.938 33.3586Z" fill="#99D9F4"/>
<path d="M504.56 8.3535C505.355 7.46364 506.747 7.46363 507.543 8.3535L513.692 15.2354C514.843 16.5241 513.929 18.568 512.201 18.568H499.902C498.174 18.568 497.259 16.5241 498.411 15.2354L504.56 8.3535Z" fill="#99D9F4"/>
<rect width="15.3679" height="13.8658" rx="2" transform="matrix(0.889164 -0.457589 0.757156 0.653234 404.99 16.1924)" fill="#99D9F4"/>
<rect width="22.5454" height="16.996" rx="2" transform="matrix(0.999493 -0.0318252 0.0715318 0.997438 472.983 25.9701)" fill="#A1B6ED"/>
<path d="M12.6021 57.9064C12.3604 56.729 13.8044 55.7843 15.3738 56.0932L32.6842 59.4997C34.4635 59.8498 35.0536 61.5083 33.7114 62.3864L19.0672 71.9665C17.725 72.8446 15.5425 72.2279 15.2685 70.893L12.6021 57.9064Z" fill="#99D9F4"/>
<rect width="14.0333" height="13.6757" rx="2" transform="matrix(0.841258 0.540634 -0.767457 0.6411 60.167 13.1214)" fill="#99D9F4"/>
<path d="M56.563 54.7031C56.1962 53.4471 57.7846 52.408 59.4465 52.8168L75.1941 56.6908C76.8827 57.1061 77.379 58.6997 76.0838 59.5471L63.8127 67.5748C62.5175 68.4221 60.4124 67.881 60.0396 66.6048L56.563 54.7031Z" fill="#C0D474"/>
<path d="M13.3162 6.86147C14.1166 5.87652 15.6201 5.87652 16.4205 6.86147L21.8749 13.5737C22.937 14.8807 22.0069 16.835 20.3228 16.835H9.41396C7.72983 16.835 6.79973 14.8807 7.86181 13.5737L13.3162 6.86147Z" fill="#C0D474"/>
<rect width="20.5055" height="16.9885" rx="2" transform="matrix(0.999388 -0.0349912 0.0650815 0.99788 89.543 5.66891)" fill="#A1B6ED"/>
<ellipse cx="27.0324" cy="33.4225" rx="8.78531" ry="6.18937" fill="#FBA18B"/>
<ellipse cx="475.214" cy="63.6267" rx="9.66032" ry="6.18937" fill="#FBA18B"/>
</g>
<defs>
<clipPath id="clip0_525_138">
<rect width="525" height="257" fill="white"/>
</clipPath>
</defs>
</svg>
