<svg width="186" height="452" viewBox="0 0 186 452" fill="none" xmlns="http://www.w3.org/2000/svg">
<path d="M106 90C106 60.7289 82.2711 37 53 37C23.7289 37 0 60.7289 0 90C0 119.271 23.7289 143 53 143C82.2711 143 106 119.271 106 90Z" fill="#F47216"/>
<path d="M33.208 88.6119L32.812 90.4599H34.336V91.9599H32.488L32.056 93.9999H30.46L30.892 91.9599H28.708L28.276 93.9999H26.692L27.124 91.9599H25.312V90.4599H27.448L27.844 88.6119H26.044V87.1119H28.168L28.588 85.1199H30.172L29.752 87.1119H31.936L32.356 85.1199H33.952L33.532 87.1119H35.068V88.6119H33.208ZM31.612 88.6119H29.428L29.032 90.4599H31.216L31.612 88.6119ZM41.6406 85.6239V86.9799H38.1486V89.1279H40.8246V90.4599H38.1486V93.9999H36.4686V85.6239H41.6406ZM42.5679 92.2959V90.9759L46.4919 85.3599H48.4479V90.8319H49.5039V92.2959H48.4479V93.9999H46.7679V92.2959H42.5679ZM46.8759 87.1599L44.4159 90.8319H46.8759V87.1599ZM56.1415 86.5239L52.9495 93.9999H51.2455L54.4615 86.7159H50.3575V85.2759H56.1415V86.5239ZM57.6757 92.1039C58.4437 91.4639 59.0557 90.9319 59.5117 90.5079C59.9677 90.0759 60.3477 89.6279 60.6517 89.1639C60.9557 88.6999 61.1077 88.2439 61.1077 87.7959C61.1077 87.3879 61.0117 87.0679 60.8197 86.8359C60.6277 86.6039 60.3317 86.4879 59.9317 86.4879C59.5317 86.4879 59.2237 86.6239 59.0077 86.8959C58.7917 87.1599 58.6797 87.5239 58.6717 87.9879H57.0397C57.0717 87.0279 57.3557 86.2999 57.8917 85.8039C58.4357 85.3079 59.1237 85.0599 59.9557 85.0599C60.8677 85.0599 61.5677 85.3039 62.0557 85.7919C62.5437 86.2719 62.7877 86.9079 62.7877 87.6999C62.7877 88.3239 62.6197 88.9199 62.2837 89.4879C61.9477 90.0559 61.5637 90.5519 61.1317 90.9759C60.6997 91.3919 60.1357 91.8959 59.4397 92.4879H62.9797V93.8799H57.0517V92.6319L57.6757 92.1039ZM63.8343 86.7999V85.2519H66.7263V93.9999H64.9983V86.7999H63.8343ZM72.922 87.4359C72.842 87.0999 72.702 86.8479 72.502 86.6799C72.31 86.5119 72.03 86.4279 71.662 86.4279C71.11 86.4279 70.702 86.6519 70.438 87.0999C70.182 87.5399 70.05 88.2599 70.042 89.2599C70.234 88.9399 70.514 88.6919 70.882 88.5159C71.25 88.3319 71.65 88.2399 72.082 88.2399C72.602 88.2399 73.062 88.3519 73.462 88.5759C73.862 88.7999 74.174 89.1279 74.398 89.5599C74.622 89.9839 74.734 90.4959 74.734 91.0959C74.734 91.6639 74.618 92.1719 74.386 92.6199C74.162 93.0599 73.83 93.4039 73.39 93.6519C72.95 93.8999 72.426 94.0239 71.818 94.0239C70.986 94.0239 70.33 93.8399 69.85 93.4719C69.378 93.1039 69.046 92.5919 68.854 91.9359C68.67 91.2719 68.578 90.4559 68.578 89.4879C68.578 88.0239 68.83 86.9199 69.334 86.1759C69.838 85.4239 70.634 85.0479 71.722 85.0479C72.562 85.0479 73.214 85.2759 73.678 85.7319C74.142 86.1879 74.41 86.7559 74.482 87.4359H72.922ZM71.698 89.6199C71.274 89.6199 70.918 89.7439 70.63 89.9919C70.342 90.2399 70.198 90.5999 70.198 91.0719C70.198 91.5439 70.33 91.9159 70.594 92.1879C70.866 92.4599 71.246 92.5959 71.734 92.5959C72.166 92.5959 72.506 92.4639 72.754 92.1999C73.01 91.9359 73.138 91.5799 73.138 91.1319C73.138 90.6679 73.014 90.2999 72.766 90.0279C72.526 89.7559 72.17 89.6199 71.698 89.6199Z" fill="white"/>
<path d="M186 53.5C186 23.9528 162.047 0 132.5 0C102.953 0 79 23.9528 79 53.5C79 83.0472 102.953 107 132.5 107C162.047 107 186 83.0472 186 53.5Z" fill="#3A9EB6"/>
<path d="M113.896 53.564L113.5 55.412H115.024V56.912H113.176L112.744 58.952H111.148L111.58 56.912H109.396L108.964 58.952H107.38L107.812 56.912H106V55.412H108.136L108.532 53.564H106.732V52.064H108.856L109.276 50.072H110.86L110.44 52.064H112.624L113.044 50.072H114.64L114.22 52.064H115.756V53.564H113.896ZM112.3 53.564H110.116L109.72 55.412H111.904L112.3 53.564ZM116.989 52.508C117.029 51.708 117.309 51.092 117.829 50.66C118.357 50.22 119.049 50 119.905 50C120.489 50 120.989 50.104 121.405 50.312C121.821 50.512 122.133 50.788 122.341 51.14C122.557 51.484 122.665 51.876 122.665 52.316C122.665 52.82 122.533 53.248 122.269 53.6C122.013 53.944 121.705 54.176 121.345 54.296V54.344C121.809 54.488 122.169 54.744 122.425 55.112C122.689 55.48 122.821 55.952 122.821 56.528C122.821 57.008 122.709 57.436 122.485 57.812C122.269 58.188 121.945 58.484 121.513 58.7C121.089 58.908 120.577 59.012 119.977 59.012C119.073 59.012 118.337 58.784 117.769 58.328C117.201 57.872 116.901 57.2 116.869 56.312H118.501C118.517 56.704 118.649 57.02 118.897 57.26C119.153 57.492 119.501 57.608 119.941 57.608C120.349 57.608 120.661 57.496 120.877 57.272C121.101 57.04 121.213 56.744 121.213 56.384C121.213 55.904 121.061 55.56 120.757 55.352C120.453 55.144 119.981 55.04 119.341 55.04H118.993V53.66H119.341C120.477 53.66 121.045 53.28 121.045 52.52C121.045 52.176 120.941 51.908 120.733 51.716C120.533 51.524 120.241 51.428 119.857 51.428C119.481 51.428 119.189 51.532 118.981 51.74C118.781 51.94 118.665 52.196 118.633 52.508H116.989ZM129.476 57.356H126.14L125.588 58.952H123.824L126.836 50.564H128.792L131.804 58.952H130.028L129.476 57.356ZM129.02 56.012L127.808 52.508L126.596 56.012H129.02ZM134.682 56.492C134.746 56.844 134.89 57.116 135.114 57.308C135.346 57.492 135.654 57.584 136.038 57.584C136.534 57.584 136.894 57.38 137.118 56.972C137.342 56.556 137.454 55.86 137.454 54.884C137.27 55.14 137.01 55.34 136.674 55.484C136.346 55.628 135.99 55.7 135.606 55.7C135.094 55.7 134.63 55.596 134.214 55.388C133.806 55.172 133.482 54.856 133.242 54.44C133.002 54.016 132.882 53.504 132.882 52.904C132.882 52.016 133.146 51.312 133.674 50.792C134.202 50.264 134.922 50 135.834 50C136.97 50 137.77 50.364 138.234 51.092C138.706 51.82 138.942 52.916 138.942 54.38C138.942 55.42 138.85 56.272 138.666 56.936C138.49 57.6 138.182 58.104 137.742 58.448C137.31 58.792 136.718 58.964 135.966 58.964C135.374 58.964 134.87 58.852 134.454 58.628C134.038 58.396 133.718 58.096 133.494 57.728C133.278 57.352 133.154 56.94 133.122 56.492H134.682ZM135.954 54.332C136.37 54.332 136.698 54.204 136.938 53.948C137.178 53.692 137.298 53.348 137.298 52.916C137.298 52.444 137.17 52.08 136.914 51.824C136.666 51.56 136.326 51.428 135.894 51.428C135.462 51.428 135.118 51.564 134.862 51.836C134.614 52.1 134.49 52.452 134.49 52.892C134.49 53.316 134.61 53.664 134.85 53.936C135.098 54.2 135.466 54.332 135.954 54.332ZM142.122 51.932V54.032H144.942V55.364H142.122V57.584H145.302V58.952H140.442V50.564H145.302V51.932H142.122ZM151.581 54.656C152.053 54.744 152.441 54.98 152.745 55.364C153.049 55.748 153.201 56.188 153.201 56.684C153.201 57.132 153.089 57.528 152.865 57.872C152.649 58.208 152.333 58.472 151.917 58.664C151.501 58.856 151.009 58.952 150.441 58.952H146.829V50.576H150.285C150.853 50.576 151.341 50.668 151.749 50.852C152.165 51.036 152.477 51.292 152.685 51.62C152.901 51.948 153.009 52.32 153.009 52.736C153.009 53.224 152.877 53.632 152.612 53.96C152.357 54.288 152.013 54.52 151.581 54.656ZM148.509 54.032H150.045C150.445 54.032 150.753 53.944 150.969 53.768C151.185 53.584 151.293 53.324 151.293 52.988C151.293 52.652 151.185 52.392 150.969 52.208C150.753 52.024 150.445 51.932 150.045 51.932H148.509V54.032ZM150.201 57.584C150.609 57.584 150.925 57.488 151.149 57.296C151.381 57.104 151.497 56.832 151.497 56.48C151.497 56.12 151.377 55.84 151.137 55.64C150.897 55.432 150.573 55.328 150.165 55.328H148.509V57.584H150.201ZM158.883 52.388C158.803 52.052 158.663 51.8 158.463 51.632C158.271 51.464 157.991 51.38 157.623 51.38C157.071 51.38 156.663 51.604 156.399 52.052C156.143 52.492 156.011 53.212 156.003 54.212C156.195 53.892 156.475 53.644 156.843 53.468C157.211 53.284 157.611 53.192 158.043 53.192C158.563 53.192 159.023 53.304 159.423 53.528C159.823 53.752 160.135 54.08 160.359 54.512C160.583 54.936 160.695 55.448 160.695 56.048C160.695 56.616 160.579 57.124 160.347 57.572C160.123 58.012 159.791 58.356 159.351 58.604C158.911 58.852 158.387 58.976 157.779 58.976C156.947 58.976 156.291 58.792 155.811 58.424C155.339 58.056 155.007 57.544 154.815 56.888C154.631 56.224 154.539 55.408 154.539 54.44C154.539 52.976 154.791 51.872 155.295 51.128C155.799 50.376 156.595 50 157.683 50C158.523 50 159.175 50.228 159.639 50.684C160.103 51.14 160.371 51.708 160.443 52.388H158.883ZM157.659 54.572C157.235 54.572 156.879 54.696 156.591 54.944C156.303 55.192 156.159 55.552 156.159 56.024C156.159 56.496 156.291 56.868 156.555 57.14C156.827 57.412 157.207 57.548 157.695 57.548C158.127 57.548 158.467 57.416 158.715 57.152C158.971 56.888 159.099 56.532 159.099 56.084C159.099 55.62 158.975 55.252 158.727 54.98C158.487 54.708 158.131 54.572 157.659 54.572Z" fill="white"/>
<path d="M105 177.5C105 148.505 81.4949 125 52.5 125C23.5051 125 0 148.505 0 177.5C0 206.495 23.5051 230 52.5 230C81.4949 230 105 206.495 105 177.5Z" fill="#93B413"/>
<path d="M33.208 176.612L32.812 178.46H34.336V179.96H32.488L32.056 182H30.46L30.892 179.96H28.708L28.276 182H26.692L27.124 179.96H25.312V178.46H27.448L27.844 176.612H26.044V175.112H28.168L28.588 173.12H30.172L29.752 175.112H31.936L32.356 173.12H33.952L33.532 175.112H35.068V176.612H33.208ZM31.612 176.612H29.428L29.032 178.46H31.216L31.612 176.612ZM38.2206 179.54C38.2846 179.892 38.4286 180.164 38.6526 180.356C38.8846 180.54 39.1926 180.632 39.5766 180.632C40.0726 180.632 40.4326 180.428 40.6566 180.02C40.8806 179.604 40.9926 178.908 40.9926 177.932C40.8086 178.188 40.5486 178.388 40.2126 178.532C39.8846 178.676 39.5286 178.748 39.1446 178.748C38.6326 178.748 38.1686 178.644 37.7526 178.436C37.3446 178.22 37.0206 177.904 36.7806 177.488C36.5406 177.064 36.4206 176.552 36.4206 175.952C36.4206 175.064 36.6846 174.36 37.2126 173.84C37.7406 173.312 38.4606 173.048 39.3726 173.048C40.5086 173.048 41.3086 173.412 41.7726 174.14C42.2446 174.868 42.4806 175.964 42.4806 177.428C42.4806 178.468 42.3886 179.32 42.2046 179.984C42.0286 180.648 41.7206 181.152 41.2806 181.496C40.8486 181.84 40.2566 182.012 39.5046 182.012C38.9126 182.012 38.4086 181.9 37.9926 181.676C37.5766 181.444 37.2566 181.144 37.0326 180.776C36.8166 180.4 36.6926 179.988 36.6606 179.54H38.2206ZM39.4926 177.38C39.9086 177.38 40.2366 177.252 40.4766 176.996C40.7166 176.74 40.8366 176.396 40.8366 175.964C40.8366 175.492 40.7086 175.128 40.4526 174.872C40.2046 174.608 39.8646 174.476 39.4326 174.476C39.0006 174.476 38.6566 174.612 38.4006 174.884C38.1526 175.148 38.0286 175.5 38.0286 175.94C38.0286 176.364 38.1486 176.712 38.3886 176.984C38.6366 177.248 39.0046 177.38 39.4926 177.38ZM43.8123 175.556C43.8523 174.756 44.1323 174.14 44.6523 173.708C45.1803 173.268 45.8723 173.048 46.7283 173.048C47.3123 173.048 47.8123 173.152 48.2283 173.36C48.6443 173.56 48.9563 173.836 49.1643 174.188C49.3803 174.532 49.4883 174.924 49.4883 175.364C49.4883 175.868 49.3563 176.296 49.0923 176.648C48.8363 176.992 48.5283 177.224 48.1683 177.344V177.392C48.6323 177.536 48.9923 177.792 49.2483 178.16C49.5123 178.528 49.6443 179 49.6443 179.576C49.6443 180.056 49.5323 180.484 49.3083 180.86C49.0923 181.236 48.7683 181.532 48.3363 181.748C47.9123 181.956 47.4003 182.06 46.8003 182.06C45.8963 182.06 45.1603 181.832 44.5923 181.376C44.0243 180.92 43.7243 180.248 43.6923 179.36H45.3243C45.3403 179.752 45.4723 180.068 45.7203 180.308C45.9763 180.54 46.3243 180.656 46.7643 180.656C47.1723 180.656 47.4843 180.544 47.7003 180.32C47.9243 180.088 48.0363 179.792 48.0363 179.432C48.0363 178.952 47.8843 178.608 47.5803 178.4C47.2763 178.192 46.8043 178.088 46.1643 178.088H45.8163V176.708H46.1643C47.3003 176.708 47.8683 176.328 47.8683 175.568C47.8683 175.224 47.7643 174.956 47.5563 174.764C47.3563 174.572 47.0643 174.476 46.6803 174.476C46.3043 174.476 46.0123 174.58 45.8043 174.788C45.6043 174.988 45.4883 175.244 45.4563 175.556H43.8123ZM55.9159 177.704C56.3879 177.792 56.7759 178.028 57.0799 178.412C57.3839 178.796 57.5359 179.236 57.5359 179.732C57.5359 180.18 57.4239 180.576 57.1999 180.92C56.9839 181.256 56.6679 181.52 56.2519 181.712C55.8359 181.904 55.3439 182 54.7759 182H51.1639V173.624H54.6199C55.1879 173.624 55.6759 173.716 56.0839 173.9C56.4999 174.084 56.8119 174.34 57.0199 174.668C57.2359 174.996 57.3439 175.368 57.3439 175.784C57.3439 176.272 57.2119 176.68 56.9479 177.008C56.6919 177.336 56.3479 177.568 55.9159 177.704ZM52.8439 177.08H54.3799C54.7799 177.08 55.0879 176.992 55.3039 176.816C55.5199 176.632 55.6279 176.372 55.6279 176.036C55.6279 175.7 55.5199 175.44 55.3039 175.256C55.0879 175.072 54.7799 174.98 54.3799 174.98H52.8439V177.08ZM54.5359 180.632C54.9439 180.632 55.2599 180.536 55.4839 180.344C55.7159 180.152 55.8319 179.88 55.8319 179.528C55.8319 179.168 55.7119 178.888 55.4719 178.688C55.2319 178.48 54.9079 178.376 54.4999 178.376H52.8439V180.632H54.5359ZM58.6109 180.296V178.976L62.5349 173.36H64.4909V178.832H65.5469V180.296H64.4909V182H62.8109V180.296H58.6109ZM62.9189 175.16L60.4589 178.832H62.9189V175.16ZM66.4125 174.8V173.252H69.3045V182H67.5765V174.8H66.4125ZM70.9881 175.556C71.0281 174.756 71.3081 174.14 71.8281 173.708C72.3561 173.268 73.0481 173.048 73.9041 173.048C74.4881 173.048 74.9881 173.152 75.4041 173.36C75.8201 173.56 76.1321 173.836 76.3401 174.188C76.5561 174.532 76.6641 174.924 76.6641 175.364C76.6641 175.868 76.5321 176.296 76.2681 176.648C76.0121 176.992 75.7041 177.224 75.3441 177.344V177.392C75.8081 177.536 76.1681 177.792 76.4241 178.16C76.6881 178.528 76.8201 179 76.8201 179.576C76.8201 180.056 76.7081 180.484 76.4841 180.86C76.2681 181.236 75.9441 181.532 75.5121 181.748C75.0881 181.956 74.5761 182.06 73.9761 182.06C73.0721 182.06 72.3361 181.832 71.7681 181.376C71.2001 180.92 70.9001 180.248 70.8681 179.36H72.5001C72.5161 179.752 72.6481 180.068 72.8961 180.308C73.1521 180.54 73.5001 180.656 73.9401 180.656C74.3481 180.656 74.6601 180.544 74.8761 180.32C75.1001 180.088 75.2121 179.792 75.2121 179.432C75.2121 178.952 75.0601 178.608 74.7561 178.4C74.4521 178.192 73.9801 178.088 73.3401 178.088H72.9921V176.708H73.3401C74.4761 176.708 75.0441 176.328 75.0441 175.568C75.0441 175.224 74.9401 174.956 74.7321 174.764C74.5321 174.572 74.2401 174.476 73.8561 174.476C73.4801 174.476 73.1881 174.58 72.9801 174.788C72.7801 174.988 72.6641 175.244 72.6321 175.556H70.9881Z" fill="white"/>
<path d="M185 142.5C185 113.505 161.495 90 132.5 90C103.505 90 80 113.505 80 142.5C80 171.495 103.505 195 132.5 195C161.495 195 185 171.495 185 142.5Z" fill="#07B3FD"/>
<path d="M114.208 137.612L113.812 139.46H115.336V140.96H113.488L113.056 143H111.46L111.892 140.96H109.708L109.276 143H107.692L108.124 140.96H106.312V139.46H108.448L108.844 137.612H107.044V136.112H109.168L109.588 134.12H111.172L110.752 136.112H112.936L113.356 134.12H114.952L114.532 136.112H116.068V137.612H114.208ZM112.612 137.612H110.428L110.032 139.46H112.216L112.612 137.612ZM117.277 138.512C117.277 137.128 117.525 136.044 118.021 135.26C118.525 134.476 119.357 134.084 120.517 134.084C121.677 134.084 122.505 134.476 123.001 135.26C123.505 136.044 123.757 137.128 123.757 138.512C123.757 139.904 123.505 140.996 123.001 141.788C122.505 142.58 121.677 142.976 120.517 142.976C119.357 142.976 118.525 142.58 118.021 141.788C117.525 140.996 117.277 139.904 117.277 138.512ZM122.101 138.512C122.101 137.92 122.061 137.424 121.981 137.024C121.909 136.616 121.757 136.284 121.525 136.028C121.301 135.772 120.965 135.644 120.517 135.644C120.069 135.644 119.729 135.772 119.497 136.028C119.273 136.284 119.121 136.616 119.041 137.024C118.969 137.424 118.933 137.92 118.933 138.512C118.933 139.12 118.969 139.632 119.041 140.048C119.113 140.456 119.265 140.788 119.497 141.044C119.729 141.292 120.069 141.416 120.517 141.416C120.965 141.416 121.305 141.292 121.537 141.044C121.769 140.788 121.921 140.456 121.993 140.048C122.065 139.632 122.101 139.12 122.101 138.512ZM130.602 135.524L127.41 143H125.706L128.922 135.716H124.818V134.276H130.602V135.524ZM136.553 138.704C137.025 138.792 137.413 139.028 137.717 139.412C138.021 139.796 138.173 140.236 138.173 140.732C138.173 141.18 138.061 141.576 137.837 141.92C137.621 142.256 137.305 142.52 136.889 142.712C136.473 142.904 135.981 143 135.413 143H131.801V134.624H135.257C135.825 134.624 136.313 134.716 136.721 134.9C137.137 135.084 137.449 135.34 137.657 135.668C137.873 135.996 137.981 136.368 137.981 136.784C137.981 137.272 137.849 137.68 137.585 138.008C137.329 138.336 136.985 138.568 136.553 138.704ZM133.481 138.08H135.017C135.417 138.08 135.725 137.992 135.941 137.816C136.157 137.632 136.265 137.372 136.265 137.036C136.265 136.7 136.157 136.44 135.941 136.256C135.725 136.072 135.417 135.98 135.017 135.98H133.481V138.08ZM135.173 141.632C135.581 141.632 135.897 141.536 136.121 141.344C136.353 141.152 136.469 140.88 136.469 140.528C136.469 140.168 136.349 139.888 136.109 139.688C135.869 139.48 135.545 139.376 135.137 139.376H133.481V141.632H135.173ZM139.344 136.556C139.384 135.756 139.664 135.14 140.184 134.708C140.712 134.268 141.404 134.048 142.26 134.048C142.844 134.048 143.344 134.152 143.76 134.36C144.176 134.56 144.488 134.836 144.696 135.188C144.912 135.532 145.02 135.924 145.02 136.364C145.02 136.868 144.888 137.296 144.624 137.648C144.368 137.992 144.06 138.224 143.7 138.344V138.392C144.164 138.536 144.524 138.792 144.78 139.16C145.044 139.528 145.176 140 145.176 140.576C145.176 141.056 145.064 141.484 144.84 141.86C144.624 142.236 144.3 142.532 143.868 142.748C143.444 142.956 142.932 143.06 142.332 143.06C141.428 143.06 140.692 142.832 140.124 142.376C139.556 141.92 139.256 141.248 139.224 140.36H140.856C140.872 140.752 141.004 141.068 141.252 141.308C141.508 141.54 141.856 141.656 142.296 141.656C142.704 141.656 143.016 141.544 143.232 141.32C143.456 141.088 143.568 140.792 143.568 140.432C143.568 139.952 143.416 139.608 143.112 139.4C142.808 139.192 142.336 139.088 141.696 139.088H141.348V137.708H141.696C142.832 137.708 143.4 137.328 143.4 136.568C143.4 136.224 143.296 135.956 143.088 135.764C142.888 135.572 142.596 135.476 142.212 135.476C141.836 135.476 141.544 135.58 141.336 135.788C141.136 135.988 141.02 136.244 140.988 136.556H139.344ZM151.867 134.624V135.98H148.375V138.128H151.051V139.46H148.375V143H146.695V134.624H151.867ZM155.986 134.624C156.866 134.624 157.638 134.796 158.302 135.14C158.974 135.484 159.49 135.976 159.85 136.616C160.218 137.248 160.402 137.984 160.402 138.824C160.402 139.664 160.218 140.4 159.85 141.032C159.49 141.656 158.974 142.14 158.302 142.484C157.638 142.828 156.866 143 155.986 143H153.058V134.624H155.986ZM155.926 141.572C156.806 141.572 157.486 141.332 157.966 140.852C158.446 140.372 158.686 139.696 158.686 138.824C158.686 137.952 158.446 137.272 157.966 136.784C157.486 136.288 156.806 136.04 155.926 136.04H154.738V141.572H155.926Z" fill="white"/>
<path d="M106 357C106 327.729 82.2711 304 53 304C23.7289 304 0 327.729 0 357C0 386.271 23.7289 410 53 410C82.2711 410 106 386.271 106 357Z" fill="#0081E8"/>
<path d="M34.208 355.612L33.812 357.46H35.336V358.96H33.488L33.056 361H31.46L31.892 358.96H29.708L29.276 361H27.692L28.124 358.96H26.312V357.46H28.448L28.844 355.612H27.044V354.112H29.168L29.588 352.12H31.172L30.752 354.112H32.936L33.356 352.12H34.952L34.532 354.112H36.068V355.612H34.208ZM32.612 355.612H30.428L30.032 357.46H32.216L32.612 355.612ZM37.2766 356.512C37.2766 355.128 37.5246 354.044 38.0206 353.26C38.5246 352.476 39.3566 352.084 40.5166 352.084C41.6766 352.084 42.5046 352.476 43.0006 353.26C43.5046 354.044 43.7566 355.128 43.7566 356.512C43.7566 357.904 43.5046 358.996 43.0006 359.788C42.5046 360.58 41.6766 360.976 40.5166 360.976C39.3566 360.976 38.5246 360.58 38.0206 359.788C37.5246 358.996 37.2766 357.904 37.2766 356.512ZM42.1006 356.512C42.1006 355.92 42.0606 355.424 41.9806 355.024C41.9086 354.616 41.7566 354.284 41.5246 354.028C41.3006 353.772 40.9646 353.644 40.5166 353.644C40.0686 353.644 39.7286 353.772 39.4966 354.028C39.2726 354.284 39.1206 354.616 39.0406 355.024C38.9686 355.424 38.9326 355.92 38.9326 356.512C38.9326 357.12 38.9686 357.632 39.0406 358.048C39.1126 358.456 39.2646 358.788 39.4966 359.044C39.7286 359.292 40.0686 359.416 40.5166 359.416C40.9646 359.416 41.3046 359.292 41.5366 359.044C41.7686 358.788 41.9206 358.456 41.9926 358.048C42.0646 357.632 42.1006 357.12 42.1006 356.512ZM45.0344 356.512C45.0344 355.128 45.2824 354.044 45.7784 353.26C46.2824 352.476 47.1144 352.084 48.2744 352.084C49.4344 352.084 50.2624 352.476 50.7584 353.26C51.2624 354.044 51.5144 355.128 51.5144 356.512C51.5144 357.904 51.2624 358.996 50.7584 359.788C50.2624 360.58 49.4344 360.976 48.2744 360.976C47.1144 360.976 46.2824 360.58 45.7784 359.788C45.2824 358.996 45.0344 357.904 45.0344 356.512ZM49.8584 356.512C49.8584 355.92 49.8184 355.424 49.7384 355.024C49.6664 354.616 49.5144 354.284 49.2824 354.028C49.0584 353.772 48.7224 353.644 48.2744 353.644C47.8264 353.644 47.4864 353.772 47.2544 354.028C47.0304 354.284 46.8784 354.616 46.7984 355.024C46.7264 355.424 46.6904 355.92 46.6904 356.512C46.6904 357.12 46.7264 357.632 46.7984 358.048C46.8704 358.456 47.0224 358.788 47.2544 359.044C47.4864 359.292 47.8264 359.416 48.2744 359.416C48.7224 359.416 49.0624 359.292 49.2944 359.044C49.5264 358.788 49.6784 358.456 49.7504 358.048C49.8224 357.632 49.8584 357.12 49.8584 356.512ZM54.2563 356.368C53.4563 355.952 53.0563 355.308 53.0563 354.436C53.0563 354.004 53.1643 353.612 53.3803 353.26C53.6043 352.9 53.9363 352.616 54.3763 352.408C54.8243 352.192 55.3683 352.084 56.0083 352.084C56.6483 352.084 57.1883 352.192 57.6283 352.408C58.0763 352.616 58.4083 352.9 58.6243 353.26C58.8483 353.612 58.9603 354.004 58.9603 354.436C58.9603 354.876 58.8523 355.264 58.6363 355.6C58.4203 355.928 58.1323 356.184 57.7723 356.368C58.2123 356.56 58.5563 356.84 58.8043 357.208C59.0523 357.576 59.1763 358.012 59.1763 358.516C59.1763 359.06 59.0363 359.536 58.7563 359.944C58.4843 360.344 58.1083 360.652 57.6283 360.868C57.1483 361.084 56.6083 361.192 56.0083 361.192C55.4083 361.192 54.8683 361.084 54.3883 360.868C53.9163 360.652 53.5403 360.344 53.2603 359.944C52.9883 359.536 52.8523 359.06 52.8523 358.516C52.8523 358.012 52.9763 357.576 53.2243 357.208C53.4723 356.832 53.8163 356.552 54.2563 356.368ZM57.3283 354.676C57.3283 354.284 57.2083 353.98 56.9683 353.764C56.7363 353.548 56.4163 353.44 56.0083 353.44C55.6083 353.44 55.2883 353.548 55.0483 353.764C54.8163 353.98 54.7003 354.288 54.7003 354.688C54.7003 355.048 54.8203 355.336 55.0603 355.552C55.3083 355.768 55.6243 355.876 56.0083 355.876C56.3923 355.876 56.7083 355.768 56.9563 355.552C57.2043 355.328 57.3283 355.036 57.3283 354.676ZM56.0083 357.1C55.5523 357.1 55.1803 357.216 54.8923 357.448C54.6123 357.68 54.4723 358.012 54.4723 358.444C54.4723 358.844 54.6083 359.172 54.8803 359.428C55.1603 359.676 55.5363 359.8 56.0083 359.8C56.4803 359.8 56.8523 359.672 57.1243 359.416C57.3963 359.16 57.5323 358.836 57.5323 358.444C57.5323 358.02 57.3923 357.692 57.1123 357.46C56.8323 357.22 56.4643 357.1 56.0083 357.1ZM60.2992 353.8V352.252H63.1912V361H61.4632V353.8H60.2992ZM66.7228 353.98V356.08H69.5428V357.412H66.7228V359.632H69.9028V361H65.0428V352.612H69.9028V353.98H66.7228ZM72.7016 356.368C71.9016 355.952 71.5016 355.308 71.5016 354.436C71.5016 354.004 71.6096 353.612 71.8256 353.26C72.0496 352.9 72.3816 352.616 72.8216 352.408C73.2696 352.192 73.8136 352.084 74.4536 352.084C75.0936 352.084 75.6336 352.192 76.074 352.408C76.522 352.616 76.854 352.9 77.07 353.26C77.294 353.612 77.406 354.004 77.406 354.436C77.406 354.876 77.298 355.264 77.082 355.6C76.866 355.928 76.578 356.184 76.218 356.368C76.658 356.56 77.002 356.84 77.25 357.208C77.498 357.576 77.622 358.012 77.622 358.516C77.622 359.06 77.482 359.536 77.202 359.944C76.93 360.344 76.554 360.652 76.074 360.868C75.5936 361.084 75.0536 361.192 74.4536 361.192C73.8536 361.192 73.3136 361.084 72.8336 360.868C72.3616 360.652 71.9856 360.344 71.7056 359.944C71.4336 359.536 71.2976 359.06 71.2976 358.516C71.2976 358.012 71.4216 357.576 71.6696 357.208C71.9176 356.832 72.2616 356.552 72.7016 356.368ZM75.7736 354.676C75.7736 354.284 75.6536 353.98 75.4136 353.764C75.1816 353.548 74.8616 353.44 74.4536 353.44C74.0536 353.44 73.7336 353.548 73.4936 353.764C73.2616 353.98 73.1456 354.288 73.1456 354.688C73.1456 355.048 73.2656 355.336 73.5056 355.552C73.7536 355.768 74.0696 355.876 74.4536 355.876C74.8376 355.876 75.1536 355.768 75.4016 355.552C75.6496 355.328 75.7736 355.036 75.7736 354.676ZM74.4536 357.1C73.9976 357.1 73.6256 357.216 73.3376 357.448C73.0576 357.68 72.9176 358.012 72.9176 358.444C72.9176 358.844 73.0536 359.172 73.3256 359.428C73.6056 359.676 73.9816 359.8 74.4536 359.8C74.9256 359.8 75.2976 359.672 75.5696 359.416C75.8416 359.16 75.9776 358.836 75.9776 358.444C75.9776 358.02 75.8376 357.692 75.5576 357.46C75.2776 357.22 74.9096 357.1 74.4536 357.1Z" fill="white"/>
<path d="M77.5 224C77.5 194.453 101.453 170.5 131 170.5C160.547 170.5 184.5 194.453 184.5 224C184.5 253.547 160.547 277.5 131 277.5C101.453 277.5 77.5 253.547 77.5 224Z" fill="white" stroke="black"/>
<path d="M113.896 223.492L113.5 225.34H115.024V226.84H113.176L112.744 228.88H111.148L111.58 226.84H109.396L108.964 228.88H107.38L107.812 226.84H106V225.34H108.136L108.532 223.492H106.732V221.992H108.856L109.276 220H110.86L110.44 221.992H112.624L113.044 220H114.64L114.22 221.992H115.756V223.492H113.896ZM112.3 223.492H110.116L109.72 225.34H111.904L112.3 223.492ZM122.329 220.504V221.86H118.837V224.008H121.513V225.34H118.837V228.88H117.157V220.504H122.329ZM128.692 220.504V221.86H125.2V224.008H127.876V225.34H125.2V228.88H123.52V220.504H128.692ZM135.055 220.504V221.86H131.563V224.008H134.239V225.34H131.563V228.88H129.883V220.504H135.055ZM141.418 220.504V221.86H137.926V224.008H140.602V225.34H137.926V228.88H136.246V220.504H141.418ZM147.782 220.504V221.86H144.29V224.008H146.966V225.34H144.29V228.88H142.61V220.504H147.782ZM154.145 220.504V221.86H150.653V224.008H153.329V225.34H150.653V228.88H148.973V220.504H154.145Z" fill="black"/>
<path d="M108 266C108 236.177 83.8234 212 54 212C24.1766 212 0 236.177 0 266C0 295.823 24.1766 320 54 320C83.8234 320 108 295.823 108 266Z" fill="black"/>
<path d="M33.208 263.612L32.812 265.46H34.336V266.96H32.488L32.056 269H30.46L30.892 266.96H28.708L28.276 269H26.692L27.124 266.96H25.312V265.46H27.448L27.844 263.612H26.044V262.112H28.168L28.588 260.12H30.172L29.752 262.112H31.936L32.356 260.12H33.952L33.532 262.112H35.068V263.612H33.208ZM31.612 263.612H29.428L29.032 265.46H31.216L31.612 263.612ZM36.2766 264.512C36.2766 263.128 36.5246 262.044 37.0206 261.26C37.5246 260.476 38.3566 260.084 39.5166 260.084C40.6766 260.084 41.5046 260.476 42.0006 261.26C42.5046 262.044 42.7566 263.128 42.7566 264.512C42.7566 265.904 42.5046 266.996 42.0006 267.788C41.5046 268.58 40.6766 268.976 39.5166 268.976C38.3566 268.976 37.5246 268.58 37.0206 267.788C36.5246 266.996 36.2766 265.904 36.2766 264.512ZM41.1006 264.512C41.1006 263.92 41.0606 263.424 40.9806 263.024C40.9086 262.616 40.7566 262.284 40.5246 262.028C40.3006 261.772 39.9646 261.644 39.5166 261.644C39.0686 261.644 38.7286 261.772 38.4966 262.028C38.2726 262.284 38.1206 262.616 38.0406 263.024C37.9686 263.424 37.9326 263.92 37.9326 264.512C37.9326 265.12 37.9686 265.632 38.0406 266.048C38.1126 266.456 38.2646 266.788 38.4966 267.044C38.7286 267.292 39.0686 267.416 39.5166 267.416C39.9646 267.416 40.3046 267.292 40.5366 267.044C40.7686 266.788 40.9206 266.456 40.9926 266.048C41.0646 265.632 41.1006 265.12 41.1006 264.512ZM44.0344 264.512C44.0344 263.128 44.2824 262.044 44.7784 261.26C45.2824 260.476 46.1144 260.084 47.2744 260.084C48.4344 260.084 49.2624 260.476 49.7584 261.26C50.2624 262.044 50.5144 263.128 50.5144 264.512C50.5144 265.904 50.2624 266.996 49.7584 267.788C49.2624 268.58 48.4344 268.976 47.2744 268.976C46.1144 268.976 45.2824 268.58 44.7784 267.788C44.2824 266.996 44.0344 265.904 44.0344 264.512ZM48.8584 264.512C48.8584 263.92 48.8184 263.424 48.7384 263.024C48.6664 262.616 48.5144 262.284 48.2824 262.028C48.0584 261.772 47.7224 261.644 47.2744 261.644C46.8264 261.644 46.4864 261.772 46.2544 262.028C46.0304 262.284 45.8784 262.616 45.7984 263.024C45.7264 263.424 45.6904 263.92 45.6904 264.512C45.6904 265.12 45.7264 265.632 45.7984 266.048C45.8704 266.456 46.0224 266.788 46.2544 267.044C46.4864 267.292 46.8264 267.416 47.2744 267.416C47.7224 267.416 48.0624 267.292 48.2944 267.044C48.5264 266.788 48.6784 266.456 48.7504 266.048C48.8224 265.632 48.8584 265.12 48.8584 264.512ZM51.7923 264.512C51.7923 263.128 52.0403 262.044 52.5363 261.26C53.0403 260.476 53.8723 260.084 55.0323 260.084C56.1923 260.084 57.0203 260.476 57.5163 261.26C58.0203 262.044 58.2723 263.128 58.2723 264.512C58.2723 265.904 58.0203 266.996 57.5163 267.788C57.0203 268.58 56.1923 268.976 55.0323 268.976C53.8723 268.976 53.0403 268.58 52.5363 267.788C52.0403 266.996 51.7923 265.904 51.7923 264.512ZM56.6163 264.512C56.6163 263.92 56.5763 263.424 56.4963 263.024C56.4243 262.616 56.2723 262.284 56.0403 262.028C55.8163 261.772 55.4803 261.644 55.0323 261.644C54.5843 261.644 54.2443 261.772 54.0123 262.028C53.7883 262.284 53.6363 262.616 53.5563 263.024C53.4843 263.424 53.4483 263.92 53.4483 264.512C53.4483 265.12 53.4843 265.632 53.5563 266.048C53.6283 266.456 53.7803 266.788 54.0123 267.044C54.2443 267.292 54.5843 267.416 55.0323 267.416C55.4803 267.416 55.8203 267.292 56.0523 267.044C56.2843 266.788 56.4363 266.456 56.5083 266.048C56.5803 265.632 56.6163 265.12 56.6163 264.512ZM59.5501 264.512C59.5501 263.128 59.7981 262.044 60.2941 261.26C60.7981 260.476 61.6301 260.084 62.7901 260.084C63.9501 260.084 64.7781 260.476 65.2741 261.26C65.7781 262.044 66.0301 263.128 66.0301 264.512C66.0301 265.904 65.7781 266.996 65.2741 267.788C64.7781 268.58 63.9501 268.976 62.7901 268.976C61.6301 268.976 60.7981 268.58 60.2941 267.788C59.7981 266.996 59.5501 265.904 59.5501 264.512ZM64.3741 264.512C64.3741 263.92 64.3341 263.424 64.2541 263.024C64.1821 262.616 64.0301 262.284 63.7981 262.028C63.5741 261.772 63.2381 261.644 62.7901 261.644C62.3421 261.644 62.0021 261.772 61.7701 262.028C61.5461 262.284 61.3941 262.616 61.3141 263.024C61.2421 263.424 61.2061 263.92 61.2061 264.512C61.2061 265.12 61.2421 265.632 61.3141 266.048C61.3861 266.456 61.5381 266.788 61.7701 267.044C62.0021 267.292 62.3421 267.416 62.7901 267.416C63.2381 267.416 63.5781 267.292 63.8101 267.044C64.0421 266.788 64.1941 266.456 64.2661 266.048C64.3381 265.632 64.3741 265.12 64.3741 264.512ZM67.3079 264.512C67.3079 263.128 67.5559 262.044 68.0519 261.26C68.5559 260.476 69.3879 260.084 70.5479 260.084C71.7079 260.084 72.5359 260.476 73.0319 261.26C73.5359 262.044 73.7879 263.128 73.7879 264.512C73.7879 265.904 73.5359 266.996 73.0319 267.788C72.5359 268.58 71.7079 268.976 70.5479 268.976C69.3879 268.976 68.5559 268.58 68.0519 267.788C67.5559 266.996 67.3079 265.904 67.3079 264.512ZM72.1319 264.512C72.1319 263.92 72.0919 263.424 72.0119 263.024C71.9399 262.616 71.7879 262.284 71.5559 262.028C71.3319 261.772 70.9959 261.644 70.5479 261.644C70.0999 261.644 69.7599 261.772 69.5279 262.028C69.3039 262.284 69.1519 262.616 69.0719 263.024C68.9999 263.424 68.9639 263.92 68.9639 264.512C68.9639 265.12 68.9999 265.632 69.0719 266.048C69.1439 266.456 69.2959 266.788 69.5279 267.044C69.7599 267.292 70.0999 267.416 70.5479 267.416C70.9959 267.416 71.3359 267.292 71.5679 267.044C71.7999 266.788 71.9519 266.456 72.0239 266.048C72.0959 265.632 72.1319 265.12 72.1319 264.512ZM75.0657 264.512C75.0657 263.128 75.3137 262.044 75.8097 261.26C76.3137 260.476 77.1457 260.084 78.3057 260.084C79.4657 260.084 80.2937 260.476 80.7897 261.26C81.2937 262.044 81.5457 263.128 81.5457 264.512C81.5457 265.904 81.2937 266.996 80.7897 267.788C80.2937 268.58 79.4657 268.976 78.3057 268.976C77.1457 268.976 76.3137 268.58 75.8097 267.788C75.3137 266.996 75.0657 265.904 75.0657 264.512ZM79.8897 264.512C79.8897 263.92 79.8497 263.424 79.7697 263.024C79.6977 262.616 79.5457 262.284 79.3137 262.028C79.0897 261.772 78.7537 261.644 78.3057 261.644C77.8577 261.644 77.5177 261.772 77.2857 262.028C77.0617 262.284 76.9097 262.616 76.8297 263.024C76.7577 263.424 76.7217 263.92 76.7217 264.512C76.7217 265.12 76.7577 265.632 76.8297 266.048C76.9017 266.456 77.0537 266.788 77.2857 267.044C77.5177 267.292 77.8577 267.416 78.3057 267.416C78.7537 267.416 79.0937 267.292 79.3257 267.044C79.5577 266.788 79.7097 266.456 79.7817 266.048C79.8537 265.632 79.8897 265.12 79.8897 264.512Z" fill="white"/>
<path d="M133.5 260.5C162.219 260.5 185.5 283.781 185.5 312.5C185.5 341.219 162.219 364.5 133.5 364.5C104.781 364.5 81.5 341.219 81.5 312.5C81.5 283.781 104.781 260.5 133.5 260.5Z" fill="#0A53B5" stroke="black"/>
<path d="M114.208 311.612L113.812 313.46H115.336V314.96H113.488L113.056 317H111.46L111.892 314.96H109.708L109.276 317H107.692L108.124 314.96H106.312V313.46H108.448L108.844 311.612H107.044V310.112H109.168L109.588 308.12H111.172L110.752 310.112H112.936L113.356 308.12H114.952L114.532 310.112H116.068V311.612H114.208ZM112.612 311.612H110.428L110.032 313.46H112.216L112.612 311.612ZM117.277 312.512C117.277 311.128 117.525 310.044 118.021 309.26C118.525 308.476 119.357 308.084 120.517 308.084C121.677 308.084 122.505 308.476 123.001 309.26C123.505 310.044 123.757 311.128 123.757 312.512C123.757 313.904 123.505 314.996 123.001 315.788C122.505 316.58 121.677 316.976 120.517 316.976C119.357 316.976 118.525 316.58 118.021 315.788C117.525 314.996 117.277 313.904 117.277 312.512ZM122.101 312.512C122.101 311.92 122.061 311.424 121.981 311.024C121.909 310.616 121.757 310.284 121.525 310.028C121.301 309.772 120.965 309.644 120.517 309.644C120.069 309.644 119.729 309.772 119.497 310.028C119.273 310.284 119.121 310.616 119.041 311.024C118.969 311.424 118.933 311.92 118.933 312.512C118.933 313.12 118.969 313.632 119.041 314.048C119.113 314.456 119.265 314.788 119.497 315.044C119.729 315.292 120.069 315.416 120.517 315.416C120.965 315.416 121.305 315.292 121.537 315.044C121.769 314.788 121.921 314.456 121.993 314.048C122.065 313.632 122.101 313.12 122.101 312.512ZM130.362 315.404H127.026L126.474 317H124.71L127.722 308.612H129.678L132.69 317H130.914L130.362 315.404ZM129.906 314.06L128.694 310.556L127.482 314.06H129.906ZM139.504 309.704H135.616V311.756C135.784 311.548 136.024 311.38 136.336 311.252C136.648 311.116 136.98 311.048 137.332 311.048C137.972 311.048 138.496 311.188 138.904 311.468C139.312 311.748 139.608 312.108 139.792 312.548C139.976 312.98 140.068 313.444 140.068 313.94C140.068 314.86 139.804 315.6 139.276 316.16C138.756 316.72 138.012 317 137.044 317C136.132 317 135.404 316.772 134.86 316.316C134.316 315.86 134.008 315.264 133.936 314.528H135.568C135.64 314.848 135.8 315.104 136.048 315.296C136.304 315.488 136.628 315.584 137.02 315.584C137.492 315.584 137.848 315.436 138.088 315.14C138.328 314.844 138.448 314.452 138.448 313.964C138.448 313.468 138.324 313.092 138.076 312.836C137.836 312.572 137.48 312.44 137.008 312.44C136.672 312.44 136.392 312.524 136.168 312.692C135.944 312.86 135.784 313.084 135.688 313.364H134.08V308.228H139.504V309.704ZM141.371 310.556C141.411 309.756 141.691 309.14 142.211 308.708C142.739 308.268 143.431 308.048 144.287 308.048C144.871 308.048 145.371 308.152 145.787 308.36C146.203 308.56 146.515 308.836 146.723 309.188C146.939 309.532 147.047 309.924 147.047 310.364C147.047 310.868 146.915 311.296 146.651 311.648C146.395 311.992 146.087 312.224 145.727 312.344V312.392C146.191 312.536 146.551 312.792 146.807 313.16C147.071 313.528 147.203 314 147.203 314.576C147.203 315.056 147.091 315.484 146.867 315.86C146.651 316.236 146.327 316.532 145.895 316.748C145.471 316.956 144.959 317.06 144.359 317.06C143.455 317.06 142.719 316.832 142.151 316.376C141.583 315.92 141.283 315.248 141.251 314.36H142.883C142.899 314.752 143.031 315.068 143.279 315.308C143.535 315.54 143.883 315.656 144.323 315.656C144.731 315.656 145.043 315.544 145.259 315.32C145.483 315.088 145.595 314.792 145.595 314.432C145.595 313.952 145.443 313.608 145.139 313.4C144.835 313.192 144.363 313.088 143.723 313.088H143.375V311.708H143.723C144.859 311.708 145.427 311.328 145.427 310.568C145.427 310.224 145.323 309.956 145.115 309.764C144.915 309.572 144.623 309.476 144.239 309.476C143.863 309.476 143.571 309.58 143.363 309.788C143.163 309.988 143.047 310.244 143.015 310.556H141.371ZM153.475 312.704C153.947 312.792 154.335 313.028 154.639 313.412C154.943 313.796 155.095 314.236 155.095 314.732C155.095 315.18 154.983 315.576 154.759 315.92C154.543 316.256 154.227 316.52 153.811 316.712C153.395 316.904 152.903 317 152.335 317H148.723V308.624H152.179C152.747 308.624 153.235 308.716 153.643 308.9C154.059 309.084 154.371 309.34 154.579 309.668C154.795 309.996 154.903 310.368 154.903 310.784C154.903 311.272 154.771 311.68 154.507 312.008C154.251 312.336 153.907 312.568 153.475 312.704ZM150.403 312.08H151.939C152.339 312.08 152.647 311.992 152.863 311.816C153.079 311.632 153.187 311.372 153.187 311.036C153.187 310.7 153.079 310.44 152.863 310.256C152.647 310.072 152.339 309.98 151.939 309.98H150.403V312.08ZM152.095 315.632C152.503 315.632 152.819 315.536 153.043 315.344C153.275 315.152 153.391 314.88 153.391 314.528C153.391 314.168 153.271 313.888 153.031 313.688C152.791 313.48 152.467 313.376 152.059 313.376H150.403V315.632H152.095ZM162.121 309.704H158.233V311.756C158.401 311.548 158.641 311.38 158.953 311.252C159.265 311.116 159.597 311.048 159.949 311.048C160.589 311.048 161.113 311.188 161.521 311.468C161.929 311.748 162.225 312.108 162.409 312.548C162.593 312.98 162.685 313.444 162.685 313.94C162.685 314.86 162.421 315.6 161.893 316.16C161.373 316.72 160.629 317 159.661 317C158.749 317 158.021 316.772 157.477 316.316C156.933 315.86 156.625 315.264 156.553 314.528H158.185C158.257 314.848 158.417 315.104 158.665 315.296C158.921 315.488 159.245 315.584 159.637 315.584C160.109 315.584 160.465 315.436 160.705 315.14C160.945 314.844 161.065 314.452 161.065 313.964C161.065 313.468 160.941 313.092 160.693 312.836C160.453 312.572 160.097 312.44 159.625 312.44C159.289 312.44 159.009 312.524 158.785 312.692C158.561 312.86 158.401 313.084 158.305 313.364H156.697V308.228H162.121V309.704Z" fill="white"/>
<path d="M184 399.5C184 370.505 160.495 347 131.5 347C102.505 347 79 370.505 79 399.5C79 428.495 102.505 452 131.5 452C160.495 452 184 428.495 184 399.5Z" fill="#3CB48E"/>
<path d="M114.208 397.612L113.812 399.46H115.336V400.96H113.488L113.056 403H111.46L111.892 400.96H109.708L109.276 403H107.692L108.124 400.96H106.312V399.46H108.448L108.844 397.612H107.044V396.112H109.168L109.588 394.12H111.172L110.752 396.112H112.936L113.356 394.12H114.952L114.532 396.112H116.068V397.612H114.208ZM112.612 397.612H110.428L110.032 399.46H112.216L112.612 397.612ZM117.301 396.556C117.341 395.756 117.621 395.14 118.141 394.708C118.669 394.268 119.361 394.048 120.217 394.048C120.801 394.048 121.301 394.152 121.717 394.36C122.133 394.56 122.445 394.836 122.653 395.188C122.869 395.532 122.977 395.924 122.977 396.364C122.977 396.868 122.845 397.296 122.581 397.648C122.325 397.992 122.017 398.224 121.657 398.344V398.392C122.121 398.536 122.481 398.792 122.737 399.16C123.001 399.528 123.133 400 123.133 400.576C123.133 401.056 123.021 401.484 122.797 401.86C122.581 402.236 122.257 402.532 121.825 402.748C121.401 402.956 120.889 403.06 120.289 403.06C119.385 403.06 118.649 402.832 118.081 402.376C117.513 401.92 117.213 401.248 117.181 400.36H118.813C118.829 400.752 118.961 401.068 119.209 401.308C119.465 401.54 119.813 401.656 120.253 401.656C120.661 401.656 120.973 401.544 121.189 401.32C121.413 401.088 121.525 400.792 121.525 400.432C121.525 399.952 121.373 399.608 121.069 399.4C120.765 399.192 120.293 399.088 119.653 399.088H119.305V397.708H119.653C120.789 397.708 121.357 397.328 121.357 396.568C121.357 396.224 121.253 395.956 121.045 395.764C120.845 395.572 120.553 395.476 120.169 395.476C119.793 395.476 119.501 395.58 119.293 395.788C119.093 395.988 118.977 396.244 118.945 396.556H117.301ZM124.244 398.8C124.244 397.976 124.428 397.24 124.796 396.592C125.172 395.936 125.68 395.428 126.32 395.068C126.968 394.7 127.692 394.516 128.492 394.516C129.428 394.516 130.248 394.756 130.952 395.236C131.656 395.716 132.148 396.38 132.428 397.228H130.496C130.304 396.828 130.032 396.528 129.68 396.328C129.336 396.128 128.936 396.028 128.48 396.028C127.992 396.028 127.556 396.144 127.172 396.376C126.796 396.6 126.5 396.92 126.284 397.336C126.076 397.752 125.972 398.24 125.972 398.8C125.972 399.352 126.076 399.84 126.284 400.264C126.5 400.68 126.796 401.004 127.172 401.236C127.556 401.46 127.992 401.572 128.48 401.572C128.936 401.572 129.336 401.472 129.68 401.272C130.032 401.064 130.304 400.76 130.496 400.36H132.428C132.148 401.216 131.656 401.884 130.952 402.364C130.256 402.836 129.436 403.072 128.492 403.072C127.692 403.072 126.968 402.892 126.32 402.532C125.68 402.164 125.172 401.656 124.796 401.008C124.428 400.36 124.244 399.624 124.244 398.8ZM138.615 398.704C139.087 398.792 139.475 399.028 139.779 399.412C140.083 399.796 140.235 400.236 140.235 400.732C140.235 401.18 140.123 401.576 139.899 401.92C139.683 402.256 139.367 402.52 138.951 402.712C138.535 402.904 138.043 403 137.475 403H133.863V394.624H137.319C137.887 394.624 138.375 394.716 138.783 394.9C139.199 395.084 139.511 395.34 139.719 395.668C139.935 395.996 140.043 396.368 140.043 396.784C140.043 397.272 139.911 397.68 139.647 398.008C139.391 398.336 139.047 398.568 138.615 398.704ZM135.543 398.08H137.079C137.479 398.08 137.787 397.992 138.003 397.816C138.219 397.632 138.327 397.372 138.327 397.036C138.327 396.7 138.219 396.44 138.003 396.256C137.787 396.072 137.479 395.98 137.079 395.98H135.543V398.08ZM137.235 401.632C137.643 401.632 137.959 401.536 138.183 401.344C138.415 401.152 138.531 400.88 138.531 400.528C138.531 400.168 138.411 399.888 138.171 399.688C137.931 399.48 137.607 399.376 137.199 399.376H135.543V401.632H137.235ZM141.31 401.296V399.976L145.234 394.36H147.19V399.832H148.246V401.296H147.19V403H145.51V401.296H141.31ZM145.618 396.16L143.158 399.832H145.618V396.16ZM150.78 398.368C149.98 397.952 149.58 397.308 149.58 396.436C149.58 396.004 149.688 395.612 149.904 395.26C150.128 394.9 150.46 394.616 150.9 394.408C151.348 394.192 151.892 394.084 152.532 394.084C153.172 394.084 153.712 394.192 154.152 394.408C154.6 394.616 154.932 394.9 155.148 395.26C155.372 395.612 155.484 396.004 155.484 396.436C155.484 396.876 155.376 397.264 155.16 397.6C154.944 397.928 154.656 398.184 154.296 398.368C154.736 398.56 155.08 398.84 155.328 399.208C155.576 399.576 155.7 400.012 155.7 400.516C155.7 401.06 155.56 401.536 155.28 401.944C155.008 402.344 154.632 402.652 154.152 402.868C153.672 403.084 153.132 403.192 152.532 403.192C151.932 403.192 151.392 403.084 150.912 402.868C150.44 402.652 150.064 402.344 149.784 401.944C149.512 401.536 149.376 401.06 149.376 400.516C149.376 400.012 149.5 399.576 149.748 399.208C149.996 398.832 150.34 398.552 150.78 398.368ZM153.852 396.676C153.852 396.284 153.732 395.98 153.492 395.764C153.26 395.548 152.94 395.44 152.532 395.44C152.132 395.44 151.812 395.548 151.572 395.764C151.34 395.98 151.224 396.288 151.224 396.688C151.224 397.048 151.344 397.336 151.584 397.552C151.832 397.768 152.148 397.876 152.532 397.876C152.916 397.876 153.232 397.768 153.48 397.552C153.728 397.328 153.852 397.036 153.852 396.676ZM152.532 399.1C152.076 399.1 151.704 399.216 151.416 399.448C151.136 399.68 150.996 400.012 150.996 400.444C150.996 400.844 151.132 401.172 151.404 401.428C151.684 401.676 152.06 401.8 152.532 401.8C153.004 401.8 153.376 401.672 153.648 401.416C153.92 401.16 154.056 400.836 154.056 400.444C154.056 400.02 153.916 399.692 153.636 399.46C153.356 399.22 152.988 399.1 152.532 399.1ZM158.899 395.98V398.08H161.719V399.412H158.899V401.632H162.079V403H157.219V394.612H162.079V395.98H158.899Z" fill="white"/>
</svg>
