<svg width="769" height="394" viewBox="0 0 769 394" fill="none" xmlns="http://www.w3.org/2000/svg">
<rect width="769" height="394" fill="#0A53B5"/>
<rect width="23.5577" height="22.9819" rx="5" transform="matrix(0.839047 0.544058 -0.764626 0.644474 89.0771 0)" fill="#99D9F4"/>
<path d="M137.46 53.7693C139.461 51.2842 143.247 51.2842 145.248 53.7693L150.969 60.8733C153.604 64.1444 151.275 69.0095 147.075 69.0095H135.633C131.432 69.0095 129.104 64.1444 131.738 60.8733L137.46 53.7693Z" fill="#C0D474"/>
<ellipse cx="38.0246" cy="59.39" rx="14.7092" ry="10.4559" fill="#FBA18B"/>
<path d="M99.1318 288.937C98.2118 285.61 102.136 282.829 106.197 283.93L127.508 289.707C131.571 290.809 132.723 294.968 129.582 297.194L113.099 308.875C109.958 311.1 104.881 309.722 103.96 306.394L99.1318 288.937Z" fill="#99D9F4"/>
<rect width="31.2892" height="33.3541" rx="5" transform="matrix(0.852574 -0.522606 0.697411 0.716672 0 305.772)" fill="#A1B6ED"/>
<rect width="31.2892" height="33.3541" rx="5" transform="matrix(0.852574 -0.522606 0.697411 0.716672 129.9 352.196)" fill="#C0D474"/>
<ellipse cx="64.95" cy="370.699" rx="14.4334" ry="11.0147" fill="#FBA18B"/>
<path d="M622.642 91.8284C624.644 89.3433 628.429 89.3433 630.431 91.8284L636.152 98.9324C638.787 102.204 636.458 107.069 632.258 107.069H620.815C616.615 107.069 614.287 102.204 616.921 98.9324L622.642 91.8284Z" fill="#A1B6ED"/>
<path d="M746.437 10.2727C748.439 7.78764 752.224 7.78764 754.226 10.2727L759.947 17.3767C762.581 20.6479 760.253 25.5129 756.053 25.5129H744.61C740.41 25.5129 738.081 20.6479 740.716 17.3767L746.437 10.2727Z" fill="#99D9F4"/>
<rect width="34.3326" height="28.6983" rx="5" transform="matrix(0.999377 -0.0353052 0.0645043 0.997917 592.323 18.7783)" fill="#A1B6ED"/>
<ellipse cx="725.831" cy="100.377" rx="14.7092" ry="10.4559" fill="#FBA18B"/>
<rect width="23.7196" height="22.735" rx="5" transform="matrix(0.95436 0.298658 -0.444925 0.895568 738.446 310.332)" fill="#C0D474"/>
<path d="M589.48 364.902C588.519 361.55 592.489 358.737 596.576 359.873L613.39 364.545C617.425 365.666 618.55 369.805 615.423 372.02L602.561 381.135C599.434 383.351 594.379 381.996 593.431 378.689L589.48 364.902Z" fill="#99D9F4"/>
<path d="M642.286 279.941C642.286 286.024 635.824 290.956 627.852 290.956C619.881 290.956 613.419 286.024 613.419 279.941C613.419 273.858 619.881 268.926 627.852 268.926C635.824 268.926 642.286 273.858 642.286 279.941Z" fill="#FBA18B"/>
</svg>
