<svg width="769" height="453" viewBox="0 0 769 453" fill="none" xmlns="http://www.w3.org/2000/svg">
<rect width="769" height="453" fill="#0A53B5"/>
<rect width="24.6546" height="24.4702" rx="5" transform="matrix(0.801719 0.5977 -0.718123 0.695916 89.0771 0)" fill="#99D9F4"/>
<path d="M137.259 62.1078C139.249 59.266 143.459 59.266 145.449 62.1078L152.01 71.4745C154.331 74.7882 151.961 79.3431 147.915 79.3431H134.793C130.747 79.3431 128.376 74.7882 130.698 71.4745L137.259 62.1078Z" fill="#C0D474"/>
<ellipse cx="38.0246" cy="68.2831" rx="14.7092" ry="12.0217" fill="#FBA18B"/>
<path d="M99.0362 331.806C98.1654 328.186 101.931 325.118 105.775 326.316L128.128 333.283C131.93 334.468 132.958 338.947 129.985 341.369L112.696 355.456C109.723 357.878 104.962 356.44 104.101 352.86L99.0362 331.806Z" fill="#99D9F4"/>
<rect width="32.6357" height="36.0061" rx="5" transform="matrix(0.817398 -0.576073 0.646044 0.7633 0 351.56)" fill="#A1B6ED"/>
<rect width="32.6357" height="36.0061" rx="5" transform="matrix(0.817398 -0.576073 0.646044 0.7633 129.9 404.937)" fill="#C0D474"/>
<ellipse cx="64.95" cy="426.21" rx="14.4334" ry="12.6641" fill="#FBA18B"/>
<path d="M622.441 105.867C624.432 103.025 628.641 103.025 630.632 105.867L637.193 115.233C639.514 118.547 637.143 123.102 633.098 123.102H619.975C615.93 123.102 613.559 118.547 615.88 115.233L622.441 105.867Z" fill="#A1B6ED"/>
<path d="M746.236 12.0976C748.227 9.2558 752.436 9.25581 754.427 12.0976L760.988 21.4643C763.309 24.778 760.938 29.3329 756.893 29.3329H743.77C739.725 29.3329 737.354 24.778 739.675 21.4643L746.236 12.0976Z" fill="#99D9F4"/>
<rect width="34.3395" height="32.979" rx="5" transform="matrix(0.999176 -0.0405839 0.0561315 0.998423 592.323 21.5901)" fill="#A1B6ED"/>
<ellipse cx="725.831" cy="115.408" rx="14.7092" ry="12.0217" fill="#FBA18B"/>
<rect width="24.0577" height="25.5017" rx="5" transform="matrix(0.940947 0.338555 -0.396655 0.917968 738.446 356.803)" fill="#C0D474"/>
<path d="M589.379 419.139C588.47 415.493 592.279 412.39 596.146 413.625L614.004 419.33C617.778 420.536 618.782 424.992 615.822 427.404L602.162 438.534C599.202 440.945 594.463 439.532 593.575 435.974L589.379 419.139Z" fill="#99D9F4"/>
<path d="M642.286 321.861C642.286 328.856 635.824 334.526 627.852 334.526C619.881 334.526 613.419 328.856 613.419 321.861C613.419 314.867 619.881 309.197 627.852 309.197C635.824 309.197 642.286 314.867 642.286 321.861Z" fill="#FBA18B"/>
</svg>
