<svg width="770" height="897" viewBox="0 0 770 897" fill="none" xmlns="http://www.w3.org/2000/svg">
<rect width="770" height="896.974" fill="#0A53B5"/>
<rect width="23.5416" height="27.304" rx="5" transform="matrix(0.926228 0.376964 -0.356853 0.934161 731.619 730.888)" fill="#C0D474"/>
<path d="M118.364 666.345C117.541 662.476 121.145 659.154 124.777 660.435L146.674 668.155C150.23 669.409 151.149 674.152 148.339 676.742L131.403 692.35C128.593 694.94 124.131 693.461 123.325 689.673L118.364 666.345Z" fill="#99D9F4"/>
<path d="M118.364 666.345C117.541 662.476 121.145 659.154 124.777 660.435L146.674 668.155C150.23 669.409 151.149 674.152 148.339 676.742L131.403 692.35C128.593 694.94 124.131 693.461 123.325 689.673L118.364 666.345Z" fill="#99D9F4"/>
<path d="M623.299 859.997C622.441 856.1 626.086 852.741 629.74 854.061L647.305 860.408C650.835 861.684 651.732 866.404 648.934 868.983L635.498 881.366C632.7 883.945 628.257 882.492 627.428 878.727L623.299 859.997Z" fill="#99D9F4"/>
<rect width="32.8614" height="37.3998" rx="5" transform="matrix(0.781939 -0.623355 0.599104 0.800671 17.1113 704.741)" fill="#A1B6ED"/>
<rect width="32.8614" height="37.3998" rx="5" transform="matrix(0.781939 -0.623355 0.599104 0.800671 17.1113 704.741)" fill="#A1B6ED"/>
<rect width="32.8614" height="37.3998" rx="5" transform="matrix(0.781939 -0.623355 0.599104 0.800671 142.236 805.337)" fill="#C0D474"/>
<rect width="32.8614" height="37.3998" rx="5" transform="matrix(0.781939 -0.623355 0.599104 0.800671 142.236 805.337)" fill="#C0D474"/>
<ellipse cx="76.4643" cy="864.143" rx="13.9028" ry="13.7983" fill="#FBA18B"/>
<ellipse cx="76.4643" cy="864.143" rx="13.9028" ry="13.7983" fill="#FBA18B"/>
<path d="M652.896 699.627C652.896 707.248 646.672 713.425 638.994 713.425C631.315 713.425 625.091 707.248 625.091 699.627C625.091 692.007 631.315 685.829 638.994 685.829C646.672 685.829 652.896 692.007 652.896 699.627Z" fill="#FBA18B"/>
<rect width="24.9056" height="25.1152" rx="5" transform="matrix(0.764463 0.644667 -0.673958 0.73877 94.8936 54.4891)" fill="#99D9F4"/>
<path d="M615.294 187.098C617.248 183.941 621.841 183.941 623.795 187.098L630.392 197.75C632.455 201.081 630.059 205.382 626.141 205.382H612.948C609.03 205.382 606.635 201.081 608.697 197.75L615.294 187.098Z" fill="#A1B6ED"/>
<path d="M162.92 148.851C164.874 145.694 169.467 145.694 171.421 148.851L178.018 159.502C180.081 162.833 177.685 167.135 173.767 167.135H160.574C156.656 167.135 154.261 162.833 156.323 159.502L162.92 148.851Z" fill="#C0D474"/>
<path d="M714.752 82.3112C716.706 79.1544 721.299 79.1544 723.253 82.3112L729.85 92.9631C731.913 96.294 729.517 100.596 725.599 100.596H712.406C708.488 100.596 706.093 96.294 708.155 92.9631L714.752 82.3112Z" fill="#99D9F4"/>
<rect width="33.0847" height="35.9202" rx="5" transform="matrix(0.998946 -0.0458957 0.0496408 0.998767 619.744 93.7306)" fill="#A1B6ED"/>
<ellipse cx="47.3218" cy="193.332" rx="14.1684" ry="13.0983" fill="#FBA18B"/>
<ellipse cx="705.029" cy="200.667" rx="14.1684" ry="13.0983" fill="#FBA18B"/>
</svg>
