<svg width="774" height="777" viewBox="0 0 774 777" fill="none" xmlns="http://www.w3.org/2000/svg">
<rect width="774" height="776.978" fill="#0A53B5"/>
<rect width="23.2271" height="24.1676" rx="5" transform="matrix(0.943646 0.330955 -0.405258 0.914202 735.42 633.111)" fill="#C0D474"/>
<path d="M626.647 745.377C625.728 741.784 629.569 738.734 633.478 739.951L650.021 745.103C653.845 746.294 654.871 750.693 651.879 753.069L639.224 763.12C636.232 765.496 631.433 764.092 630.535 760.579L626.647 745.377Z" fill="#99D9F4"/>
<path d="M105.97 583.369C105.143 579.522 108.763 576.225 112.416 577.498L129.499 583.451C133.078 584.699 134.008 589.418 131.182 591.993L117.969 604.03C115.143 606.604 110.652 605.129 109.841 601.36L105.97 583.369Z" fill="#99D9F4"/>
<rect width="28.6684" height="32.5323" rx="5" transform="matrix(0.785439 -0.618939 0.603547 0.797327 17 615.505)" fill="#A1B6ED"/>
<rect width="28.6684" height="32.5323" rx="5" transform="matrix(0.785439 -0.618939 0.603547 0.797327 126.648 702.643)" fill="#C0D474"/>
<ellipse cx="68.7998" cy="753.543" rx="12" ry="11.5" fill="#FBA18B"/>
<path d="M656.288 606.032C656.288 612.633 650.031 617.984 642.313 617.984C634.595 617.984 628.338 612.633 628.338 606.032C628.338 599.431 634.595 594.08 642.313 594.08C650.031 594.08 656.288 599.431 656.288 606.032Z" fill="#FBA18B"/>
<path d="M618.702 161.772C620.697 158.996 624.827 158.996 626.822 161.772L632.727 169.989C635.104 173.297 632.74 177.907 628.666 177.907H616.858C612.784 177.907 610.42 173.297 612.797 169.989L618.702 161.772Z" fill="#A1B6ED"/>
<path d="M718.676 71.0037C720.671 68.2275 724.802 68.2275 726.797 71.0037L732.701 79.2201C735.078 82.528 732.714 87.138 728.641 87.138H716.832C712.759 87.138 710.395 82.528 712.772 79.2201L718.676 71.0037Z" fill="#99D9F4"/>
<rect width="33.2475" height="31.1282" rx="5" transform="matrix(0.999217 -0.0395611 0.0575804 0.998341 622.964 81.1914)" fill="#A1B6ED"/>
<rect width="21.96" height="22.0587" rx="5" transform="matrix(0.773884 0.633327 -0.684929 0.72861 88.4336 47.1996)" fill="#99D9F4"/>
<path d="M148.733 129.597C150.699 126.516 155.197 126.516 157.163 129.597L161.942 137.086C164.066 140.414 161.676 144.776 157.727 144.776H148.169C144.221 144.776 141.83 140.414 143.954 137.086L148.733 129.597Z" fill="#C0D474"/>
<ellipse cx="45.9719" cy="167.468" rx="12.6467" ry="11.3461" fill="#FBA18B"/>
<ellipse cx="708.691" cy="173.822" rx="14.242" ry="11.3461" fill="#FBA18B"/>
</svg>
