<svg width="774" height="793" viewBox="0 0 774 793" fill="none" xmlns="http://www.w3.org/2000/svg">
<rect width="774" height="792.978" fill="#0A53B5"/>
<rect width="23.2799" height="24.5842" rx="5" transform="matrix(0.941503 0.337003 -0.39839 0.917216 735.42 646.148)" fill="#C0D474"/>
<path d="M626.631 760.664C625.72 757.028 629.536 753.936 633.412 755.168L650.113 760.475C653.898 761.678 654.906 766.123 651.94 768.528L639.164 778.883C636.197 781.287 631.446 779.876 630.556 776.327L626.631 760.664Z" fill="#99D9F4"/>
<path d="M105.954 595.303C105.135 591.416 108.726 588.077 112.343 589.363L129.596 595.5C133.134 596.759 134.046 601.52 131.248 604.122L117.903 616.529C115.105 619.131 110.664 617.65 109.863 613.848L105.954 595.303Z" fill="#99D9F4"/>
<rect width="28.8959" height="32.9598" rx="5" transform="matrix(0.779253 -0.626709 0.59572 0.803192 17 628.179)" fill="#A1B6ED"/>
<rect width="28.8959" height="32.9598" rx="5" transform="matrix(0.779253 -0.626709 0.59572 0.803192 126.648 717.112)" fill="#C0D474"/>
<ellipse cx="68.7998" cy="769.06" rx="12" ry="11.7368" fill="#FBA18B"/>
<path d="M656.288 618.511C656.288 625.248 650.031 630.71 642.313 630.71C634.595 630.71 628.338 625.248 628.338 618.511C628.338 611.774 634.595 606.313 642.313 606.313C650.031 606.313 656.288 611.774 656.288 618.511Z" fill="#FBA18B"/>
<path d="M618.674 165.143C620.665 162.315 624.859 162.315 626.85 165.143L632.869 173.691C635.202 177.004 632.832 181.57 628.781 181.57H616.743C612.692 181.57 610.322 177.004 612.655 173.691L618.674 165.143Z" fill="#A1B6ED"/>
<path d="M718.648 72.5055C720.64 69.6769 724.833 69.6769 726.825 72.5055L732.844 81.0537C735.176 84.3663 732.807 88.9323 728.756 88.9323H716.718C712.666 88.9323 710.297 84.3663 712.629 81.0537L718.648 72.5055Z" fill="#99D9F4"/>
<rect width="33.2486" height="31.767" rx="5" transform="matrix(0.999185 -0.0403744 0.0564223 0.998407 622.964 82.8633)" fill="#A1B6ED"/>
<rect width="22.1425" height="22.301" rx="5" transform="matrix(0.767506 0.641042 -0.677487 0.735534 88.4336 48.1715)" fill="#99D9F4"/>
<path d="M148.709 132.305C150.667 129.172 155.229 129.172 157.188 132.305L162.066 140.106C164.148 143.436 161.754 147.757 157.826 147.757H148.07C144.143 147.757 141.748 143.436 143.831 140.106L148.709 132.305Z" fill="#C0D474"/>
<ellipse cx="45.9719" cy="170.916" rx="12.6467" ry="11.5797" fill="#FBA18B"/>
<ellipse cx="708.691" cy="177.401" rx="14.242" ry="11.5797" fill="#FBA18B"/>
</svg>
