<svg width="583" height="557" viewBox="0 0 583 557" fill="none" xmlns="http://www.w3.org/2000/svg">
<rect width="583" height="556.962" fill="#0A53B5"/>
<rect width="22.0665" height="23.3937" rx="5" transform="matrix(0.622977 0.78224 -0.522425 0.852685 60.0977 17.9175)" fill="#99D9F4"/>
<path d="M91.7542 95.0697C93.4725 90.9917 99.2513 90.9917 100.97 95.0697L104.761 104.069C106.15 107.365 103.73 111.011 100.154 111.011H92.57C88.9936 111.011 86.5736 107.365 87.9623 104.069L91.7542 95.0697Z" fill="#C0D474"/>
<ellipse cx="24.7442" cy="98.1567" rx="10.2598" ry="14.0224" fill="#FBA18B"/>
<path d="M60.6155 446.25C59.9499 441.738 62.9708 437.725 65.9085 439.218L76.9681 444.839C79.7632 446.259 80.3926 451.653 78.1161 454.677L69.5622 466.04C67.2857 469.064 63.7545 467.525 63.1212 463.233L60.6155 446.25Z" fill="#99D9F4"/>
<rect width="24.7282" height="30.7238" rx="5" transform="matrix(0.65648 -0.754344 0.460733 0.887539 0 463.482)" fill="#A1B6ED"/>
<rect width="24.7282" height="30.7238" rx="5" transform="matrix(0.65648 -0.754344 0.460733 0.887539 79.0488 516.441)" fill="#C0D474"/>
<ellipse cx="39.5245" cy="537.547" rx="8.78325" ry="12.5651" fill="#FBA18B"/>
<path d="M488.645 134.624C490.382 130.6 496.088 130.6 497.825 134.624L500.088 139.863C501.513 143.164 499.093 146.845 495.497 146.845H490.973C487.377 146.845 484.957 143.164 486.382 139.863L488.645 134.624Z" fill="#A1B6ED"/>
<path d="M564.199 41.7908C565.936 37.7671 571.642 37.7671 573.38 41.7908L575.642 47.0298C577.067 50.3307 574.647 54.012 571.052 54.012H566.527C562.931 54.012 560.511 50.3307 561.937 47.0298L564.199 41.7908Z" fill="#99D9F4"/>
<rect width="20.9861" height="32.6179" rx="5" transform="matrix(0.997836 -0.0657445 0.0346372 0.9994 472.354 46.3464)" fill="#A1B6ED"/>
<ellipse cx="553.836" cy="139.228" rx="8.97726" ry="11.9017" fill="#FBA18B"/>
<rect width="15.0246" height="22.8084" rx="5" transform="matrix(0.859587 0.510989 -0.253024 0.96746 567.439 466.324)" fill="#C0D474"/>
<path d="M482.826 527.952C482.137 523.392 485.168 519.312 488.096 520.857L495.192 524.603C497.94 526.053 498.544 531.44 496.297 534.465L490.868 541.772C488.622 544.796 485.139 543.285 484.493 539.005L482.826 527.952Z" fill="#99D9F4"/>
<path d="M512.578 433.387C512.578 439.98 508.891 445.325 504.343 445.325C499.796 445.325 496.109 439.98 496.109 433.387C496.109 426.795 499.796 421.45 504.343 421.45C508.891 421.45 512.578 426.795 512.578 433.387Z" fill="#FBA18B"/>
</svg>
