<svg width="1230" height="1178" viewBox="0 0 1230 1178" fill="none" xmlns="http://www.w3.org/2000/svg">
<g clip-path="url(#clip0_485_113)">
<mask id="mask0_485_113" style="mask-type:luminance" maskUnits="userSpaceOnUse" x="0" y="0" width="1230" height="1178">
<path d="M1230 0H0V1178H1230V0Z" fill="white"/>
</mask>
<g mask="url(#mask0_485_113)">
<path d="M1230 0H0V1178H1230V0Z" fill="#0A53B5"/>
<path d="M511 710.141C511 771.105 375.342 820.525 208 820.525C40.6577 820.525 -95 771.105 -95 710.141C-95 649.177 219.793 441.418 208 599.757C196.207 758.095 511 649.177 511 710.141Z" fill="#93B413"/>
<path d="M127.33 305.18C-77.5461 367.126 -17.7907 349.058 -17.7907 349.058L-5.50016 125.813L54.7834 231.825L-176 123.69C-176 123.69 332.205 243.233 127.33 305.18Z" fill="#93B413"/>
<path d="M1332 288.242C1248.46 345.377 1260.99 403.465 1173.39 403.465C1085.79 403.465 1061.86 355.376 1008 304.906C1008 241.271 1085.79 173.019 1173.39 173.019C1260.99 173.019 1332 224.606 1332 288.242Z" fill="#93B413"/>
<path d="M775 183.198C727.111 183.198 708.471 241.234 626.403 241.234C544.335 241.234 396.112 241.234 477.805 183.198C559.499 125.163 544.335 125.163 626.403 125.163C708.471 125.163 775 151.146 775 183.198Z" fill="#3A9EB6"/>
<path d="M1145 611.031C1145 672.496 950.554 650.687 826.096 650.687C701.633 650.687 694.282 672.496 694.282 611.031C694.282 549.566 552.37 538.968 882.967 466.478C1213.56 393.989 1014.78 522.338 1145 611.031Z" fill="#3A9EB6"/>
<path d="M619 429.965C619 493.512 594.135 598.178 469.941 598.178C345.746 598.178 194.31 662.425 245.067 483.116C295.824 303.806 345.746 368.054 469.941 368.054C594.135 368.054 619 366.419 619 429.965Z" fill="#3A9EB6"/>
<path d="M1230 955.307C1230 1029.64 1110.68 1001.11 1088.33 1145.98C1065.99 1290.86 902.988 1085.72 902.988 1011.39C902.988 937.053 886.44 867.448 988.801 867.448C1091.16 867.448 1230 880.973 1230 955.307Z" fill="#3A9EB6"/>
<path d="M446.883 1167.63C446.883 1288.95 346.397 1387.3 222.442 1387.3C98.4858 1387.3 -2 1288.95 -2 1167.63C-2 1046.32 224.227 958.823 348.183 958.823C472.139 958.823 446.883 1046.32 446.883 1167.63Z" fill="#3A9EB6"/>
<path d="M868 1094.05C868 1254.64 779.259 1384.83 669.793 1384.83C560.326 1384.83 471.586 1254.64 471.586 1094.05C411.447 797.452 549.738 843.482 659.205 843.482C822.683 1060.16 868 933.461 868 1094.05Z" fill="#93B413"/>
<path d="M1109 744.884C1109 775.066 1046.09 799.533 968.5 799.533C890.907 799.533 828 775.066 828 744.884C828 714.702 866.083 732.32 968.5 690.233C1070.92 648.148 1109 714.702 1109 744.884Z" fill="#93B413"/>
</g>
</g>
<defs>
<clipPath id="clip0_485_113">
<rect width="1230" height="1178" fill="white"/>
</clipPath>
</defs>
</svg>
