<svg width="565" height="418" viewBox="0 0 565 418" fill="none" xmlns="http://www.w3.org/2000/svg">
<rect width="565" height="417.971" fill="#0A53B5"/>
<rect width="17.0289" height="18.0807" rx="2" transform="matrix(0.940702 0.339233 -0.395899 0.918294 460.885 367.875)" fill="#C0D474"/>
<path d="M486.752 331.32C486.389 329.859 487.911 328.616 489.457 329.111L507.414 334.861C508.922 335.343 509.323 337.128 508.14 338.094L494.403 349.312C493.22 350.278 491.327 349.712 490.972 348.287L486.752 331.32Z" fill="#99D9F4"/>
<path d="M494.871 385.54C495.66 384.328 497.434 384.328 498.223 385.54L505.762 397.119C506.628 398.45 505.673 400.211 504.086 400.211H489.009C487.421 400.211 486.467 398.45 487.333 397.119L494.871 385.54Z" fill="#A1B6ED"/>
<rect width="17.6882" height="17.2042" rx="2" transform="matrix(0.816784 -0.576944 0.645192 0.764021 536.224 392.092)" fill="#99D9F4"/>
<rect width="23.8478" height="24.6351" rx="2" transform="matrix(0.999046 -0.0436625 0.0521781 0.998638 527.581 322.21)" fill="#A1B6ED"/>
<path d="M14.0302 384.098C13.7661 382.634 15.1456 381.409 16.5772 381.835L38.5901 388.388C40.0929 388.835 40.5218 390.749 39.3522 391.788L21.3993 407.736C20.2297 408.776 18.3673 408.136 18.0902 406.599L14.0302 384.098Z" fill="#99D9F4"/>
<path d="M38.4934 337.048C38.1584 335.529 39.6201 334.231 41.0988 334.733L60.2337 341.236C61.6856 341.73 62.0663 343.597 60.9223 344.613L46.1228 357.76C44.9788 358.777 43.1576 358.19 42.8287 356.699L38.4934 337.048Z" fill="#99D9F4"/>
<path d="M110.947 382.6C111.723 381.302 113.603 381.302 114.38 382.6L121.172 393.95C121.969 395.283 121.009 396.977 119.456 396.977H105.871C104.318 396.977 103.357 395.283 104.155 393.95L110.947 382.6Z" fill="#C0D474"/>
<rect width="21.8839" height="24.6762" rx="2" transform="matrix(0.792924 -0.609321 0.613183 0.78994 0 342.007)" fill="#A1B6ED"/>
<rect width="21.8839" height="24.6762" rx="2" transform="matrix(0.792924 -0.609321 0.613183 0.78994 60.3037 325.521)" fill="#C0D474"/>
<ellipse cx="72.9423" cy="391.229" rx="9.38856" ry="8.98203" fill="#FBA18B"/>
<ellipse cx="526.01" cy="367.875" rx="10.2138" ry="8.98203" fill="#FBA18B"/>
<path d="M490.527 13.2383C490.166 11.8574 491.712 10.696 493.303 11.1541L516.371 17.799C517.952 18.2545 518.392 19.9714 517.163 20.8941L499.342 34.2771C498.113 35.1998 496.134 34.639 495.774 33.2661L490.527 13.2383Z" fill="#C0D474"/>
<path d="M550.172 69.5674C550.969 68.4414 552.64 68.4414 553.437 69.5674L560.998 80.2486C561.936 81.5732 560.989 83.4042 559.366 83.4042H544.243C542.621 83.4042 541.673 81.5732 542.611 80.2486L550.172 69.5674Z" fill="#A1B6ED"/>
<path d="M470.2 45.3532C470.997 44.2273 472.668 44.2273 473.465 45.3532L481.026 56.0345C481.964 57.3591 481.017 59.1901 479.394 59.1901H464.271C462.648 59.1901 461.701 57.3591 462.639 56.0345L470.2 45.3532Z" fill="#99D9F4"/>
<path d="M542.975 11.3861C543.772 10.2602 545.443 10.2602 546.24 11.3861L553.801 22.0674C554.739 23.392 553.792 25.223 552.169 25.223H537.046C535.423 25.223 534.476 23.392 535.414 22.0674L542.975 11.3861Z" fill="#99D9F4"/>
<rect width="17.5359" height="16.7045" rx="2" transform="matrix(0.838603 -0.544743 0.67637 0.736562 435.847 21.9958)" fill="#99D9F4"/>
<rect width="24.2705" height="23.0655" rx="2" transform="matrix(0.999193 -0.0401588 0.0567247 0.99839 509.02 35.278)" fill="#A1B6ED"/>
<path d="M13.4878 78.2027C13.2658 76.8379 14.6205 75.7193 16.0617 76.0773L35.9409 81.0151C37.5414 81.4127 38.0372 83.295 36.8085 84.3095L19.9913 98.1964C18.7627 99.211 16.7963 98.543 16.5498 97.0274L13.4878 78.2027Z" fill="#99D9F4"/>
<rect width="16.3595" height="16.4142" rx="2" transform="matrix(0.776617 0.629974 -0.688136 0.725582 64.751 17.8242)" fill="#99D9F4"/>
<path d="M60.7514 73.7837C60.4154 72.3319 61.9034 71.1032 63.4253 71.5758L81.6239 77.2266C83.1411 77.6977 83.5545 79.5074 82.3685 80.4867L68.1876 92.1967C67.0016 93.176 65.104 92.5919 64.7691 91.1446L60.7514 73.7837Z" fill="#C0D474"/>
<path d="M14.3195 9.33815C15.1069 8.11497 16.8953 8.11497 17.6828 9.33815L24.409 19.7862C25.2659 21.1171 24.3103 22.8688 22.7274 22.8688H9.27488C7.69196 22.8688 6.73638 21.1171 7.59323 19.7862L14.3195 9.33815Z" fill="#C0D474"/>
<rect width="22.0758" height="23.0591" rx="2" transform="matrix(0.999025 -0.0441512 0.0516011 0.998668 96.3652 7.70068)" fill="#A1B6ED"/>
<ellipse cx="29.0924" cy="45.4013" rx="9.45466" ry="8.40769" fill="#FBA18B"/>
<ellipse cx="511.42" cy="86.4309" rx="10.3963" ry="8.40769" fill="#FBA18B"/>
</svg>
