<svg width="769" height="707" viewBox="0 0 769 707" fill="none" xmlns="http://www.w3.org/2000/svg">
<rect width="769" height="707" fill="#0A53B5"/>
<rect width="29.0565" height="30.7675" rx="5" transform="matrix(0.626896 0.779103 -0.526337 0.850276 79.6328 0)" fill="#99D9F4"/>
<path d="M123.083 97.6498C124.809 93.5944 130.557 93.5944 132.284 97.6498L139.726 115.133C141.13 118.431 138.71 122.091 135.126 122.091H120.241C116.656 122.091 114.236 118.431 115.64 115.133L123.083 97.6498Z" fill="#C0D474"/>
<ellipse cx="32.7862" cy="105.233" rx="13.5948" ry="18.3902" fill="#FBA18B"/>
<path d="M79.8213 558.439C79.1511 553.943 82.19 549.947 85.1478 551.435L103.946 560.891C106.763 562.307 107.399 567.686 105.107 570.7L90.5678 589.816C88.2758 592.83 84.7184 591.291 84.0803 587.011L79.8213 558.439Z" fill="#99D9F4"/>
<rect width="32.5757" height="40.3828" rx="5" transform="matrix(0.660318 -0.750987 0.464475 0.885587 0 584.353)" fill="#A1B6ED"/>
<rect width="32.5757" height="40.3828" rx="5" transform="matrix(0.660318 -0.750987 0.464475 0.885587 104.742 653.809)" fill="#C0D474"/>
<ellipse cx="52.3726" cy="681.489" rx="11.6383" ry="16.4789" fill="#FBA18B"/>
<path d="M648.977 149.621C650.722 145.621 656.397 145.621 658.143 149.621L663.581 162.087C665.022 165.39 662.602 169.086 658.998 169.086H648.121C644.518 169.086 642.097 165.39 643.538 162.087L648.977 149.621Z" fill="#A1B6ED"/>
<path d="M749.092 27.8728C750.838 23.8721 756.512 23.8721 758.258 27.8728L763.696 40.3384C765.137 43.6413 762.717 47.3378 759.114 47.3378H748.236C744.633 47.3378 742.213 43.6413 743.654 40.3384L749.092 27.8728Z" fill="#99D9F4"/>
<rect width="27.8063" height="42.7785" rx="5" transform="matrix(0.997923 -0.0644124 0.0353558 0.999375 625.894 37.2835)" fill="#A1B6ED"/>
<ellipse cx="733.862" cy="159.096" rx="11.8953" ry="15.6089" fill="#FBA18B"/>
<rect width="19.8554" height="29.9329" rx="5" transform="matrix(0.861882 0.507108 -0.255471 0.966817 751.886 588.079)" fill="#C0D474"/>
<path d="M639.252 665.519C638.559 660.974 641.609 656.912 644.557 658.452L658.076 665.514C660.845 666.961 661.455 672.333 659.193 675.347L648.851 689.126C646.589 692.14 643.08 690.629 642.43 686.36L639.252 665.519Z" fill="#99D9F4"/>
<path d="M679.192 544.884C679.192 553.53 674.307 560.54 668.28 560.54C662.254 560.54 657.369 553.53 657.369 544.884C657.369 536.238 662.254 529.228 668.28 529.228C674.307 529.228 679.192 536.238 679.192 544.884Z" fill="#FBA18B"/>
</svg>
