<svg width="769" height="553" viewBox="0 0 769 553" fill="none" xmlns="http://www.w3.org/2000/svg">
<rect width="769" height="553" fill="#0A53B5"/>
<rect width="25.4035" height="26.0952" rx="5" transform="matrix(0.717044 0.697028 -0.620576 0.784146 79.6328 0)" fill="#99D9F4"/>
<path d="M123.291 75.9963C125.185 72.5166 130.181 72.5166 132.075 75.9963L138.666 88.1071C140.48 91.4389 138.068 95.4973 134.275 95.4973H121.092C117.298 95.4973 114.887 91.4389 116.7 88.1071L123.291 75.9963Z" fill="#C0D474"/>
<ellipse cx="32.7862" cy="82.3116" rx="13.5948" ry="14.3844" fill="#FBA18B"/>
<path d="M80.0471 437.984C79.2696 433.904 82.713 430.363 86.1448 431.713L102.766 438.253C106.095 439.562 106.921 444.524 104.265 447.255L91.4098 460.476C88.7537 463.207 84.5671 461.702 83.8129 457.744L80.0471 437.984Z" fill="#99D9F4"/>
<rect width="28.7897" height="33.6791" rx="5" transform="matrix(0.747153 -0.664652 0.556926 0.830562 0 457.069)" fill="#A1B6ED"/>
<rect width="28.7897" height="33.6791" rx="5" transform="matrix(0.747153 -0.664652 0.556926 0.830562 104.742 511.395)" fill="#C0D474"/>
<ellipse cx="52.3726" cy="533.046" rx="11.6383" ry="12.8895" fill="#FBA18B"/>
<path d="M649.193 116.643C651.1 113.224 656.019 113.224 657.926 116.643L662.488 124.82C664.346 128.153 661.937 132.256 658.121 132.256H648.999C645.183 132.256 642.773 128.153 644.632 124.82L649.193 116.643Z" fill="#A1B6ED"/>
<path d="M749.308 21.4145C751.216 17.9953 756.135 17.9953 758.042 21.4145L762.603 29.5915C764.462 32.9243 762.052 37.0271 758.236 37.0271H749.114C745.298 37.0271 742.888 32.9243 744.747 29.5915L749.308 21.4145Z" fill="#99D9F4"/>
<rect width="27.7839" height="33.4736" rx="5" transform="matrix(0.998728 -0.0504226 0.0451838 0.998979 625.894 29.1626)" fill="#A1B6ED"/>
<ellipse cx="733.862" cy="124.442" rx="11.8953" ry="12.209" fill="#FBA18B"/>
<rect width="18.8383" height="23.8927" rx="5" transform="matrix(0.908417 0.418065 -0.320055 0.947399 751.886 459.982)" fill="#C0D474"/>
<path d="M639.492 521.782C638.686 517.65 642.148 514.043 645.575 515.443L656.91 520.075C660.189 521.414 660.983 526.376 658.358 529.112L649.686 538.149C647.06 540.885 642.926 539.404 642.156 535.451L639.492 521.782Z" fill="#99D9F4"/>
<path d="M679.192 426.196C679.192 432.959 674.307 438.442 668.28 438.442C662.254 438.442 657.369 432.959 657.369 426.196C657.369 419.433 662.254 413.951 668.28 413.951C674.307 413.951 679.192 419.433 679.192 426.196Z" fill="#FBA18B"/>
</svg>
