<svg width="524" height="364" viewBox="0 0 524 364" fill="none" xmlns="http://www.w3.org/2000/svg">
<g clip-path="url(#clip0_1175_282)">
<path d="M524 0H0V364H524V0Z" fill="#0A53B5"/>
<path d="M12.2731 333.296C12.0079 331.742 13.3921 330.44 14.8301 330.893L33.075 336.636C34.5856 337.112 35.0182 339.145 33.8434 340.249L18.9635 354.226C17.7887 355.33 15.9168 354.648 15.6382 353.016L12.2731 333.296Z" fill="#99D9F4"/>
<path d="M33.5633 290.09C33.2268 288.477 34.6936 287.1 36.1789 287.634L51.9149 293.288C53.3745 293.813 53.7585 295.796 52.6095 296.877L40.4387 308.309C39.2896 309.388 37.4592 308.763 37.1285 307.178L33.5633 290.09Z" fill="#99D9F4"/>
<path d="M96.2165 331.853C96.9945 330.478 98.8623 330.478 99.6403 331.853L105.065 341.439C105.871 342.862 104.911 344.678 103.353 344.678H92.5031C90.9458 344.678 89.986 342.862 90.7912 341.439L96.2165 331.853Z" fill="#C0D474"/>
<path d="M13.4915 283.193L1.59141 292.863C0.712497 293.577 0.55231 294.908 1.23362 295.836L11.9185 310.391C12.5998 311.319 13.8647 311.492 14.7436 310.778L26.6437 301.109C27.5226 300.395 27.6828 299.064 27.0015 298.135L16.3166 283.581C15.6353 282.653 14.3704 282.479 13.4915 283.193Z" fill="#A1B6ED"/>
<path d="M65.9085 268.041L54.0084 277.71C53.1295 278.424 52.9693 279.756 53.6506 280.684L64.3355 295.238C65.0168 296.167 66.2816 296.34 67.1606 295.626L79.0607 285.956C79.9396 285.242 80.0998 283.911 79.4185 282.983L68.7336 268.428C68.0522 267.5 66.7874 267.327 65.9085 268.041Z" fill="#C0D474"/>
<path d="M63.4019 347.649C67.9089 347.649 71.5626 343.953 71.5626 339.394C71.5626 334.835 67.9089 331.139 63.4019 331.139C58.8949 331.139 55.2412 334.835 55.2412 339.394C55.2412 343.953 58.8949 347.649 63.4019 347.649Z" fill="#FBA18B"/>
<path d="M447.607 322.52L437.491 318.651C436.451 318.253 435.252 318.808 434.812 319.89L430.202 331.232C429.762 332.314 430.249 333.513 431.288 333.911L441.404 337.78C442.444 338.178 443.643 337.624 444.083 336.542L448.694 325.199C449.133 324.117 448.647 322.918 447.607 322.52Z" fill="#C0D474"/>
<path d="M458.137 284.815C457.773 283.261 459.299 281.94 460.848 282.466L475.468 287.431C476.981 287.944 477.384 289.844 476.198 290.871L465.014 300.557C463.828 301.585 461.929 300.982 461.573 299.465L458.137 284.815Z" fill="#99D9F4"/>
<path d="M464.839 334.526C465.629 333.239 467.395 333.239 468.185 334.526L474.212 344.345C475.083 345.765 474.129 347.65 472.539 347.65H460.485C458.895 347.65 457.94 345.765 458.812 344.345L464.839 334.526Z" fill="#A1B6ED"/>
<path d="M511.775 332.035L502.53 338.962C501.626 339.639 501.472 340.917 502.188 341.815L509.216 350.643C509.931 351.541 511.244 351.72 512.148 351.043L521.393 344.116C522.298 343.439 522.451 342.162 521.735 341.263L514.707 332.436C513.992 331.537 512.679 331.358 511.775 332.035Z" fill="#99D9F4"/>
<path d="M512.052 275.096L495.402 275.867C494.299 275.919 493.451 276.915 493.509 278.092L494.413 296.439C494.471 297.617 495.413 298.53 496.516 298.478L513.165 297.707C514.269 297.655 515.116 296.66 515.058 295.482L514.155 277.135C514.097 275.958 513.155 275.045 512.052 275.096Z" fill="#A1B6ED"/>
<path d="M492.042 326.186C496.93 326.186 500.893 322.49 500.893 317.931C500.893 313.372 496.93 309.676 492.042 309.676C487.154 309.676 483.191 313.372 483.191 317.931C483.191 322.49 487.154 326.186 492.042 326.186Z" fill="#FBA18B"/>
<path d="M13.4952 77.9481C13.269 76.5301 14.6434 75.373 16.1119 75.7449L32.7057 79.9474C34.3435 80.3621 34.8581 82.326 33.6053 83.3808L19.5675 95.1994C18.3147 96.2542 16.3033 95.5505 16.0511 93.9692L13.4952 77.9481Z" fill="#99D9F4"/>
<path d="M68.2778 31.2106L60.2324 24.5565C59.3592 23.8343 58.0205 23.9272 57.2422 24.7639L50.0968 32.4456C49.3185 33.2823 49.3955 34.546 50.2686 35.2681L58.3141 41.9222C59.1872 42.6443 60.526 42.5515 61.3042 41.7148L68.4496 34.0331C69.2279 33.1964 69.151 31.9327 68.2778 31.2106Z" fill="#99D9F4"/>
<path d="M55.2268 74.0284C54.8842 72.5192 56.3943 71.2478 57.946 71.7391L73.0502 76.5209C74.603 77.0125 75.0328 78.9004 73.8237 79.9184L62.0541 89.8274C60.8449 90.8454 58.9041 90.2297 58.5613 88.7193L55.2268 74.0284Z" fill="#C0D474"/>
<path d="M13.9897 15.8939C14.7825 14.6384 16.5139 14.6384 17.3067 15.8939L22.7142 24.4579C23.6095 25.8759 22.6577 27.786 21.0557 27.786H10.2407C8.63871 27.786 7.68687 25.8759 8.58223 24.4579L13.9897 15.8939Z" fill="#C0D474"/>
<path d="M103.995 13.3573L88.5373 14.0539C87.4337 14.1036 86.5874 15.0984 86.6471 16.2757L87.4806 32.7237C87.5403 33.901 88.4833 34.8151 89.5869 34.7654L105.045 34.0689C106.149 34.0191 106.995 33.0244 106.935 31.8471L106.102 15.3991C106.042 14.2217 105.099 13.3076 103.995 13.3573Z" fill="#A1B6ED"/>
<path d="M27.1947 55.6134C31.8008 55.6134 35.5348 52.2279 35.5348 48.0516C35.5348 43.8753 31.8008 40.4898 27.1947 40.4898C22.5885 40.4898 18.8545 43.8753 18.8545 48.0516C18.8545 52.2279 22.5885 55.6134 27.1947 55.6134Z" fill="#FBA18B"/>
<path d="M467.166 12.6433C466.818 11.0835 468.319 9.75897 469.848 10.2765L486.121 15.785C487.629 16.2955 488.034 18.2207 486.853 19.2631L474.281 30.3575C473.1 31.4 471.211 30.7848 470.868 29.2463L467.166 12.6433Z" fill="#C0D474"/>
<path d="M512.22 63.287C513.008 61.98 514.797 61.98 515.585 63.287L520.667 71.7235C521.523 73.1442 520.567 75.013 518.984 75.013H508.821C507.238 75.013 506.282 73.1442 507.138 71.7235L512.22 63.287Z" fill="#A1B6ED"/>
<path d="M451.015 41.5091C451.802 40.2022 453.592 40.2022 454.38 41.5091L459.462 49.9456C460.317 51.3664 459.362 53.2352 457.779 53.2352H447.615C446.033 53.2352 445.077 51.3664 445.933 49.9456L451.015 41.5091Z" fill="#99D9F4"/>
<path d="M506.711 10.9594C507.499 9.65237 509.289 9.65237 510.076 10.9594L515.158 19.3959C516.014 20.8166 515.058 22.6854 513.476 22.6854H503.312C501.729 22.6854 500.774 20.8166 501.629 19.3959L506.711 10.9594Z" fill="#99D9F4"/>
<path d="M434.783 12.4334L426.782 18.5412C425.884 19.227 425.729 20.517 426.436 21.4225L432.521 29.2096C433.229 30.1151 434.531 30.2931 435.429 29.6072L443.43 23.4994C444.329 22.8136 444.483 21.5235 443.776 20.6181L437.691 12.831C436.984 11.9255 435.682 11.7475 434.783 12.4334Z" fill="#99D9F4"/>
<path d="M497.719 30.9464L483.155 31.6343C482.052 31.6864 481.203 32.6832 481.26 33.8607L482.055 50.3082C482.112 51.4857 483.053 52.398 484.157 52.3458L498.72 51.658C499.824 51.6059 500.672 50.609 500.615 49.4315L499.82 32.9841C499.763 31.8066 498.823 30.8943 497.719 30.9464Z" fill="#A1B6ED"/>
<path d="M482.993 85.297C487.387 85.297 490.949 81.9115 490.949 77.7352C490.949 73.559 487.387 70.1734 482.993 70.1734C478.598 70.1734 475.036 73.559 475.036 77.7352C475.036 81.9115 478.598 85.297 482.993 85.297Z" fill="#FBA18B"/>
</g>
<defs>
<clipPath id="clip0_1175_282">
<rect width="524" height="364" fill="white"/>
</clipPath>
</defs>
</svg>
