<svg width="1230" height="1600" viewBox="0 0 1230 1600" fill="none" xmlns="http://www.w3.org/2000/svg">
<g clip-path="url(#clip0_485_113)">
<mask id="mask0_485_113" style="mask-type:luminance" maskUnits="userSpaceOnUse" x="0" y="0" width="1230" height="1600">
<path d="M1230 0H0V1600H1230V0Z" fill="white"/>
</mask>
<g mask="url(#mask0_485_113)">
<path d="M1230 0H0V1600H1230V0Z" fill="#0A53B5"/>
<path d="M511 964.538C511 1047.34 375.342 1114.47 208 1114.47C40.6577 1114.47 -95 1047.34 -95 964.538C-95 881.734 219.793 599.549 208 814.61C196.207 1029.67 511 881.734 511 964.538Z" fill="#93B413"/>
<path d="M127.33 414.506C-77.5461 498.643 -17.7907 474.103 -17.7907 474.103L-5.50016 170.884L54.7834 314.872L-176 168C-176 168 332.205 330.368 127.33 414.506Z" fill="#93B413"/>
<path d="M1332 391.5C1248.46 469.103 1260.99 548 1173.39 548C1085.79 548 1061.86 482.684 1008 414.134C1008 327.702 1085.79 235 1173.39 235C1260.99 235 1332 305.068 1332 391.5Z" fill="#93B413"/>
<path d="M775 248.826C727.111 248.826 708.471 327.652 626.403 327.652C544.335 327.652 396.112 327.652 477.805 248.826C559.499 170 544.335 170 626.403 170C708.471 170 775 205.292 775 248.826Z" fill="#3A9EB6"/>
<path d="M1145 829.923C1145 913.407 950.554 883.785 826.096 883.785C701.633 883.785 694.282 913.407 694.282 829.923C694.282 746.439 552.37 732.044 882.967 633.587C1213.56 535.129 1014.78 709.457 1145 829.923Z" fill="#3A9EB6"/>
<path d="M619 583.994C619 670.305 594.135 812.465 469.941 812.465C345.746 812.465 194.31 899.729 245.067 656.184C295.824 412.64 345.746 499.903 469.941 499.903C594.135 499.903 619 497.682 619 583.994Z" fill="#3A9EB6"/>
<path d="M1230 1297.53C1230 1398.49 1110.68 1359.74 1088.33 1556.51C1065.99 1753.28 902.988 1474.66 902.988 1373.7C902.988 1272.74 886.44 1178.2 988.801 1178.2C1091.16 1178.2 1230 1196.57 1230 1297.53Z" fill="#3A9EB6"/>
<path d="M446.883 1585.92C446.883 1750.7 346.397 1884.28 222.442 1884.28C98.4858 1884.28 -2 1750.7 -2 1585.92C-2 1421.14 224.227 1302.31 348.183 1302.31C472.139 1302.31 446.883 1421.14 446.883 1585.92Z" fill="#3A9EB6"/>
<path d="M868 1485.98C868 1704.1 779.259 1880.92 669.793 1880.92C560.326 1880.92 471.586 1704.1 471.586 1485.98C411.447 1083.13 549.738 1145.65 659.205 1145.65C822.683 1439.94 868 1267.86 868 1485.98Z" fill="#93B413"/>
<path d="M1109 1011.73C1109 1052.72 1046.09 1085.95 968.5 1085.95C890.907 1085.95 828 1052.72 828 1011.73C828 970.733 866.083 994.663 968.5 937.499C1070.92 880.337 1109 970.733 1109 1011.73Z" fill="#93B413"/>
</g>
</g>
<defs>
<clipPath id="clip0_485_113">
<rect width="1230" height="1600" fill="white"/>
</clipPath>
</defs>
</svg>
