<svg width="769" height="401" viewBox="0 0 769 401" fill="none" xmlns="http://www.w3.org/2000/svg">
<rect width="769" height="401" fill="#0A53B5"/>
<rect width="23.6824" height="23.1524" rx="5" transform="matrix(0.834631 0.55081 -0.758996 0.651095 89.0771 0)" fill="#99D9F4"/>
<path d="M137.433 54.758C139.435 52.2283 143.273 52.2283 145.275 54.758L151.11 62.1325C153.704 65.4105 151.37 70.2352 147.189 70.2352H135.518C131.338 70.2352 129.004 65.4105 131.598 62.1325L137.433 54.758Z" fill="#C0D474"/>
<ellipse cx="38.0246" cy="60.4448" rx="14.7092" ry="10.6417" fill="#FBA18B"/>
<path d="M99.1205 294.028C98.2064 290.664 102.112 287.847 106.147 288.961L127.584 294.876C131.615 295.988 132.751 300.188 129.631 302.439L113.05 314.397C109.93 316.648 104.891 315.262 103.977 311.901L99.1205 294.028Z" fill="#99D9F4"/>
<rect width="31.442" height="33.6598" rx="5" transform="matrix(0.848431 -0.529306 0.691077 0.722781 0 311.205)" fill="#A1B6ED"/>
<rect width="31.442" height="33.6598" rx="5" transform="matrix(0.848431 -0.529306 0.691077 0.722781 129.9 358.454)" fill="#C0D474"/>
<ellipse cx="64.95" cy="377.285" rx="14.4334" ry="11.2104" fill="#FBA18B"/>
<path d="M622.616 93.4939C624.617 90.9641 628.456 90.9641 630.457 93.4939L636.293 100.868C638.887 104.146 636.552 108.971 632.372 108.971H620.701C616.521 108.971 614.186 104.146 616.78 100.868L622.616 93.4939Z" fill="#A1B6ED"/>
<path d="M746.411 10.4886C748.412 7.95885 752.251 7.95885 754.252 10.4886L760.088 17.8631C762.682 21.1411 760.347 25.9658 756.167 25.9658H744.496C740.316 25.9658 737.981 21.1411 740.575 17.8631L746.411 10.4886Z" fill="#99D9F4"/>
<rect width="34.3334" height="29.206" rx="5" transform="matrix(0.999354 -0.0359317 0.0633829 0.997989 592.323 19.1117)" fill="#A1B6ED"/>
<ellipse cx="725.831" cy="102.16" rx="14.7092" ry="10.6417" fill="#FBA18B"/>
<rect width="23.7575" height="23.0595" rx="5" transform="matrix(0.952838 0.303479 -0.438663 0.898652 738.446 315.846)" fill="#C0D474"/>
<path d="M589.468 371.342C588.513 367.953 592.464 365.104 596.525 366.252L613.465 371.043C617.468 372.175 618.578 376.354 615.472 378.595L602.513 387.941C599.406 390.182 594.39 388.819 593.449 385.479L589.468 371.342Z" fill="#99D9F4"/>
<path d="M642.286 284.915C642.286 291.106 635.824 296.125 627.852 296.125C619.881 296.125 613.419 291.106 613.419 284.915C613.419 278.724 619.881 273.704 627.852 273.704C635.824 273.704 642.286 278.724 642.286 284.915Z" fill="#FBA18B"/>
</svg>
