<svg width="769" height="824" viewBox="0 0 769 824" fill="none" xmlns="http://www.w3.org/2000/svg">
<rect width="769" height="824" fill="#0A53B5"/>
<rect width="32.0614" height="34.5239" rx="5" transform="matrix(0.568142 0.822931 -0.469068 0.883162 79.6328 0)" fill="#99D9F4"/>
<path d="M122.987 114.073C124.586 109.693 130.78 109.693 132.38 114.073L140.236 135.58C141.427 138.842 139.012 142.296 135.539 142.296H119.827C116.354 142.296 113.939 138.842 115.131 135.58L122.987 114.073Z" fill="#C0D474"/>
<ellipse cx="32.7862" cy="122.648" rx="13.5948" ry="21.4335" fill="#FBA18B"/>
<path d="M79.674 649.702C79.0716 644.992 81.8389 640.751 84.4977 642.31L104.651 654.124C107.157 655.594 107.693 661.181 105.631 664.341L90.044 688.226C87.9819 691.386 84.8077 689.841 84.2399 685.402L79.674 649.702Z" fill="#99D9F4"/>
<rect width="35.7162" height="45.7066" rx="5" transform="matrix(0.602256 -0.798303 0.410373 0.911918 0 681.057)" fill="#A1B6ED"/>
<rect width="35.7162" height="45.7066" rx="5" transform="matrix(0.602256 -0.798303 0.410373 0.911918 104.742 762.006)" fill="#C0D474"/>
<ellipse cx="52.3726" cy="794.267" rx="11.6383" ry="19.206" fill="#FBA18B"/>
<path d="M648.877 174.649C650.498 170.319 656.622 170.319 658.242 174.649L664.107 190.315C665.331 193.584 662.914 197.068 659.424 197.068H647.695C644.205 197.068 641.789 193.584 643.013 190.315L648.877 174.649Z" fill="#A1B6ED"/>
<path d="M748.992 32.7521C750.613 28.4227 756.737 28.4227 758.358 32.7521L764.222 48.4188C765.446 51.6871 763.03 55.1717 759.54 55.1717H747.81C744.321 55.1717 741.904 51.6871 743.128 48.4187L748.992 32.7521Z" fill="#99D9F4"/>
<rect width="27.827" height="49.8496" rx="5" transform="matrix(0.997182 -0.0750161 0.0303406 0.99954 625.894 43.4535)" fill="#A1B6ED"/>
<ellipse cx="733.862" cy="185.425" rx="11.8953" ry="18.192" fill="#FBA18B"/>
<rect width="20.7502" height="34.5847" rx="5" transform="matrix(0.824718 0.565543 -0.221108 0.975249 751.886 685.399)" fill="#C0D474"/>
<path d="M639.097 774.467C638.475 769.71 641.248 765.403 643.896 767.015L658.769 776.071C661.231 777.57 661.744 783.147 659.711 786.305L648.333 803.972C646.299 807.13 643.171 805.614 642.592 801.19L639.097 774.467Z" fill="#99D9F4"/>
<path d="M679.192 635.056C679.192 645.133 674.307 653.302 668.28 653.302C662.254 653.302 657.369 645.133 657.369 635.056C657.369 624.978 662.254 616.809 668.28 616.809C674.307 616.809 679.192 624.978 679.192 635.056Z" fill="#FBA18B"/>
</svg>
