<svg width="769" height="450" viewBox="0 0 769 450" fill="none" xmlns="http://www.w3.org/2000/svg">
<rect width="769" height="450" fill="#0A53B5"/>
<rect width="24.5963" height="24.3918" rx="5" transform="matrix(0.803617 0.595147 -0.72043 0.693528 89.0771 0)" fill="#99D9F4"/>
<path d="M137.268 61.6845C139.26 58.8598 143.448 58.8598 145.44 61.6846L151.965 70.937C154.3 74.2493 151.931 78.8184 147.878 78.8184H134.83C130.777 78.8184 128.408 74.2493 130.743 70.937L137.268 61.6845Z" fill="#C0D474"/>
<ellipse cx="38.0246" cy="67.8317" rx="14.7092" ry="11.9421" fill="#FBA18B"/>
<path d="M99.0411 329.629C98.1678 326.023 101.942 322.968 105.796 324.162L128.098 331.067C131.912 332.248 132.946 336.712 129.965 339.125L112.716 353.086C109.735 355.499 104.958 354.063 104.094 350.495L99.0411 329.629Z" fill="#99D9F4"/>
<rect width="32.5641" height="35.8674" rx="5" transform="matrix(0.819194 -0.573516 0.648542 0.761178 0 349.232)" fill="#A1B6ED"/>
<rect width="32.5641" height="35.8674" rx="5" transform="matrix(0.819194 -0.573516 0.648542 0.761178 129.9 402.254)" fill="#C0D474"/>
<ellipse cx="64.95" cy="423.387" rx="14.4334" ry="12.5802" fill="#FBA18B"/>
<path d="M622.45 105.152C624.442 102.328 628.631 102.328 630.623 105.152L637.147 114.405C639.483 117.717 637.114 122.286 633.061 122.286H620.012C615.959 122.286 613.59 117.717 615.926 114.405L622.45 105.152Z" fill="#A1B6ED"/>
<path d="M746.245 12.0054C748.237 9.18056 752.426 9.18056 754.418 12.0054L760.942 21.2578C763.278 24.5701 760.909 29.1392 756.856 29.1392H743.807C739.754 29.1392 737.385 24.5701 739.721 21.2578L746.245 12.0054Z" fill="#99D9F4"/>
<rect width="34.3391" height="32.7613" rx="5" transform="matrix(0.999187 -0.0403156 0.0565046 0.998402 592.323 21.4473)" fill="#A1B6ED"/>
<ellipse cx="725.831" cy="114.643" rx="14.7092" ry="11.9421" fill="#FBA18B"/>
<rect width="24.0395" height="25.3594" rx="5" transform="matrix(0.941659 0.336567 -0.39888 0.917003 738.446 354.44)" fill="#C0D474"/>
<path d="M589.384 416.384C588.472 412.752 592.29 409.662 596.168 410.893L613.973 416.544C617.761 417.746 618.771 422.188 615.802 424.59L602.182 435.614C599.214 438.016 594.458 436.606 593.568 433.059L589.384 416.384Z" fill="#99D9F4"/>
<path d="M642.286 319.73C642.286 326.677 635.824 332.31 627.852 332.31C619.881 332.31 613.419 326.677 613.419 319.73C613.419 312.782 619.881 307.149 627.852 307.149C635.824 307.149 642.286 312.782 642.286 319.73Z" fill="#FBA18B"/>
</svg>
