<svg width="769" height="350" viewBox="0 0 769 350" fill="none" xmlns="http://www.w3.org/2000/svg">
<rect width="769" height="350" fill="#0A53B5"/>
<rect width="22.8106" height="21.9524" rx="5" transform="matrix(0.866527 0.499129 -0.800486 0.599352 89.0771 0)" fill="#99D9F4"/>
<path d="M137.65 47.5548C139.634 45.3659 143.074 45.3659 145.058 47.5548L149.944 52.9441C152.858 56.1576 150.577 61.3025 146.24 61.3025H136.468C132.13 61.3025 129.85 56.1576 132.764 52.9441L137.65 47.5548Z" fill="#C0D474"/>
<ellipse cx="38.0246" cy="52.7573" rx="14.7092" ry="9.28827" fill="#FBA18B"/>
<path d="M99.2022 256.896C98.2451 253.821 102.283 251.279 106.508 252.297L127.021 257.237C131.287 258.264 132.541 262.142 129.273 264.199L113.408 274.187C110.14 276.244 104.816 274.927 103.85 271.823L99.2022 256.896Z" fill="#99D9F4"/>
<rect width="30.3748" height="31.4961" rx="5" transform="matrix(0.87824 -0.47822 0.738553 0.674195 0 271.625)" fill="#A1B6ED"/>
<rect width="30.3748" height="31.4961" rx="5" transform="matrix(0.87824 -0.47822 0.738553 0.674195 129.9 312.865)" fill="#C0D474"/>
<ellipse cx="64.95" cy="329.301" rx="14.4334" ry="9.78461" fill="#FBA18B"/>
<path d="M622.832 81.3642C624.817 79.1754 628.256 79.1754 630.241 81.3642L635.127 86.7536C638.04 89.967 635.76 95.1119 631.423 95.1119H621.65C617.313 95.1119 615.033 89.967 617.946 86.7536L622.832 81.3642Z" fill="#A1B6ED"/>
<path d="M746.627 8.91576C748.612 6.72688 752.051 6.72688 754.036 8.91576L758.922 14.3051C761.835 17.5185 759.555 22.6634 755.218 22.6634H745.445C741.108 22.6634 738.828 17.5185 741.741 14.3051L746.627 8.91576Z" fill="#99D9F4"/>
<rect width="34.3281" height="25.5075" rx="5" transform="matrix(0.999508 -0.0313666 0.0725731 0.997363 592.323 16.6809)" fill="#A1B6ED"/>
<ellipse cx="725.831" cy="89.1673" rx="14.7092" ry="9.28827" fill="#FBA18B"/>
<rect width="23.4955" height="20.7234" rx="5" transform="matrix(0.963464 0.267836 -0.488113 0.87278 738.446 275.676)" fill="#C0D474"/>
<path d="M589.554 324.382C588.554 321.284 592.64 318.712 596.892 319.762L612.909 323.715C617.145 324.761 618.371 328.619 615.118 330.667L602.866 338.38C599.613 340.428 594.314 339.133 593.318 336.048L589.554 324.382Z" fill="#99D9F4"/>
<path d="M642.286 248.679C642.286 254.083 635.824 258.464 627.852 258.464C619.881 258.464 613.419 254.083 613.419 248.679C613.419 243.275 619.881 238.894 627.852 238.894C635.824 238.894 642.286 243.275 642.286 248.679Z" fill="#FBA18B"/>
</svg>
