<svg width="769" height="630" viewBox="0 0 769 630" fill="none" xmlns="http://www.w3.org/2000/svg">
<rect width="769" height="630" fill="#0A53B5"/>
<rect width="27.1796" height="28.3845" rx="5" transform="matrix(0.670187 0.742192 -0.570524 0.821281 79.6328 0)" fill="#99D9F4"/>
<path d="M123.172 86.8293C124.984 83.0365 130.383 83.0365 132.195 86.8293L139.27 101.639C140.856 104.958 138.436 108.795 134.759 108.795H120.608C116.93 108.795 114.511 104.958 116.096 101.639L123.172 86.8293Z" fill="#C0D474"/>
<ellipse cx="32.7862" cy="93.773" rx="13.5948" ry="16.3873" fill="#FBA18B"/>
<path d="M79.9298 498.268C79.2086 493.957 82.4438 490.166 85.6268 491.593L103.396 499.558C106.453 500.927 107.174 506.123 104.709 509.011L90.9658 525.113C88.5008 528.001 84.6482 526.474 83.9557 522.334L79.9298 498.268Z" fill="#99D9F4"/>
<rect width="30.6253" height="36.9777" rx="5" transform="matrix(0.702369 -0.711813 0.507245 0.861802 0 520.712)" fill="#A1B6ED"/>
<rect width="30.6253" height="36.9777" rx="5" transform="matrix(0.702369 -0.711813 0.507245 0.861802 104.742 582.602)" fill="#C0D474"/>
<ellipse cx="52.3726" cy="607.267" rx="11.6383" ry="14.6842" fill="#FBA18B"/>
<path d="M649.069 133.138C650.898 129.403 656.222 129.403 658.05 133.138L663.11 143.473C664.737 146.795 662.319 150.671 658.62 150.671H648.5C644.801 150.671 642.383 146.795 644.009 143.473L649.069 133.138Z" fill="#A1B6ED"/>
<path d="M749.184 24.6494C751.013 20.9143 756.337 20.9143 758.166 24.6494L763.226 34.984C764.852 38.3059 762.434 42.1827 758.735 42.1827H748.615C744.916 42.1827 742.498 38.3059 744.124 34.984L749.184 24.6494Z" fill="#99D9F4"/>
<rect width="27.7944" height="38.1256" rx="5" transform="matrix(0.99835 -0.0574217 0.0396706 0.999213 625.894 33.2231)" fill="#A1B6ED"/>
<ellipse cx="733.862" cy="141.769" rx="11.8953" ry="13.9089" fill="#FBA18B"/>
<rect width="19.3225" height="26.8977" rx="5" transform="matrix(0.885656 0.464343 -0.284299 0.958736 751.886 524.03)" fill="#C0D474"/>
<path d="M639.367 593.708C638.621 589.346 641.87 585.489 645.045 586.967L657.533 592.78C660.54 594.18 661.233 599.372 658.798 602.263L649.245 613.605C646.811 616.495 643.009 614.994 642.302 610.863L639.367 593.708Z" fill="#99D9F4"/>
<path d="M679.192 485.54C679.192 493.245 674.307 499.49 668.28 499.49C662.254 499.49 657.369 493.245 657.369 485.54C657.369 477.835 662.254 471.589 668.28 471.589C674.307 471.589 679.192 477.835 679.192 485.54Z" fill="#FBA18B"/>
</svg>
