<svg width="583" height="557" viewBox="0 0 583 557" fill="none" xmlns="http://www.w3.org/2000/svg">
<rect width="583" height="556.962" fill="#0A53B5"/>
<rect width="18.234" height="23.325" rx="2" transform="matrix(0.906519 0.422165 -0.316664 0.948538 475.568 490.207)" fill="#C0D474"/>
<path d="M502.145 440.902C501.825 439.24 503.202 437.788 504.564 438.351L524.168 446.457C525.469 446.995 525.783 448.989 524.74 450.089L509.743 465.904C508.699 467.004 507.058 466.411 506.752 464.823L502.145 440.902Z" fill="#99D9F4"/>
<path d="M510.58 513.857C511.32 512.391 513.413 512.391 514.152 513.857L522.489 530.395C523.159 531.725 522.193 533.295 520.703 533.295H504.03C502.54 533.295 501.573 531.725 502.244 530.395L510.58 513.857Z" fill="#A1B6ED"/>
<rect width="20.1783" height="20.9278" rx="2" transform="matrix(0.738799 -0.673926 0.547293 0.836941 553.307 522.477)" fill="#99D9F4"/>
<rect width="24.6232" height="32.8092" rx="2" transform="matrix(0.998411 -0.0563497 0.0404265 0.999183 544.389 429.356)" fill="#A1B6ED"/>
<path d="M14.3929 511.221C14.1622 509.57 15.3979 508.153 16.6487 508.633L40.4501 517.783C41.7347 518.277 42.0699 520.392 41.0493 521.562L21.6377 543.832C20.6171 545.003 19.0197 544.337 18.7828 542.641L14.3929 511.221Z" fill="#99D9F4"/>
<path d="M39.6078 448.471C39.3156 446.761 40.6236 445.261 41.913 445.827L62.7486 454.971C63.9888 455.516 64.2839 457.579 63.2855 458.725L47.1704 477.213C46.172 478.358 44.6093 477.748 44.3283 476.104L39.6078 448.471Z" fill="#99D9F4"/>
<path d="M114.438 509.922C115.154 508.377 117.351 508.377 118.068 509.922L125.585 526.145C126.199 527.471 125.231 528.986 123.77 528.986H108.735C107.275 528.986 106.307 527.471 106.921 526.145L114.438 509.922Z" fill="#C0D474"/>
<rect width="25.2252" height="30.3061" rx="2" transform="matrix(0.70981 -0.704393 0.515181 0.857082 0 455.737)" fill="#A1B6ED"/>
<rect width="25.2252" height="30.3061" rx="2" transform="matrix(0.70981 -0.704393 0.515181 0.857082 62.2246 433.768)" fill="#C0D474"/>
<ellipse cx="75.2658" cy="521.326" rx="9.68766" ry="11.9689" fill="#FBA18B"/>
<ellipse cx="542.768" cy="490.207" rx="10.5392" ry="11.9689" fill="#FBA18B"/>
<path d="M506.05 17.1255C505.728 15.5367 507.142 14.1653 508.559 14.6924L533.41 23.9366C534.789 24.4497 535.139 26.3874 534.043 27.4497L514.845 46.0679C513.75 47.1301 512.016 46.5344 511.703 44.9879L506.05 17.1255Z" fill="#C0D474"/>
<path d="M567.631 92.8276C568.39 91.4427 570.379 91.4427 571.138 92.8276L579.553 108.178C580.283 109.51 579.319 111.139 577.799 111.139H560.97C559.45 111.139 558.485 109.51 559.216 108.178L567.631 92.8276Z" fill="#A1B6ED"/>
<path d="M485.11 60.5614C485.87 59.1766 487.859 59.1766 488.618 60.5614L497.033 75.9115C497.763 77.2443 496.799 78.8729 495.279 78.8729H478.45C476.93 78.8729 475.965 77.2443 476.696 75.9115L485.11 60.5614Z" fill="#99D9F4"/>
<path d="M560.204 15.2991C560.963 13.9142 562.953 13.9142 563.712 15.2991L572.126 30.6491C572.857 31.982 571.892 33.6105 570.372 33.6105H553.544C552.024 33.6105 551.059 31.982 551.79 30.6491L560.204 15.2991Z" fill="#99D9F4"/>
<rect width="19.8062" height="20.1178" rx="2" transform="matrix(0.766132 -0.642684 0.579505 0.814968 449.732 29.3103)" fill="#99D9F4"/>
<rect width="25.0572" height="30.7159" rx="2" transform="matrix(0.998656 -0.051833 0.0439535 0.999034 525.236 47.0091)" fill="#A1B6ED"/>
<path d="M13.8533 103.698C13.6572 102.141 14.8833 100.834 16.1561 101.242L37.7426 108.166C39.1239 108.609 39.5173 110.707 38.4355 111.861L20.1739 131.335C19.092 132.488 17.391 131.785 17.1782 130.096L13.8533 103.698Z" fill="#99D9F4"/>
<rect width="18.986" height="19.6902" rx="2" transform="matrix(0.6905 0.723333 -0.591919 0.805998 66.8135 23.7513)" fill="#99D9F4"/>
<path d="M62.5813 97.7337C62.2854 96.083 63.6299 94.6493 64.9699 95.1866L84.8236 103.148C86.1314 103.672 86.4556 105.691 85.411 106.805L69.9403 123.302C68.8957 124.416 67.253 123.804 66.9643 122.192L62.5813 97.7337Z" fill="#C0D474"/>
<path d="M14.7205 12.5531C15.4567 11.0762 17.564 11.0762 18.3003 12.5531L25.792 27.5811C26.4549 28.9108 25.4878 30.4734 24.0021 30.4734H9.01864C7.53292 30.4734 6.56587 28.9108 7.22873 27.5811L14.7205 12.5531Z" fill="#C0D474"/>
<rect width="22.7939" height="30.7107" rx="2" transform="matrix(0.998375 -0.0569795 0.039979 0.999201 99.4346 10.2615)" fill="#A1B6ED"/>
<ellipse cx="30.0186" cy="60.499" rx="9.75587" ry="11.2035" fill="#FBA18B"/>
<ellipse cx="527.713" cy="115.172" rx="10.7275" ry="11.2035" fill="#FBA18B"/>
</svg>
